<svg width="47" height="48" viewBox="0 0 47 48" fill="none" xmlns="http://www.w3.org/2000/svg">
<path d="M23.8831 19.1938V28.8057" stroke="#FB813E" stroke-width="3" stroke-linecap="round"/>
<path d="M28.6889 23.9998H19.0771" stroke="#FB813E" stroke-width="3" stroke-linecap="round"/>
<path d="M45.1617 23.9998V10.7996C45.1617 5.93944 41.2218 1.99951 36.3616 1.99951H10.6827C5.82252 1.99951 1.88257 5.93944 1.88257 10.7996V37.2C1.88257 42.06 5.82252 45.9999 10.6827 45.9999H23.5223" stroke="#4E1AC7" stroke-width="3" stroke-linecap="round"/>
<path d="M45.0171 33.3348L40.3213 28.5609C39.8452 28.0767 39.073 28.0767 38.5967 28.5609L29.5655 37.7426C29.304 38.0085 29.1753 38.3805 29.2155 38.7543L29.7319 43.552C29.7632 43.841 29.9875 44.0692 30.2719 44.1007L34.9908 44.6258C35.3584 44.6667 35.7243 44.5359 35.9859 44.2702L45.0171 35.0883C45.4934 34.6041 45.4934 33.8191 45.0171 33.3348Z" stroke="#FB813E" stroke-width="3" stroke-linecap="round"/>
</svg>
