<svg width="50" height="51" viewBox="0 0 50 51" fill="none" xmlns="http://www.w3.org/2000/svg">
<path d="M16.9187 23.9086L14.2404 24.2488C13.2174 24.3787 12.4935 25.3133 12.6234 26.3362L15.4886 48.8935C15.6185 49.9164 16.5531 50.6403 17.576 50.5104L20.2544 50.1702C21.2773 50.0403 22.0012 49.1057 21.8713 48.0828L19.0062 25.5255C18.8762 24.5025 17.9417 23.7786 16.9187 23.9086Z" fill="#4E1AC7"/>
<path d="M9.99834 14.1855L9.17974 14.2895C4.10991 14.9334 0.522025 19.5654 1.16597 24.6352L1.16601 24.6355C1.80996 29.7053 6.4419 33.2932 11.5117 32.6492L12.3303 32.5453C17.4002 31.9013 20.988 27.2694 20.3441 22.1996L20.3441 22.1993C19.7001 17.1294 15.0682 13.5415 9.99834 14.1855Z" fill="#FB813E"/>
<path d="M40.6238 25.3591L38.8541 26.1197L37.3667 14.3802L39.2155 14.5223C39.2976 16.1877 39.4517 17.9426 39.6805 19.7519C39.9297 21.7188 40.2497 23.6036 40.6238 25.3591Z" fill="#4E1AC7"/>
<path d="M46.0301 18.9476C46.3221 21.2525 46.0773 23.1817 45.4848 23.2581C45.4153 23.2602 45.3463 23.2461 45.2832 23.2169C45.22 23.1878 45.1646 23.1444 45.1211 23.0901C44.6239 22.5941 44.1172 21.0671 43.8837 19.2225C43.6664 17.5101 43.7458 16.0043 44.0449 15.3126C44.1476 15.0746 44.2767 14.9335 44.4287 14.9143C45.0198 14.8364 45.7381 16.6435 46.0301 18.9476Z" fill="#4E1AC7"/>
<path d="M39.6835 19.7897L39.679 19.7514C38.7307 12.267 40.0628 4.25264 41.3708 1.23645C36.5583 5.72413 29.6414 10.2168 23.2506 11.8903C20.6717 12.5655 17.5267 13.1477 12.7612 13.7458L15.1193 32.3573C19.8836 31.7479 23.0743 31.5277 25.7401 31.5383C32.3461 31.5649 40.1665 34.1899 45.9447 37.336C43.927 34.7411 40.6371 27.3125 39.6888 19.8281L39.6835 19.7897Z" fill="#FB813E"/>
<path d="M19.0427 11.9645L9.17894 13.2143C8.8072 13.2614 8.54404 13.6009 8.59114 13.9726L11.0152 33.1049C11.0623 33.4766 11.4019 33.7398 11.7736 33.6927L21.6373 32.4429C22.009 32.3958 22.2722 32.0563 22.2251 31.6846L19.801 12.5523C19.7539 12.1806 19.4144 11.9174 19.0427 11.9645Z" fill="#4E1AC7"/>
<path d="M19.0427 11.9645L9.17894 13.2143C8.8072 13.2614 8.54404 13.6009 8.59114 13.9726L11.0152 33.1049C11.0623 33.4766 11.4019 33.7398 11.7736 33.6927L21.6373 32.4429C22.009 32.3958 22.2722 32.0563 22.2251 31.6846L19.801 12.5523C19.7539 12.1806 19.4144 11.9174 19.0427 11.9645Z" fill="white" fill-opacity="0.2"/>
<path d="M49.0628 18.5627C50.3382 28.6305 49.2694 37.0546 46.6813 37.3826C46.1656 37.4482 45.6291 37.1884 45.0932 36.6487C45.0903 36.6487 45.09 36.646 45.087 36.6466C42.915 34.4792 40.7027 27.8103 39.6818 19.7514C38.7334 12.267 39.0798 5.69107 40.3865 2.67488C40.8356 1.63503 41.3977 1.01857 42.0632 0.934426C44.6519 0.606412 47.7876 8.49852 49.0628 18.5627Z" fill="#FB813E"/>
<path opacity="0.3" d="M49.0628 18.5627C50.3382 28.6305 49.2694 37.0546 46.6813 37.3826C46.1656 37.4482 45.6291 37.1884 45.0932 36.6487C45.0903 36.6487 45.09 36.646 45.087 36.6466C42.915 34.4792 40.7027 27.8103 39.6818 19.7514C38.7334 12.267 39.0798 5.69107 40.3865 2.67488C40.8356 1.63503 41.3977 1.01857 42.0632 0.934426C44.6519 0.606412 47.7876 8.49852 49.0628 18.5627Z" fill="black"/>
<path opacity="0.6" d="M44.4292 14.9227L45.4868 23.268L40.6227 25.359C40.2486 23.6034 39.9285 21.7186 39.6794 19.7517C39.4503 17.9425 39.2955 16.1876 39.2144 14.5221L44.4292 14.9227Z" fill="white"/>
<path d="M46.0301 18.9476C46.3221 21.2525 46.0773 23.1817 45.4848 23.2581C45.4153 23.2602 45.3463 23.2461 45.2832 23.2169C45.22 23.1878 45.1646 23.1444 45.1211 23.0901C44.6239 22.5941 44.1172 21.0671 43.8837 19.2225C43.6664 17.5101 43.7458 16.0043 44.0449 15.3126C44.1476 15.0746 44.2767 14.9335 44.4287 14.9143C45.0198 14.8364 45.7381 16.6435 46.0301 18.9476Z" fill="white"/>
</svg>
