<svg width="300" height="260" viewBox="0 0 300 260" fill="none" xmlns="http://www.w3.org/2000/svg">
<path opacity="0.1" d="M276.826 171.352C269.834 136.093 228.87 107.913 220.88 71.1713C206.359 24.4253 158.496 17.0347 127.394 37.3365C78.1122 69.5049 130.686 77.4877 34.0602 153.596C10.2012 172.389 17.8037 255.344 92.8628 236.306C133.256 226.061 145.536 224.623 163.705 222.936C209.501 218.684 288.563 230.539 276.826 171.352Z" fill="#4E1AC7"/>
<path d="M211.145 173.681L151.343 205.265L91.6318 173.681V125.986H211.145V173.681Z" fill="white"/>
<path d="M151.343 205.75C151.264 205.75 151.186 205.731 151.116 205.693L91.407 174.109C91.3294 174.068 91.2644 174.007 91.2189 173.932C91.1734 173.857 91.1492 173.77 91.1489 173.683V125.986C91.1489 125.858 91.2 125.735 91.2908 125.644C91.3817 125.553 91.5049 125.502 91.6334 125.502H211.145C211.273 125.502 211.396 125.553 211.487 125.644C211.578 125.735 211.629 125.858 211.629 125.986V173.681C211.629 173.769 211.605 173.855 211.559 173.93C211.514 174.005 211.449 174.066 211.371 174.107L151.569 205.692C151.5 205.73 151.422 205.749 151.343 205.75ZM92.1162 173.39L151.343 204.718L210.66 173.389V126.471H92.1162V173.39Z" fill="#1F1625"/>
<path d="M211.144 115.752L151.343 84.1681L178.215 71.2153L238.017 102.8L211.144 115.752Z" fill="white"/>
<path d="M211.144 116.237C211.065 116.237 210.988 116.217 210.918 116.181L151.116 84.5961C151.037 84.5542 150.971 84.4911 150.926 84.4139C150.88 84.3367 150.857 84.2483 150.858 84.1587C150.86 84.0691 150.887 83.9817 150.935 83.9062C150.983 83.8307 151.052 83.7701 151.132 83.7311L178.005 70.7783C178.073 70.7452 178.148 70.7286 178.224 70.7301C178.3 70.7315 178.375 70.7508 178.442 70.7864L238.243 102.371C238.322 102.413 238.388 102.476 238.434 102.553C238.48 102.63 238.503 102.719 238.501 102.808C238.499 102.898 238.473 102.985 238.425 103.061C238.376 103.136 238.308 103.197 238.227 103.236L211.355 116.189C211.289 116.22 211.217 116.237 211.144 116.237ZM152.417 84.1869L211.154 115.209L236.942 102.779L178.205 71.758L152.417 84.1869Z" fill="#1F1625"/>
<path d="M91.6318 115.752L151.433 84.1681L124.561 71.2153L64.7593 102.8L91.6318 115.752Z" fill="white"/>
<path d="M91.6317 116.237C91.5589 116.237 91.4869 116.22 91.4213 116.189L64.5503 103.236C64.4696 103.197 64.4013 103.136 64.3529 103.061C64.3046 102.985 64.2781 102.898 64.2764 102.808C64.2748 102.719 64.298 102.63 64.3436 102.553C64.3891 102.476 64.4552 102.413 64.5344 102.371L124.336 70.7864C124.403 70.7508 124.478 70.7315 124.553 70.7301C124.629 70.7286 124.704 70.7452 124.773 70.7783L151.645 83.7311C151.726 83.7701 151.794 83.8307 151.843 83.9062C151.891 83.9817 151.917 84.0691 151.919 84.1587C151.921 84.2483 151.897 84.3367 151.852 84.4139C151.806 84.4911 151.74 84.5542 151.661 84.5961L91.8596 116.181C91.7894 116.218 91.7111 116.237 91.6317 116.237ZM65.8339 102.78L91.6217 115.21L150.359 84.1876L124.571 71.758L65.8339 102.78Z" fill="#1F1625"/>
<path d="M91.6317 115.752L151.433 147.337L120.685 164.165L60.8838 132.581L91.6317 115.752Z" fill="white"/>
<path d="M120.685 164.649C120.606 164.649 120.529 164.63 120.459 164.593L60.6574 133.008C60.5802 132.967 60.5155 132.906 60.4701 132.832C60.4248 132.757 60.4006 132.671 60.3999 132.584C60.3993 132.497 60.4223 132.411 60.4665 132.335C60.5108 132.26 60.5746 132.198 60.6512 132.156L91.3991 115.328C91.4693 115.289 91.548 115.269 91.6281 115.268C91.7082 115.268 91.7872 115.287 91.858 115.325L151.66 146.909C151.737 146.95 151.801 147.011 151.847 147.086C151.892 147.161 151.916 147.246 151.917 147.334C151.918 147.421 151.895 147.507 151.85 147.582C151.806 147.658 151.742 147.72 151.666 147.762L120.918 164.59C120.846 164.629 120.767 164.649 120.685 164.649ZM61.9068 132.573L120.681 163.615L150.41 147.344L91.6359 116.302L61.9068 132.573Z" fill="#1F1625"/>
<path d="M211.144 115.752L151.343 147.337L182.091 164.165L241.892 132.581L211.144 115.752Z" fill="white"/>
<path d="M182.092 164.649C182.01 164.649 181.93 164.629 181.859 164.59L151.111 147.762C151.035 147.72 150.971 147.658 150.926 147.582C150.882 147.507 150.859 147.421 150.86 147.334C150.861 147.246 150.885 147.161 150.93 147.086C150.975 147.011 151.04 146.95 151.117 146.909L210.919 115.325C210.99 115.287 211.069 115.268 211.149 115.268C211.229 115.269 211.308 115.289 211.378 115.328L242.126 132.156C242.202 132.198 242.266 132.26 242.31 132.335C242.355 132.411 242.378 132.497 242.377 132.584C242.376 132.671 242.352 132.757 242.307 132.832C242.261 132.906 242.197 132.967 242.119 133.008L182.318 164.593C182.248 164.63 182.17 164.649 182.092 164.649ZM152.367 147.344L182.096 163.615L240.871 132.573L211.141 116.302L152.367 147.344Z" fill="#1F1625"/>
<path d="M151.433 84.168L91.6318 115.752L151.343 147.337L211.145 115.752L151.433 84.168Z" fill="#1F1625"/>
<path d="M151.827 147.337H150.858V205.266H151.827V147.337Z" fill="#1F1625"/>
<path d="M111.677 108.228C111.582 108.228 111.489 108.198 111.412 108.143C111.313 108.073 111.245 107.966 111.225 107.846C111.205 107.726 111.233 107.603 111.303 107.504C111.388 107.384 119.678 95.3988 110.423 84.4725C108.785 82.5286 106.742 80.9664 104.436 79.8954C102.131 78.8244 99.6191 78.2706 97.0771 78.2727H96.9523C97.8312 81.3258 97.6743 84.0404 96.4299 86.1229C95.8996 87.0639 95.1171 87.8382 94.1705 88.3585C93.2239 88.8788 92.1509 89.1245 91.0722 89.0678C90.1793 88.9947 89.3271 88.6627 88.62 88.1126C87.9129 87.5625 87.3816 86.8181 87.0911 85.9706C86.0733 83.3156 87.137 80.7414 89.9406 79.0823C91.7167 78.1028 93.6902 77.5352 95.7152 77.4213C95.0564 75.6747 94.1998 74.0093 93.1621 72.4577C89.8204 67.3541 83.7302 63.8212 76.4524 62.7648C70.2847 61.8699 64.3738 62.924 61.3918 65.4496C61.2989 65.5282 61.1786 65.5667 61.0574 65.5566C60.9361 65.5464 60.8239 65.4886 60.7453 65.3957C60.6667 65.3028 60.6282 65.1825 60.6383 65.0613C60.6484 64.94 60.7063 64.8278 60.7992 64.7492C63.9725 62.0616 70.1682 60.9254 76.5841 61.8593C84.1219 62.9538 90.4438 66.634 93.9299 71.9572C95.0601 73.6455 95.9795 75.4657 96.6675 77.3773C99.4097 77.3114 102.132 77.8616 104.633 78.9873C107.135 80.113 109.352 81.7855 111.121 83.8817C120.842 95.358 112.138 107.911 112.049 108.037C112.006 108.096 111.95 108.144 111.886 108.177C111.821 108.21 111.749 108.228 111.677 108.228ZM96.0129 78.3061C94.0496 78.3899 92.1321 78.9258 90.4098 79.8722C87.9897 81.3042 87.0934 83.4078 87.9498 85.6426C88.1819 86.3274 88.6085 86.9297 89.1774 87.3758C89.7464 87.8219 90.433 88.0925 91.1534 88.1545C92.0604 88.1951 92.9608 87.9827 93.7539 87.5408C94.5471 87.099 95.2017 86.4453 95.6446 85.6527C96.7867 83.7399 96.8913 81.1974 96.0115 78.3061H96.0129Z" fill="#41324C"/>
<path d="M53.4746 72.8455C52.6951 73.0797 51.855 73.0003 51.1331 72.6243C50.4112 72.2483 49.8647 71.6054 49.6098 70.8324C49.3549 70.0595 49.4118 69.2175 49.7684 68.4859C50.1249 67.7542 50.7531 67.1907 51.5189 66.9153C52.2848 66.6398 53.128 66.6742 53.8689 67.0111C54.6098 67.3481 55.1899 67.9609 55.4857 68.7192C55.7815 69.4774 55.7696 70.3212 55.4526 71.0708C55.1356 71.8205 54.5384 72.4167 53.7883 72.7327C53.6859 72.776 53.5811 72.8136 53.4746 72.8455ZM51.9494 67.7484C51.8751 67.7707 51.802 67.7971 51.7306 67.8273C51.2028 68.0498 50.7828 68.4696 50.5599 68.9973C50.3371 69.5249 50.329 70.1187 50.5375 70.6522C50.746 71.1857 51.1545 71.6167 51.6761 71.8535C52.1977 72.0902 52.791 72.1139 53.3299 71.9197C53.8687 71.7254 54.3104 71.3284 54.5608 70.8133C54.8113 70.2981 54.8507 69.7056 54.6708 69.1618C54.4908 68.6181 54.1057 68.166 53.5973 67.902C53.089 67.638 52.4977 67.5829 51.9494 67.7484Z" fill="#41324C"/>
<path d="M53.4692 65.6574C52.7318 65.8776 51.9391 65.8174 51.2434 65.4884C50.5477 65.1595 49.9982 64.585 49.7005 63.8753C49.4617 63.3064 49.3971 62.6795 49.5147 62.0739C49.6323 61.4683 49.9269 60.9111 50.3612 60.4729C50.7954 60.0347 51.3499 59.7351 51.9544 59.612C52.559 59.4889 53.1864 59.5479 53.7575 59.7814C54.3285 60.015 54.8175 60.4126 55.1625 60.9241C55.5075 61.4355 55.6931 62.0378 55.6959 62.6547C55.6986 63.2717 55.5183 63.8756 55.1778 64.39C54.8373 64.9045 54.3519 65.3064 53.7829 65.545C53.6804 65.5879 53.5756 65.6254 53.4692 65.6574ZM51.9458 60.5598C51.8706 60.5824 51.7967 60.6089 51.7243 60.6392C51.1861 60.8652 50.7598 61.2957 50.5389 61.8359C50.318 62.3762 50.3207 62.982 50.5463 63.5203C50.7109 63.9127 50.9856 64.249 51.3372 64.4885C51.6889 64.7281 52.1024 64.8606 52.5278 64.87C52.9532 64.8795 53.3722 64.7655 53.7342 64.5418C54.0962 64.3181 54.3856 63.9944 54.5674 63.6097C54.7492 63.225 54.8157 62.7959 54.7587 62.3742C54.7018 61.9525 54.5239 61.5564 54.2466 61.2337C53.9692 60.911 53.6043 60.6756 53.196 60.5559C52.7877 60.4362 52.3535 60.4379 51.9458 60.5598Z" fill="#41324C"/>
<path d="M52.5788 68.9011C54.8314 68.9011 56.6576 67.6814 56.6576 66.1769C56.6576 64.6723 54.8314 63.4526 52.5788 63.4526C50.3261 63.4526 48.5 64.6723 48.5 66.1769C48.5 67.6814 50.3261 68.9011 52.5788 68.9011Z" fill="white"/>
<path d="M54.3845 69.1019C53.7997 69.2747 53.1929 69.3618 52.5832 69.3606C50.0383 69.3606 48.042 67.9661 48.042 66.1813C48.042 64.3965 50.0323 62.997 52.5763 62.9942C53.6854 62.9729 54.7766 63.2758 55.7161 63.8657C56.138 64.0856 56.4917 64.4168 56.7386 64.8235C56.9856 65.2301 57.1163 65.6967 57.1168 66.1725C57.1172 66.6482 56.9872 67.115 56.741 67.5221C56.4948 67.9292 56.1418 68.2611 55.7202 68.4817C55.3081 68.7534 54.858 68.9624 54.3845 69.1019ZM51.0534 64.13C49.8277 64.4969 48.9589 65.2891 48.9594 66.179C48.9594 67.4069 50.6185 68.4432 52.5832 68.4413C53.5112 68.4608 54.4248 68.2096 55.2124 67.7184C55.5078 67.5823 55.758 67.3644 55.9333 67.0905C56.1085 66.8165 56.2015 66.4981 56.2012 66.1728C56.2009 65.8476 56.1074 65.5293 55.9316 65.2557C55.7559 64.982 55.5053 64.7646 55.2097 64.629C54.4215 64.1388 53.5074 63.8892 52.5795 63.9107C52.0628 63.9094 51.5488 63.9832 51.0534 64.13Z" fill="#41324C"/>
<path d="M53.5797 68.8185L53.4833 63.5205L52.1659 63.4673L52.0737 68.8804L53.5797 68.8185Z" fill="#41324C"/>
<path d="M47.1677 67.3295C47.4002 67.3295 47.5888 67.141 47.5888 66.9084C47.5888 66.6758 47.4002 66.4873 47.1677 66.4873C46.9351 66.4873 46.7466 66.6758 46.7466 66.9084C46.7466 67.141 46.9351 67.3295 47.1677 67.3295Z" fill="#41324C"/>
<path d="M47.4968 65.0766C47.7293 65.0766 47.9179 64.888 47.9179 64.6555C47.9179 64.4229 47.7293 64.2344 47.4968 64.2344C47.2642 64.2344 47.0757 64.4229 47.0757 64.6555C47.0757 64.888 47.2642 65.0766 47.4968 65.0766Z" fill="#41324C"/>
<path d="M183.75 81.7752C183.652 81.7752 183.556 81.7437 183.477 81.6853C183.398 81.627 183.34 81.5448 183.312 81.4509C181.79 75.7693 181.384 69.8467 182.116 64.0106C183.302 55.4787 188.007 44.2813 203.689 39.3782C205.895 38.6688 208.159 38.1499 210.454 37.8273C211.193 33.2123 214.004 28.206 220.29 24.752C235.227 16.5449 245.316 23.9084 245.416 23.9837C245.513 24.0566 245.578 24.1653 245.595 24.2857C245.612 24.4062 245.581 24.5285 245.508 24.6258C245.435 24.7232 245.326 24.7875 245.205 24.8047C245.085 24.8219 244.963 24.7906 244.865 24.7176C244.77 24.646 235.128 17.6457 220.733 25.5565C214.858 28.7844 212.169 33.4173 211.405 37.7182C218.322 37.037 221.634 39.3443 223.121 41.0869C224.04 42.1348 224.631 43.4302 224.82 44.8117C225.009 46.1932 224.787 47.5997 224.182 48.8559C223.704 49.8713 222.929 50.7178 221.96 51.2836C220.991 51.8495 219.873 52.108 218.753 52.0251C214.891 51.7985 211.694 48.5491 210.61 43.7464C210.253 42.1207 210.158 40.4482 210.329 38.7924C208.17 39.1026 206.041 39.5922 203.963 40.2562C191.741 44.0776 184.698 52.1136 183.024 64.1395C182.308 69.8431 182.703 75.6317 184.189 81.1849C184.21 81.2535 184.214 81.326 184.202 81.3967C184.19 81.4674 184.161 81.5343 184.119 81.592C184.076 81.6497 184.021 81.6965 183.957 81.7289C183.893 81.7612 183.822 81.778 183.75 81.778V81.7752ZM211.264 38.6778C211.073 40.302 211.154 41.9468 211.505 43.5441C212.497 47.9376 215.363 50.9068 218.807 51.1091C219.746 51.1763 220.683 50.9583 221.496 50.4835C222.308 50.0087 222.958 49.2994 223.361 48.4486C223.885 47.3531 224.076 46.1276 223.909 44.9246C223.742 43.7216 223.225 42.5943 222.422 41.6832C220.277 39.1663 216.362 38.1498 211.264 38.6778Z" fill="#41324C"/>
<path d="M256.101 28.62C255.483 28.6187 254.879 28.4427 254.356 28.1124C253.834 27.782 253.416 27.3108 253.151 26.7531C252.885 26.1953 252.782 25.5738 252.855 24.9602C252.927 24.3467 253.171 23.7661 253.56 23.2854C253.948 22.8048 254.464 22.4438 255.049 22.2439C255.633 22.0441 256.262 22.0137 256.864 22.1562C257.465 22.2986 258.013 22.6082 258.446 23.0491C258.879 23.49 259.178 24.0443 259.309 24.6481C259.412 25.1266 259.407 25.6222 259.293 26.0983C259.18 26.5745 258.961 27.0192 258.654 27.4C258.346 27.7808 257.957 28.088 257.516 28.2991C257.074 28.5102 256.591 28.6198 256.101 28.62ZM256.108 22.9853C255.62 22.9853 255.144 23.1366 254.746 23.4184C254.348 23.7001 254.047 24.0985 253.884 24.5586C253.722 25.0186 253.706 25.5178 253.839 25.9871C253.973 26.4565 254.248 26.873 254.628 27.1792C255.008 27.4855 255.473 27.6664 255.96 27.697C256.447 27.7276 256.931 27.6065 257.347 27.3503C257.762 27.094 258.087 26.7153 258.278 26.2664C258.469 25.8174 258.516 25.3203 258.413 24.8435C258.301 24.316 258.011 23.8431 257.591 23.5046C257.171 23.1662 256.647 22.9827 256.108 22.9853Z" fill="#41324C"/>
<path d="M254.72 36.1059C253.879 36.1058 253.071 35.7834 252.46 35.2051C251.85 34.6268 251.485 33.8365 251.44 32.997C251.395 32.1575 251.673 31.3326 252.218 30.6922C252.762 30.0518 253.532 29.6446 254.368 29.5544C255.204 29.4642 256.042 29.6979 256.711 30.2073C257.38 30.7168 257.828 31.4633 257.963 32.2931C258.098 33.1229 257.91 33.9729 257.437 34.6681C256.964 35.3633 256.243 35.8508 255.421 36.0302C255.191 36.0805 254.956 36.1059 254.72 36.1059ZM254.732 30.4707C254.562 30.4708 254.393 30.4891 254.227 30.5253C253.641 30.654 253.127 31.0023 252.79 31.4987C252.453 31.9951 252.319 32.6017 252.416 33.1938C252.512 33.7858 252.832 34.3183 253.31 34.6816C253.787 35.0449 254.386 35.2114 254.982 35.1469C255.579 35.0824 256.128 34.7917 256.516 34.3347C256.905 33.8777 257.104 33.2891 257.071 32.6901C257.039 32.091 256.779 31.5271 256.344 31.1143C255.908 30.7014 255.331 30.4711 254.732 30.4707Z" fill="#41324C"/>
<path d="M259.646 29.9592C259.935 28.3924 258.268 26.7713 255.922 26.3385C253.577 25.9056 251.441 26.8249 251.151 28.3916C250.862 29.9584 252.53 31.5794 254.875 32.0123C257.221 32.4451 259.357 31.5259 259.646 29.9592Z" fill="white"/>
<path d="M256.03 32.5798C255.615 32.5791 255.2 32.5408 254.792 32.4651C253.638 32.2737 252.566 31.7499 251.705 30.9578C251.329 30.6366 251.039 30.2256 250.864 29.7628C250.688 29.3 250.632 28.8004 250.7 28.3102C250.811 27.8278 251.042 27.3812 251.371 27.0116C251.701 26.6421 252.118 26.3614 252.584 26.1956C253.675 25.7835 254.858 25.6775 256.005 25.8892C257.152 26.1008 258.22 26.6221 259.092 27.3965C259.468 27.7177 259.758 28.1287 259.933 28.5915C260.109 29.0543 260.165 29.5539 260.097 30.0441C259.986 30.5265 259.755 30.9731 259.426 31.3427C259.096 31.7122 258.679 31.9929 258.213 32.1587C257.521 32.445 256.779 32.5882 256.03 32.5798ZM254.763 26.691C254.141 26.6831 253.523 26.8012 252.947 27.0382C252.621 27.1473 252.327 27.336 252.092 27.5872C251.858 27.8383 251.689 28.1441 251.603 28.4767C251.565 28.8184 251.613 29.164 251.743 29.4824C251.872 29.8008 252.079 30.0818 252.345 30.3001C253.087 30.9476 253.989 31.3837 254.958 31.5625C255.926 31.7412 256.925 31.6561 257.849 31.3161C258.175 31.207 258.469 31.0183 258.703 30.7671C258.938 30.516 259.106 30.2102 259.193 29.8776C259.231 29.5359 259.183 29.1902 259.053 28.8717C258.924 28.5533 258.717 28.2723 258.451 28.0542C257.721 27.3881 256.812 26.9493 255.836 26.7914C255.483 26.7256 255.125 26.692 254.765 26.691H254.763Z" fill="#41324C"/>
<path d="M254.869 26.2334L253.947 31.7681L255.308 32.0782L256.449 26.4595L254.869 26.2334Z" fill="#41324C"/>
<path d="M260.399 32.1884C260.645 32.1884 260.844 31.9887 260.844 31.7425C260.844 31.4962 260.645 31.2966 260.399 31.2966C260.152 31.2966 259.953 31.4962 259.953 31.7425C259.953 31.9887 260.152 32.1884 260.399 32.1884Z" fill="#41324C"/>
<path d="M261.176 29.9059C261.422 29.9059 261.622 29.7063 261.622 29.46C261.622 29.2138 261.422 29.0142 261.176 29.0142C260.93 29.0142 260.73 29.2138 260.73 29.46C260.73 29.7063 260.93 29.9059 261.176 29.9059Z" fill="#41324C"/>
</svg>
