<?xml version="1.0" encoding="UTF-8"?>
<svg xmlns="http://www.w3.org/2000/svg" xmlns:xlink="http://www.w3.org/1999/xlink" width="185px" height="185px" viewBox="0 0 185 185" version="1.1">
<g id="surface1">
<path style=" stroke:none;fill-rule:nonzero;fill:rgb(0%,0%,0%);fill-opacity:1;" d="M 122.363281 92.457031 C 122.738281 92.613281 122.953125 92.824219 123.230469 93.117188 C 123.328125 93.214844 123.421875 93.308594 123.519531 93.410156 C 123.828125 93.765625 123.902344 93.957031 123.964844 94.429688 C 123.878906 95.183594 123.371094 95.507812 122.808594 95.96875 C 122.445312 96.253906 122.082031 96.535156 121.714844 96.816406 C 121.464844 97.007812 121.21875 97.199219 120.96875 97.390625 C 120.855469 97.480469 120.738281 97.566406 120.621094 97.660156 C 120.25 97.945312 119.886719 98.238281 119.523438 98.53125 C 119.769531 98.554688 119.769531 98.554688 120.027344 98.578125 C 122.339844 98.8125 122.339844 98.8125 123.28125 99.472656 C 123.527344 99.640625 123.527344 99.640625 123.78125 99.8125 C 125.078125 101.109375 125.488281 102.871094 125.582031 104.65625 C 125.597656 104.753906 125.613281 104.851562 125.628906 104.953125 C 126.777344 105.527344 128.703125 105.40625 129.929688 105.148438 C 130.519531 104.941406 130.738281 104.820312 131.113281 104.328125 C 131.207031 103.796875 131.207031 103.796875 131.191406 103.203125 C 131.195312 103.09375 131.195312 102.984375 131.195312 102.875 C 131.203125 102.53125 131.203125 102.183594 131.203125 101.839844 C 131.203125 101.496094 131.203125 101.152344 131.207031 100.808594 C 131.210938 100.496094 131.210938 100.183594 131.210938 99.871094 C 131.269531 99.3125 131.269531 99.3125 131.738281 98.375 C 132.617188 98.375 133.496094 98.375 134.402344 98.375 C 134.417969 99.328125 134.429688 100.28125 134.4375 101.234375 C 134.441406 101.554688 134.445312 101.878906 134.449219 102.203125 C 134.457031 102.671875 134.460938 103.136719 134.464844 103.605469 C 134.46875 103.75 134.472656 103.890625 134.472656 104.039062 C 134.472656 105.265625 134.207031 106.359375 133.367188 107.285156 C 132.136719 108.058594 130.992188 108.355469 129.546875 108.398438 C 129.363281 108.40625 129.183594 108.414062 128.996094 108.417969 C 127.742188 108.441406 126.710938 108.414062 125.589844 107.8125 C 125.183594 107.566406 125.183594 107.566406 124.835938 107.722656 C 124.738281 107.792969 124.636719 107.859375 124.535156 107.929688 C 123.574219 108.371094 122.597656 108.417969 121.550781 108.425781 C 121.445312 108.425781 121.34375 108.425781 121.234375 108.425781 C 120.894531 108.429688 120.550781 108.429688 120.210938 108.429688 C 120.03125 108.433594 120.03125 108.433594 119.851562 108.433594 C 119.230469 108.433594 118.605469 108.4375 117.980469 108.4375 C 117.34375 108.4375 116.703125 108.441406 116.0625 108.445312 C 115.566406 108.449219 115.070312 108.449219 114.574219 108.449219 C 114.339844 108.449219 114.105469 108.453125 113.867188 108.453125 C 112.359375 108.464844 110.832031 108.476562 109.515625 107.644531 C 109.1875 107.410156 109.1875 107.410156 108.800781 107.558594 C 108.53125 107.703125 108.265625 107.855469 108.007812 108.019531 C 106.566406 108.609375 104.867188 108.472656 103.386719 108.085938 C 103.042969 107.914062 103.042969 107.914062 102.761719 107.734375 C 102.324219 107.40625 102.324219 107.40625 101.910156 107.546875 C 101.777344 107.621094 101.644531 107.695312 101.507812 107.773438 C 99.90625 108.464844 98.5 108.480469 96.808594 108.085938 C 96.804688 108.179688 96.800781 108.277344 96.796875 108.375 C 96.699219 109.796875 96.28125 111.28125 95.242188 112.316406 C 93.226562 113.847656 91.183594 114.023438 88.742188 113.730469 C 86.992188 113.488281 85.769531 112.886719 84.589844 111.53125 C 83.058594 109.296875 83.167969 106.546875 83.632812 103.988281 C 84.0625 101.8125 84.0625 101.8125 84.433594 101.195312 C 85.375 101.261719 86.394531 101.433594 87.09375 102.132812 C 87.136719 102.964844 87.023438 103.707031 86.859375 104.511719 C 86.535156 106.277344 86.390625 107.851562 87.253906 109.496094 C 87.917969 110.214844 88.722656 110.445312 89.683594 110.484375 C 89.945312 110.484375 90.203125 110.484375 90.464844 110.484375 C 90.59375 110.488281 90.722656 110.488281 90.855469 110.492188 C 91.652344 110.492188 92.207031 110.410156 92.890625 109.964844 C 93.414062 109.261719 93.535156 108.636719 93.542969 107.777344 C 93.546875 107.542969 93.546875 107.542969 93.546875 107.308594 C 93.550781 107.140625 93.550781 106.976562 93.550781 106.804688 C 93.554688 106.453125 93.558594 106.101562 93.566406 105.746094 C 93.570312 105.191406 93.578125 104.636719 93.582031 104.082031 C 93.585938 103.546875 93.59375 103.011719 93.601562 102.476562 C 93.601562 102.308594 93.601562 102.144531 93.601562 101.972656 C 93.605469 101.742188 93.605469 101.742188 93.609375 101.503906 C 93.609375 101.367188 93.613281 101.230469 93.613281 101.09375 C 93.6875 100.640625 93.832031 100.425781 94.144531 100.097656 C 94.613281 99.941406 94.613281 99.941406 96.652344 99.941406 C 96.652344 101.59375 96.652344 103.25 96.652344 104.953125 C 97.28125 105.109375 97.8125 105.140625 98.460938 105.148438 C 98.566406 105.152344 98.671875 105.15625 98.78125 105.160156 C 99.371094 105.167969 99.371094 105.167969 99.890625 104.929688 C 100.183594 104.519531 100.15625 104.21875 100.160156 103.71875 C 100.167969 103.449219 100.167969 103.449219 100.171875 103.175781 C 100.171875 102.984375 100.175781 102.796875 100.175781 102.605469 C 100.179688 102.230469 100.183594 101.859375 100.191406 101.488281 C 100.191406 101.324219 100.191406 101.15625 100.195312 100.988281 C 100.253906 100.566406 100.253906 100.566406 100.472656 100.285156 C 101.429688 99.570312 101.726562 99.941406 103.386719 99.941406 C 103.4375 101.542969 103.492188 103.144531 103.542969 104.796875 C 104.199219 105.125 104.496094 105.148438 105.207031 105.140625 C 105.476562 105.136719 105.476562 105.136719 105.753906 105.136719 C 106.195312 105.140625 106.195312 105.140625 106.519531 104.953125 C 106.714844 104.371094 106.703125 103.828125 106.710938 103.21875 C 106.714844 102.96875 106.71875 102.714844 106.722656 102.460938 C 106.730469 102.0625 106.734375 101.664062 106.738281 101.261719 C 106.742188 100.878906 106.75 100.492188 106.757812 100.105469 C 106.757812 99.988281 106.757812 99.867188 106.761719 99.746094 C 106.777344 99.046875 106.785156 98.890625 107.304688 98.375 C 108.183594 98.375 109.0625 98.375 109.964844 98.375 C 109.964844 100.597656 109.964844 102.820312 109.964844 105.109375 C 111.503906 105.242188 111.503906 105.242188 113.039062 105.300781 C 113.195312 105.300781 113.195312 105.300781 113.351562 105.304688 C 113.6875 105.308594 114.023438 105.3125 114.359375 105.316406 C 114.597656 105.320312 114.832031 105.324219 115.066406 105.324219 C 115.683594 105.335938 116.296875 105.34375 116.914062 105.351562 C 117.542969 105.359375 118.171875 105.367188 118.804688 105.375 C 120.035156 105.390625 121.265625 105.40625 122.496094 105.421875 C 122.433594 105.046875 122.371094 104.671875 122.300781 104.296875 C 122.285156 104.191406 122.269531 104.085938 122.25 103.976562 C 122.117188 103.257812 121.910156 102.816406 121.402344 102.289062 C 120.351562 101.625 119.148438 101.742188 117.945312 101.730469 C 117.527344 101.726562 117.105469 101.71875 116.6875 101.710938 C 116.5 101.710938 116.316406 101.707031 116.125 101.707031 C 115.433594 101.648438 114.859375 101.5625 114.378906 101.039062 C 114.304688 100.917969 114.230469 100.796875 114.15625 100.675781 C 114.082031 100.554688 114.007812 100.4375 113.929688 100.316406 C 113.722656 99.9375 113.5625 99.558594 113.414062 99.15625 C 114.511719 98.214844 115.636719 97.320312 116.800781 96.457031 C 117.863281 95.667969 118.910156 94.855469 119.953125 94.039062 C 120.058594 93.953125 120.167969 93.871094 120.28125 93.785156 C 120.519531 93.59375 120.757812 93.402344 120.992188 93.203125 C 121.117188 93.101562 121.242188 93 121.367188 92.894531 C 121.535156 92.753906 121.535156 92.753906 121.707031 92.609375 C 122.027344 92.421875 122.027344 92.421875 122.363281 92.457031 Z M 122.363281 92.457031 "/>
<path style=" stroke:none;fill-rule:nonzero;fill:rgb(0%,0%,0%);fill-opacity:1;" d="M 86.15625 69.707031 C 86.949219 70.261719 87.414062 70.894531 87.929688 71.707031 C 88.089844 71.957031 88.253906 72.203125 88.417969 72.453125 C 88.503906 72.589844 88.59375 72.726562 88.683594 72.867188 C 89.179688 73.621094 89.6875 74.371094 90.199219 75.117188 C 90.371094 75.371094 90.546875 75.625 90.71875 75.882812 C 91.277344 76.703125 91.839844 77.519531 92.421875 78.324219 C 92.902344 77.738281 93.339844 77.136719 93.761719 76.511719 C 93.832031 76.410156 93.90625 76.304688 93.976562 76.199219 C 94.429688 75.539062 94.875 74.878906 95.320312 74.214844 C 95.585938 73.820312 95.851562 73.425781 96.117188 73.03125 C 96.25 72.832031 96.382812 72.636719 96.515625 72.4375 C 96.703125 72.15625 96.890625 71.875 97.082031 71.59375 C 97.246094 71.351562 97.246094 71.351562 97.414062 71.097656 C 97.929688 70.398438 98.441406 69.75 99.3125 69.550781 C 100.070312 69.527344 100.671875 69.601562 101.273438 70.089844 C 101.761719 70.59375 101.839844 70.796875 101.84375 71.476562 C 101.84375 71.617188 101.84375 71.757812 101.84375 71.902344 C 101.84375 72.132812 101.84375 72.132812 101.847656 72.371094 C 101.847656 72.617188 101.847656 72.617188 101.847656 72.863281 C 101.851562 73.40625 101.851562 73.945312 101.851562 74.484375 C 101.851562 74.859375 101.855469 75.234375 101.855469 75.609375 C 101.855469 76.394531 101.859375 77.179688 101.859375 77.964844 C 101.859375 78.972656 101.863281 79.980469 101.867188 80.988281 C 101.871094 81.761719 101.871094 82.535156 101.871094 83.304688 C 101.871094 83.679688 101.871094 84.050781 101.875 84.421875 C 101.878906 84.941406 101.878906 85.460938 101.875 85.980469 C 101.878906 86.132812 101.878906 86.289062 101.878906 86.445312 C 101.878906 86.589844 101.878906 86.730469 101.878906 86.875 C 101.878906 87.058594 101.878906 87.058594 101.878906 87.246094 C 101.820312 87.566406 101.820312 87.566406 101.351562 88.035156 C 100.472656 88.035156 99.59375 88.035156 98.6875 88.035156 C 98.636719 83.953125 98.585938 79.867188 98.53125 75.660156 C 96.859375 78.023438 96.859375 78.023438 95.214844 80.402344 C 93.921875 82.269531 93.921875 82.269531 93.046875 82.554688 C 92.214844 82.628906 91.726562 82.507812 91.011719 82.082031 C 90.6875 81.734375 90.6875 81.734375 90.386719 81.308594 C 90.265625 81.144531 90.148438 80.976562 90.023438 80.808594 C 89.882812 80.605469 89.742188 80.40625 89.601562 80.203125 C 89.421875 79.945312 89.238281 79.6875 89.058594 79.433594 C 88.179688 78.183594 87.3125 76.929688 86.46875 75.660156 C 86.46875 75.808594 86.46875 75.957031 86.464844 76.109375 C 86.457031 77.503906 86.445312 78.898438 86.433594 80.292969 C 86.425781 81.011719 86.417969 81.726562 86.414062 82.445312 C 86.410156 83.136719 86.40625 83.828125 86.398438 84.519531 C 86.394531 84.78125 86.390625 85.046875 86.390625 85.3125 C 86.390625 85.679688 86.386719 86.050781 86.378906 86.417969 C 86.378906 86.527344 86.378906 86.640625 86.378906 86.75 C 86.367188 87.492188 86.367188 87.492188 86.113281 87.828125 C 85.777344 88.085938 85.601562 88.089844 85.179688 88.082031 C 85.054688 88.078125 84.929688 88.078125 84.800781 88.078125 C 84.667969 88.074219 84.539062 88.070312 84.402344 88.066406 C 84.203125 88.0625 84.203125 88.0625 84.003906 88.058594 C 83.675781 88.054688 83.347656 88.042969 83.023438 88.035156 C 83.011719 85.867188 83.003906 83.703125 83 81.535156 C 82.996094 80.53125 82.992188 79.523438 82.988281 78.519531 C 82.980469 77.546875 82.980469 76.578125 82.976562 75.605469 C 82.976562 75.234375 82.976562 74.863281 82.972656 74.496094 C 82.96875 73.976562 82.96875 73.457031 82.96875 72.9375 C 82.96875 72.785156 82.964844 72.632812 82.964844 72.472656 C 82.96875 71.585938 83.058594 70.957031 83.492188 70.179688 C 84.320312 69.503906 85.128906 69.363281 86.15625 69.707031 Z M 86.15625 69.707031 "/>
<path style=" stroke:none;fill-rule:nonzero;fill:rgb(98.823529%,49.803922%,23.137255%);fill-opacity:1;" d="M 44.019531 84.433594 C 44.59375 84.886719 45.121094 85.382812 45.636719 85.898438 C 45.914062 86.171875 46.191406 86.441406 46.472656 86.710938 C 49.484375 89.648438 49.484375 89.648438 49.570312 91.777344 C 49.515625 93.460938 48.808594 94.558594 47.621094 95.710938 C 47.359375 95.921875 47.101562 96.128906 46.835938 96.335938 C 46.6875 96.507812 46.542969 96.679688 46.398438 96.855469 C 45.957031 97.386719 45.472656 97.832031 44.945312 98.273438 C 44.761719 98.429688 44.582031 98.589844 44.40625 98.757812 C 43.484375 99.609375 42.359375 99.882812 41.125 99.839844 C 39.085938 99.5625 37.78125 97.96875 36.382812 96.59375 C 36.230469 96.441406 36.078125 96.292969 35.925781 96.144531 C 34.644531 94.914062 33.609375 93.679688 33.484375 91.84375 C 33.507812 90.175781 34.429688 88.960938 35.5625 87.824219 C 35.652344 87.734375 35.742188 87.640625 35.835938 87.546875 C 36.023438 87.355469 36.214844 87.164062 36.40625 86.976562 C 36.691406 86.6875 36.980469 86.394531 37.265625 86.101562 C 37.449219 85.914062 37.636719 85.730469 37.824219 85.542969 C 37.90625 85.457031 37.992188 85.371094 38.078125 85.28125 C 39.683594 83.695312 42.027344 83.226562 44.019531 84.433594 Z M 44.019531 84.433594 "/>
<path style=" stroke:none;fill-rule:nonzero;fill:rgb(98.823529%,49.411765%,22.352941%);fill-opacity:1;" d="M 26.941406 92.109375 C 26.976562 92.238281 27.011719 92.371094 27.046875 92.503906 C 27.097656 92.679688 27.148438 92.855469 27.199219 93.039062 C 27.246094 93.210938 27.292969 93.382812 27.339844 93.5625 C 27.953125 95.121094 29.082031 96.164062 30.285156 97.285156 C 30.402344 97.398438 30.519531 97.507812 30.636719 97.625 C 30.746094 97.722656 30.851562 97.820312 30.960938 97.925781 C 31.171875 98.21875 31.171875 98.21875 31.140625 98.515625 C 30.992188 98.90625 30.820312 99.085938 30.515625 99.367188 C 30.410156 99.464844 30.304688 99.566406 30.195312 99.667969 C 30.078125 99.773438 29.964844 99.878906 29.847656 99.988281 C 29.605469 100.21875 29.363281 100.449219 29.125 100.679688 C 28.746094 101.039062 28.367188 101.398438 27.980469 101.75 C 26.171875 103.316406 26.171875 103.316406 25.382812 105.476562 C 25.378906 105.824219 25.375 106.171875 25.375 106.519531 C 25.003906 107.800781 23.964844 108.945312 22.859375 109.640625 C 21.214844 110.488281 19.613281 110.730469 17.820312 110.179688 C 16.425781 109.664062 15.230469 108.742188 14.535156 107.40625 C 13.835938 105.863281 13.582031 103.988281 14.195312 102.359375 C 14.960938 100.777344 16.078125 99.589844 17.730469 98.96875 C 18.222656 98.828125 18.699219 98.773438 19.207031 98.71875 C 20.273438 98.566406 20.753906 98.222656 21.460938 97.433594 C 21.585938 97.300781 21.710938 97.164062 21.839844 97.023438 C 22.058594 96.785156 22.28125 96.542969 22.5 96.300781 C 23.265625 95.464844 24.058594 94.65625 24.855469 93.851562 C 25.007812 93.703125 25.15625 93.550781 25.308594 93.398438 C 25.519531 93.183594 25.734375 92.96875 25.945312 92.757812 C 26.070312 92.632812 26.195312 92.507812 26.320312 92.378906 C 26.628906 92.109375 26.628906 92.109375 26.941406 92.109375 Z M 26.941406 92.109375 "/>
<path style=" stroke:none;fill-rule:nonzero;fill:rgb(98.823529%,49.411765%,22.352941%);fill-opacity:1;" d="M 22.9375 74.171875 C 24.222656 75.105469 25.207031 76.277344 25.535156 77.851562 C 25.539062 78.128906 25.546875 78.402344 25.546875 78.679688 C 25.640625 79.730469 26.117188 80.195312 26.875 80.882812 C 27.054688 81.054688 27.054688 81.054688 27.234375 81.226562 C 27.609375 81.589844 27.992188 81.945312 28.371094 82.296875 C 28.753906 82.65625 29.136719 83.015625 29.515625 83.378906 C 29.75 83.605469 29.984375 83.828125 30.226562 84.046875 C 30.332031 84.148438 30.4375 84.25 30.546875 84.351562 C 30.6875 84.484375 30.6875 84.484375 30.832031 84.617188 C 31.015625 84.902344 31.015625 84.902344 30.984375 85.308594 C 30.832031 85.765625 30.648438 85.957031 30.292969 86.277344 C 30.179688 86.386719 30.066406 86.496094 29.945312 86.605469 C 29.824219 86.71875 29.703125 86.832031 29.578125 86.949219 C 28.167969 88.304688 27.320312 89.527344 26.941406 91.480469 C 26.367188 91.394531 26.117188 91.175781 25.722656 90.753906 C 25.554688 90.574219 25.554688 90.574219 25.378906 90.386719 C 25.257812 90.257812 25.132812 90.125 25.007812 89.988281 C 24.742188 89.714844 24.476562 89.4375 24.210938 89.164062 C 23.796875 88.726562 23.382812 88.292969 22.972656 87.851562 C 20.75 85.472656 20.75 85.472656 17.699219 84.746094 C 16.007812 84.160156 15.101562 83.09375 14.28125 81.542969 C 13.675781 80.214844 13.730469 78.304688 14.167969 76.921875 C 14.824219 75.402344 16.078125 74.269531 17.585938 73.628906 C 19.414062 72.988281 21.289062 73.152344 22.9375 74.171875 Z M 22.9375 74.171875 "/>
<path style=" stroke:none;fill-rule:nonzero;fill:rgb(98.823529%,49.019608%,21.568627%);fill-opacity:1;" d="M 32.027344 65.09375 C 33.460938 66.132812 34.222656 67.355469 34.617188 69.082031 C 34.613281 69.195312 34.609375 69.308594 34.605469 69.421875 C 34.59375 70.253906 34.769531 70.722656 35.335938 71.34375 C 35.742188 71.761719 36.160156 72.160156 36.585938 72.558594 C 36.757812 72.722656 36.925781 72.886719 37.097656 73.050781 C 37.886719 73.816406 38.695312 74.558594 39.527344 75.277344 C 39.890625 75.589844 40.230469 75.921875 40.570312 76.257812 C 40.691406 76.375 40.8125 76.492188 40.933594 76.613281 C 41.199219 76.914062 41.199219 76.914062 41.199219 77.226562 C 41.066406 77.261719 40.9375 77.296875 40.800781 77.332031 C 40.625 77.378906 40.449219 77.429688 40.269531 77.480469 C 40.09375 77.527344 39.921875 77.574219 39.746094 77.625 C 38.183594 78.238281 37.140625 79.363281 36.023438 80.570312 C 35.910156 80.6875 35.796875 80.800781 35.683594 80.921875 C 35.582031 81.027344 35.484375 81.136719 35.382812 81.246094 C 35.089844 81.457031 35.089844 81.457031 34.789062 81.421875 C 34.402344 81.277344 34.21875 81.105469 33.929688 80.808594 C 33.832031 80.707031 33.730469 80.605469 33.628906 80.496094 C 33.519531 80.386719 33.414062 80.273438 33.304688 80.160156 C 33.074219 79.925781 32.84375 79.691406 32.617188 79.457031 C 32.253906 79.085938 31.894531 78.714844 31.539062 78.34375 C 31.191406 77.984375 30.84375 77.628906 30.492188 77.269531 C 30.386719 77.160156 30.28125 77.046875 30.171875 76.933594 C 29.589844 76.34375 29.222656 75.996094 28.351562 75.972656 C 26.539062 75.703125 25.136719 75.070312 23.96875 73.625 C 23.046875 72.308594 22.691406 70.835938 22.871094 69.238281 C 23.230469 67.460938 23.992188 66.089844 25.5 65.054688 C 27.558594 63.855469 30 63.824219 32.027344 65.09375 Z M 32.027344 65.09375 "/>
<path style=" stroke:none;fill-rule:nonzero;fill:rgb(98.431373%,50.588235%,24.313725%);fill-opacity:1;" d="M 47.933594 102.132812 C 48.410156 102.34375 48.722656 102.574219 49.078125 102.953125 C 49.171875 103.058594 49.269531 103.160156 49.371094 103.265625 C 49.476562 103.378906 49.578125 103.488281 49.6875 103.601562 C 49.910156 103.835938 50.136719 104.070312 50.363281 104.304688 C 50.714844 104.671875 51.066406 105.039062 51.414062 105.414062 C 52.832031 107.082031 52.832031 107.082031 54.777344 107.835938 C 55.054688 107.820312 55.332031 107.800781 55.609375 107.773438 C 57.132812 108.160156 58.441406 109.042969 59.316406 110.355469 C 60.15625 111.929688 60.40625 113.660156 59.964844 115.398438 C 59.414062 116.976562 58.289062 118.195312 56.8125 118.964844 C 55.523438 119.566406 53.847656 119.566406 52.46875 119.257812 C 51.039062 118.71875 49.730469 117.710938 49 116.355469 C 48.675781 115.617188 48.539062 114.964844 48.476562 114.164062 C 48.292969 112.929688 47.703125 112.332031 46.8125 111.507812 C 46.667969 111.367188 46.527344 111.226562 46.382812 111.085938 C 46.007812 110.71875 45.628906 110.359375 45.25 110 C 44.710938 109.488281 44.179688 108.972656 43.648438 108.457031 C 43.367188 108.183594 43.082031 107.910156 42.796875 107.640625 C 42.667969 107.515625 42.539062 107.394531 42.410156 107.269531 C 42.296875 107.160156 42.183594 107.054688 42.066406 106.945312 C 41.824219 106.675781 41.824219 106.675781 41.824219 106.363281 C 41.957031 106.328125 42.085938 106.292969 42.21875 106.257812 C 42.398438 106.210938 42.574219 106.160156 42.753906 106.109375 C 42.925781 106.0625 43.101562 106.015625 43.277344 105.964844 C 44.667969 105.417969 45.664062 104.46875 46.691406 103.40625 C 46.8125 103.285156 46.933594 103.160156 47.054688 103.035156 C 47.351562 102.734375 47.640625 102.433594 47.933594 102.132812 Z M 47.933594 102.132812 "/>
<path style=" stroke:none;fill-rule:nonzero;fill:rgb(98.431373%,50.588235%,23.921569%);fill-opacity:1;" d="M 67.066406 74.484375 C 68.054688 75.269531 68.871094 76.429688 69.082031 77.695312 C 69.207031 79.6875 69.144531 81.320312 67.808594 82.914062 C 66.847656 83.910156 65.75 84.632812 64.382812 84.902344 C 64.269531 84.902344 64.15625 84.898438 64.039062 84.898438 C 63.171875 84.902344 62.695312 85.078125 62.054688 85.667969 C 61.789062 85.933594 61.527344 86.207031 61.269531 86.480469 C 61.058594 86.691406 61.058594 86.691406 60.84375 86.910156 C 60.476562 87.289062 60.113281 87.667969 59.75 88.046875 C 59.234375 88.585938 58.714844 89.117188 58.191406 89.652344 C 57.917969 89.933594 57.640625 90.21875 57.367188 90.507812 C 57.183594 90.699219 57.183594 90.699219 56.992188 90.894531 C 56.882812 91.007812 56.777344 91.121094 56.664062 91.238281 C 56.394531 91.480469 56.394531 91.480469 56.078125 91.480469 C 56.046875 91.351562 56.011719 91.21875 55.976562 91.085938 C 55.925781 90.910156 55.875 90.734375 55.824219 90.550781 C 55.777344 90.378906 55.730469 90.207031 55.683594 90.027344 C 55.136719 88.636719 54.183594 87.640625 53.121094 86.617188 C 53 86.496094 52.878906 86.375 52.75 86.25 C 52.453125 85.957031 52.152344 85.664062 51.851562 85.371094 C 52.0625 84.898438 52.289062 84.589844 52.667969 84.238281 C 52.769531 84.144531 52.875 84.050781 52.980469 83.949219 C 53.089844 83.847656 53.199219 83.746094 53.3125 83.640625 C 53.546875 83.421875 53.78125 83.199219 54.011719 82.976562 C 54.378906 82.628906 54.746094 82.28125 55.117188 81.941406 C 56.898438 80.378906 56.898438 80.378906 57.625 78.214844 C 57.628906 78.015625 57.628906 77.820312 57.628906 77.617188 C 57.667969 76.390625 58.40625 75.464844 59.269531 74.652344 C 61.683594 72.679688 64.558594 72.726562 67.066406 74.484375 Z M 67.066406 74.484375 "/>
<path style=" stroke:none;fill-rule:nonzero;fill:rgb(98.823529%,49.019608%,21.960784%);fill-opacity:1;" d="M 35.023438 102.324219 C 35.496094 102.476562 35.703125 102.6875 36.039062 103.050781 C 36.15625 103.175781 36.277344 103.296875 36.398438 103.425781 C 36.636719 103.683594 36.878906 103.945312 37.121094 104.203125 C 38.316406 105.453125 39.5 106.0625 41.199219 106.363281 C 40.949219 106.980469 40.546875 107.355469 40.070312 107.8125 C 39.574219 108.292969 39.105469 108.773438 38.65625 109.304688 C 38.230469 109.800781 37.773438 110.246094 37.289062 110.6875 C 35.5625 112.273438 34.601562 113.238281 34.460938 115.605469 C 34.042969 117.003906 32.929688 118.121094 31.683594 118.816406 C 30.191406 119.582031 28.238281 119.644531 26.640625 119.140625 C 25 118.433594 23.867188 117.054688 23.214844 115.429688 C 22.738281 113.851562 22.910156 112.203125 23.652344 110.75 C 24.457031 109.414062 25.589844 108.378906 27.101562 107.929688 C 27.25 107.929688 27.402344 107.929688 27.558594 107.929688 C 28.992188 107.914062 29.667969 107.40625 30.644531 106.414062 C 31.121094 105.925781 31.582031 105.425781 32.042969 104.925781 C 32.398438 104.542969 32.757812 104.164062 33.117188 103.785156 C 33.335938 103.550781 33.558594 103.316406 33.773438 103.078125 C 33.875 102.972656 33.972656 102.867188 34.074219 102.757812 C 34.164062 102.664062 34.25 102.570312 34.335938 102.472656 C 34.617188 102.289062 34.617188 102.289062 35.023438 102.324219 Z M 35.023438 102.324219 "/>
<path style=" stroke:none;fill-rule:nonzero;fill:rgb(98.431373%,50.588235%,24.313725%);fill-opacity:1;" d="M 56.683594 64.65625 C 58.101562 65.488281 59.300781 66.554688 59.839844 68.140625 C 60.226562 69.746094 60.171875 71.566406 59.335938 73.015625 C 58.351562 74.421875 57.136719 75.421875 55.453125 75.816406 C 55.183594 75.839844 54.910156 75.855469 54.640625 75.867188 C 52.980469 75.996094 51.484375 78.199219 50.363281 79.332031 C 50.15625 79.539062 49.949219 79.746094 49.746094 79.949219 C 49.246094 80.453125 48.746094 80.953125 48.246094 81.457031 C 47.738281 81.234375 47.421875 80.96875 47.042969 80.5625 C 45.457031 78.890625 44.152344 77.675781 41.824219 77.226562 C 42.046875 76.71875 42.308594 76.402344 42.710938 76.023438 C 42.832031 75.914062 42.949219 75.804688 43.070312 75.691406 C 43.195312 75.570312 43.324219 75.453125 43.453125 75.332031 C 43.722656 75.074219 43.992188 74.816406 44.257812 74.558594 C 44.679688 74.15625 45.101562 73.753906 45.527344 73.359375 C 47.355469 71.660156 48.445312 70.511719 48.558594 67.984375 C 49.027344 66.507812 50.148438 65.488281 51.453125 64.730469 C 53.011719 63.976562 55.105469 63.890625 56.683594 64.65625 Z M 56.683594 64.65625 "/>
<path style=" stroke:none;fill-rule:nonzero;fill:rgb(98.431373%,50.588235%,23.921569%);fill-opacity:1;" d="M 56.078125 92.109375 C 56.589844 92.332031 56.925781 92.605469 57.320312 93 C 57.4375 93.121094 57.554688 93.238281 57.675781 93.359375 C 57.867188 93.554688 57.867188 93.554688 58.058594 93.75 C 58.1875 93.878906 58.320312 94.011719 58.453125 94.148438 C 58.871094 94.566406 59.285156 94.988281 59.703125 95.40625 C 60.117188 95.828125 60.535156 96.25 60.953125 96.671875 C 61.214844 96.933594 61.472656 97.195312 61.730469 97.457031 C 61.847656 97.574219 61.964844 97.691406 62.085938 97.816406 C 62.242188 97.972656 62.242188 97.972656 62.398438 98.132812 C 62.90625 98.605469 63.382812 98.574219 64.058594 98.636719 C 65.707031 98.835938 66.972656 99.488281 68.027344 100.800781 C 69.121094 102.394531 69.304688 104.011719 69.082031 105.894531 C 68.75 107.441406 67.664062 108.582031 66.417969 109.496094 C 64.894531 110.371094 63.222656 110.5625 61.503906 110.152344 C 60.042969 109.601562 58.691406 108.546875 57.960938 107.148438 C 57.632812 106.390625 57.480469 105.738281 57.472656 104.914062 C 57.382812 103.847656 56.878906 103.355469 56.117188 102.644531 C 55.996094 102.527344 55.875 102.40625 55.75 102.285156 C 55.363281 101.90625 54.972656 101.535156 54.582031 101.164062 C 54.316406 100.910156 54.054688 100.652344 53.792969 100.394531 C 53.148438 99.769531 52.5 99.148438 51.851562 98.53125 C 52.15625 97.984375 52.472656 97.5625 52.925781 97.132812 C 53.042969 97.019531 53.15625 96.910156 53.277344 96.792969 C 53.519531 96.5625 53.761719 96.332031 54.003906 96.101562 C 55.003906 95.132812 55.546875 94.242188 55.882812 92.890625 C 55.921875 92.742188 55.960938 92.59375 56 92.441406 C 56.027344 92.332031 56.050781 92.222656 56.078125 92.109375 Z M 56.078125 92.109375 "/>
<path style=" stroke:none;fill-rule:nonzero;fill:rgb(0%,0%,0%);fill-opacity:1;" d="M 143.96875 70.695312 C 145.265625 71.832031 145.742188 73.230469 145.863281 74.914062 C 145.921875 76.554688 145.566406 78.191406 144.429688 79.421875 C 143.929688 79.824219 143.410156 80.179688 142.863281 80.515625 C 143.105469 81.265625 143.53125 81.804688 144.007812 82.414062 C 144.753906 83.394531 145.484375 84.382812 146.191406 85.390625 C 146.28125 85.515625 146.371094 85.640625 146.460938 85.769531 C 146.835938 86.304688 147.074219 86.664062 147.167969 87.320312 C 147.089844 87.722656 147.089844 87.722656 146.777344 88.035156 C 146.28125 88.140625 145.777344 88.144531 145.269531 88.164062 C 145.0625 88.183594 145.0625 88.183594 144.855469 88.203125 C 144.398438 88.214844 144.074219 88.191406 143.644531 88.035156 C 143.125 87.527344 142.769531 86.933594 142.390625 86.3125 C 142.179688 86.007812 141.96875 85.707031 141.753906 85.40625 C 141.542969 85.101562 141.332031 84.796875 141.121094 84.492188 C 141.011719 84.339844 140.90625 84.1875 140.796875 84.03125 C 140.695312 83.878906 140.589844 83.730469 140.480469 83.574219 C 140.378906 83.429688 140.273438 83.285156 140.164062 83.136719 C 139.886719 82.710938 139.886719 82.710938 139.714844 82.289062 C 139.535156 81.824219 139.535156 81.824219 138.945312 81.300781 C 137.859375 81.25 136.773438 81.195312 135.65625 81.144531 C 135.65625 83.417969 135.65625 85.691406 135.65625 88.035156 C 134.570312 88.035156 133.484375 88.035156 132.367188 88.035156 C 132.367188 82.347656 132.367188 76.664062 132.367188 70.804688 C 135.917969 69.324219 140.5625 68.207031 143.96875 70.695312 Z M 135.65625 72.839844 C 135.65625 74.597656 135.65625 76.355469 135.65625 78.167969 C 136.246094 78.171875 136.839844 78.179688 137.449219 78.1875 C 137.632812 78.1875 137.816406 78.191406 138.003906 78.195312 C 139.90625 78.21875 139.90625 78.21875 141.519531 77.335938 C 141.621094 77.246094 141.71875 77.15625 141.824219 77.0625 C 142.433594 76.332031 142.460938 75.582031 142.441406 74.667969 C 142.355469 73.9375 141.992188 73.523438 141.472656 73.035156 C 140.507812 72.46875 139.570312 72.480469 138.484375 72.488281 C 138.335938 72.488281 138.183594 72.484375 138.027344 72.484375 C 137.808594 72.484375 137.808594 72.484375 137.582031 72.484375 C 137.382812 72.488281 137.382812 72.488281 137.179688 72.488281 C 136.632812 72.527344 136.632812 72.527344 135.65625 72.839844 Z M 135.65625 72.839844 "/>
<path style=" stroke:none;fill-rule:nonzero;fill:rgb(0%,0%,0%);fill-opacity:1;" d="M 152.417969 92.109375 C 152.851562 92.085938 153.285156 92.070312 153.71875 92.058594 C 153.902344 92.050781 153.902344 92.050781 154.09375 92.039062 C 154.4375 92.03125 154.742188 92.039062 155.082031 92.109375 C 155.632812 92.671875 155.609375 93.257812 155.605469 94.019531 C 155.605469 94.128906 155.605469 94.238281 155.605469 94.351562 C 155.605469 94.589844 155.605469 94.828125 155.605469 95.066406 C 155.601562 95.445312 155.605469 95.824219 155.605469 96.203125 C 155.609375 97.277344 155.609375 98.351562 155.605469 99.425781 C 155.605469 100.082031 155.605469 100.742188 155.613281 101.398438 C 155.613281 101.648438 155.613281 101.898438 155.609375 102.148438 C 155.605469 102.5 155.609375 102.851562 155.609375 103.199219 C 155.609375 103.398438 155.609375 103.597656 155.609375 103.804688 C 155.734375 104.464844 155.972656 104.695312 156.492188 105.109375 C 156.863281 105.242188 156.863281 105.242188 157.253906 105.253906 C 157.390625 105.265625 157.53125 105.277344 157.671875 105.289062 C 157.816406 105.296875 157.957031 105.308594 158.105469 105.316406 C 158.324219 105.332031 158.324219 105.332031 158.546875 105.351562 C 158.90625 105.378906 159.265625 105.402344 159.625 105.421875 C 159.582031 105.183594 159.582031 105.183594 159.542969 104.9375 C 159.273438 103.15625 159.195312 101.5 160.25 99.941406 C 161.105469 98.820312 162.332031 98.199219 163.695312 97.90625 C 164.199219 97.863281 164.699219 97.859375 165.203125 97.855469 C 165.335938 97.851562 165.464844 97.847656 165.597656 97.839844 C 167.042969 97.828125 168.410156 98.191406 169.804688 98.53125 C 169.8125 99.53125 169.820312 100.53125 169.824219 101.53125 C 169.824219 101.871094 169.824219 102.210938 169.828125 102.550781 C 169.832031 103.042969 169.835938 103.53125 169.835938 104.023438 C 169.835938 104.171875 169.839844 104.324219 169.839844 104.476562 C 169.839844 105.808594 169.746094 107.03125 168.867188 108.085938 C 168.019531 108.867188 167.003906 108.996094 165.890625 109.027344 C 165.265625 108.96875 164.648438 108.855469 164.03125 108.75 C 162.464844 108.5 160.890625 108.480469 159.308594 108.460938 C 154.9375 108.390625 154.9375 108.390625 153.515625 107.148438 C 152.566406 106.058594 152.367188 104.746094 152.382812 103.347656 C 152.382812 103.226562 152.382812 103.101562 152.382812 102.976562 C 152.382812 102.578125 152.382812 102.175781 152.386719 101.777344 C 152.386719 101.496094 152.386719 101.21875 152.386719 100.9375 C 152.390625 100.207031 152.390625 99.476562 152.394531 98.746094 C 152.398438 97.996094 152.402344 97.25 152.402344 96.5 C 152.40625 95.039062 152.410156 93.574219 152.417969 92.109375 Z M 163.125 101.589844 C 162.585938 102.292969 162.417969 102.621094 162.414062 103.503906 C 162.410156 103.664062 162.410156 103.824219 162.40625 103.992188 C 162.449219 104.542969 162.5 104.929688 162.757812 105.421875 C 163.15625 105.605469 163.453125 105.707031 163.871094 105.796875 C 163.976562 105.820312 164.085938 105.84375 164.191406 105.871094 C 164.9375 106.039062 165.605469 106.140625 166.359375 106.050781 C 166.722656 105.753906 166.722656 105.753906 166.707031 105.253906 C 166.707031 105.054688 166.703125 104.851562 166.703125 104.644531 C 166.703125 104.484375 166.703125 104.484375 166.703125 104.320312 C 166.699219 103.976562 166.695312 103.632812 166.691406 103.289062 C 166.691406 103.054688 166.6875 102.824219 166.6875 102.589844 C 166.683594 102.019531 166.679688 101.449219 166.671875 100.878906 C 166.300781 100.867188 165.929688 100.859375 165.554688 100.851562 C 165.453125 100.847656 165.347656 100.84375 165.242188 100.839844 C 164.390625 100.828125 163.753906 101.003906 163.125 101.589844 Z M 163.125 101.589844 "/>
<path style=" stroke:none;fill-rule:nonzero;fill:rgb(0%,0%,0%);fill-opacity:1;" d="M 155.265625 69.375 C 155.976562 69.429688 156.363281 69.574219 156.859375 70.09375 C 157.636719 71.171875 158.242188 72.34375 158.851562 73.523438 C 159.269531 74.328125 159.761719 75.082031 160.257812 75.835938 C 161.03125 77.027344 161.03125 77.027344 161.03125 77.382812 C 161.136719 77.382812 161.238281 77.382812 161.347656 77.382812 C 161.410156 77.214844 161.410156 77.214844 161.472656 77.042969 C 161.660156 76.597656 161.878906 76.214844 162.136719 75.804688 C 162.234375 75.652344 162.328125 75.503906 162.425781 75.34375 C 162.582031 75.105469 162.582031 75.105469 162.738281 74.859375 C 162.839844 74.691406 162.945312 74.527344 163.050781 74.355469 C 163.265625 74.015625 163.480469 73.675781 163.695312 73.335938 C 163.988281 72.871094 164.285156 72.402344 164.578125 71.9375 C 164.746094 71.667969 164.917969 71.398438 165.085938 71.128906 C 165.164062 71 165.246094 70.875 165.324219 70.746094 C 165.398438 70.632812 165.46875 70.515625 165.546875 70.398438 C 165.640625 70.25 165.640625 70.25 165.734375 70.097656 C 165.890625 69.863281 165.890625 69.863281 166.046875 69.707031 C 166.539062 69.667969 167.03125 69.679688 167.523438 69.679688 C 167.664062 69.675781 167.800781 69.675781 167.945312 69.671875 C 168.078125 69.671875 168.210938 69.671875 168.347656 69.671875 C 168.46875 69.671875 168.589844 69.671875 168.714844 69.667969 C 169.023438 69.707031 169.023438 69.707031 169.335938 70.019531 C 169.503906 70.980469 169.015625 71.605469 168.523438 72.378906 C 168.398438 72.582031 168.398438 72.582031 168.269531 72.789062 C 168.089844 73.078125 167.914062 73.363281 167.734375 73.652344 C 167.453125 74.09375 167.179688 74.539062 166.90625 74.988281 C 166.5625 75.542969 166.21875 76.097656 165.875 76.652344 C 165.800781 76.773438 165.722656 76.898438 165.644531 77.023438 C 165.496094 77.265625 165.339844 77.5 165.179688 77.734375 C 165.105469 77.84375 165.035156 77.953125 164.957031 78.066406 C 164.859375 78.210938 164.859375 78.210938 164.757812 78.355469 C 164.597656 78.726562 164.648438 78.886719 164.792969 79.261719 C 164.902344 79.476562 165.019531 79.683594 165.140625 79.890625 C 165.214844 80.011719 165.289062 80.132812 165.363281 80.257812 C 165.441406 80.386719 165.523438 80.519531 165.605469 80.652344 C 165.6875 80.789062 165.769531 80.925781 165.855469 81.066406 C 166.59375 82.28125 167.355469 83.484375 168.125 84.679688 C 169.496094 86.8125 169.496094 86.8125 169.472656 87.46875 C 169.335938 87.878906 169.335938 87.878906 169.023438 88.035156 C 168.082031 88.179688 167.132812 88.285156 166.203125 88.035156 C 165.609375 87.539062 165.332031 86.925781 165 86.242188 C 164.605469 85.480469 164.132812 84.761719 163.679688 84.035156 C 162.886719 82.769531 162.113281 81.488281 161.347656 80.203125 C 160.972656 80.546875 160.722656 80.894531 160.46875 81.335938 C 160.390625 81.46875 160.3125 81.601562 160.230469 81.742188 C 160.148438 81.886719 160.0625 82.03125 159.976562 82.179688 C 159.886719 82.332031 159.796875 82.480469 159.703125 82.632812 C 159.199219 83.480469 158.730469 84.332031 158.292969 85.21875 C 156.960938 87.832031 156.960938 87.832031 156.085938 88.210938 C 155.183594 88.382812 154.230469 88.335938 153.355469 88.035156 C 153.042969 87.722656 153.042969 87.722656 152.976562 87.238281 C 153.066406 86.429688 153.386719 85.964844 153.835938 85.304688 C 154.007812 85.042969 154.179688 84.78125 154.351562 84.519531 C 154.445312 84.378906 154.535156 84.242188 154.628906 84.097656 C 155.160156 83.289062 155.667969 82.46875 156.175781 81.652344 C 156.277344 81.492188 156.375 81.335938 156.476562 81.171875 C 156.96875 80.386719 157.449219 79.601562 157.898438 78.792969 C 157.835938 78.6875 157.769531 78.585938 157.703125 78.476562 C 157.285156 77.792969 156.863281 77.113281 156.445312 76.429688 C 156.386719 76.335938 156.328125 76.242188 156.269531 76.148438 C 156.152344 75.957031 156.035156 75.765625 155.921875 75.574219 C 155.53125 74.941406 155.136719 74.308594 154.746094 73.675781 C 154.546875 73.355469 154.347656 73.035156 154.148438 72.714844 C 154.058594 72.5625 153.964844 72.414062 153.867188 72.261719 C 153.738281 72.050781 153.738281 72.050781 153.609375 71.839844 C 153.496094 71.65625 153.496094 71.65625 153.378906 71.472656 C 153.183594 71.085938 153.09375 70.761719 153.042969 70.335938 C 153.417969 69.425781 154.402344 69.417969 155.265625 69.375 Z M 155.265625 69.375 "/>
<path style=" stroke:none;fill-rule:nonzero;fill:rgb(0%,0%,0%);fill-opacity:1;" d="M 112.472656 69.394531 C 113.816406 70.300781 114.242188 72.492188 114.792969 73.945312 C 114.882812 74.179688 114.96875 74.410156 115.058594 74.644531 C 115.859375 76.753906 116.65625 78.863281 117.441406 80.980469 C 117.851562 82.078125 118.261719 83.175781 118.695312 84.261719 C 118.753906 84.414062 118.816406 84.566406 118.878906 84.722656 C 118.980469 84.984375 119.085938 85.246094 119.195312 85.507812 C 119.5 86.28125 119.59375 86.890625 119.523438 87.722656 C 119.207031 88.035156 119.207031 88.035156 118.914062 88.070312 C 118.796875 88.070312 118.679688 88.066406 118.5625 88.066406 C 118.433594 88.066406 118.308594 88.0625 118.179688 88.0625 C 118.046875 88.058594 117.914062 88.058594 117.777344 88.054688 C 117.644531 88.054688 117.511719 88.050781 117.375 88.050781 C 117.046875 88.046875 116.71875 88.042969 116.386719 88.035156 C 116.269531 87.757812 116.152344 87.480469 116.035156 87.203125 C 115.972656 87.050781 115.90625 86.894531 115.839844 86.734375 C 115.53125 85.976562 115.257812 85.203125 114.980469 84.433594 C 112.757812 84.382812 110.53125 84.328125 108.242188 84.277344 C 108.140625 84.742188 108.035156 85.207031 107.929688 85.6875 C 107.804688 86.078125 107.667969 86.472656 107.527344 86.859375 C 107.460938 87.050781 107.390625 87.238281 107.320312 87.433594 C 107.148438 87.878906 107.148438 87.878906 106.988281 88.035156 C 106.523438 88.050781 106.058594 88.058594 105.589844 88.054688 C 105.457031 88.054688 105.328125 88.054688 105.191406 88.058594 C 105.066406 88.058594 104.941406 88.054688 104.8125 88.054688 C 104.695312 88.054688 104.582031 88.054688 104.460938 88.054688 C 104.171875 88.035156 104.171875 88.035156 103.855469 87.878906 C 103.65625 87.148438 103.730469 86.691406 103.996094 85.992188 C 104.066406 85.808594 104.132812 85.625 104.207031 85.433594 C 104.28125 85.234375 104.359375 85.035156 104.4375 84.835938 C 104.515625 84.628906 104.59375 84.417969 104.675781 84.210938 C 104.839844 83.773438 105.003906 83.335938 105.171875 82.898438 C 105.414062 82.265625 105.652344 81.636719 105.886719 81.003906 C 106.265625 79.984375 106.648438 78.964844 107.03125 77.949219 C 107.1875 77.535156 107.34375 77.121094 107.5 76.710938 C 107.941406 75.535156 108.386719 74.359375 108.835938 73.183594 C 108.957031 72.867188 109.078125 72.550781 109.195312 72.234375 C 109.339844 71.855469 109.488281 71.476562 109.636719 71.101562 C 109.695312 70.945312 109.695312 70.945312 109.753906 70.785156 C 110.277344 69.488281 111.15625 69.152344 112.472656 69.394531 Z M 111.53125 75.035156 C 111.242188 75.878906 110.953125 76.722656 110.664062 77.570312 C 110.5625 77.855469 110.464844 78.144531 110.367188 78.429688 C 110.222656 78.84375 110.082031 79.257812 109.941406 79.667969 C 109.898438 79.796875 109.851562 79.929688 109.808594 80.0625 C 109.589844 80.589844 109.589844 80.589844 109.496094 81.144531 C 110.945312 81.144531 112.390625 81.144531 113.882812 81.144531 C 113.671875 80.5 113.460938 79.855469 113.246094 79.210938 C 113.175781 78.996094 113.105469 78.777344 113.03125 78.558594 C 112.640625 77.355469 112.230469 76.179688 111.6875 75.035156 C 111.636719 75.035156 111.585938 75.035156 111.53125 75.035156 Z M 111.53125 75.035156 "/>
<path style=" stroke:none;fill-rule:nonzero;fill:rgb(0%,0%,0%);fill-opacity:1;" d="M 138.789062 98.375 C 139.667969 98.375 140.546875 98.375 141.453125 98.375 C 141.503906 100.597656 141.554688 102.820312 141.609375 105.109375 C 144.28125 105.484375 144.28125 105.484375 146.808594 104.699219 C 147.199219 104.1875 147.167969 103.839844 147.171875 103.203125 C 147.171875 103.09375 147.171875 102.984375 147.175781 102.875 C 147.179688 102.53125 147.179688 102.183594 147.179688 101.839844 C 147.179688 101.496094 147.183594 101.152344 147.1875 100.808594 C 147.191406 100.496094 147.191406 100.183594 147.191406 99.871094 C 147.25 99.3125 147.25 99.3125 147.71875 98.375 C 148.597656 98.375 149.476562 98.375 150.382812 98.375 C 150.398438 99.328125 150.40625 100.28125 150.414062 101.234375 C 150.417969 101.554688 150.421875 101.878906 150.429688 102.203125 C 150.4375 102.671875 150.441406 103.136719 150.441406 103.605469 C 150.445312 103.75 150.449219 103.890625 150.453125 104.039062 C 150.453125 105.265625 150.1875 106.359375 149.34375 107.285156 C 148.113281 108.058594 146.96875 108.355469 145.523438 108.398438 C 145.34375 108.40625 145.160156 108.414062 144.972656 108.417969 C 143.742188 108.441406 142.769531 108.316406 141.609375 107.929688 C 141.605469 108.035156 141.605469 108.140625 141.605469 108.25 C 141.597656 108.738281 141.582031 109.222656 141.570312 109.710938 C 141.566406 109.878906 141.566406 110.042969 141.5625 110.214844 C 141.523438 111.472656 141.355469 112.679688 140.472656 113.636719 C 138.878906 114.542969 137.457031 114.511719 135.707031 114.03125 C 135.320312 113.875 135.128906 113.734375 134.871094 113.414062 C 134.820312 113.257812 134.769531 113.101562 134.714844 112.941406 C 134.484375 113.097656 134.484375 113.097656 134.246094 113.253906 C 133.519531 113.449219 133.046875 113.429688 132.367188 113.097656 C 131.808594 112.589844 131.605469 112.292969 131.476562 111.542969 C 131.523438 110.902344 131.757812 110.472656 132.203125 110.011719 C 132.839844 109.609375 133.527344 109.648438 134.246094 109.808594 C 134.648438 110.160156 134.648438 110.160156 135.03125 110.59375 C 136.019531 111.144531 136.882812 111.292969 138.007812 111.21875 C 138.238281 110.75 138.183594 110.324219 138.1875 109.804688 C 138.1875 109.691406 138.1875 109.578125 138.191406 109.460938 C 138.191406 109.214844 138.191406 108.96875 138.195312 108.722656 C 138.195312 108.332031 138.199219 107.941406 138.203125 107.550781 C 138.210938 106.4375 138.21875 105.328125 138.226562 104.21875 C 138.230469 103.539062 138.234375 102.859375 138.242188 102.183594 C 138.242188 101.921875 138.246094 101.664062 138.246094 101.40625 C 138.246094 101.042969 138.25 100.683594 138.253906 100.320312 C 138.253906 100.113281 138.257812 99.90625 138.257812 99.695312 C 138.320312 99.15625 138.320312 99.15625 138.789062 98.375 Z M 138.789062 98.375 "/>
<path style=" stroke:none;fill-rule:nonzero;fill:rgb(0%,0%,0%);fill-opacity:1;" d="M 119.214844 69.65625 C 119.34375 69.65625 119.472656 69.65625 119.605469 69.65625 C 120.03125 69.65625 120.453125 69.660156 120.878906 69.660156 C 121.171875 69.664062 121.46875 69.664062 121.761719 69.664062 C 122.539062 69.664062 123.3125 69.671875 124.085938 69.675781 C 124.878906 69.679688 125.667969 69.683594 126.460938 69.683594 C 128.011719 69.691406 129.5625 69.699219 131.113281 69.707031 C 131.125 70.113281 131.136719 70.515625 131.144531 70.921875 C 131.148438 71.035156 131.152344 71.152344 131.15625 71.269531 C 131.160156 71.773438 131.148438 72.148438 130.914062 72.597656 C 129.792969 73.597656 126.386719 72.996094 125.945312 72.996094 C 125.945312 77.960938 125.945312 82.921875 125.945312 88.035156 C 124.859375 88.035156 123.773438 88.035156 122.65625 88.035156 C 122.65625 83.074219 122.65625 78.109375 122.65625 72.996094 C 120.949219 72.996094 119.242188 72.996094 117.484375 72.996094 C 117.476562 72.542969 117.464844 72.085938 117.457031 71.617188 C 117.453125 71.472656 117.445312 71.332031 117.441406 71.183594 C 117.441406 71.070312 117.441406 70.957031 117.4375 70.839844 C 117.4375 70.726562 117.433594 70.609375 117.433594 70.488281 C 117.484375 70.179688 117.484375 70.179688 117.644531 69.925781 C 118.128906 69.585938 118.644531 69.648438 119.214844 69.65625 Z M 119.214844 69.65625 "/>
<path style=" stroke:none;fill-rule:nonzero;fill:rgb(0%,0%,0%);fill-opacity:1;" d="M 149.128906 69.707031 C 150.058594 69.707031 150.988281 69.707031 151.949219 69.707031 C 151.949219 75.757812 151.949219 81.804688 151.949219 88.035156 C 150.863281 88.035156 149.777344 88.035156 148.65625 88.035156 C 148.648438 85.738281 148.636719 83.441406 148.632812 81.144531 C 148.632812 80.078125 148.628906 79.011719 148.621094 77.945312 C 148.617188 76.914062 148.613281 75.886719 148.613281 74.859375 C 148.613281 74.464844 148.609375 74.070312 148.609375 73.679688 C 148.605469 73.128906 148.605469 72.578125 148.605469 72.03125 C 148.601562 71.867188 148.601562 71.703125 148.597656 71.535156 C 148.601562 71.386719 148.601562 71.234375 148.601562 71.082031 C 148.601562 70.953125 148.601562 70.820312 148.601562 70.6875 C 148.65625 70.335938 148.65625 70.335938 149.128906 69.707031 Z M 149.128906 69.707031 "/>
<path style=" stroke:none;fill-rule:nonzero;fill:rgb(0%,0%,0%);fill-opacity:1;" d="M 146.777344 92.890625 C 147.257812 93.144531 147.597656 93.367188 147.933594 93.792969 C 148.085938 94.335938 148.140625 94.84375 148.03125 95.398438 C 147.757812 95.871094 147.429688 96.246094 146.933594 96.496094 C 146.339844 96.578125 145.765625 96.628906 145.230469 96.332031 C 144.785156 95.964844 144.460938 95.667969 144.390625 95.085938 C 144.371094 94.449219 144.371094 94.085938 144.703125 93.527344 C 145.378906 92.910156 145.851562 92.796875 146.777344 92.890625 Z M 146.777344 92.890625 "/>
<path style=" stroke:none;fill-rule:nonzero;fill:rgb(0%,0%,0%);fill-opacity:1;" d="M 151.164062 93.046875 C 151.632812 93.394531 151.886719 93.824219 152.09375 94.371094 C 152.109375 94.941406 152.011719 95.339844 151.789062 95.867188 C 151.296875 96.328125 150.890625 96.535156 150.222656 96.574219 C 149.5625 96.535156 149.15625 96.308594 148.65625 95.867188 C 148.292969 95.300781 148.304688 94.78125 148.40625 94.132812 C 148.566406 93.628906 148.878906 93.367188 149.285156 93.046875 C 149.941406 92.828125 150.5 92.859375 151.164062 93.046875 Z M 151.164062 93.046875 "/>
<path style=" stroke:none;fill-rule:nonzero;fill:rgb(0%,0%,0%);fill-opacity:1;" d="M 130.171875 109.808594 C 130.671875 110.089844 130.882812 110.3125 131.171875 110.796875 C 131.34375 111.539062 131.238281 112.101562 130.859375 112.757812 C 130.378906 113.199219 130.035156 113.3125 129.390625 113.414062 C 128.738281 113.3125 128.402344 113.203125 127.921875 112.746094 C 127.628906 112.253906 127.523438 111.953125 127.511719 111.375 C 127.980469 109.921875 128.71875 109.597656 130.171875 109.808594 Z M 130.171875 109.808594 "/>
</g>
</svg>
