<svg width="257" height="200" viewBox="0 0 257 200" fill="none" xmlns="http://www.w3.org/2000/svg">
<path d="M112.449 170.977C112.411 170.99 112.37 170.996 112.328 170.992C112.159 170.979 112.034 170.832 112.046 170.664L112.272 167.773C112.285 167.604 112.43 167.479 112.6 167.492C112.768 167.505 112.893 167.652 112.881 167.82L112.656 170.711C112.646 170.836 112.561 170.939 112.449 170.976V170.977ZM113.622 155.911C113.584 155.923 113.543 155.93 113.5 155.926C113.332 155.912 113.206 155.766 113.219 155.598L115.115 131.246C115.128 131.078 115.273 130.951 115.443 130.964C115.611 130.978 115.736 131.124 115.724 131.292L113.828 155.644C113.819 155.77 113.734 155.872 113.622 155.909V155.911Z" fill="#4E1AC7"/>
<path d="M89.9716 99.9549C89.9511 99.9549 89.9306 99.9521 89.9101 99.9494L65.9918 94.9973C65.8264 94.9632 65.7198 94.8019 65.7539 94.6365C65.7881 94.4711 65.9439 94.3659 66.1148 94.3987L90.0331 99.3507C90.1985 99.3849 90.3051 99.5462 90.2709 99.7116C90.2409 99.8565 90.1137 99.9549 89.9716 99.9549ZM54.0948 92.5275C54.0743 92.5275 54.0538 92.5247 54.0333 92.5206L51.044 91.9015C50.8786 91.8673 50.772 91.706 50.8062 91.5406C50.8404 91.3766 51.0003 91.2727 51.167 91.3028L54.1563 91.922C54.3217 91.9561 54.4283 92.1174 54.3941 92.2828C54.3641 92.4263 54.2369 92.5261 54.0948 92.5261V92.5275Z" fill="#4E1AC7"/>
<path d="M117.616 67.8615C117.478 67.8615 117.353 67.7672 117.319 67.6278L111.57 43.8885C111.531 43.7245 111.632 43.5605 111.796 43.5195C111.957 43.4825 112.124 43.581 112.165 43.745L117.914 67.4842C117.954 67.6483 117.852 67.8123 117.688 67.8533C117.665 67.8588 117.641 67.8615 117.617 67.8615H117.616Z" fill="#4E1AC7"/>
<path d="M156.76 101.51C156.665 101.51 156.579 101.446 156.556 101.352C156.527 101.238 156.596 101.125 156.709 101.096L196.022 91.1838C196.134 91.1551 196.25 91.2234 196.278 91.3369C196.306 91.4503 196.238 91.5638 196.124 91.5925L156.811 101.505C156.794 101.509 156.777 101.512 156.76 101.512V101.51Z" fill="#4E1AC7"/>
<path d="M39.6131 77.6794C33.476 77.6794 28.5007 82.6547 28.5007 88.7918C28.5007 94.929 33.476 99.9042 39.6131 99.9042C45.7502 99.9042 50.7255 94.929 50.7255 88.7918C50.7255 82.6547 45.7502 77.6794 39.6131 77.6794Z" fill="#4E1AC7"/>
<path d="M40.7928 88.2355C41.658 87.8022 42.2471 86.9124 42.2471 85.8859C42.2471 84.4316 41.0648 83.2493 39.6105 83.2493C38.1562 83.2493 36.9793 84.4316 36.9793 85.8859C36.9793 86.9124 37.5684 87.8022 38.4282 88.2355C36.4613 88.7535 35.0125 90.5496 35.0125 92.6832C35.0125 94.1225 44.214 94.1225 44.214 92.6832C44.214 90.5496 42.7597 88.7535 40.7928 88.2355Z" fill="white"/>
<path d="M109.09 22.574C103.994 22.574 99.8621 26.7046 99.8621 31.8015C99.8621 36.8984 103.993 41.029 109.09 41.029C114.185 41.029 118.317 36.8984 118.317 31.8015C118.317 26.7046 114.185 22.574 109.09 22.574Z" fill="#4E1AC7"/>
<path d="M110.068 31.3383C110.787 30.9788 111.275 30.2393 111.275 29.3878C111.275 28.1809 110.294 27.1995 109.087 27.1995C107.88 27.1995 106.903 28.1809 106.903 29.3878C106.903 30.2393 107.392 30.9788 108.105 31.3383C106.472 31.7688 105.269 33.26 105.269 35.0315C105.269 36.2261 112.91 36.2261 112.91 35.0315C112.91 33.26 111.703 31.7688 110.07 31.3383H110.068Z" fill="white"/>
<path d="M112.477 158.971C107.381 158.971 103.249 163.102 103.249 168.198C103.249 173.295 107.38 177.426 112.477 177.426C117.572 177.426 121.704 173.295 121.704 168.198C121.704 163.102 117.572 158.971 112.477 158.971Z" fill="#4E1AC7"/>
<path d="M113.457 167.735C114.176 167.376 114.664 166.636 114.664 165.785C114.664 164.578 113.682 163.596 112.475 163.596C111.268 163.596 110.291 164.578 110.291 165.785C110.291 166.636 110.78 167.376 111.494 167.735C109.861 168.166 108.658 169.657 108.658 171.428C108.658 172.623 116.298 172.623 116.298 171.428C116.298 169.657 115.091 168.166 113.458 167.735H113.457Z" fill="white"/>
<path d="M213.847 68.1731C205.754 68.1731 199.194 74.7339 199.194 82.8256C199.194 90.9173 205.755 97.4781 213.847 97.4781C221.94 97.4781 228.499 90.9173 228.499 82.8256C228.499 74.7339 221.939 68.1731 213.847 68.1731Z" fill="#4E1AC7"/>
<path d="M215.402 82.0902C216.544 81.5202 217.32 80.3461 217.32 78.993C217.32 77.0753 215.76 75.5171 213.844 75.5171C211.928 75.5171 210.375 77.0753 210.375 78.993C210.375 80.3461 211.151 81.5202 212.286 82.0902C209.692 82.7736 207.782 85.141 207.782 87.954C207.782 89.8511 219.916 89.8511 219.916 87.954C219.916 85.141 217.998 82.7736 215.405 82.0902H215.402Z" fill="white"/>
<path d="M147.807 38.6C147.807 40.299 146.43 41.6754 144.731 41.6754C143.032 41.6754 141.656 40.299 141.656 38.6C141.656 36.9011 143.032 35.5247 144.731 35.5247C146.43 35.5247 147.807 36.9011 147.807 38.6Z" fill="#4E1AC7"/>
<path d="M76.5219 139.556C76.5219 140.456 75.7934 141.184 74.894 141.184C73.9946 141.184 73.2661 140.456 73.2661 139.556C73.2661 138.657 73.9946 137.928 74.894 137.928C75.7934 137.928 76.5219 138.657 76.5219 139.556Z" fill="#FB813E"/>
<path d="M61.6862 74.7859C61.6862 75.6852 60.9577 76.4138 60.0583 76.4138C59.1589 76.4138 58.4304 75.6852 58.4304 74.7859C58.4304 73.8865 59.1589 73.158 60.0583 73.158C60.9577 73.158 61.6862 73.8865 61.6862 74.7859Z" fill="#FB813E"/>
<path d="M191.23 131.415C191.23 132.614 190.258 133.586 189.059 133.586C187.86 133.586 186.889 132.614 186.889 131.415C186.889 130.217 187.86 129.245 189.059 129.245C190.258 129.245 191.23 130.217 191.23 131.415Z" fill="#4E1AC7"/>
<path d="M171.327 79.4891C171.327 80.5881 170.436 81.4793 169.337 81.4793C168.238 81.4793 167.347 80.5881 167.347 79.4891C167.347 78.3902 168.238 77.499 169.337 77.499C170.436 77.499 171.327 78.3902 171.327 79.4891Z" fill="#1F1625"/>
<path d="M140.155 155.965C140.155 156.765 139.507 157.413 138.707 157.413C137.908 157.413 137.26 156.765 137.26 155.965C137.26 155.165 137.908 154.518 138.707 154.518C139.507 154.518 140.155 155.165 140.155 155.965Z" fill="#0066DB"/>
<path d="M170.93 123.682C171.123 122.804 170.568 121.935 169.69 121.743C168.812 121.55 167.943 122.105 167.75 122.983C167.558 123.861 168.113 124.73 168.991 124.923C169.869 125.115 170.737 124.56 170.93 123.682Z" fill="#FB813E"/>
<path d="M96.7348 158.348C96.7348 160.047 95.3584 161.423 93.6594 161.423C91.9604 161.423 90.584 160.047 90.584 158.348C90.584 156.649 91.9604 155.272 93.6594 155.272C95.3584 155.272 96.7348 156.649 96.7348 158.348Z" fill="white"/>
<path d="M93.6579 161.729C91.7936 161.729 90.2764 160.212 90.2764 158.348C90.2764 156.483 91.7936 154.966 93.6579 154.966C95.5223 154.966 97.0395 156.483 97.0395 158.348C97.0395 160.212 95.5223 161.729 93.6579 161.729ZM93.6579 155.578C92.1298 155.578 90.8873 156.821 90.8873 158.349C90.8873 159.877 92.1298 161.12 93.6579 161.12C95.1861 161.12 96.4285 159.877 96.4285 158.349C96.4285 156.821 95.1861 155.578 93.6579 155.578Z" fill="#1F1625"/>
<path d="M89.9115 52.7128C89.9115 55.2114 87.8858 57.2357 85.3886 57.2357C82.8914 57.2357 80.8657 55.21 80.8657 52.7128C80.8657 50.2156 82.8914 48.1899 85.3886 48.1899C87.8858 48.1899 89.9115 50.2156 89.9115 52.7128Z" fill="white"/>
<path d="M85.3886 57.5419C82.726 57.5419 80.5596 55.3754 80.5596 52.7128C80.5596 50.0502 82.726 47.8838 85.3886 47.8838C88.0512 47.8838 90.2163 50.0502 90.2163 52.7128C90.2163 55.3754 88.0512 57.5419 85.3886 57.5419ZM85.3886 48.4948C83.0623 48.4948 81.1705 50.3865 81.1705 52.7128C81.1705 55.0392 83.0623 56.9309 85.3886 56.9309C87.715 56.9309 89.6053 55.0392 89.6053 52.7128C89.6053 50.3865 87.7136 48.4948 85.3886 48.4948Z" fill="#1F1625"/>
<path d="M148.893 61.3964C148.893 63.895 146.868 65.9193 144.371 65.9193C141.873 65.9193 139.848 63.8936 139.848 61.3964C139.848 58.8992 141.873 56.8735 144.371 56.8735C146.868 56.8735 148.893 58.8992 148.893 61.3964Z" fill="white"/>
<path d="M144.371 66.2255C141.708 66.2255 139.542 64.059 139.542 61.3964C139.542 58.7338 141.708 56.5674 144.371 56.5674C147.033 56.5674 149.198 58.7338 149.198 61.3964C149.198 64.059 147.033 66.2255 144.371 66.2255ZM144.371 57.1784C142.044 57.1784 140.152 59.0701 140.152 61.3964C140.152 63.7228 142.044 65.6145 144.371 65.6145C146.697 65.6145 148.587 63.7228 148.587 61.3964C148.587 59.0701 146.696 57.1784 144.371 57.1784Z" fill="#FB813E"/>
<path d="M162.044 141.186C162.044 143.483 160.181 145.346 157.883 145.346C155.585 145.346 153.722 143.483 153.722 141.186C153.722 138.888 155.585 137.025 157.883 137.025C160.181 137.025 162.044 138.888 162.044 141.186Z" fill="white"/>
<path d="M157.883 145.652C155.42 145.652 153.416 143.649 153.416 141.186C153.416 138.723 155.42 136.719 157.883 136.719C160.346 136.719 162.35 138.723 162.35 141.186C162.35 143.649 160.346 145.652 157.883 145.652ZM157.883 137.33C155.756 137.33 154.027 139.059 154.027 141.186C154.027 143.312 155.756 145.041 157.883 145.041C160.01 145.041 161.739 143.311 161.739 141.186C161.739 139.06 160.01 137.33 157.883 137.33Z" fill="#0066DB"/>
<path d="M87.3772 127.253C87.3772 128.352 86.486 129.243 85.3871 129.243C84.2882 129.243 83.397 128.352 83.397 127.253C83.397 126.154 84.2882 125.263 85.3871 125.263C86.486 125.263 87.3772 126.154 87.3772 127.253Z" fill="white"/>
<path d="M85.3886 129.55C84.1229 129.55 83.0923 128.519 83.0923 127.253C83.0923 125.988 84.1229 124.958 85.3886 124.958C86.6543 124.958 87.6835 125.988 87.6835 127.253C87.6835 128.519 86.6543 129.55 85.3886 129.55ZM85.3886 125.569C84.4591 125.569 83.7033 126.325 83.7033 127.253C83.7033 128.181 84.4591 128.939 85.3886 128.939C86.318 128.939 87.0725 128.183 87.0725 127.253C87.0725 126.324 86.3167 125.569 85.3886 125.569Z" fill="#4E1AC7"/>
<path d="M83.7593 84.5546C83.7593 85.6535 82.8681 86.5447 81.7692 86.5447C80.6702 86.5447 79.7791 85.6535 79.7791 84.5546C79.7791 83.4556 80.6702 82.5645 81.7692 82.5645C82.8681 82.5645 83.7593 83.4556 83.7593 84.5546Z" fill="white"/>
<path d="M81.7693 86.851C80.5036 86.851 79.4744 85.8217 79.4744 84.5561C79.4744 83.2904 80.5036 82.2598 81.7693 82.2598C83.035 82.2598 84.0642 83.2904 84.0642 84.5561C84.0642 85.8217 83.035 86.851 81.7693 86.851ZM81.7693 82.8707C80.8412 82.8707 80.0853 83.6266 80.0853 84.5561C80.0853 85.4855 80.8412 86.24 81.7693 86.24C82.6974 86.24 83.4532 85.4841 83.4532 84.5561C83.4532 83.628 82.6974 82.8707 81.7693 82.8707Z" fill="#4E1AC7"/>
<path d="M182.183 82.7463C182.183 83.6457 181.454 84.3742 180.555 84.3742C179.655 84.3742 178.927 83.6457 178.927 82.7463C178.927 81.8469 179.655 81.1184 180.555 81.1184C181.454 81.1184 182.183 81.8469 182.183 82.7463Z" fill="white"/>
<path d="M180.555 84.6804C179.489 84.6804 178.621 83.8125 178.621 82.7463C178.621 81.6802 179.489 80.8123 180.555 80.8123C181.621 80.8123 182.489 81.6802 182.489 82.7463C182.489 83.8125 181.621 84.6804 180.555 84.6804ZM180.555 81.4232C179.825 81.4232 179.232 82.0164 179.232 82.7463C179.232 83.4762 179.825 84.0694 180.555 84.0694C181.285 84.0694 181.878 83.4762 181.878 82.7463C181.878 82.0164 181.283 81.4232 180.555 81.4232Z" fill="#4E1AC7"/>
<path d="M122.453 133.306C122.437 133.306 122.42 133.304 122.403 133.302C113.611 131.83 106.006 126.537 101.532 118.782C101.449 118.635 101.498 118.448 101.644 118.365C101.793 118.28 101.978 118.331 102.061 118.477C106.442 126.074 113.893 131.258 122.502 132.7C122.669 132.728 122.781 132.885 122.752 133.052C122.728 133.201 122.598 133.307 122.452 133.307L122.453 133.306ZM135.327 132.624C135.193 132.624 135.072 132.536 135.033 132.401C134.988 132.238 135.083 132.07 135.245 132.025C136.276 131.737 137.3 131.388 138.289 130.989C138.444 130.925 138.623 131.003 138.687 131.158C138.75 131.314 138.675 131.492 138.518 131.556C137.509 131.964 136.463 132.32 135.411 132.614C135.383 132.622 135.355 132.625 135.329 132.625L135.327 132.624ZM152.868 119.035C152.816 119.035 152.763 119.021 152.715 118.992C152.569 118.907 152.519 118.72 152.604 118.575C155.185 114.143 156.549 109.072 156.548 103.913C156.548 100.421 155.938 97.0053 154.734 93.7631C154.675 93.6046 154.756 93.4296 154.914 93.3708C155.074 93.3121 155.248 93.3927 155.306 93.5513C156.535 96.8617 157.159 100.349 157.159 103.915C157.159 109.181 155.767 114.357 153.132 118.883C153.076 118.98 152.973 119.035 152.868 119.035ZM98.1521 100.141C98.1384 100.141 98.1247 100.141 98.1097 100.138C97.9429 100.115 97.8254 99.9604 97.8486 99.7936C97.9976 98.7111 98.2095 97.6285 98.476 96.5733C98.5184 96.4093 98.6879 96.3123 98.8464 96.3519C99.0104 96.3929 99.1089 96.5597 99.0679 96.7223C98.8054 97.7556 98.599 98.8177 98.4528 99.877C98.4323 100.03 98.3011 100.141 98.1507 100.141H98.1521ZM104.608 85.4582C104.539 85.4582 104.471 85.435 104.414 85.3885C104.284 85.2819 104.266 85.0892 104.373 84.9593C110.059 78.0691 118.439 74.1189 127.363 74.1189H127.479C127.648 74.1189 127.784 74.2556 127.784 74.4237C127.784 74.5918 127.647 74.7285 127.479 74.7285H127.363C118.622 74.7285 110.414 78.5994 104.843 85.3475C104.783 85.4213 104.695 85.4582 104.608 85.4582ZM147.998 83.1523C147.921 83.1523 147.844 83.1236 147.785 83.0649C147.022 82.3172 146.209 81.6037 145.368 80.9435C145.236 80.8396 145.214 80.6469 145.318 80.5143C145.421 80.3804 145.613 80.3599 145.747 80.4638C146.604 81.1376 147.433 81.8661 148.213 82.6275C148.333 82.745 148.336 82.9391 148.217 83.0594C148.157 83.1209 148.077 83.151 147.998 83.151V83.1523Z" fill="#FB813E"/>
<path d="M127.363 80.7329C114.56 80.7329 104.183 91.1113 104.183 103.913C104.183 116.715 114.561 127.093 127.363 127.093C140.165 127.093 150.543 116.715 150.543 103.913C150.543 91.1113 140.165 80.7329 127.363 80.7329Z" fill="white"/>
<path d="M127.363 127.401C114.412 127.401 103.876 116.865 103.876 103.915C103.876 90.9638 114.413 80.4282 127.363 80.4282C140.312 80.4282 150.849 90.9638 150.849 103.915C150.849 116.865 140.314 127.401 127.363 127.401ZM127.363 81.0392C114.748 81.0392 104.487 91.3014 104.487 103.915C104.487 116.528 114.75 126.79 127.363 126.79C139.976 126.79 150.238 116.528 150.238 103.915C150.238 91.3014 139.976 81.0392 127.363 81.0392Z" fill="#FB813E"/>
<path d="M129.823 102.75C131.629 101.848 132.856 99.9905 132.856 97.8486C132.856 94.8156 130.39 92.3499 127.357 92.3499C124.324 92.3499 121.868 94.8156 121.868 97.8486C121.868 99.9891 123.096 101.847 124.89 102.75C120.787 103.831 117.765 107.578 117.765 112.027C117.765 115.028 136.959 115.028 136.959 112.027C136.959 107.578 133.926 103.831 129.823 102.75Z" fill="#FB813E"/>
</svg>
