<svg width="194" height="139" viewBox="0 0 194 139" fill="none" xmlns="http://www.w3.org/2000/svg">
<g clip-path="url(#clip0_706_1838)">
<path d="M172.731 2.93457H139.291C138.474 2.93457 137.811 3.59843 137.811 4.41734V24.1689C137.811 24.9878 138.474 25.6517 139.291 25.6517H172.731C173.549 25.6517 174.212 24.9878 174.212 24.1689V4.41734C174.212 3.59843 173.549 2.93457 172.731 2.93457Z" fill="#F4F4F4"/>
<g opacity="0.04">
<path d="M172.731 2.93457H139.291C138.899 2.93452 138.524 3.0897 138.246 3.36617C137.969 3.64265 137.812 4.01793 137.81 4.40996L156.01 16.8505L174.211 4.40996C174.209 4.01816 174.052 3.64305 173.775 3.3666C173.498 3.09015 173.123 2.93483 172.731 2.93457Z" fill="#41324C"/>
</g>
<path d="M184.248 92.5845H142.035C141.003 92.5845 140.167 93.4225 140.167 94.4562V119.39C140.167 120.423 141.003 121.261 142.035 121.261H184.248C185.28 121.261 186.117 120.423 186.117 119.39V94.4562C186.117 93.4225 185.28 92.5845 184.248 92.5845Z" fill="#F4F4F4"/>
<g opacity="0.04">
<path d="M184.249 92.5845H142.035C141.541 92.5844 141.067 92.7802 140.717 93.1292C140.367 93.4782 140.169 93.9518 140.166 94.4467L163.141 110.151L186.116 94.4467C186.113 93.9522 185.915 93.4788 185.566 93.1299C185.216 92.781 184.742 92.5849 184.249 92.5845Z" fill="#41324C"/>
</g>
<path d="M41.4867 38.7305H8.51455C7.70843 38.7305 7.05493 39.385 7.05493 40.1924V59.6676C7.05493 60.475 7.70843 61.1295 8.51455 61.1295H41.4867C42.2928 61.1295 42.9463 60.475 42.9463 59.6676V40.1924C42.9463 39.385 42.2928 38.7305 41.4867 38.7305Z" fill="#F4F4F4"/>
<g opacity="0.04">
<path d="M41.4865 38.7305H8.51455C8.12863 38.7304 7.75838 38.8834 7.48476 39.156C7.21115 39.4286 7.05643 39.7987 7.05444 40.1852L25.0001 52.4521L42.9458 40.1857C42.944 39.7992 42.7895 39.4291 42.5161 39.1564C42.2426 38.8837 41.8724 38.7306 41.4865 38.7305Z" fill="#41324C"/>
</g>
<path d="M41.2647 52.376C40.8405 52.1776 40.4206 51.9726 40.017 51.7669C39.9645 51.7401 39.9036 51.7353 39.8477 51.7536C39.7917 51.7718 39.7452 51.8115 39.7185 51.8641C39.6918 51.9166 39.687 51.9776 39.7052 52.0337C39.7234 52.0898 39.7631 52.1363 39.8156 52.163C40.2235 52.3712 40.6479 52.5782 41.0767 52.779C41.1298 52.8027 41.1902 52.8045 41.2447 52.7841C41.2992 52.7637 41.3435 52.7227 41.3681 52.6699C41.3928 52.617 41.3957 52.5567 41.3763 52.5017C41.3569 52.4467 41.3168 52.4016 41.2645 52.376H41.2647Z" fill="#41324C"/>
<path d="M47.7532 54.8469L47.7214 54.8372C47.2856 54.7035 46.8508 54.5646 46.429 54.424C46.3732 54.4054 46.3122 54.4097 46.2596 54.4361C46.2069 54.4625 46.1669 54.5088 46.1483 54.5647C46.1297 54.6207 46.1341 54.6817 46.1604 54.7345C46.1868 54.7872 46.233 54.8273 46.2888 54.8459C46.7147 54.9876 47.1523 55.1277 47.5898 55.2617L47.6245 55.2724L47.6351 55.2753C47.6915 55.29 47.7514 55.2819 47.8019 55.2527C47.8523 55.2235 47.8893 55.1756 47.9048 55.1194C47.9203 55.0631 47.9131 55.003 47.8848 54.952C47.8564 54.901 47.8091 54.8633 47.7532 54.8469Z" fill="#41324C"/>
<path d="M38.1873 50.7733C37.7844 50.5399 37.3847 50.2976 37.0003 50.0546C36.9757 50.0381 36.948 50.0267 36.9189 50.0211C36.8898 50.0155 36.8598 50.0158 36.8308 50.0219C36.8018 50.0281 36.7743 50.04 36.75 50.057C36.7256 50.0739 36.7049 50.0956 36.6891 50.1207C36.6733 50.1458 36.6626 50.1739 36.6578 50.2032C36.6529 50.2325 36.654 50.2624 36.6609 50.2913C36.6678 50.3202 36.6804 50.3474 36.698 50.3713C36.7155 50.3952 36.7377 50.4154 36.7632 50.4306C37.1526 50.6767 37.557 50.9227 37.9648 51.1583C37.9829 51.1686 38.0022 51.1765 38.0223 51.1816C38.0742 51.1945 38.1291 51.1882 38.1767 51.1639C38.2243 51.1395 38.2616 51.0988 38.2817 51.0491C38.3017 50.9995 38.3032 50.9442 38.2859 50.8936C38.2685 50.8429 38.2335 50.8002 38.1873 50.7733Z" fill="#41324C"/>
<path d="M51.0979 55.8408C50.6462 55.7096 50.1995 55.579 49.758 55.4491C49.73 55.4403 49.7006 55.4372 49.6714 55.44C49.6422 55.4428 49.6139 55.4515 49.5882 55.4655C49.5624 55.4795 49.5398 55.4986 49.5216 55.5216C49.5033 55.5446 49.4899 55.5711 49.4822 55.5994C49.4656 55.6559 49.472 55.7168 49.5002 55.7686C49.5284 55.8204 49.5759 55.8589 49.6324 55.8756C50.0742 56.0062 50.5216 56.137 50.9745 56.268L50.9826 56.2701C51.0388 56.2836 51.0981 56.2745 51.1477 56.2448C51.1974 56.2152 51.2335 56.1673 51.2485 56.1114C51.2634 56.0554 51.256 55.9958 51.2277 55.9453C51.1995 55.8948 51.1526 55.8573 51.0972 55.8408H51.0979Z" fill="#41324C"/>
<path d="M35.2787 48.8877C34.902 48.6146 34.5315 48.3323 34.1758 48.048C34.1298 48.0113 34.071 47.9943 34.0125 48.0009C33.954 48.0075 33.9006 48.0371 33.8639 48.0832C33.8272 48.1293 33.8102 48.1881 33.8168 48.2467C33.8234 48.3053 33.853 48.3589 33.899 48.3956C34.2601 48.6842 34.636 48.9708 35.0181 49.2478C35.0411 49.2645 35.0671 49.2766 35.0946 49.2836C35.1446 49.296 35.1974 49.2907 35.2439 49.2684C35.2904 49.2462 35.3277 49.2084 35.3495 49.1616C35.3712 49.1148 35.3761 49.0619 35.3631 49.012C35.3502 48.962 35.3204 48.9181 35.2787 48.8877Z" fill="#41324C"/>
<path d="M44.4645 53.7255C44.0318 53.5614 43.5965 53.3897 43.1721 53.2145C43.1452 53.2034 43.1163 53.1977 43.0871 53.1978C43.058 53.1978 43.0291 53.2037 43.0022 53.2149C42.9753 53.2261 42.9509 53.2426 42.9303 53.2633C42.9098 53.284 42.8935 53.3085 42.8824 53.3355C42.8713 53.3625 42.8656 53.3915 42.8657 53.4207C42.8658 53.4499 42.8716 53.4787 42.8828 53.5057C42.8941 53.5326 42.9105 53.5571 42.9311 53.5777C42.9518 53.5983 42.9763 53.6146 43.0033 53.6257C43.4321 53.8024 43.8713 53.9759 44.3075 54.1413C44.3156 54.1444 44.3239 54.147 44.3324 54.149C44.3873 54.1627 44.4453 54.1548 44.4946 54.127C44.5439 54.0992 44.5808 54.0537 44.5976 53.9996C44.6145 53.9455 44.6101 53.887 44.5854 53.8361C44.5606 53.7851 44.5174 53.7456 44.4645 53.7255Z" fill="#41324C"/>
<path d="M32.6019 46.6925C32.2621 46.3762 31.9304 46.0499 31.6143 45.7227C31.5941 45.7017 31.5699 45.6849 31.5432 45.6732C31.5164 45.6616 31.4877 45.6553 31.4585 45.6548C31.4294 45.6543 31.4004 45.6596 31.3733 45.6703C31.3462 45.681 31.3214 45.6969 31.3005 45.7172C31.2795 45.7375 31.2627 45.7617 31.2511 45.7885C31.2395 45.8152 31.2332 45.844 31.2327 45.8732C31.2322 45.9024 31.2374 45.9314 31.2481 45.9586C31.2588 45.9858 31.2747 46.0106 31.295 46.0316C31.6158 46.3646 31.954 46.6966 32.2998 47.0183C32.3211 47.0382 32.3462 47.0536 32.3735 47.0638C32.4008 47.074 32.4299 47.0786 32.459 47.0776C32.4881 47.0765 32.5168 47.0697 32.5433 47.0575C32.5698 47.0454 32.5936 47.0281 32.6135 47.0067C32.6333 46.9853 32.6488 46.9602 32.6589 46.9329C32.6691 46.9055 32.6738 46.8764 32.6727 46.8472C32.6716 46.818 32.6648 46.7893 32.6527 46.7628C32.6405 46.7363 32.6233 46.7124 32.6019 46.6925Z" fill="#41324C"/>
<path d="M32.5887 19.4178C32.9196 19.1041 33.2661 18.7923 33.6184 18.4911C33.6406 18.4721 33.6588 18.449 33.6721 18.423C33.6853 18.397 33.6933 18.3686 33.6956 18.3395C33.6979 18.3104 33.6945 18.2811 33.6855 18.2533C33.6765 18.2255 33.6621 18.1998 33.6432 18.1776C33.6242 18.1554 33.6011 18.1371 33.5751 18.1239C33.5492 18.1106 33.5208 18.1026 33.4918 18.1003C33.4627 18.098 33.4335 18.1015 33.4058 18.1105C33.378 18.1195 33.3523 18.1339 33.3302 18.1528C32.9721 18.4589 32.62 18.7762 32.2834 19.0949C32.2623 19.115 32.2453 19.1391 32.2334 19.1657C32.2215 19.1924 32.215 19.2211 32.2142 19.2503C32.2134 19.2795 32.2184 19.3086 32.2288 19.3358C32.2392 19.3631 32.2549 19.388 32.2749 19.4092C32.295 19.4304 32.319 19.4475 32.3456 19.4594C32.3722 19.4713 32.4009 19.4778 32.4301 19.4786C32.4592 19.4794 32.4882 19.4744 32.5154 19.464C32.5427 19.4535 32.5676 19.4378 32.5887 19.4178Z" fill="#41324C"/>
<path d="M26.6638 28.1341C26.669 28.1359 26.6742 28.1373 26.6801 28.1386C26.7345 28.1522 26.792 28.1447 26.841 28.1176C26.89 28.0905 26.927 28.0458 26.9445 27.9925C27.0865 27.5612 27.2486 27.126 27.4267 26.6992C27.4494 26.6448 27.4496 26.5836 27.4273 26.5291C27.4049 26.4745 27.3619 26.4311 27.3076 26.4083C27.2533 26.3856 27.1922 26.3854 27.1377 26.4077C27.0833 26.4301 27.0399 26.4732 27.0172 26.5276C26.8348 26.9651 26.6685 27.4111 26.5229 27.8534C26.5045 27.9093 26.5089 27.9703 26.5354 28.0229C26.5618 28.0755 26.608 28.1155 26.6638 28.1341Z" fill="#41324C"/>
<path d="M26.2075 31.3546C26.2578 30.9027 26.3285 30.4447 26.4178 29.9931C26.4235 29.9645 26.4234 29.935 26.4177 29.9063C26.412 29.8777 26.4007 29.8505 26.3845 29.8262C26.3683 29.802 26.3475 29.7811 26.3232 29.7649C26.299 29.7487 26.2718 29.7375 26.2432 29.7318C26.2146 29.7261 26.1852 29.7261 26.1566 29.7318C26.128 29.7376 26.1008 29.7489 26.0766 29.7651C26.0524 29.7813 26.0316 29.8022 26.0154 29.8265C25.9992 29.8508 25.988 29.878 25.9823 29.9066C25.8906 30.3709 25.8185 30.8417 25.7663 31.3058C25.7603 31.3592 25.7739 31.413 25.8045 31.4572C25.8351 31.5013 25.8806 31.5329 25.9327 31.5461C25.9424 31.5486 25.9523 31.5503 25.9623 31.5513C25.9913 31.5546 26.0207 31.5521 26.0487 31.544C26.0767 31.5358 26.1029 31.5222 26.1257 31.504C26.1484 31.4857 26.1674 31.4631 26.1814 31.4375C26.1955 31.4118 26.2043 31.3837 26.2075 31.3546Z" fill="#41324C"/>
<path d="M28.9741 23.3423C28.9247 23.3103 28.8647 23.2992 28.8071 23.3115C28.7496 23.3238 28.6993 23.3585 28.6672 23.4079C28.4099 23.806 28.1655 24.2135 27.9408 24.6195C27.9123 24.6711 27.9055 24.7319 27.9217 24.7886C27.938 24.8453 27.976 24.8932 28.0275 24.9218C28.0445 24.9311 28.0626 24.9383 28.0814 24.9432C28.1288 24.955 28.1788 24.9508 28.2236 24.9312C28.2685 24.9117 28.3056 24.8779 28.3293 24.835C28.5489 24.4379 28.7879 24.0391 29.0396 23.6495C29.0716 23.6001 29.0826 23.5399 29.0703 23.4823C29.058 23.4247 29.0234 23.3744 28.9741 23.3423Z" fill="#41324C"/>
<path d="M26.1117 33.4185C26.1095 33.3603 26.0846 33.3053 26.0423 33.2653C26.0001 33.2253 25.9438 33.2036 25.8857 33.2046C25.8276 33.2057 25.7722 33.2296 25.7314 33.2711C25.6907 33.3126 25.6678 33.3685 25.6677 33.4267C25.6764 33.8965 25.706 34.3722 25.7555 34.8409C25.7586 34.8699 25.7673 34.8981 25.7812 34.9237C25.7952 34.9494 25.814 34.972 25.8367 34.9904C25.8593 35.0087 25.8854 35.0224 25.9133 35.0307C25.9413 35.039 25.9706 35.0416 25.9995 35.0386C26.0285 35.0355 26.0566 35.0267 26.0822 35.0128C26.1078 34.9989 26.1304 34.98 26.1488 34.9573C26.1671 34.9346 26.1808 34.9085 26.189 34.8805C26.1973 34.8525 26.2 34.8232 26.1969 34.7941C26.1489 34.3383 26.1201 33.8755 26.1117 33.4185Z" fill="#41324C"/>
<path d="M29.9377 22.0009C29.9623 22.0207 29.9909 22.0349 30.0215 22.0426C30.0629 22.0529 30.1064 22.0511 30.1468 22.0374C30.1872 22.0236 30.2228 21.9985 30.2493 21.965C30.5312 21.6095 30.8311 21.2532 31.141 20.9063C31.1784 20.862 31.1971 20.8049 31.1931 20.7471C31.1891 20.6893 31.1627 20.6353 31.1195 20.5967C31.0764 20.558 31.0199 20.5378 30.9621 20.5402C30.9042 20.5427 30.8497 20.5677 30.81 20.6098C30.4943 20.9633 30.1887 21.3262 29.9016 21.6887C29.8835 21.7116 29.87 21.7378 29.862 21.7659C29.854 21.7939 29.8516 21.8233 29.855 21.8523C29.8583 21.8813 29.8674 21.9094 29.8815 21.9349C29.8957 21.9604 29.9148 21.9828 29.9377 22.0009Z" fill="#41324C"/>
<path d="M27.6787 40.0819C27.654 40.0284 27.609 39.987 27.5537 39.9667C27.4984 39.9464 27.4373 39.949 27.3839 39.9738C27.3305 39.9986 27.2891 40.0437 27.2689 40.099C27.2487 40.1544 27.2512 40.2156 27.276 40.2691C27.4715 40.6905 27.6877 41.1139 27.9187 41.5279C27.9482 41.5779 27.996 41.6144 28.052 41.6295C28.108 41.6447 28.1677 41.6373 28.2183 41.6089C28.269 41.5805 28.3065 41.5334 28.3229 41.4777C28.3393 41.422 28.3333 41.3621 28.3062 41.3107C28.0807 40.9067 27.8704 40.4936 27.6787 40.0819Z" fill="#41324C"/>
<path d="M36.4413 16.0911C36.4084 16.0421 36.3575 16.0082 36.2998 15.9969C36.242 15.9855 36.1821 15.9975 36.1332 16.0304C35.7416 16.2929 35.3547 16.5658 34.9831 16.8401C34.9596 16.8574 34.9398 16.8792 34.9247 16.9042C34.9097 16.9292 34.8997 16.9569 34.8953 16.9858C34.891 17.0146 34.8923 17.0441 34.8993 17.0724C34.9063 17.1008 34.9188 17.1275 34.9361 17.151C34.9534 17.1745 34.9751 17.1943 35.0001 17.2094C35.0251 17.2245 35.0527 17.2345 35.0815 17.2389C35.1104 17.2432 35.1398 17.2419 35.1681 17.2349C35.1964 17.2279 35.223 17.2154 35.2465 17.198C35.6128 16.9277 35.9945 16.659 36.3805 16.3995C36.4294 16.3667 36.4632 16.3157 36.4746 16.2579C36.486 16.2001 36.474 16.14 36.4413 16.0911Z" fill="#41324C"/>
<path d="M30.2416 44.1668C29.951 43.8059 29.6711 43.4345 29.4099 43.0631C29.3934 43.0385 29.3722 43.0174 29.3474 43.001C29.3227 42.9847 29.295 42.9735 29.2658 42.9681C29.2367 42.9627 29.2068 42.9631 29.1778 42.9695C29.1489 42.9758 29.1215 42.9879 29.0973 43.005C29.0731 43.0221 29.0525 43.0439 29.0369 43.069C29.0212 43.0942 29.0107 43.1223 29.006 43.1516C29.0013 43.1808 29.0025 43.2108 29.0095 43.2396C29.0166 43.2684 29.0293 43.2956 29.0469 43.3194C29.3136 43.6985 29.5992 44.0776 29.8961 44.4462C29.9141 44.4699 29.9366 44.4897 29.9623 44.5045C29.9881 44.5193 30.0165 44.5288 30.046 44.5324C30.0755 44.536 30.1054 44.5337 30.1339 44.5255C30.1624 44.5173 30.1891 44.5035 30.2122 44.4848C30.2353 44.4662 30.2544 44.4431 30.2685 44.4169C30.2825 44.3907 30.2911 44.3619 30.2939 44.3323C30.2966 44.3027 30.2934 44.2728 30.2844 44.2445C30.2754 44.2162 30.2609 44.1899 30.2416 44.1673V44.1668Z" fill="#41324C"/>
<path d="M26.5454 36.831C26.5317 36.7736 26.4959 36.724 26.4457 36.6931C26.3956 36.6622 26.3353 36.6525 26.278 36.6662C26.2207 36.6799 26.1712 36.7158 26.1403 36.766C26.1095 36.8162 26.0998 36.8766 26.1135 36.934C26.2217 37.3894 26.3509 37.8476 26.4975 38.2955C26.5159 38.3516 26.5557 38.398 26.6082 38.4247C26.6607 38.4513 26.7216 38.456 26.7776 38.4376C26.8335 38.4192 26.8799 38.3794 26.9065 38.3268C26.9331 38.2742 26.9378 38.2131 26.9194 38.1571C26.7766 37.7209 26.6508 37.2744 26.5454 36.831Z" fill="#41324C"/>
<path d="M39.446 14.3159C39.4183 14.2639 39.3711 14.225 39.3148 14.2079C39.2584 14.1907 39.1976 14.1966 39.1457 14.2244C38.7315 14.4457 38.3187 14.6765 37.9193 14.9102C37.8941 14.925 37.8721 14.9445 37.8545 14.9678C37.8368 14.991 37.824 15.0176 37.8166 15.0458C37.8092 15.074 37.8074 15.1035 37.8114 15.1324C37.8153 15.1613 37.825 15.1892 37.8397 15.2144C37.8544 15.2396 37.8739 15.2616 37.8971 15.2793C37.9203 15.2969 37.9468 15.3098 37.975 15.3172C38.0032 15.3246 38.0326 15.3264 38.0615 15.3224C38.0903 15.3185 38.1182 15.3088 38.1433 15.2941C38.5379 15.0633 38.9459 14.8348 39.3553 14.6168C39.4071 14.5889 39.4458 14.5415 39.4628 14.4851C39.4798 14.4287 39.4738 14.3679 39.446 14.3159Z" fill="#41324C"/>
<path d="M41.6901 12.9824C41.4737 13.0788 41.2592 13.1765 41.0468 13.2753C41.0203 13.2876 40.9966 13.305 40.9768 13.3265C40.9571 13.348 40.9418 13.3732 40.9317 13.4006C40.9217 13.428 40.9172 13.4571 40.9184 13.4863C40.9196 13.5155 40.9266 13.5441 40.9388 13.5706C40.9511 13.5971 40.9685 13.6209 40.9899 13.6407C41.0114 13.6604 41.0365 13.6758 41.0639 13.6858C41.0913 13.6959 41.1203 13.7004 41.1495 13.6992C41.1786 13.698 41.2072 13.691 41.2336 13.6787C41.4442 13.5803 41.6565 13.4836 41.8706 13.3887C41.9223 13.3634 41.9622 13.3191 41.9819 13.2649C42.0016 13.2108 41.9996 13.1511 41.9762 13.0985C41.9529 13.0458 41.91 13.0043 41.8567 12.9826C41.8034 12.961 41.7438 12.9609 41.6904 12.9824H41.6901Z" fill="#41324C"/>
<path d="M139.82 129.922C139.383 130.007 139.139 130.045 139.136 130.046C139.108 130.05 139.08 130.06 139.055 130.075C139.03 130.091 139.009 130.111 138.991 130.134C138.957 130.182 138.942 130.241 138.951 130.3C138.96 130.358 138.992 130.41 139.04 130.445C139.087 130.48 139.147 130.494 139.205 130.485C139.215 130.483 139.458 130.445 139.904 130.358C139.933 130.353 139.961 130.342 139.985 130.326C140.01 130.31 140.031 130.29 140.048 130.265C140.064 130.241 140.076 130.214 140.082 130.185C140.088 130.156 140.088 130.126 140.083 130.097C140.077 130.068 140.066 130.041 140.049 130.016C140.033 129.992 140.012 129.971 139.988 129.955C139.963 129.938 139.936 129.927 139.907 129.922C139.878 129.916 139.848 129.916 139.82 129.922Z" fill="#41324C"/>
<path d="M173.112 99.3288C173.074 99.7896 173.025 100.254 172.967 100.709C172.96 100.763 172.973 100.818 173.004 100.863C173.034 100.908 173.08 100.94 173.133 100.953C173.141 100.955 173.15 100.957 173.159 100.958C173.188 100.962 173.217 100.96 173.245 100.952C173.273 100.945 173.3 100.931 173.323 100.914C173.346 100.896 173.365 100.873 173.38 100.848C173.394 100.823 173.404 100.795 173.407 100.766C173.466 100.304 173.516 99.8328 173.555 99.3654C173.557 99.3082 173.537 99.2524 173.499 99.2096C173.461 99.1668 173.408 99.1402 173.351 99.1355C173.294 99.1308 173.238 99.1483 173.193 99.1843C173.149 99.2203 173.12 99.2721 173.112 99.3288H173.112Z" fill="#41324C"/>
<path d="M173.217 97.2489C173.216 97.2992 173.232 97.3484 173.263 97.3883C173.293 97.4283 173.336 97.4567 173.385 97.4689C173.401 97.473 173.418 97.4752 173.434 97.4755C173.463 97.4761 173.492 97.4709 173.52 97.4602C173.547 97.4496 173.571 97.4337 173.593 97.4134C173.614 97.3932 173.63 97.369 173.642 97.3422C173.654 97.3155 173.66 97.2866 173.66 97.2574C173.669 96.7958 173.669 96.3224 173.659 95.8506C173.658 95.7917 173.634 95.7356 173.591 95.6948C173.549 95.6539 173.492 95.6317 173.433 95.6329C173.374 95.6341 173.318 95.6586 173.277 95.7012C173.237 95.7437 173.214 95.8007 173.216 95.8596C173.226 96.3255 173.226 96.7926 173.217 97.2489Z" fill="#41324C"/>
<path d="M172.865 90.5066C172.9 90.5155 172.938 90.5154 172.973 90.5063C173.009 90.4972 173.042 90.4794 173.069 90.4545C173.096 90.4296 173.116 90.3983 173.128 90.3635C173.14 90.3287 173.144 90.2914 173.138 90.2551C173.063 89.7966 172.98 89.3312 172.891 88.8719C172.879 88.8147 172.845 88.7644 172.796 88.732C172.748 88.6997 172.689 88.6878 172.631 88.6989C172.574 88.7101 172.523 88.7434 172.49 88.7916C172.457 88.8399 172.445 88.8992 172.455 88.9567C172.543 89.4116 172.626 89.8726 172.699 90.3266C172.706 90.3695 172.726 90.4095 172.755 90.4415C172.785 90.4735 172.823 90.4961 172.865 90.5066Z" fill="#41324C"/>
<path d="M164.738 117.728C164.718 117.708 164.694 117.691 164.667 117.679C164.64 117.668 164.611 117.662 164.582 117.662C164.553 117.661 164.524 117.667 164.497 117.678C164.47 117.689 164.445 117.705 164.424 117.726C164.097 118.048 163.756 118.369 163.415 118.679C163.372 118.719 163.345 118.774 163.343 118.833C163.34 118.892 163.36 118.949 163.4 118.993C163.439 119.037 163.495 119.063 163.553 119.066C163.612 119.069 163.67 119.048 163.713 119.008C164.059 118.695 164.403 118.37 164.735 118.043C164.756 118.022 164.773 117.998 164.784 117.971C164.795 117.944 164.801 117.915 164.802 117.886C164.802 117.857 164.797 117.828 164.786 117.801C164.775 117.774 164.759 117.749 164.738 117.728Z" fill="#41324C"/>
<path d="M159.038 122.095C158.656 122.351 158.264 122.606 157.872 122.852C157.822 122.883 157.786 122.933 157.773 122.991C157.76 123.048 157.77 123.109 157.801 123.159C157.832 123.209 157.882 123.244 157.94 123.257C157.997 123.271 158.058 123.261 158.107 123.229C158.504 122.98 158.9 122.723 159.285 122.464C159.309 122.448 159.33 122.427 159.346 122.403C159.362 122.378 159.373 122.351 159.379 122.322C159.385 122.294 159.385 122.264 159.379 122.236C159.373 122.207 159.362 122.18 159.346 122.155C159.329 122.131 159.308 122.11 159.284 122.094C159.26 122.078 159.233 122.067 159.204 122.061C159.176 122.056 159.146 122.056 159.118 122.062C159.089 122.067 159.062 122.079 159.038 122.095V122.095Z" fill="#41324C"/>
<path d="M172.013 86.9168C172.02 86.9458 172.031 86.9733 172.048 86.9976C172.065 87.0219 172.087 87.0426 172.112 87.0584C172.137 87.0743 172.165 87.0849 172.194 87.0898C172.223 87.0946 172.253 87.0936 172.282 87.0867C172.311 87.0798 172.338 87.0672 172.362 87.0496C172.386 87.0321 172.406 87.0099 172.421 86.9845C172.436 86.959 172.446 86.9308 172.45 86.9014C172.455 86.872 172.453 86.8421 172.445 86.8134C172.338 86.3633 172.222 85.9055 172.101 85.4519C172.086 85.3952 172.049 85.3469 171.998 85.3176C171.947 85.2884 171.887 85.2805 171.83 85.2956C171.773 85.3108 171.725 85.3478 171.695 85.3986C171.666 85.4495 171.658 85.5099 171.673 85.5667C171.792 86.0159 171.907 86.4701 172.013 86.9168Z" fill="#41324C"/>
<path d="M169.215 79.0583C169.198 79.0341 169.177 79.0133 169.153 78.9971C169.129 78.9809 169.102 78.9697 169.073 78.9641C169.044 78.9585 169.015 78.9586 168.986 78.9643C168.958 78.9701 168.931 78.9815 168.907 78.9978C168.882 79.014 168.862 79.0349 168.845 79.0593C168.829 79.0836 168.818 79.1108 168.813 79.1395C168.807 79.1682 168.807 79.1976 168.813 79.2263C168.818 79.2549 168.83 79.2821 168.846 79.3063C169.104 79.6917 169.351 80.0855 169.579 80.4771C169.593 80.503 169.612 80.5257 169.636 80.544C169.659 80.5623 169.685 80.5758 169.714 80.5836C169.742 80.5915 169.772 80.5935 169.801 80.5897C169.831 80.5859 169.859 80.5762 169.884 80.5613C169.91 80.5465 169.932 80.5266 169.95 80.503C169.968 80.4793 169.981 80.4524 169.988 80.4237C169.995 80.395 169.997 80.3651 169.992 80.3359C169.988 80.3066 169.978 80.2786 169.962 80.2533C169.73 79.8536 169.478 79.4517 169.215 79.0583Z" fill="#41324C"/>
<path d="M162.145 120.067C162.108 120.021 162.054 119.992 161.996 119.986C161.937 119.98 161.879 119.997 161.833 120.034C161.478 120.322 161.109 120.608 160.737 120.887C160.692 120.923 160.662 120.976 160.655 121.033C160.647 121.091 160.662 121.149 160.697 121.195C160.732 121.241 160.783 121.272 160.84 121.281C160.898 121.29 160.956 121.277 161.003 121.243C161.38 120.961 161.752 120.671 162.112 120.38C162.135 120.362 162.154 120.339 162.167 120.313C162.181 120.288 162.19 120.259 162.193 120.23C162.196 120.201 162.194 120.172 162.185 120.144C162.177 120.116 162.164 120.09 162.145 120.067Z" fill="#41324C"/>
<path d="M170.931 82.1295C170.907 82.0758 170.862 82.034 170.807 82.0132C170.752 81.9925 170.691 81.9945 170.637 82.0189C170.584 82.0433 170.542 82.0879 170.521 82.1431C170.501 82.1983 170.503 82.2595 170.527 82.3132C170.717 82.7325 170.894 83.1623 171.053 83.5906C171.075 83.6444 171.116 83.6875 171.169 83.711C171.222 83.7344 171.282 83.7362 171.336 83.716C171.391 83.6958 171.435 83.6552 171.46 83.6028C171.484 83.5504 171.488 83.4904 171.469 83.4356C171.307 82.9976 171.125 82.5581 170.931 82.1295Z" fill="#41324C"/>
<path d="M172.035 105.975C172.007 105.965 171.978 105.962 171.949 105.964C171.92 105.966 171.891 105.974 171.865 105.987C171.839 106 171.816 106.018 171.797 106.041C171.778 106.063 171.763 106.088 171.754 106.116C171.61 106.554 171.454 106.993 171.289 107.421C171.267 107.476 171.269 107.537 171.293 107.591C171.317 107.645 171.361 107.687 171.416 107.708C171.424 107.712 171.433 107.714 171.442 107.717C171.495 107.73 171.55 107.723 171.598 107.698C171.646 107.673 171.683 107.632 171.703 107.581C171.87 107.147 172.03 106.7 172.176 106.255C172.185 106.227 172.189 106.198 172.186 106.169C172.184 106.14 172.176 106.112 172.163 106.086C172.15 106.06 172.132 106.036 172.11 106.017C172.088 105.998 172.062 105.984 172.035 105.975Z" fill="#41324C"/>
<path d="M173.069 102.851C173.075 102.822 173.076 102.792 173.07 102.763C173.065 102.734 173.054 102.707 173.037 102.682C173.021 102.658 173 102.637 172.975 102.621C172.951 102.605 172.923 102.594 172.894 102.589C172.837 102.578 172.777 102.59 172.728 102.622C172.679 102.655 172.645 102.706 172.633 102.764C172.543 103.218 172.442 103.673 172.331 104.118C172.323 104.146 172.321 104.176 172.325 104.205C172.329 104.234 172.339 104.263 172.354 104.288C172.369 104.313 172.389 104.336 172.412 104.353C172.436 104.371 172.463 104.384 172.491 104.391C172.52 104.398 172.55 104.399 172.579 104.395C172.608 104.39 172.636 104.38 172.661 104.365C172.686 104.349 172.708 104.329 172.725 104.305C172.742 104.281 172.755 104.254 172.761 104.225C172.874 103.774 172.977 103.311 173.069 102.851Z" fill="#41324C"/>
<path d="M170.765 109.225C170.739 109.212 170.71 109.205 170.681 109.203C170.652 109.202 170.623 109.206 170.595 109.216C170.568 109.226 170.542 109.241 170.521 109.26C170.499 109.28 170.482 109.304 170.469 109.33C170.273 109.744 170.062 110.16 169.844 110.566C169.83 110.592 169.821 110.62 169.819 110.649C169.816 110.678 169.818 110.708 169.827 110.736C169.835 110.764 169.849 110.79 169.867 110.812C169.886 110.835 169.908 110.854 169.934 110.868C169.96 110.881 169.988 110.89 170.017 110.893C170.046 110.896 170.075 110.893 170.103 110.885C170.131 110.876 170.157 110.863 170.18 110.844C170.202 110.826 170.221 110.803 170.235 110.777C170.457 110.365 170.671 109.942 170.87 109.521C170.896 109.468 170.899 109.407 170.879 109.351C170.859 109.296 170.818 109.25 170.765 109.225Z" fill="#41324C"/>
<path d="M173.282 93.9761C173.316 93.9845 173.351 93.9847 173.386 93.9767C173.42 93.9687 173.452 93.9527 173.478 93.9299C173.505 93.9072 173.526 93.8785 173.54 93.8461C173.554 93.8136 173.559 93.7784 173.557 93.7433C173.522 93.2827 173.477 92.8118 173.424 92.3436C173.417 92.2857 173.387 92.2331 173.342 92.197C173.296 92.1609 173.238 92.1443 173.18 92.1508C173.122 92.1572 173.069 92.1862 173.032 92.2315C172.995 92.2768 172.978 92.3347 172.983 92.3928C173.035 92.8559 173.079 93.3214 173.114 93.7768C173.118 93.8234 173.136 93.8677 173.166 93.9035C173.196 93.9393 173.236 93.9647 173.282 93.9761Z" fill="#41324C"/>
<path d="M167.074 115.134C167.051 115.115 167.025 115.101 166.997 115.093C166.97 115.085 166.94 115.082 166.911 115.085C166.882 115.088 166.854 115.096 166.828 115.11C166.803 115.124 166.78 115.142 166.762 115.165C166.472 115.52 166.168 115.875 165.861 116.22C165.841 116.241 165.826 116.267 165.817 116.294C165.807 116.322 165.803 116.351 165.805 116.38C165.806 116.409 165.813 116.438 165.826 116.464C165.839 116.49 165.856 116.514 165.878 116.534C165.9 116.553 165.925 116.568 165.953 116.578C165.98 116.587 166.009 116.591 166.038 116.59C166.068 116.588 166.096 116.581 166.122 116.568C166.149 116.556 166.172 116.538 166.192 116.516C166.504 116.167 166.811 115.807 167.106 115.447C167.124 115.424 167.138 115.398 167.146 115.37C167.155 115.342 167.157 115.313 167.155 115.284C167.152 115.255 167.143 115.226 167.129 115.201C167.115 115.175 167.097 115.152 167.074 115.134Z" fill="#41324C"/>
<path d="M169.099 112.291C169.074 112.276 169.047 112.265 169.018 112.26C168.989 112.255 168.96 112.255 168.931 112.262C168.903 112.268 168.876 112.28 168.852 112.297C168.828 112.313 168.808 112.335 168.792 112.359C168.547 112.745 168.287 113.132 168.02 113.51C168.002 113.534 167.99 113.561 167.983 113.59C167.976 113.618 167.975 113.648 167.98 113.677C167.984 113.706 167.995 113.734 168.01 113.759C168.026 113.784 168.046 113.806 168.071 113.823C168.095 113.84 168.122 113.852 168.151 113.859C168.179 113.865 168.209 113.866 168.238 113.861C168.267 113.855 168.295 113.844 168.32 113.828C168.344 113.812 168.366 113.792 168.382 113.767C168.653 113.383 168.917 112.99 169.167 112.598C169.198 112.549 169.209 112.488 169.196 112.431C169.183 112.373 169.148 112.323 169.099 112.291Z" fill="#41324C"/>
<path d="M143.205 129.127C142.754 129.249 142.3 129.365 141.855 129.474C141.827 129.48 141.8 129.493 141.777 129.51C141.753 129.527 141.733 129.549 141.718 129.574C141.703 129.599 141.693 129.627 141.688 129.655C141.684 129.684 141.685 129.714 141.692 129.742C141.699 129.77 141.711 129.797 141.728 129.821C141.745 129.844 141.767 129.864 141.792 129.88C141.817 129.895 141.845 129.905 141.873 129.909C141.902 129.914 141.932 129.913 141.96 129.906C142.408 129.797 142.866 129.679 143.321 129.557C143.349 129.549 143.375 129.536 143.398 129.518C143.421 129.5 143.441 129.478 143.455 129.453C143.47 129.427 143.479 129.4 143.483 129.371C143.487 129.342 143.485 129.312 143.477 129.284C143.47 129.256 143.456 129.229 143.439 129.206C143.421 129.183 143.399 129.164 143.373 129.149C143.348 129.135 143.32 129.125 143.291 129.121C143.263 129.118 143.233 129.12 143.205 129.127Z" fill="#41324C"/>
<path d="M159.867 70.8636C159.918 70.8763 159.972 70.8704 160.019 70.8472C160.066 70.8239 160.103 70.7846 160.124 70.7364C160.145 70.6881 160.148 70.634 160.133 70.5836C160.118 70.5332 160.086 70.4898 160.042 70.4612C159.655 70.2107 159.256 69.9595 158.853 69.7145C158.803 69.6838 158.742 69.6745 158.685 69.6885C158.628 69.7025 158.579 69.7387 158.548 69.7891C158.518 69.8395 158.508 69.9 158.522 69.9574C158.536 70.0147 158.572 70.0641 158.623 70.0947C159.022 70.3373 159.418 70.5868 159.8 70.8344C159.821 70.8477 159.843 70.8576 159.867 70.8636Z" fill="#41324C"/>
<path d="M146.538 128.121C146.101 128.267 145.655 128.41 145.211 128.547C145.183 128.556 145.157 128.57 145.135 128.589C145.113 128.607 145.094 128.63 145.08 128.656C145.067 128.682 145.058 128.71 145.056 128.739C145.053 128.768 145.056 128.797 145.065 128.825C145.073 128.853 145.087 128.879 145.106 128.902C145.124 128.924 145.147 128.943 145.173 128.956C145.199 128.97 145.227 128.978 145.256 128.981C145.285 128.984 145.314 128.981 145.342 128.972C145.789 128.835 146.239 128.69 146.678 128.543C146.734 128.524 146.78 128.484 146.807 128.432C146.833 128.379 146.837 128.318 146.819 128.262C146.8 128.206 146.76 128.16 146.707 128.133C146.655 128.107 146.594 128.103 146.538 128.121L146.538 128.121Z" fill="#41324C"/>
<path d="M152.994 125.524C152.578 125.723 152.152 125.919 151.729 126.107C151.678 126.132 151.638 126.177 151.618 126.231C151.598 126.285 151.601 126.345 151.624 126.397C151.647 126.45 151.69 126.491 151.743 126.513C151.797 126.535 151.856 126.535 151.91 126.513C152.335 126.323 152.765 126.126 153.184 125.925C153.237 125.9 153.278 125.855 153.298 125.799C153.317 125.744 153.314 125.682 153.289 125.629C153.264 125.576 153.218 125.535 153.163 125.515C153.107 125.496 153.046 125.499 152.993 125.524H152.994Z" fill="#41324C"/>
<path d="M156.079 123.92C155.681 124.145 155.27 124.37 154.859 124.587C154.807 124.615 154.768 124.662 154.75 124.718C154.733 124.775 154.738 124.836 154.766 124.888C154.793 124.94 154.84 124.979 154.897 124.997C154.953 125.014 155.014 125.008 155.066 124.981C155.481 124.762 155.895 124.535 156.298 124.307C156.349 124.278 156.387 124.23 156.402 124.173C156.418 124.117 156.411 124.056 156.382 124.004C156.353 123.953 156.305 123.915 156.248 123.9C156.191 123.884 156.131 123.891 156.079 123.92V123.92Z" fill="#41324C"/>
<path d="M167.733 77.7142C167.779 77.7255 167.826 77.7224 167.869 77.7051C167.913 77.6879 167.949 77.6575 167.974 77.6182C167.999 77.5789 168.011 77.5328 168.009 77.4862C168.006 77.4397 167.989 77.3952 167.96 77.3589C167.671 77.0005 167.363 76.6402 167.045 76.2882C167.005 76.2463 166.951 76.2216 166.893 76.2194C166.835 76.2172 166.779 76.2377 166.736 76.2766C166.693 76.3154 166.667 76.3695 166.663 76.4274C166.659 76.4852 166.678 76.5422 166.716 76.5863C167.028 76.9324 167.33 77.2864 167.615 77.6384C167.645 77.6761 167.687 77.7027 167.733 77.7142Z" fill="#41324C"/>
<path d="M149.805 126.92C149.381 127.091 148.944 127.26 148.507 127.424C148.453 127.445 148.41 127.487 148.387 127.54C148.363 127.593 148.362 127.654 148.382 127.708C148.402 127.762 148.443 127.807 148.495 127.831C148.548 127.856 148.608 127.859 148.662 127.84C149.103 127.676 149.543 127.505 149.971 127.333C149.999 127.323 150.024 127.307 150.046 127.287C150.067 127.266 150.084 127.242 150.096 127.215C150.108 127.188 150.115 127.158 150.115 127.129C150.116 127.099 150.11 127.069 150.099 127.042C150.088 127.014 150.072 126.989 150.051 126.968C150.03 126.947 150.005 126.93 149.978 126.919C149.951 126.908 149.921 126.902 149.892 126.902C149.862 126.903 149.833 126.909 149.805 126.92Z" fill="#41324C"/>
<path d="M165.366 75.1525C165.414 75.1646 165.464 75.1606 165.51 75.141C165.555 75.1214 165.592 75.0874 165.616 75.0442C165.64 75.001 165.648 74.9512 165.641 74.9025C165.633 74.8538 165.61 74.809 165.574 74.7752C165.242 74.4579 164.893 74.1387 164.536 73.8263C164.491 73.7876 164.433 73.768 164.375 73.772C164.316 73.776 164.261 73.8032 164.222 73.8476C164.184 73.892 164.164 73.95 164.168 74.0089C164.172 74.0677 164.199 74.1225 164.244 74.1613C164.596 74.4692 164.94 74.7839 165.267 75.0964C165.295 75.1234 165.329 75.1428 165.366 75.1525Z" fill="#41324C"/>
<path d="M162.718 72.8797C162.767 72.892 162.819 72.8869 162.865 72.8653C162.912 72.8437 162.949 72.8068 162.971 72.761C162.993 72.7151 162.999 72.6629 162.988 72.6132C162.976 72.5636 162.948 72.5194 162.908 72.4881C162.545 72.2071 162.166 71.9244 161.781 71.648C161.758 71.6294 161.731 71.6157 161.702 71.6078C161.673 71.6 161.643 71.5981 161.613 71.6023C161.583 71.6064 161.555 71.6166 161.529 71.6322C161.503 71.6477 161.481 71.6683 161.463 71.6927C161.446 71.7171 161.433 71.7449 161.427 71.7742C161.42 71.8036 161.42 71.8339 161.425 71.8635C161.431 71.893 161.442 71.9212 161.459 71.9462C161.476 71.9712 161.497 71.9925 161.522 72.0089C161.903 72.2822 162.278 72.5616 162.636 72.8393C162.66 72.8583 162.688 72.872 162.718 72.8797Z" fill="#41324C"/>
<path d="M40.8301 7.24356L40.9377 14.4141L67.2836 0.690918L40.8301 7.24356Z" fill="#FB813E"/>
<path opacity="0.2" d="M40.8301 7.24356L40.9377 14.4141L67.2836 0.690918L40.8301 7.24356Z" fill="#1F1625"/>
<path d="M42.1982 9.36138L40.9377 14.414L61.0948 3.51904L42.1982 9.36138Z" fill="#FB813E"/>
<path opacity="0.1" d="M42.1982 9.36138L40.9377 14.414L61.0948 3.51904L42.1982 9.36138Z" fill="#1F1625"/>
<path d="M38.3752 3.36693L67.2836 0.690918L46.9918 18.0764L42.1982 9.3615L67.2836 0.690918L40.8302 7.24356L38.3752 3.36693Z" fill="#FB813E"/>
<path d="M36.6587 59.0571L99.9001 99.3598L163.141 59.0571L99.8783 0.5L36.6587 59.0571Z" fill="#41324C"/>
<path d="M150.886 9.05273H48.9141V120.678H150.886V9.05273Z" fill="white"/>
<path d="M151.05 120.842H48.7502V8.88867H151.05V120.842ZM49.078 120.514H150.723V9.21676H49.0778L49.078 120.514Z" fill="#706D79"/>
<path d="M79.6469 19.0625H58.7268V40.0159H79.6469V19.0625Z" fill="white"/>
<path d="M79.8106 40.18H58.5627V18.8984H79.8106V40.18ZM58.8906 39.852H79.483V19.2265H58.8903L58.8906 39.852Z" fill="#41324C"/>
<path d="M141.463 48.229H58.7268V48.5571H141.463V48.229Z" fill="#41324C"/>
<path d="M141.463 56.0898H58.7268V56.4179H141.463V56.0898Z" fill="#41324C"/>
<path d="M141.463 63.9507H58.7268V64.2788H141.463V63.9507Z" fill="#41324C"/>
<path d="M141.463 71.8115H58.7268V72.1396H141.463V71.8115Z" fill="#41324C"/>
<path d="M141.463 79.6724H58.7268V80.0004H141.463V79.6724Z" fill="#41324C"/>
<path d="M141.463 87.5332H58.7268V87.8613H141.463V87.5332Z" fill="#41324C"/>
<path d="M163.141 137.992H36.6587V59.0571L99.9001 97.7194L163.141 59.0571V137.992Z" fill="#4E1AC7"/>
</g>
<defs>
<clipPath id="clip0_706_1838">
<rect width="194" height="138" fill="white" transform="translate(0 0.5)"/>
</clipPath>
</defs>
</svg>
