<svg width="256" height="219" viewBox="0 0 256 219" fill="none" xmlns="http://www.w3.org/2000/svg">
<path opacity="0.1" d="M254.826 150.852C247.834 115.593 206.87 87.4132 198.88 50.6711C184.359 3.92509 136.496 -3.46554 105.394 16.8362C56.1122 49.0046 108.686 56.9874 12.0602 133.096C-11.7988 151.889 -4.19625 234.844 70.8628 215.806C111.256 205.561 123.536 204.123 141.705 202.436C187.501 198.184 266.563 210.038 254.826 150.852Z" fill="#4E1AC7"/>
<path d="M189.145 153.181L129.343 184.765L69.6318 153.181V105.486H189.145V153.181Z" fill="white"/>
<path d="M129.343 185.25C129.264 185.25 129.186 185.23 129.116 185.193L69.407 153.609C69.3294 153.568 69.2644 153.506 69.2189 153.431C69.1734 153.356 69.1492 153.27 69.1489 153.182V105.486C69.1489 105.358 69.2 105.234 69.2908 105.144C69.3817 105.053 69.5049 105.002 69.6334 105.002H189.145C189.273 105.002 189.396 105.053 189.487 105.144C189.578 105.234 189.629 105.358 189.629 105.486V153.181C189.629 153.269 189.605 153.355 189.559 153.43C189.514 153.505 189.449 153.566 189.371 153.607L129.569 185.192C129.5 185.229 129.422 185.249 129.343 185.25ZM70.1162 152.89L129.343 184.218L188.66 152.889V105.971H70.1162V152.89Z" fill="#1F1625"/>
<path d="M189.144 95.2522L129.343 63.6679L156.215 50.7151L216.017 82.2997L189.144 95.2522Z" fill="white"/>
<path d="M189.144 95.7363C189.065 95.7363 188.988 95.7172 188.918 95.6805L129.116 64.0959C129.037 64.0539 128.971 63.9908 128.926 63.9136C128.88 63.8364 128.857 63.7481 128.858 63.6585C128.86 63.5689 128.887 63.4815 128.935 63.406C128.983 63.3305 129.052 63.2699 129.132 63.2309L156.005 50.2781C156.073 50.2449 156.148 50.2284 156.224 50.2298C156.3 50.2312 156.375 50.2505 156.442 50.2862L216.243 81.8709C216.322 81.9127 216.388 81.9758 216.434 82.0529C216.48 82.1301 216.503 82.2184 216.501 82.308C216.499 82.3976 216.473 82.485 216.425 82.5605C216.376 82.636 216.308 82.6965 216.227 82.7355L189.355 95.6883C189.289 95.72 189.217 95.7364 189.144 95.7363ZM130.417 63.6866L189.154 94.7086L214.942 82.2789L156.205 51.2578L130.417 63.6866Z" fill="#1F1625"/>
<path d="M69.6318 95.2522L129.433 63.6679L102.561 50.7151L42.7593 82.2997L69.6318 95.2522Z" fill="white"/>
<path d="M69.6317 95.7363C69.5589 95.7363 69.4869 95.7199 69.4213 95.6883L42.5503 82.7355C42.4696 82.6965 42.4013 82.6359 42.3529 82.5605C42.3046 82.485 42.2781 82.3976 42.2764 82.308C42.2748 82.2184 42.298 82.1301 42.3436 82.0529C42.3891 81.9758 42.4552 81.9127 42.5344 81.8708L102.336 50.2862C102.403 50.2505 102.478 50.2312 102.553 50.2298C102.629 50.2284 102.704 50.2449 102.773 50.2781L129.645 63.2309C129.726 63.2699 129.794 63.3305 129.843 63.406C129.891 63.4815 129.917 63.5689 129.919 63.6585C129.921 63.7481 129.897 63.8364 129.852 63.9136C129.806 63.9908 129.74 64.0539 129.661 64.0959L69.8596 95.6805C69.7894 95.7175 69.7111 95.7366 69.6317 95.7363ZM43.8339 82.2797L69.6217 94.7093L128.359 63.6874L102.571 51.2578L43.8339 82.2797Z" fill="#1F1625"/>
<path d="M69.6317 95.2524L129.433 126.837L98.6854 143.665L38.8838 112.081L69.6317 95.2524Z" fill="white"/>
<path d="M98.6853 144.149C98.6064 144.149 98.5286 144.13 98.4589 144.093L38.6574 112.508C38.5802 112.467 38.5155 112.406 38.4701 112.331C38.4248 112.257 38.4006 112.171 38.3999 112.084C38.3993 111.996 38.4223 111.91 38.4665 111.835C38.5108 111.76 38.5746 111.698 38.6512 111.656L69.3991 94.8274C69.4693 94.7888 69.548 94.7684 69.6281 94.7678C69.7082 94.7673 69.7872 94.7867 69.858 94.8243L129.66 126.409C129.737 126.45 129.801 126.511 129.847 126.586C129.892 126.66 129.916 126.746 129.917 126.833C129.918 126.921 129.895 127.007 129.85 127.082C129.806 127.157 129.742 127.219 129.666 127.262L98.9178 144.09C98.8465 144.129 98.7665 144.149 98.6853 144.149ZM39.9068 112.073L98.681 143.115L128.41 126.844L69.6359 95.802L39.9068 112.073Z" fill="#1F1625"/>
<path d="M189.144 95.2524L129.343 126.837L160.091 143.665L219.892 112.081L189.144 95.2524Z" fill="white"/>
<path d="M160.092 144.149C160.01 144.149 159.93 144.129 159.859 144.09L129.111 127.262C129.035 127.219 128.971 127.157 128.926 127.082C128.882 127.007 128.859 126.921 128.86 126.833C128.861 126.746 128.885 126.66 128.93 126.586C128.975 126.511 129.04 126.45 129.117 126.409L188.919 94.8243C188.99 94.7867 189.069 94.7673 189.149 94.7678C189.229 94.7684 189.308 94.7888 189.378 94.8274L220.126 111.656C220.202 111.698 220.266 111.76 220.31 111.835C220.355 111.91 220.378 111.996 220.377 112.084C220.376 112.171 220.352 112.257 220.307 112.331C220.261 112.406 220.197 112.467 220.119 112.508L160.318 144.093C160.248 144.13 160.17 144.149 160.092 144.149ZM130.367 126.844L160.096 143.115L218.871 112.073L189.141 95.802L130.367 126.844Z" fill="#1F1625"/>
<path d="M129.433 63.6677L69.6318 95.252L129.343 126.837L189.145 95.252L129.433 63.6677Z" fill="#1F1625"/>
<path d="M129.827 126.837H128.858V184.766H129.827V126.837Z" fill="#1F1625"/>
<path d="M89.6767 87.7271C89.5818 87.7272 89.4892 87.6975 89.412 87.6422C89.3128 87.5719 89.2455 87.465 89.225 87.3451C89.2046 87.2252 89.2325 87.1021 89.3029 87.0028C89.3877 86.8831 97.6779 74.8981 88.4231 63.9718C86.785 62.0278 84.7417 60.4656 82.4363 59.3947C80.1309 58.3237 77.6191 57.7698 75.0771 57.7719H74.9523C75.8312 60.8251 75.6743 63.5397 74.4299 65.6222C73.8996 66.5632 73.1171 67.3375 72.1705 67.8578C71.2239 68.3781 70.1509 68.6237 69.0722 68.5671C68.1793 68.4939 67.3271 68.162 66.62 67.6119C65.9129 67.0618 65.3816 66.3174 65.0911 65.4699C64.0733 62.8149 65.137 60.2407 67.9406 58.5815C69.7167 57.6021 71.6902 57.0345 73.7152 56.9206C73.0564 55.174 72.1998 53.5086 71.1621 51.9569C67.8204 46.8534 61.7302 43.3205 54.4524 42.2641C48.2847 41.3691 42.3738 42.4232 39.3918 44.9489C39.2989 45.0275 39.1786 45.0659 39.0574 45.0558C38.9361 45.0457 38.8239 44.9879 38.7453 44.895C38.6667 44.8021 38.6282 44.6818 38.6383 44.5605C38.6484 44.4393 38.7063 44.327 38.7992 44.2484C41.9725 41.5609 48.1682 40.4247 54.5841 41.3586C62.1219 42.4531 68.4438 46.1332 71.9299 51.4565C73.0601 53.1447 73.9795 54.9649 74.6675 56.8765C77.4097 56.8107 80.1318 57.3608 82.6332 58.4865C85.1345 59.6122 87.3515 61.2848 89.1208 63.381C98.8421 74.8573 90.1377 87.4101 90.0487 87.5358C90.0063 87.5949 89.9505 87.6431 89.8858 87.6763C89.8211 87.7096 89.7494 87.727 89.6767 87.7271ZM74.0129 57.8054C72.0496 57.8891 70.1321 58.4251 68.4098 59.3714C65.9897 60.8035 65.0934 62.9071 65.9498 65.1419C66.1819 65.8267 66.6085 66.429 67.1774 66.8751C67.7464 67.3212 68.433 67.5918 69.1534 67.6538C70.0604 67.6944 70.9608 67.4819 71.7539 67.0401C72.5471 66.5983 73.2017 65.9446 73.6446 65.152C74.7867 63.2392 74.8913 60.6966 74.0115 57.8054H74.0129Z" fill="#41324C"/>
<path d="M31.4746 52.345C30.6951 52.5792 29.855 52.4998 29.1331 52.1238C28.4112 51.7478 27.8647 51.1049 27.6098 50.332C27.3549 49.559 27.4118 48.717 27.7684 47.9854C28.1249 47.2538 28.7531 46.6902 29.5189 46.4148C30.2848 46.1393 31.128 46.1737 31.8689 46.5107C32.6098 46.8476 33.1899 47.4604 33.4857 48.2187C33.7815 48.9769 33.7696 49.8207 33.4526 50.5703C33.1356 51.32 32.5384 51.9162 31.7883 52.2322C31.6859 52.2755 31.5811 52.3132 31.4746 52.345ZM29.9494 47.2479C29.8751 47.2702 29.802 47.2966 29.7306 47.3268C29.2028 47.5493 28.7828 47.9691 28.5599 48.4968C28.3371 49.0244 28.329 49.6182 28.5375 50.1517C28.746 50.6852 29.1545 51.1162 29.6761 51.353C30.1977 51.5897 30.791 51.6135 31.3299 51.4192C31.8687 51.2249 32.3104 50.8279 32.5608 50.3128C32.8113 49.7977 32.8507 49.2051 32.6708 48.6613C32.4908 48.1176 32.1057 47.6655 31.5973 47.4015C31.089 47.1375 30.4977 47.0824 29.9494 47.2479Z" fill="#41324C"/>
<path d="M31.4692 45.1567C30.7318 45.3768 29.9391 45.3167 29.2434 44.9877C28.5477 44.6587 27.9982 44.0842 27.7005 43.3746C27.4617 42.8057 27.3971 42.1788 27.5147 41.5732C27.6323 40.9675 27.9269 40.4104 28.3612 39.9722C28.7954 39.534 29.3499 39.2344 29.9544 39.1113C30.559 38.9882 31.1864 39.0472 31.7575 39.2807C32.3285 39.5143 32.8175 39.9119 33.1625 40.4233C33.5075 40.9348 33.6931 41.5371 33.6959 42.154C33.6986 42.7709 33.5183 43.3748 33.1778 43.8893C32.8373 44.4038 32.3519 44.8057 31.7829 45.0443C31.6804 45.0872 31.5756 45.1247 31.4692 45.1567ZM29.9458 40.0591C29.8706 40.0817 29.7967 40.1081 29.7243 40.1385C29.1861 40.3645 28.7598 40.7949 28.5389 41.3352C28.318 41.8754 28.3207 42.4813 28.5463 43.0196C28.7109 43.412 28.9856 43.7483 29.3372 43.9878C29.6889 44.2273 30.1024 44.3599 30.5278 44.3693C30.9532 44.3788 31.3722 44.2648 31.7342 44.0411C32.0962 43.8174 32.3856 43.4936 32.5674 43.109C32.7492 42.7243 32.8157 42.2951 32.7587 41.8735C32.7018 41.4518 32.5239 41.0557 32.2466 40.733C31.9692 40.4103 31.6043 40.1748 31.196 40.0552C30.7877 39.9355 30.3535 39.9372 29.9458 40.0591Z" fill="#41324C"/>
<path d="M30.5788 48.4006C32.8314 48.4006 34.6576 47.1809 34.6576 45.6764C34.6576 44.1718 32.8314 42.9521 30.5788 42.9521C28.3261 42.9521 26.5 44.1718 26.5 45.6764C26.5 47.1809 28.3261 48.4006 30.5788 48.4006Z" fill="white"/>
<path d="M32.3845 48.6014C31.7997 48.7742 31.1929 48.8613 30.5832 48.8601C28.0383 48.8601 26.042 47.4656 26.042 45.6808C26.042 43.896 28.0323 42.4965 30.5763 42.4937C31.6854 42.4725 32.7766 42.7753 33.7161 43.3653C34.138 43.5851 34.4917 43.9163 34.7386 44.323C34.9856 44.7296 35.1163 45.1962 35.1168 45.672C35.1172 46.1477 34.9872 46.6145 34.741 47.0216C34.4948 47.4288 34.1418 47.7606 33.7202 47.9812C33.3081 48.2529 32.858 48.4619 32.3845 48.6014ZM29.0534 43.6295C27.8277 43.9964 26.9589 44.7886 26.9594 45.6785C26.9594 46.9065 28.6185 47.9427 30.5832 47.9408C31.5112 47.9604 32.4248 47.7092 33.2124 47.2179C33.5078 47.0819 33.758 46.8639 33.9333 46.59C34.1085 46.316 34.2015 45.9976 34.2012 45.6723C34.2009 45.3471 34.1074 45.0288 33.9316 44.7552C33.7559 44.4816 33.5053 44.2641 33.2097 44.1285C32.4215 43.6383 31.5074 43.3887 30.5795 43.4102C30.0628 43.4089 29.5488 43.4827 29.0534 43.6295Z" fill="#41324C"/>
<path d="M31.5797 48.3178L31.4833 43.0198L30.1659 42.9666L30.0737 48.3797L31.5797 48.3178Z" fill="#41324C"/>
<path d="M25.1677 46.829C25.4002 46.829 25.5888 46.6405 25.5888 46.4079C25.5888 46.1753 25.4002 45.9868 25.1677 45.9868C24.9351 45.9868 24.7466 46.1753 24.7466 46.4079C24.7466 46.6405 24.9351 46.829 25.1677 46.829Z" fill="#41324C"/>
<path d="M25.4968 44.5758C25.7293 44.5758 25.9179 44.3873 25.9179 44.1547C25.9179 43.9222 25.7293 43.7336 25.4968 43.7336C25.2642 43.7336 25.0757 43.9222 25.0757 44.1547C25.0757 44.3873 25.2642 44.5758 25.4968 44.5758Z" fill="#41324C"/>
<path d="M161.75 61.275C161.652 61.275 161.556 61.2435 161.477 61.1851C161.398 61.1267 161.34 61.0446 161.312 60.9507C159.79 55.2691 159.384 49.3464 160.116 43.5103C161.302 34.9784 166.007 23.781 181.689 18.878C183.895 18.1685 186.159 17.6497 188.454 17.3271C189.193 12.7121 192.004 7.70577 198.29 4.25174C213.227 -3.95539 223.316 3.40818 223.416 3.48341C223.513 3.5564 223.578 3.66507 223.595 3.7855C223.612 3.90593 223.581 4.02827 223.508 4.12559C223.435 4.22292 223.326 4.28726 223.205 4.30446C223.085 4.32167 222.963 4.29033 222.865 4.21733C222.77 4.14578 213.128 -2.8545 198.733 5.0563C192.858 8.2842 190.169 12.9171 189.405 17.2179C196.322 16.5367 199.634 18.844 201.121 20.5866C202.04 21.6345 202.631 22.93 202.82 24.3115C203.009 25.6929 202.787 27.0994 202.182 28.3557C201.704 29.3711 200.929 30.2176 199.96 30.7834C198.991 31.3492 197.873 31.6078 196.753 31.5249C192.891 31.2983 189.694 28.0488 188.61 23.2462C188.253 21.6204 188.158 19.948 188.329 18.2922C186.17 18.6023 184.041 19.0919 181.963 19.7559C169.741 23.5774 162.698 31.6134 161.024 43.6392C160.308 49.3429 160.703 55.1314 162.189 60.6846C162.21 60.7532 162.214 60.8258 162.202 60.8965C162.19 60.9672 162.161 61.0341 162.119 61.0918C162.076 61.1494 162.021 61.1963 161.957 61.2286C161.893 61.2609 161.822 61.2777 161.75 61.2777V61.275ZM189.264 18.1775C189.073 19.8018 189.154 21.4465 189.505 23.0439C190.497 27.4374 193.363 30.4065 196.807 30.6088C197.746 30.6761 198.683 30.458 199.496 29.9833C200.308 29.5085 200.958 28.7992 201.361 27.9484C201.885 26.8529 202.076 25.6273 201.909 24.4243C201.742 23.2213 201.225 22.0941 200.422 21.1829C198.277 18.666 194.362 17.6495 189.264 18.1775Z" fill="#41324C"/>
<path d="M234.101 8.11974C233.483 8.11845 232.879 7.94247 232.356 7.61214C231.834 7.2818 231.416 6.81057 231.151 6.25282C230.885 5.69507 230.782 5.07354 230.855 4.45998C230.927 3.84641 231.171 3.26581 231.56 2.78518C231.948 2.30456 232.464 1.94351 233.049 1.74369C233.633 1.54388 234.262 1.51345 234.864 1.65592C235.465 1.79839 236.013 2.10795 236.446 2.54887C236.879 2.98979 237.178 3.5441 237.309 4.14783C237.412 4.6264 237.407 5.12191 237.293 5.59808C237.18 6.07424 236.961 6.519 236.654 6.8998C236.346 7.28059 235.957 7.58778 235.516 7.79886C235.074 8.00994 234.591 8.11958 234.101 8.11974ZM234.108 2.48503C233.62 2.48502 233.144 2.63633 232.746 2.91811C232.348 3.19989 232.047 3.59827 231.884 4.05834C231.722 4.51841 231.706 5.01751 231.839 5.48687C231.973 5.95623 232.248 6.37274 232.628 6.67898C233.008 6.98522 233.473 7.16613 233.96 7.19676C234.447 7.2274 234.931 7.10625 235.347 6.85003C235.762 6.5938 236.087 6.21511 236.278 5.76614C236.469 5.31717 236.516 4.82003 236.413 4.34323C236.301 3.81571 236.011 3.34287 235.591 3.00439C235.171 2.66591 234.647 2.48248 234.108 2.48503Z" fill="#41324C"/>
<path d="M232.72 15.6056C231.879 15.6056 231.071 15.2832 230.46 14.7049C229.85 14.1265 229.485 13.3363 229.44 12.4968C229.395 11.6573 229.673 10.8324 230.218 10.192C230.762 9.55156 231.532 9.14433 232.368 9.05413C233.204 8.96393 234.042 9.19761 234.711 9.70708C235.38 10.2166 235.828 10.963 235.963 11.7928C236.098 12.6227 235.91 13.4726 235.437 14.1678C234.964 14.863 234.243 15.3505 233.421 15.5299C233.191 15.5802 232.956 15.6056 232.72 15.6056ZM232.732 9.97046C232.562 9.97054 232.393 9.98884 232.227 10.025C231.641 10.1537 231.127 10.5021 230.79 10.9985C230.453 11.4948 230.319 12.1015 230.416 12.6935C230.512 13.2856 230.832 13.818 231.31 14.1813C231.787 14.5446 232.386 14.7112 232.982 14.6466C233.579 14.5821 234.128 14.2915 234.516 13.8345C234.905 13.3775 235.104 12.7889 235.071 12.1899C235.039 11.5908 234.779 11.0268 234.344 10.614C233.908 10.2012 233.331 9.97086 232.732 9.97046Z" fill="#41324C"/>
<path d="M237.646 9.45891C237.935 7.89214 236.268 6.2711 233.922 5.83824C231.577 5.40538 229.441 6.32461 229.151 7.89138C228.862 9.45815 230.53 11.0792 232.875 11.512C235.221 11.9449 237.357 11.0257 237.646 9.45891Z" fill="white"/>
<path d="M234.03 12.0796C233.615 12.0789 233.2 12.0405 232.792 11.9649C231.638 11.7735 230.566 11.2497 229.705 10.4576C229.329 10.1363 229.039 9.72531 228.864 9.26254C228.688 8.79977 228.632 8.30018 228.7 7.80996C228.811 7.32759 229.042 6.88099 229.371 6.5114C229.701 6.14181 230.118 5.86114 230.584 5.69533C231.675 5.28322 232.858 5.17727 234.005 5.38893C235.152 5.60059 236.22 6.12181 237.092 6.89622C237.468 7.21749 237.758 7.6285 237.933 8.09127C238.109 8.55404 238.165 9.05363 238.097 9.54386C237.986 10.0262 237.755 10.4728 237.426 10.8424C237.096 11.212 236.679 11.4927 236.213 11.6585C235.521 11.9447 234.779 12.088 234.03 12.0796ZM232.763 6.19073C232.141 6.18281 231.523 6.30092 230.947 6.53797C230.621 6.64708 230.327 6.83576 230.092 7.08693C229.858 7.33811 229.689 7.64384 229.603 7.97647C229.565 8.31813 229.613 8.6638 229.743 8.98217C229.872 9.30055 230.079 9.58157 230.345 9.79981C231.087 10.4474 231.989 10.8834 232.958 11.0622C233.926 11.241 234.925 11.1559 235.849 10.8158C236.175 10.7067 236.469 10.5181 236.703 10.2669C236.938 10.0157 237.106 9.70997 237.193 9.37735C237.231 9.03566 237.183 8.68991 237.053 8.3715C236.924 8.05308 236.717 7.77208 236.451 7.554C235.721 6.88786 234.812 6.44902 233.836 6.29119C233.483 6.2254 233.125 6.19177 232.765 6.19073H232.763Z" fill="#41324C"/>
<path d="M232.869 5.73315L231.947 11.2679L233.308 11.578L234.449 5.9593L232.869 5.73315Z" fill="#41324C"/>
<path d="M238.399 11.6881C238.645 11.6881 238.844 11.4885 238.844 11.2422C238.844 10.996 238.645 10.7964 238.399 10.7964C238.152 10.7964 237.953 10.996 237.953 11.2422C237.953 11.4885 238.152 11.6881 238.399 11.6881Z" fill="#41324C"/>
<path d="M239.176 9.40564C239.422 9.40564 239.622 9.20602 239.622 8.95978C239.622 8.71353 239.422 8.51392 239.176 8.51392C238.93 8.51392 238.73 8.71353 238.73 8.95978C238.73 9.20602 238.93 9.40564 239.176 9.40564Z" fill="#41324C"/>
</svg>
