<svg width="512" height="512" version="1.1" xmlns="http://www.w3.org/2000/svg" desc="Created with imagetracer.js version 1.2.6" ><path fill="rgb(105,101,105)" stroke="rgb(105,101,105)" stroke-width="1" opacity="0.9686274509803922" d="M 108.5 86 L 112 86.5 L 108.5 87 L 108.5 86 Z " /><path fill="rgb(105,101,105)" stroke="rgb(105,101,105)" stroke-width="1" opacity="0.9686274509803922" d="M 114.5 86 L 118 86.5 L 114.5 87 L 114.5 86 Z " /><path fill="rgb(105,101,105)" stroke="rgb(105,101,105)" stroke-width="1" opacity="0.9686274509803922" d="M 162.5 86 L 165 86.5 L 162.5 87 L 162.5 86 Z " /><path fill="rgb(105,101,105)" stroke="rgb(105,101,105)" stroke-width="1" opacity="0.9686274509803922" d="M 169.5 86 L 172 86.5 L 169.5 87 L 169.5 86 Z " /><path fill="rgb(105,101,105)" stroke="rgb(105,101,105)" stroke-width="1" opacity="0.9686274509803922" d="M 390.5 86 L 393 86.5 L 390.5 87 L 390.5 86 Z " /><path fill="rgb(105,101,105)" stroke="rgb(105,101,105)" stroke-width="1" opacity="0.9686274509803922" d="M 397.5 86 L 401 86.5 L 397.5 87 L 397.5 86 Z " /><path fill="rgb(105,101,105)" stroke="rgb(105,101,105)" stroke-width="1" opacity="0.9686274509803922" d="M 208.5 87 L 207.5 89 L 208.5 87 Z " /><path fill="rgb(105,101,105)" stroke="rgb(105,101,105)" stroke-width="1" opacity="0.9686274509803922" d="M 215.5 87 L 217.5 90 L 215.5 87 Z " /><path fill="rgb(105,101,105)" stroke="rgb(105,101,105)" stroke-width="1" opacity="0.9686274509803922" d="M 257.5 87 L 255.5 90 L 257.5 87 Z " /><path fill="rgb(105,101,105)" stroke="rgb(105,101,105)" stroke-width="1" opacity="0.9686274509803922" d="M 264.5 87 L 265.5 89 L 264.5 87 Z " /><path fill="rgb(105,101,105)" stroke="rgb(105,101,105)" stroke-width="1" opacity="0.9686274509803922" d="M 280.5 87 L 279.5 89 L 280.5 87 Z " /><path fill="rgb(105,101,105)" stroke="rgb(105,101,105)" stroke-width="1" opacity="0.9686274509803922" d="M 287.5 87 L 288.5 89 L 287.5 87 Z " /><path fill="rgb(105,101,105)" stroke="rgb(105,101,105)" stroke-width="1" opacity="0.9686274509803922" d="M 304.5 87 L 303.5 89 L 304.5 87 Z " /><path fill="rgb(105,101,105)" stroke="rgb(105,101,105)" stroke-width="1" opacity="0.9686274509803922" d="M 311.5 87 L 313.5 90 L 311.5 87 Z " /><path fill="rgb(105,101,105)" stroke="rgb(105,101,105)" stroke-width="1" opacity="0.9686274509803922" d="M 346.5 87 L 345.5 89 L 346.5 87 Z " /><path fill="rgb(105,101,105)" stroke="rgb(105,101,105)" stroke-width="1" opacity="0.9686274509803922" d="M 353.5 87 L 354.5 89 L 353.5 87 Z " /><path fill="rgb(105,101,105)" stroke="rgb(105,101,105)" stroke-width="1" opacity="0.9686274509803922" d="M 127.5 90 L 128.5 92 L 127.5 90 Z " /><path fill="rgb(105,101,105)" stroke="rgb(105,101,105)" stroke-width="1" opacity="0.9686274509803922" d="M 379.5 90 L 378.5 92 L 379.5 90 Z " /><path fill="rgb(105,101,105)" stroke="rgb(105,101,105)" stroke-width="1" opacity="0.9686274509803922" d="M 218.5 91 L 219.5 93 L 218.5 91 Z " /><path fill="rgb(105,101,105)" stroke="rgb(105,101,105)" stroke-width="1" opacity="0.9686274509803922" d="M 254.5 91 L 253.5 93 L 254.5 91 Z " /><path fill="rgb(105,101,105)" stroke="rgb(105,101,105)" stroke-width="1" opacity="0.9686274509803922" d="M 95.5 92 L 92.5 96 L 95.5 92 Z " /><path fill="rgb(105,101,105)" stroke="rgb(105,101,105)" stroke-width="1" opacity="0.9686274509803922" d="M 149.5 92 L 146.5 96 L 149.5 92 Z " /><path fill="rgb(105,101,105)" stroke="rgb(105,101,105)" stroke-width="1" opacity="0.9686274509803922" d="M 184.5 92 L 187.5 96 L 184.5 92 Z " /><path fill="rgb(105,101,105)" stroke="rgb(105,101,105)" stroke-width="1" opacity="0.9686274509803922" d="M 315.5 92 L 316.5 94 L 315.5 92 Z " /><path fill="rgb(105,101,105)" stroke="rgb(105,101,105)" stroke-width="1" opacity="0.9686274509803922" d="M 375.5 93 L 372.5 97 L 375.5 93 Z " /><path fill="rgb(105,101,105)" stroke="rgb(105,101,105)" stroke-width="1" opacity="0.9686274509803922" d="M 415.5 93 L 417.5 96 L 415.5 93 Z " /><path fill="rgb(105,101,105)" stroke="rgb(105,101,105)" stroke-width="1" opacity="0.9686274509803922" d="M 251.5 95 L 250.5 97 L 251.5 95 Z " /><path fill="rgb(105,101,105)" stroke="rgb(105,101,105)" stroke-width="1" opacity="0.9686274509803922" d="M 318.5 96 L 319.5 98 L 318.5 96 Z " /><path fill="rgb(105,101,105)" stroke="rgb(105,101,105)" stroke-width="1" opacity="0.9686274509803922" d="M 223.5 98 L 224.5 100 L 223.5 98 Z " /><path fill="rgb(105,101,105)" stroke="rgb(105,101,105)" stroke-width="1" opacity="0.9686274509803922" d="M 249.5 98 L 248.5 100 L 249.5 98 Z " /><path fill="rgb(105,101,105)" stroke="rgb(105,101,105)" stroke-width="1" opacity="0.9686274509803922" d="M 370.5 99 L 369.5 101 L 370.5 99 Z " /><path fill="rgb(105,101,105)" stroke="rgb(105,101,105)" stroke-width="1" opacity="0.9686274509803922" d="M 121.5 100 L 122.5 102 L 121.5 100 Z " /><path fill="rgb(105,101,105)" stroke="rgb(105,101,105)" stroke-width="1" opacity="0.9686274509803922" d="M 132.5 100 L 130.5 103 L 132.5 100 Z " /><path fill="rgb(105,101,105)" stroke="rgb(105,101,105)" stroke-width="1" opacity="0.9686274509803922" d="M 158.5 100 L 157.5 102 L 158.5 100 Z " /><path fill="rgb(105,101,105)" stroke="rgb(105,101,105)" stroke-width="1" opacity="0.9686274509803922" d="M 175.5 100 L 176.5 102 L 175.5 100 Z " /><path fill="rgb(105,101,105)" stroke="rgb(105,101,105)" stroke-width="1" opacity="0.9686274509803922" d="M 321.5 100 L 322.5 102 L 321.5 100 Z " /><path fill="rgb(105,101,105)" stroke="rgb(105,101,105)" stroke-width="1" opacity="0.9686274509803922" d="M 385.5 100 L 383.5 103 L 385.5 100 Z " /><path fill="rgb(105,101,105)" stroke="rgb(105,101,105)" stroke-width="1" opacity="0.9686274509803922" d="M 225.5 101 L 226.5 103 L 225.5 101 Z " /><path fill="rgb(105,101,105)" stroke="rgb(105,101,105)" stroke-width="1" opacity="0.9686274509803922" d="M 247.5 101 L 246.5 103 L 247.5 101 Z " /><path fill="rgb(105,101,105)" stroke="rgb(105,101,105)" stroke-width="1" opacity="0.9686274509803922" d="M 406.5 101 L 407.5 103 L 406.5 101 Z " /><path fill="rgb(105,101,105)" stroke="rgb(105,101,105)" stroke-width="1" opacity="0.9686274509803922" d="M 126.5 103 L 129 103.5 L 126.5 104 L 126.5 103 Z " /><path fill="rgb(105,101,105)" stroke="rgb(105,101,105)" stroke-width="1" opacity="0.9686274509803922" d="M 155.5 103 L 154.5 105 L 155.5 103 Z " /><path fill="rgb(105,101,105)" stroke="rgb(105,101,105)" stroke-width="1" opacity="0.9686274509803922" d="M 178.5 103 L 179.5 105 L 178.5 103 Z " /><path fill="rgb(105,101,105)" stroke="rgb(105,101,105)" stroke-width="1" opacity="0.9686274509803922" d="M 324.5 104 L 325.5 106 L 324.5 104 Z " /><path fill="rgb(105,101,105)" stroke="rgb(105,101,105)" stroke-width="1" opacity="0.9686274509803922" d="M 381.5 104 L 379.5 107 L 381.5 104 Z " /><path fill="rgb(105,101,105)" stroke="rgb(105,101,105)" stroke-width="1" opacity="0.9686274509803922" d="M 244.5 105 L 243.5 107 L 244.5 105 Z " /><path fill="rgb(105,101,105)" stroke="rgb(105,101,105)" stroke-width="1" opacity="0.9686274509803922" d="M 86.5 108 L 87 111.5 L 86 111.5 L 86.5 108 Z " /><path fill="rgb(105,101,105)" stroke="rgb(105,101,105)" stroke-width="1" opacity="0.9686274509803922" d="M 140.5 108 L 141 110.5 L 140 110.5 L 140.5 108 Z " /><path fill="rgb(105,101,105)" stroke="rgb(105,101,105)" stroke-width="1" opacity="0.9686274509803922" d="M 193.5 108 L 194 111.5 L 193 111.5 L 193.5 108 Z " /><path fill="rgb(105,101,105)" stroke="rgb(105,101,105)" stroke-width="1" opacity="0.9686274509803922" d="M 230.5 108 L 231.5 110 L 230.5 108 Z " /><path fill="rgb(105,101,105)" stroke="rgb(105,101,105)" stroke-width="1" opacity="0.9686274509803922" d="M 242.5 108 L 241.5 110 L 242.5 108 Z " /><path fill="rgb(105,101,105)" stroke="rgb(105,101,105)" stroke-width="1" opacity="0.9686274509803922" d="M 327.5 108 L 328.5 110 L 327.5 108 Z " /><path fill="rgb(105,101,105)" stroke="rgb(105,101,105)" stroke-width="1" opacity="0.9686274509803922" d="M 314.5 110 L 315.5 112 L 314.5 110 Z " /><path fill="rgb(105,101,105)" stroke="rgb(105,101,105)" stroke-width="1" opacity="0.9686274509803922" d="M 218.5 111 L 219.5 113 L 218.5 111 Z " /><path fill="rgb(105,101,105)" stroke="rgb(105,101,105)" stroke-width="1" opacity="0.9686274509803922" d="M 232.5 111 L 233.5 113 L 232.5 111 Z " /><path fill="rgb(105,101,105)" stroke="rgb(105,101,105)" stroke-width="1" opacity="0.9686274509803922" d="M 240.5 111 L 239.5 113 L 240.5 111 Z " /><path fill="rgb(105,101,105)" stroke="rgb(105,101,105)" stroke-width="1" opacity="0.9686274509803922" d="M 254.5 111 L 253.5 113 L 254.5 111 Z " /><path fill="rgb(105,101,105)" stroke="rgb(105,101,105)" stroke-width="1" opacity="0.9686274509803922" d="M 365.5 111 L 366 113.5 L 365 113.5 L 365.5 111 Z " /><path fill="rgb(105,101,105)" stroke="rgb(105,101,105)" stroke-width="1" opacity="0.9686274509803922" d="M 330.5 112 L 331.5 114 L 330.5 112 Z " /><path fill="rgb(105,101,105)" stroke="rgb(105,101,105)" stroke-width="1" opacity="0.9686274509803922" d="M 220.5 114 L 221.5 116 L 220.5 114 Z " /><path fill="rgb(105,101,105)" stroke="rgb(105,101,105)" stroke-width="1" opacity="0.9686274509803922" d="M 252.5 114 L 251.5 116 L 252.5 114 Z " /><path fill="rgb(105,101,105)" stroke="rgb(105,101,105)" stroke-width="1" opacity="0.9686274509803922" d="M 317.5 114 L 318.5 116 L 317.5 114 Z " /><path fill="rgb(105,101,105)" stroke="rgb(105,101,105)" stroke-width="1" opacity="0.9686274509803922" d="M 235.5 115 L 238 115.5 Q 235.9 118.8 235.5 115 Z " /><path fill="rgb(105,101,105)" stroke="rgb(105,101,105)" stroke-width="1" opacity="0.9686274509803922" d="M 333.5 116 L 334.5 118 L 333.5 116 Z " /><path fill="rgb(105,101,105)" stroke="rgb(105,101,105)" stroke-width="1" opacity="0.9686274509803922" d="M 222.5 117 L 223.5 119 L 222.5 117 Z " /><path fill="rgb(105,101,105)" stroke="rgb(105,101,105)" stroke-width="1" opacity="0.9686274509803922" d="M 250.5 117 L 249.5 119 L 250.5 117 Z " /><path fill="rgb(105,101,105)" stroke="rgb(105,101,105)" stroke-width="1" opacity="0.9686274509803922" d="M 399.5 117 L 420 117.5 L 399.5 118 L 399.5 117 Z " /><path fill="rgb(105,101,105)" stroke="rgb(105,101,105)" stroke-width="1" opacity="0.9686274509803922" d="M 320.5 118 L 321.5 120 L 320.5 118 Z " /><path fill="rgb(105,101,105)" stroke="rgb(105,101,105)" stroke-width="1" opacity="0.9686274509803922" d="M 336.5 120 L 337.5 122 L 336.5 120 Z " /><path fill="rgb(105,101,105)" stroke="rgb(105,101,105)" stroke-width="1" opacity="0.9686274509803922" d="M 225.5 121 L 226.5 123 L 225.5 121 Z " /><path fill="rgb(105,101,105)" stroke="rgb(105,101,105)" stroke-width="1" opacity="0.9686274509803922" d="M 247.5 121 L 246.5 123 L 247.5 121 Z " /><path fill="rgb(105,101,105)" stroke="rgb(105,101,105)" stroke-width="1" opacity="0.9686274509803922" d="M 323.5 122 L 324.5 124 L 323.5 122 Z " /><path fill="rgb(105,101,105)" stroke="rgb(105,101,105)" stroke-width="1" opacity="0.9686274509803922" d="M 227.5 124 L 228.5 126 L 227.5 124 Z " /><path fill="rgb(105,101,105)" stroke="rgb(105,101,105)" stroke-width="1" opacity="0.9686274509803922" d="M 245.5 124 L 244.5 126 L 245.5 124 Z " /><path fill="rgb(105,101,105)" stroke="rgb(105,101,105)" stroke-width="1" opacity="0.9686274509803922" d="M 339.5 124 L 340.5 126 L 339.5 124 Z " /><path fill="rgb(105,101,105)" stroke="rgb(105,101,105)" stroke-width="1" opacity="0.9686274509803922" d="M 365.5 125 L 366 128.5 L 365 128.5 L 365.5 125 Z " /><path fill="rgb(105,101,105)" stroke="rgb(105,101,105)" stroke-width="1" opacity="0.9686274509803922" d="M 425.5 125 L 426 128.5 L 425 128.5 L 425.5 125 Z " /><path fill="rgb(105,101,105)" stroke="rgb(105,101,105)" stroke-width="1" opacity="0.9686274509803922" d="M 326.5 126 L 327.5 128 L 326.5 126 Z " /><path fill="rgb(105,101,105)" stroke="rgb(105,101,105)" stroke-width="1" opacity="0.9686274509803922" d="M 229.5 127 L 230.5 129 L 229.5 127 Z " /><path fill="rgb(105,101,105)" stroke="rgb(105,101,105)" stroke-width="1" opacity="0.9686274509803922" d="M 243.5 127 L 242.5 129 L 243.5 127 Z " /><path fill="rgb(105,101,105)" stroke="rgb(105,101,105)" stroke-width="1" opacity="0.9686274509803922" d="M 193.5 128 L 194 131.5 L 193 131.5 L 193.5 128 Z " /><path fill="rgb(105,101,105)" stroke="rgb(105,101,105)" stroke-width="1" opacity="0.9686274509803922" d="M 342.5 128 L 343.5 130 L 342.5 128 Z " /><path fill="rgb(105,101,105)" stroke="rgb(105,101,105)" stroke-width="1" opacity="0.9686274509803922" d="M 86.5 129 L 87 131.5 L 86 131.5 L 86.5 129 Z " /><path fill="rgb(105,101,105)" stroke="rgb(105,101,105)" stroke-width="1" opacity="0.9686274509803922" d="M 140.5 129 L 141 131.5 L 140 131.5 L 140.5 129 Z " /><path fill="rgb(105,101,105)" stroke="rgb(105,101,105)" stroke-width="1" opacity="0.9686274509803922" d="M 398.5 129 L 413 129.5 L 398.5 130 L 398.5 129 Z " /><path fill="rgb(105,101,105)" stroke="rgb(105,101,105)" stroke-width="1" opacity="0.9686274509803922" d="M 329.5 130 L 330.5 132 L 329.5 130 Z " /><path fill="rgb(105,101,105)" stroke="rgb(105,101,105)" stroke-width="1" opacity="0.9686274509803922" d="M 379.5 133 L 385.5 140 L 379.5 133 Z " /><path fill="rgb(105,101,105)" stroke="rgb(105,101,105)" stroke-width="1" opacity="0.9686274509803922" d="M 411.5 133 L 409.5 136 L 411.5 133 Z " /><path fill="rgb(105,101,105)" stroke="rgb(105,101,105)" stroke-width="1" opacity="0.9686274509803922" d="M 332.5 134 L 333.5 136 L 332.5 134 Z " /><path fill="rgb(105,101,105)" stroke="rgb(105,101,105)" stroke-width="1" opacity="0.9686274509803922" d="M 154.5 135 L 155.5 137 L 154.5 135 Z " /><path fill="rgb(105,101,105)" stroke="rgb(105,101,105)" stroke-width="1" opacity="0.9686274509803922" d="M 179.5 135 L 178.5 137 L 179.5 135 Z " /><path fill="rgb(105,101,105)" stroke="rgb(105,101,105)" stroke-width="1" opacity="0.9686274509803922" d="M 126.5 136 L 129 136.5 L 126.5 137 L 126.5 136 Z " /><path fill="rgb(105,101,105)" stroke="rgb(105,101,105)" stroke-width="1" opacity="0.9686274509803922" d="M 130.5 137 L 132.5 140 L 130.5 137 Z " /><path fill="rgb(105,101,105)" stroke="rgb(105,101,105)" stroke-width="1" opacity="0.9686274509803922" d="M 407.5 137 L 405.5 140 L 407.5 137 Z " /><path fill="rgb(105,101,105)" stroke="rgb(105,101,105)" stroke-width="1" opacity="0.9686274509803922" d="M 122.5 138 L 121.5 140 L 122.5 138 Z " /><path fill="rgb(105,101,105)" stroke="rgb(105,101,105)" stroke-width="1" opacity="0.9686274509803922" d="M 157.5 138 L 158.5 140 L 157.5 138 Z " /><path fill="rgb(105,101,105)" stroke="rgb(105,101,105)" stroke-width="1" opacity="0.9686274509803922" d="M 176.5 138 L 175.5 140 L 176.5 138 Z " /><path fill="rgb(105,101,105)" stroke="rgb(105,101,105)" stroke-width="1" opacity="0.9686274509803922" d="M 335.5 138 L 336.5 140 L 335.5 138 Z " /><path fill="rgb(105,101,105)" stroke="rgb(105,101,105)" stroke-width="1" opacity="0.9686274509803922" d="M 338.5 142 L 339.5 144 L 338.5 142 Z " /><path fill="rgb(105,101,105)" stroke="rgb(105,101,105)" stroke-width="1" opacity="0.9686274509803922" d="M 372.5 143 L 374.5 146 L 372.5 143 Z " /><path fill="rgb(105,101,105)" stroke="rgb(105,101,105)" stroke-width="1" opacity="0.9686274509803922" d="M 418.5 143 L 415.5 147 L 418.5 143 Z " /><path fill="rgb(105,101,105)" stroke="rgb(105,101,105)" stroke-width="1" opacity="0.9686274509803922" d="M 92.5 144 L 95.5 148 L 92.5 144 Z " /><path fill="rgb(105,101,105)" stroke="rgb(105,101,105)" stroke-width="1" opacity="0.9686274509803922" d="M 146.5 144 L 149.5 148 L 146.5 144 Z " /><path fill="rgb(105,101,105)" stroke="rgb(105,101,105)" stroke-width="1" opacity="0.9686274509803922" d="M 187.5 144 L 184.5 148 L 187.5 144 Z " /><path fill="rgb(105,101,105)" stroke="rgb(105,101,105)" stroke-width="1" opacity="0.9686274509803922" d="M 341.5 146 L 342.5 148 L 341.5 146 Z " /><path fill="rgb(105,101,105)" stroke="rgb(105,101,105)" stroke-width="1" opacity="0.9686274509803922" d="M 128.5 148 L 127.5 150 L 128.5 148 Z " /><path fill="rgb(105,101,105)" stroke="rgb(105,101,105)" stroke-width="1" opacity="0.9686274509803922" d="M 206.5 149 L 209 152.5 L 206 150.5 L 206.5 149 Z " /><path fill="rgb(105,101,105)" stroke="rgb(105,101,105)" stroke-width="1" opacity="0.9686274509803922" d="M 380.5 149 L 381.5 151 L 380.5 149 Z " /><path fill="rgb(105,101,105)" stroke="rgb(105,101,105)" stroke-width="1" opacity="0.9686274509803922" d="M 344.5 150 L 346.5 153 L 344.5 150 Z " /><path fill="rgb(105,101,105)" stroke="rgb(105,101,105)" stroke-width="1" opacity="0.9686274509803922" d="M 216.5 151 L 215.5 153 L 216.5 151 Z " /><path fill="rgb(105,101,105)" stroke="rgb(105,101,105)" stroke-width="1" opacity="0.9686274509803922" d="M 256.5 151 L 257.5 153 L 256.5 151 Z " /><path fill="rgb(105,101,105)" stroke="rgb(105,101,105)" stroke-width="1" opacity="0.9686274509803922" d="M 265.5 151 L 264.5 153 L 265.5 151 Z " /><path fill="rgb(105,101,105)" stroke="rgb(105,101,105)" stroke-width="1" opacity="0.9686274509803922" d="M 279.5 151 L 280.5 153 L 279.5 151 Z " /><path fill="rgb(105,101,105)" stroke="rgb(105,101,105)" stroke-width="1" opacity="0.9686274509803922" d="M 288.5 151 L 287.5 153 L 288.5 151 Z " /><path fill="rgb(105,101,105)" stroke="rgb(105,101,105)" stroke-width="1" opacity="0.9686274509803922" d="M 303.5 151 L 304.5 153 L 303.5 151 Z " /><path fill="rgb(105,101,105)" stroke="rgb(105,101,105)" stroke-width="1" opacity="0.9686274509803922" d="M 312.5 151 L 311.5 153 L 312.5 151 Z " /><path fill="rgb(105,101,105)" stroke="rgb(105,101,105)" stroke-width="1" opacity="0.9686274509803922" d="M 354.5 151 L 353.5 153 L 354.5 151 Z " /><path fill="rgb(105,101,105)" stroke="rgb(105,101,105)" stroke-width="1" opacity="0.9686274509803922" d="M 108.5 153 L 111 153.5 L 108.5 154 L 108.5 153 Z " /><path fill="rgb(105,101,105)" stroke="rgb(105,101,105)" stroke-width="1" opacity="0.9686274509803922" d="M 115.5 153 L 118 153.5 L 115.5 154 L 115.5 153 Z " /><path fill="rgb(105,101,105)" stroke="rgb(105,101,105)" stroke-width="1" opacity="0.9686274509803922" d="M 162.5 153 L 165 153.5 L 162.5 154 L 162.5 153 Z " /><path fill="rgb(105,101,105)" stroke="rgb(105,101,105)" stroke-width="1" opacity="0.9686274509803922" d="M 169.5 153 L 172 153.5 L 169.5 154 L 169.5 153 Z " /><path fill="rgb(105,101,105)" stroke="rgb(105,101,105)" stroke-width="1" opacity="0.9686274509803922" d="M 390.5 153 L 394 153.5 L 390.5 154 L 390.5 153 Z " /><path fill="rgb(105,101,105)" stroke="rgb(105,101,105)" stroke-width="1" opacity="0.9686274509803922" d="M 397.5 153 L 401 153.5 L 397.5 154 L 397.5 153 Z " /><path fill="rgb(79,79,104)" stroke="rgb(79,79,104)" stroke-width="1" opacity="0.996078431372549" d="M 112.5 86 L 122.5 88 L 132 94.5 L 133 99.5 Q 132 104 125.5 103 L 117.5 98 L 108.5 98 L 100 104.5 L 98 108.5 L 98 131.5 L 104.5 140 Q 108.5 143.5 117.5 142 L 125.5 137 L 129.5 137 Q 133.8 137.8 133 143.5 L 129.5 148 Q 123 153.5 111.5 154 L 97.5 149 L 91 142.5 L 86 128.5 L 86 112.5 Q 88.5 111 87 105.5 L 91 97.5 L 97.5 91 L 103.5 88 L 112.5 86 Z " /><path fill="rgb(79,79,104)" stroke="rgb(79,79,104)" stroke-width="1" opacity="0.996078431372549" d="M 165.5 86 Q 182.1 86.9 189 97.5 L 193 106.5 L 194 127.5 Q 191.8 128.8 193 133.5 L 189 142.5 L 182.5 149 Q 176.2 153.7 165.5 154 L 151.5 149 L 145 142.5 L 140 128.5 L 140 111.5 L 145 97.5 L 151.5 91 L 159.5 87 Q 164.3 88.3 165.5 86 Z M 163 98 L 159 100 L 152 109 L 152 132 L 154 136 L 163 142 Q 172 144 176 140 L 182 132 L 182 109 L 180 105 L 172 98 L 163 98 Z " /><path fill="rgb(79,79,104)" stroke="rgb(79,79,104)" stroke-width="1" opacity="0.996078431372549" d="M 211.5 86 L 218 90.5 L 236.5 117 L 258.5 87 L 261.5 86 L 266 89.5 L 267 91.5 L 267 147.5 L 263.5 153 L 260.5 154 L 256 150.5 L 255 148.5 L 254.5 111 L 239.5 132 L 236.5 133 L 231 129.5 L 218.5 111 L 218 147.5 L 214.5 153 L 211.5 154 L 207 150.5 L 206 148.5 L 206 91.5 L 209.5 87 L 211.5 86 Z " /><path fill="rgb(79,79,104)" stroke="rgb(79,79,104)" stroke-width="1" opacity="0.996078431372549" d="M 283.5 86 L 289 89.5 L 290 91.5 L 290 148.5 L 286.5 153 L 283.5 154 L 279 150.5 L 278 148.5 L 278 91.5 L 281.5 87 L 283.5 86 Z " /><path fill="rgb(79,79,104)" stroke="rgb(79,79,104)" stroke-width="1" opacity="0.996078431372549" d="M 307.5 86 L 315 91.5 L 343.5 130 L 344 91.5 L 347.5 87 L 350.5 86 L 355 89.5 L 356 91.5 L 356 148.5 L 352.5 153 L 350.5 154 L 343 148.5 L 314.5 110 L 314 148.5 L 310.5 153 L 307.5 154 L 303 150.5 L 302 148.5 L 302 91.5 L 305.5 87 L 307.5 86 Z " /><path fill="rgb(79,79,104)" stroke="rgb(79,79,104)" stroke-width="1" opacity="0.996078431372549" d="M 393.5 86 Q 410.6 86.4 418 96.5 L 419 100.5 L 416.5 104 L 411.5 105 L 403.5 99 Q 398.8 96.8 390.5 98 Q 382.6 100.1 379 106.5 L 377 111.5 L 377 128.5 Q 379.1 136.4 385.5 140 Q 390.6 143.4 400.5 142 Q 408.4 139.9 412 133.5 L 413 129 L 397.5 129 L 394 126.5 L 393 123.5 L 395.5 119 L 397.5 118 L 421.5 118 L 425 120.5 L 426 124.5 L 422 138.5 L 413.5 148 L 402.5 153 L 394.5 154 L 382.5 151 L 371 141.5 L 366 130.5 L 365 114.5 L 369 101.5 L 377.5 92 L 382.5 89 L 393.5 86 Z " /><path fill="rgb(79,79,104)" stroke="rgb(79,79,104)" stroke-width="1" opacity="0.996078431372549" d="M 66.5 480 L 125.5 480 L 134 486.5 L 136 490.5 L 136 504 L 56.5 504 L 56 503.5 L 56 490.5 L 62.5 482 L 66.5 480 Z " /><path fill="rgb(79,79,104)" stroke="rgb(79,79,104)" stroke-width="1" opacity="0.996078431372549" d="M 386.5 480 L 445.5 480 L 454 486.5 L 456 490.5 L 456 504 L 376.5 504 L 376 503.5 L 376 490.5 L 382.5 482 L 386.5 480 Z " /><path fill="rgb(0,0,0)" stroke="rgb(0,0,0)" stroke-width="1" opacity="0" d="M 0 0 L 512 0 L 512 512 L 0 512 L 0 0 Z M 91 8 L 87 10 L 80 19 L 80 56 L 26 56 L 19 59 Q 11 64 8 74 L 8 167 L 11 174 Q 16 181 26 184 L 80 184 L 80 216 L 26 216 L 19 219 Q 11 224 8 234 L 8 311 L 11 318 Q 16 325 26 328 L 80 328 L 80 480 L 67 480 L 63 482 L 56 491 L 56 504 L 57 504 L 136 504 L 136 491 L 134 487 L 126 480 L 113 480 L 112 480 L 112 328 L 400 328 L 400 480 L 387 480 L 383 482 L 376 491 L 376 504 L 377 504 L 456 504 L 456 491 L 454 487 L 446 480 L 433 480 L 432 480 L 432 328 L 487 328 L 494 325 Q 501 320 504 311 L 504 234 L 501 227 Q 496 219 487 216 L 432 216 L 432 184 L 487 184 L 494 181 Q 501 176 504 167 L 504 74 L 501 67 Q 496 59 487 56 L 432 56 L 432 19 L 430 15 L 422 8 Q 411 6 407 10 L 400 19 L 400 56 L 400 56 L 112 56 L 112 19 L 110 15 Q 106 6 91 8 Z " /><path fill="rgb(0,0,0)" stroke="rgb(0,0,0)" stroke-width="1" opacity="0" d="M 112 184 L 399.5 184 L 400 184.5 L 400 216 L 112.5 216 L 112 215.5 L 112 184 Z " /><path fill="rgb(250,227,120)" stroke="rgb(250,227,120)" stroke-width="1" opacity="0.996078431372549" d="M 25.5 56 L 486.5 56 Q 496.3 58.7 501 66.5 L 504 73.5 L 504 166.5 Q 501.2 176.3 493.5 181 L 486.5 184 L 25.5 184 Q 15.8 181.3 11 173.5 L 8 166.5 L 8 73.5 Q 10.8 63.8 18.5 59 L 25.5 56 Z M 109 86 Q 100 87 96 92 Q 88 97 86 108 L 86 133 L 92 145 Q 98 151 108 154 Q 123 155 131 148 Q 134 146 133 140 L 129 136 L 116 142 L 111 142 L 102 138 L 98 130 L 98 111 L 102 102 L 111 98 L 119 99 L 127 104 Q 131 104 133 101 L 132 94 Q 125 85 109 86 Z M 162 86 L 150 92 Q 142 97 140 108 L 140 133 L 146 145 Q 152 151 162 154 L 173 154 L 185 148 Q 192 143 194 133 L 194 108 L 188 96 L 179 88 Q 172 85 162 86 Z M 210 86 L 206 90 L 206 151 Q 207 155 215 154 L 218 151 L 219 112 L 232 132 L 235 133 L 241 132 L 255 112 L 255 151 L 259 154 Q 266 155 267 151 L 267 91 L 266 89 Q 265 85 259 86 L 237 116 L 218 90 Q 216 85 210 86 Z M 282 86 L 278 90 L 278 151 Q 279 155 287 154 L 290 151 L 290 90 Q 289 85 282 86 Z M 306 86 L 302 91 L 302 151 Q 303 155 311 154 L 314 151 L 315 111 L 344 151 L 349 154 L 354 153 L 356 150 L 356 90 Q 355 85 348 86 L 344 90 L 344 129 L 314 90 Q 312 85 306 86 Z M 390 86 L 376 93 Q 368 99 365 111 L 365 130 L 372 144 Q 378 152 391 154 Q 408 155 416 147 Q 424 141 426 129 Q 427 122 425 119 L 421 117 L 399 117 L 394 119 L 393 122 L 394 128 L 399 130 L 412 130 L 412 133 Q 408 140 399 142 L 393 142 L 387 140 Q 379 136 377 127 Q 375 114 379 108 Q 383 100 393 98 L 399 98 L 405 100 L 413 106 L 418 104 L 419 102 L 418 96 Q 412 89 402 86 L 390 86 Z " /><path fill="rgb(250,227,120)" stroke="rgb(250,227,120)" stroke-width="1" opacity="0.996078431372549" d="M 164.5 98 L 169.5 98 L 178 102 L 182 110.5 L 182 129.5 L 178 138 L 169.5 142 L 164.5 142 L 156 138 L 152 129.5 L 152 110.5 L 156 102 L 164.5 98 Z " /><path fill="rgb(250,209,215)" stroke="rgb(250,209,215)" stroke-width="1" opacity="1" d="M 179.5 239 L 180.5 241 L 179.5 239 Z " /><path fill="rgb(250,209,215)" stroke="rgb(250,209,215)" stroke-width="1" opacity="1" d="M 318.5 239 L 317.5 241 L 318.5 239 Z " /><path fill="rgb(250,209,215)" stroke="rgb(250,209,215)" stroke-width="1" opacity="1" d="M 360.5 239 L 359.5 241 L 360.5 239 Z " /><path fill="rgb(250,209,215)" stroke="rgb(250,209,215)" stroke-width="1" opacity="1" d="M 367.5 239 L 368.5 241 L 367.5 239 Z " /><path fill="rgb(250,209,215)" stroke="rgb(250,209,215)" stroke-width="1" opacity="1" d="M 149.5 242 L 146.5 246 L 149.5 242 Z " /><path fill="rgb(250,209,215)" stroke="rgb(250,209,215)" stroke-width="1" opacity="1" d="M 199.5 244 L 196.5 248 L 199.5 244 Z " /><path fill="rgb(250,209,215)" stroke="rgb(250,209,215)" stroke-width="1" opacity="1" d="M 234.5 244 L 237.5 248 L 234.5 244 Z " /><path fill="rgb(250,209,215)" stroke="rgb(250,209,215)" stroke-width="1" opacity="1" d="M 263.5 244 L 260.5 248 L 263.5 244 Z " /><path fill="rgb(250,209,215)" stroke="rgb(250,209,215)" stroke-width="1" opacity="1" d="M 298.5 244 L 301.5 248 L 298.5 244 Z " /><path fill="rgb(250,209,215)" stroke="rgb(250,209,215)" stroke-width="1" opacity="1" d="M 180.5 247 L 179.5 249 L 180.5 247 Z " /><path fill="rgb(250,209,215)" stroke="rgb(250,209,215)" stroke-width="1" opacity="1" d="M 208.5 252 L 207.5 254 L 208.5 252 Z " /><path fill="rgb(250,209,215)" stroke="rgb(250,209,215)" stroke-width="1" opacity="1" d="M 225.5 252 L 226.5 254 L 225.5 252 Z " /><path fill="rgb(250,209,215)" stroke="rgb(250,209,215)" stroke-width="1" opacity="1" d="M 272.5 252 L 271.5 254 L 272.5 252 Z " /><path fill="rgb(250,209,215)" stroke="rgb(250,209,215)" stroke-width="1" opacity="1" d="M 289.5 252 L 290.5 254 L 289.5 252 Z " /><path fill="rgb(250,209,215)" stroke="rgb(250,209,215)" stroke-width="1" opacity="1" d="M 205.5 255 L 204.5 257 L 205.5 255 Z " /><path fill="rgb(250,209,215)" stroke="rgb(250,209,215)" stroke-width="1" opacity="1" d="M 228.5 255 L 229.5 257 L 228.5 255 Z " /><path fill="rgb(250,209,215)" stroke="rgb(250,209,215)" stroke-width="1" opacity="1" d="M 269.5 255 L 268.5 257 L 269.5 255 Z " /><path fill="rgb(250,209,215)" stroke="rgb(250,209,215)" stroke-width="1" opacity="1" d="M 292.5 255 L 293.5 257 L 292.5 255 Z " /><path fill="rgb(250,209,215)" stroke="rgb(250,209,215)" stroke-width="1" opacity="1" d="M 146.5 270 L 149.5 274 L 146.5 270 Z " /><path fill="rgb(250,209,215)" stroke="rgb(250,209,215)" stroke-width="1" opacity="1" d="M 174.5 270 L 177.5 274 L 174.5 270 Z " /><path fill="rgb(250,209,215)" stroke="rgb(250,209,215)" stroke-width="1" opacity="1" d="M 204.5 287 L 205.5 289 L 204.5 287 Z " /><path fill="rgb(250,209,215)" stroke="rgb(250,209,215)" stroke-width="1" opacity="1" d="M 229.5 287 L 228.5 289 L 229.5 287 Z " /><path fill="rgb(250,209,215)" stroke="rgb(250,209,215)" stroke-width="1" opacity="1" d="M 268.5 287 L 269.5 289 L 268.5 287 Z " /><path fill="rgb(250,209,215)" stroke="rgb(250,209,215)" stroke-width="1" opacity="1" d="M 293.5 287 L 292.5 289 L 293.5 287 Z " /><path fill="rgb(250,209,215)" stroke="rgb(250,209,215)" stroke-width="1" opacity="1" d="M 207.5 290 L 208.5 292 L 207.5 290 Z " /><path fill="rgb(250,209,215)" stroke="rgb(250,209,215)" stroke-width="1" opacity="1" d="M 226.5 290 L 225.5 292 L 226.5 290 Z " /><path fill="rgb(250,209,215)" stroke="rgb(250,209,215)" stroke-width="1" opacity="1" d="M 271.5 290 L 272.5 292 L 271.5 290 Z " /><path fill="rgb(250,209,215)" stroke="rgb(250,209,215)" stroke-width="1" opacity="1" d="M 290.5 290 L 289.5 292 L 290.5 290 Z " /><path fill="rgb(250,209,215)" stroke="rgb(250,209,215)" stroke-width="1" opacity="1" d="M 144.5 295 L 143.5 297 L 144.5 295 Z " /><path fill="rgb(250,209,215)" stroke="rgb(250,209,215)" stroke-width="1" opacity="1" d="M 196.5 296 L 199.5 300 L 196.5 296 Z " /><path fill="rgb(250,209,215)" stroke="rgb(250,209,215)" stroke-width="1" opacity="1" d="M 237.5 296 L 234.5 300 L 237.5 296 Z " /><path fill="rgb(250,209,215)" stroke="rgb(250,209,215)" stroke-width="1" opacity="1" d="M 260.5 296 L 263.5 300 L 260.5 296 Z " /><path fill="rgb(250,209,215)" stroke="rgb(250,209,215)" stroke-width="1" opacity="1" d="M 301.5 296 L 298.5 300 L 301.5 296 Z " /><path fill="rgb(250,209,215)" stroke="rgb(250,209,215)" stroke-width="1" opacity="1" d="M 177.5 298 L 174.5 302 L 177.5 298 Z " /><path fill="rgb(250,209,215)" stroke="rgb(250,209,215)" stroke-width="1" opacity="1" d="M 143.5 303 L 144.5 305 L 143.5 303 Z " /><path fill="rgb(250,209,215)" stroke="rgb(250,209,215)" stroke-width="1" opacity="1" d="M 317.5 303 L 318.5 305 L 317.5 303 Z " /><path fill="rgb(250,209,215)" stroke="rgb(250,209,215)" stroke-width="1" opacity="1" d="M 326.5 303 L 325.5 305 L 326.5 303 Z " /><path fill="rgb(250,209,215)" stroke="rgb(250,209,215)" stroke-width="1" opacity="1" d="M 368.5 303 L 367.5 305 L 368.5 303 Z " /><path fill="rgb(243,129,149)" stroke="rgb(243,129,149)" stroke-width="1" opacity="0.9921568627450981" d="M 25.5 216 L 486.5 216 Q 496.3 218.8 501 226.5 L 503 232 L 51.5 232 Q 41.3 234.8 36 242.5 L 32 251.5 L 32 324.5 L 33 328 L 22.5 327 Q 15 324 11 317.5 L 8 310.5 L 8 233.5 Q 10.8 223.8 18.5 219 L 25.5 216 Z " /><path fill="rgb(243,129,149)" stroke="rgb(243,129,149)" stroke-width="1" opacity="0.9921568627450981" d="M 201.5 242 L 200.5 244 L 201.5 242 Z " /><path fill="rgb(243,129,149)" stroke="rgb(243,129,149)" stroke-width="1" opacity="0.9921568627450981" d="M 232.5 242 L 233.5 244 L 232.5 242 Z " /><path fill="rgb(243,129,149)" stroke="rgb(243,129,149)" stroke-width="1" opacity="0.9921568627450981" d="M 265.5 242 L 264.5 244 L 265.5 242 Z " /><path fill="rgb(243,129,149)" stroke="rgb(243,129,149)" stroke-width="1" opacity="0.9921568627450981" d="M 296.5 242 L 297.5 244 L 296.5 242 Z " /><path fill="rgb(243,129,149)" stroke="rgb(243,129,149)" stroke-width="1" opacity="0.9921568627450981" d="M 328.5 242 L 329.5 244 L 328.5 242 Z " /><path fill="rgb(243,129,149)" stroke="rgb(243,129,149)" stroke-width="1" opacity="0.9921568627450981" d="M 331.5 246 L 332.5 248 L 331.5 246 Z " /><path fill="rgb(243,129,149)" stroke="rgb(243,129,149)" stroke-width="1" opacity="0.9921568627450981" d="M 195.5 248 L 194.5 250 L 195.5 248 Z " /><path fill="rgb(243,129,149)" stroke="rgb(243,129,149)" stroke-width="1" opacity="0.9921568627450981" d="M 238.5 248 L 239.5 250 L 238.5 248 Z " /><path fill="rgb(243,129,149)" stroke="rgb(243,129,149)" stroke-width="1" opacity="0.9921568627450981" d="M 259.5 248 L 258.5 250 L 259.5 248 Z " /><path fill="rgb(243,129,149)" stroke="rgb(243,129,149)" stroke-width="1" opacity="0.9921568627450981" d="M 302.5 248 L 303.5 250 L 302.5 248 Z " /><path fill="rgb(243,129,149)" stroke="rgb(243,129,149)" stroke-width="1" opacity="0.9921568627450981" d="M 334.5 250 L 335.5 252 L 334.5 250 Z " /><path fill="rgb(243,129,149)" stroke="rgb(243,129,149)" stroke-width="1" opacity="0.9921568627450981" d="M 157.5 251 L 155.5 254 L 157.5 251 Z " /><path fill="rgb(243,129,149)" stroke="rgb(243,129,149)" stroke-width="1" opacity="0.9921568627450981" d="M 337.5 254 L 338.5 256 L 337.5 254 Z " /><path fill="rgb(243,129,149)" stroke="rgb(243,129,149)" stroke-width="1" opacity="0.9921568627450981" d="M 340.5 258 L 341.5 260 L 340.5 258 Z " /><path fill="rgb(243,129,149)" stroke="rgb(243,129,149)" stroke-width="1" opacity="0.9921568627450981" d="M 155.5 262 L 157.5 265 L 155.5 262 Z " /><path fill="rgb(243,129,149)" stroke="rgb(243,129,149)" stroke-width="1" opacity="0.9921568627450981" d="M 343.5 262 L 344.5 264 L 343.5 262 Z " /><path fill="rgb(243,129,149)" stroke="rgb(243,129,149)" stroke-width="1" opacity="0.9921568627450981" d="M 329.5 264 L 330.5 266 L 329.5 264 Z " /><path fill="rgb(243,129,149)" stroke="rgb(243,129,149)" stroke-width="1" opacity="0.9921568627450981" d="M 346.5 266 L 347.5 268 L 346.5 266 Z " /><path fill="rgb(243,129,149)" stroke="rgb(243,129,149)" stroke-width="1" opacity="0.9921568627450981" d="M 332.5 268 L 333.5 270 L 332.5 268 Z " /><path fill="rgb(243,129,149)" stroke="rgb(243,129,149)" stroke-width="1" opacity="0.9921568627450981" d="M 349.5 270 L 350.5 272 L 349.5 270 Z " /><path fill="rgb(243,129,149)" stroke="rgb(243,129,149)" stroke-width="1" opacity="0.9921568627450981" d="M 335.5 272 L 336.5 274 L 335.5 272 Z " /><path fill="rgb(243,129,149)" stroke="rgb(243,129,149)" stroke-width="1" opacity="0.9921568627450981" d="M 352.5 274 L 353.5 276 L 352.5 274 Z " /><path fill="rgb(243,129,149)" stroke="rgb(243,129,149)" stroke-width="1" opacity="0.9921568627450981" d="M 338.5 276 L 339.5 278 L 338.5 276 Z " /><path fill="rgb(243,129,149)" stroke="rgb(243,129,149)" stroke-width="1" opacity="0.9921568627450981" d="M 355.5 278 L 356.5 280 L 355.5 278 Z " /><path fill="rgb(243,129,149)" stroke="rgb(243,129,149)" stroke-width="1" opacity="0.9921568627450981" d="M 166.5 279 L 168.5 282 L 166.5 279 Z " /><path fill="rgb(243,129,149)" stroke="rgb(243,129,149)" stroke-width="1" opacity="0.9921568627450981" d="M 341.5 280 L 342.5 282 L 341.5 280 Z " /><path fill="rgb(243,129,149)" stroke="rgb(243,129,149)" stroke-width="1" opacity="0.9921568627450981" d="M 344.5 284 L 345.5 286 L 344.5 284 Z " /><path fill="rgb(243,129,149)" stroke="rgb(243,129,149)" stroke-width="1" opacity="0.9921568627450981" d="M 347.5 288 L 348.5 290 L 347.5 288 Z " /><path fill="rgb(243,129,149)" stroke="rgb(243,129,149)" stroke-width="1" opacity="0.9921568627450981" d="M 168.5 290 L 166.5 293 L 168.5 290 Z " /><path fill="rgb(243,129,149)" stroke="rgb(243,129,149)" stroke-width="1" opacity="0.9921568627450981" d="M 350.5 292 L 351.5 294 L 350.5 292 Z " /><path fill="rgb(243,129,149)" stroke="rgb(243,129,149)" stroke-width="1" opacity="0.9921568627450981" d="M 194.5 294 L 195.5 296 L 194.5 294 Z " /><path fill="rgb(243,129,149)" stroke="rgb(243,129,149)" stroke-width="1" opacity="0.9921568627450981" d="M 239.5 294 L 238.5 296 L 239.5 294 Z " /><path fill="rgb(243,129,149)" stroke="rgb(243,129,149)" stroke-width="1" opacity="0.9921568627450981" d="M 258.5 294 L 259.5 296 L 258.5 294 Z " /><path fill="rgb(243,129,149)" stroke="rgb(243,129,149)" stroke-width="1" opacity="0.9921568627450981" d="M 303.5 294 L 302.5 296 L 303.5 294 Z " /><path fill="rgb(243,129,149)" stroke="rgb(243,129,149)" stroke-width="1" opacity="0.9921568627450981" d="M 353.5 296 L 354.5 298 L 353.5 296 Z " /><path fill="rgb(243,129,149)" stroke="rgb(243,129,149)" stroke-width="1" opacity="0.9921568627450981" d="M 200.5 300 L 201.5 302 L 200.5 300 Z " /><path fill="rgb(243,129,149)" stroke="rgb(243,129,149)" stroke-width="1" opacity="0.9921568627450981" d="M 233.5 300 L 232.5 302 L 233.5 300 Z " /><path fill="rgb(243,129,149)" stroke="rgb(243,129,149)" stroke-width="1" opacity="0.9921568627450981" d="M 264.5 300 L 265.5 302 L 264.5 300 Z " /><path fill="rgb(243,129,149)" stroke="rgb(243,129,149)" stroke-width="1" opacity="0.9921568627450981" d="M 297.5 300 L 296.5 302 L 297.5 300 Z " /><path fill="rgb(243,129,149)" stroke="rgb(243,129,149)" stroke-width="1" opacity="0.9921568627450981" d="M 356.5 300 L 357.5 302 L 356.5 300 Z " /><path fill="rgb(243,129,149)" stroke="rgb(243,129,149)" stroke-width="1" opacity="0.9921568627450981" d="M 494.5 323 L 493.5 325 L 494.5 323 Z " /><path fill="rgb(240,100,120)" stroke="rgb(240,100,120)" stroke-width="1" opacity="1" d="M 51.5 232 L 502.5 232 L 504 233.5 L 504 235.5 L 504 309.5 Q 501.9 318.4 495.5 323 L 485.5 328 L 33 328 L 32 324.5 L 32 251.5 Q 34.8 241.3 42.5 236 L 51.5 232 Z M 157 238 L 151 241 Q 145 245 142 253 Q 140 264 145 270 L 154 277 L 166 279 L 170 286 L 169 290 L 163 294 L 146 294 L 143 295 L 142 298 Q 141 303 143 305 L 146 306 L 168 306 L 174 303 Q 179 299 182 292 Q 184 280 179 275 L 171 267 L 159 265 L 154 259 L 155 255 L 162 250 L 179 250 L 181 249 L 182 247 Q 183 241 181 239 L 179 238 L 157 238 Z M 211 238 L 202 242 Q 193 248 190 259 L 190 286 L 194 295 Q 200 303 211 306 Q 226 308 233 302 Q 241 296 244 286 L 244 259 L 240 250 Q 233 236 211 238 Z M 275 238 L 266 242 Q 257 248 254 259 L 254 286 L 258 295 Q 264 303 275 306 Q 290 308 297 302 Q 305 296 308 286 L 308 259 L 304 250 Q 297 236 275 238 Z M 320 238 L 316 242 L 316 303 L 317 305 L 320 306 Q 325 307 327 305 L 328 303 L 329 263 L 359 305 L 362 306 Q 369 307 370 303 L 370 242 L 369 239 L 367 238 Q 361 237 359 239 L 358 242 L 358 281 L 327 239 Q 325 237 320 238 Z " /><path fill="rgb(240,100,120)" stroke="rgb(240,100,120)" stroke-width="1" opacity="1" d="M 215.5 250 Q 225.6 249.9 229 256.5 L 232 263.5 L 232 280.5 Q 230.9 287.9 225.5 291 Q 222.3 294.3 215.5 294 Q 208.1 292.9 205 287.5 L 202 280.5 L 202 263.5 Q 203.1 256.1 208.5 253 L 215.5 250 Z " /><path fill="rgb(240,100,120)" stroke="rgb(240,100,120)" stroke-width="1" opacity="1" d="M 279.5 250 Q 289.6 249.9 293 256.5 L 296 263.5 L 296 280.5 Q 294.9 287.9 289.5 291 Q 286.3 294.3 279.5 294 Q 272.1 292.9 269 287.5 L 266 280.5 L 266 263.5 Q 267.1 256.1 272.5 253 L 279.5 250 Z " /><path fill="rgb(251,251,251)" stroke="rgb(251,251,251)" stroke-width="1" opacity="0.996078431372549" d="M 90.5 8 Q 101.5 6.4 106 10 L 106 12 L 110 14 L 110 16.5 Q 113.5 18.2 112 24 Q 102 24.3 98 31.5 L 96 36.5 L 96 56 L 80 56 L 80 18.5 L 86.5 10 L 90.5 8 Z " /><path fill="rgb(251,251,251)" stroke="rgb(251,251,251)" stroke-width="1" opacity="0.996078431372549" d="M 410.5 8 Q 421.5 6.4 426 10 L 426 12 L 430 14 L 430 16.5 Q 433.5 18.2 432 24 Q 422 24.3 418 31.5 L 416 36.5 L 416 56 L 400 56 L 400 18.5 L 406.5 10 L 410.5 8 Z " /><path fill="rgb(251,251,251)" stroke="rgb(251,251,251)" stroke-width="1" opacity="0.996078431372549" d="M 80 184 L 96 184 L 96 216 L 80 216 L 80 184 Z " /><path fill="rgb(251,251,251)" stroke="rgb(251,251,251)" stroke-width="1" opacity="0.996078431372549" d="M 400 184 L 416 184 L 416 216 L 400 216 L 400 184 Z " /><path fill="rgb(251,251,251)" stroke="rgb(251,251,251)" stroke-width="1" opacity="0.996078431372549" d="M 160.5 238 L 176.5 238 L 181 241.5 L 182 244.5 L 178.5 249 L 176.5 250 L 158.5 250 L 154 254.5 Q 152.3 264.3 158.5 266 Q 173.6 265.9 179 275.5 L 182 287.5 Q 180.4 298.4 172.5 303 Q 163.5 308 147.5 306 L 143 302.5 L 142 299.5 L 145.5 295 L 147.5 294 L 165.5 294 L 170 289.5 Q 171.8 279.8 165.5 278 Q 150.4 278.1 145 268.5 L 142 256.5 Q 143.6 245.6 151.5 241 L 160.5 238 Z " /><path fill="rgb(251,251,251)" stroke="rgb(251,251,251)" stroke-width="1" opacity="0.996078431372549" d="M 215.5 238 L 224.5 239 Q 233.8 242.2 239 249.5 L 244 263.5 L 244 280.5 L 239 294.5 L 232.5 301 Q 226.2 305.7 215.5 306 L 201.5 301 L 195 294.5 L 190 280.5 L 190 263.5 Q 192.3 262.2 191 257.5 L 195 249.5 L 201.5 243 L 209.5 239 Q 214.3 240.2 215.5 238 Z M 213 250 L 209 252 L 202 261 L 202 284 L 204 288 L 213 294 Q 222 296 226 292 L 232 284 L 232 261 L 230 257 L 222 250 L 213 250 Z " /><path fill="rgb(251,251,251)" stroke="rgb(251,251,251)" stroke-width="1" opacity="0.996078431372549" d="M 279.5 238 L 288.5 239 Q 297.8 242.2 303 249.5 L 308 263.5 L 308 280.5 L 303 294.5 L 296.5 301 Q 290.2 305.7 279.5 306 L 265.5 301 L 259 294.5 L 254 280.5 L 254 263.5 Q 256.2 262.2 255 257.5 L 259 249.5 L 265.5 243 L 273.5 239 Q 278.2 240.2 279.5 238 Z M 277 250 L 273 252 L 266 261 L 266 284 L 268 288 L 277 294 Q 286 296 290 292 L 296 284 L 296 261 L 294 257 L 286 250 L 277 250 Z " /><path fill="rgb(251,251,251)" stroke="rgb(251,251,251)" stroke-width="1" opacity="0.996078431372549" d="M 321.5 238 L 329 243.5 L 357.5 282 L 358 243.5 L 361.5 239 L 364.5 238 L 369 241.5 L 370 243.5 L 370 300.5 L 366.5 305 L 363.5 306 L 357 300.5 L 328.5 262 L 328 300.5 L 324.5 305 L 321.5 306 L 317 302.5 L 316 300.5 L 316 243.5 L 319.5 239 L 321.5 238 Z " /><path fill="rgb(251,251,251)" stroke="rgb(251,251,251)" stroke-width="1" opacity="0.996078431372549" d="M 80 328 L 95.5 328 L 96 328.5 L 96 480 L 80.5 480 L 80 479.5 L 80 328 Z " /><path fill="rgb(251,251,251)" stroke="rgb(251,251,251)" stroke-width="1" opacity="0.996078431372549" d="M 400 328 L 415.5 328 L 416 328.5 L 416 480 L 400.5 480 L 400 479.5 L 400 328 Z " /><path fill="rgb(240,240,240)" stroke="rgb(240,240,240)" stroke-width="1" opacity="0.996078431372549" d="M 108.5 24 L 112 24.5 L 112 56 L 96 56 L 96 36.5 Q 97.8 29.3 103.5 26 L 108.5 24 Z " /><path fill="rgb(240,240,240)" stroke="rgb(240,240,240)" stroke-width="1" opacity="0.996078431372549" d="M 428.5 24 L 432 24.5 L 432 56 L 416 56 L 416 36.5 Q 417.8 29.3 423.5 26 L 428.5 24 Z " /><path fill="rgb(240,240,240)" stroke="rgb(240,240,240)" stroke-width="1" opacity="0.996078431372549" d="M 96 184 L 112 184 L 112 216 L 96 216 L 96 184 Z " /><path fill="rgb(240,240,240)" stroke="rgb(240,240,240)" stroke-width="1" opacity="0.996078431372549" d="M 416 184 L 432 184 L 432 216 L 416 216 L 416 184 Z " /><path fill="rgb(240,240,240)" stroke="rgb(240,240,240)" stroke-width="1" opacity="0.996078431372549" d="M 96 328 L 111.5 328 L 112 328.5 L 112 480 L 96.5 480 L 96 479.5 L 96 328 Z " /><path fill="rgb(240,240,240)" stroke="rgb(240,240,240)" stroke-width="1" opacity="0.996078431372549" d="M 416 328 L 431.5 328 L 432 328.5 L 432 480 L 416.5 480 L 416 479.5 L 416 328 Z " /></svg>