<svg width="25" height="24" viewBox="0 0 25 24" fill="none" xmlns="http://www.w3.org/2000/svg">
<path fill-rule="evenodd" clip-rule="evenodd" d="M2.74854 9.95244H22.3951C22.3833 7.7981 22.2884 6.63139 21.5335 5.87032C20.6702 5 19.2807 5 16.5018 5H8.64182C5.86289 5 4.47343 5 3.61013 5.87032C2.8552 6.63139 2.76042 7.7981 2.74854 9.95244ZM22.3968 11.9334H2.74683V13.9144C2.74683 16.7159 2.74683 18.1166 3.61013 18.987C4.47343 19.8573 5.86289 19.8573 8.64182 19.8573H16.5018C19.2807 19.8573 20.6702 19.8573 21.5335 18.987C22.3968 18.1166 22.3968 16.7159 22.3968 13.9144V11.9334ZM7.65932 14.9049C7.11671 14.9049 6.67682 15.3483 6.67682 15.8954C6.67682 16.4424 7.11671 16.8858 7.65932 16.8858H7.66915C8.21176 16.8858 8.65165 16.4424 8.65165 15.8954C8.65165 15.3483 8.21176 14.9049 7.66915 14.9049H7.65932Z" fill="#000"/>
</svg>
