<svg width="16" height="16" viewBox="0 0 16 16" fill="none" xmlns="http://www.w3.org/2000/svg">
<path d="M5.16672 1.66699C5.16672 1.39085 4.94286 1.16699 4.66672 1.16699C4.39058 1.16699 4.16672 1.39085 4.16672 1.66699V2.71983C3.20717 2.79667 2.57724 2.98524 2.11444 3.44804C1.65164 3.91084 1.46306 4.54077 1.38623 5.50033H14.6139C14.5371 4.54077 14.3485 3.91084 13.8857 3.44804C13.4229 2.98524 12.7929 2.79667 11.8334 2.71983V1.66699C11.8334 1.39085 11.6095 1.16699 11.3334 1.16699C11.0573 1.16699 10.8334 1.39085 10.8334 1.66699V2.67559C10.3899 2.66699 9.89272 2.66699 9.33339 2.66699H6.66672C6.10737 2.66699 5.61024 2.66699 5.16672 2.67559V1.66699Z" fill="#1F1625"/>
<path fill-rule="evenodd" clip-rule="evenodd" d="M1.33337 8C1.33337 7.44067 1.33337 6.94353 1.34197 6.5H14.6581C14.6667 6.94353 14.6667 7.44067 14.6667 8V9.33333C14.6667 11.8475 14.6667 13.1046 13.8856 13.8856C13.1046 14.6667 11.8475 14.6667 9.33337 14.6667H6.66671C4.15255 14.6667 2.89547 14.6667 2.11442 13.8856C1.33337 13.1046 1.33337 11.8475 1.33337 9.33333V8ZM11.3334 9.33333C11.7016 9.33333 12 9.03487 12 8.66667C12 8.29847 11.7016 8 11.3334 8C10.9652 8 10.6667 8.29847 10.6667 8.66667C10.6667 9.03487 10.9652 9.33333 11.3334 9.33333ZM11.3334 12C11.7016 12 12 11.7015 12 11.3333C12 10.9651 11.7016 10.6667 11.3334 10.6667C10.9652 10.6667 10.6667 10.9651 10.6667 11.3333C10.6667 11.7015 10.9652 12 11.3334 12ZM8.66671 8.66667C8.66671 9.03487 8.36824 9.33333 8.00004 9.33333C7.63184 9.33333 7.33337 9.03487 7.33337 8.66667C7.33337 8.29847 7.63184 8 8.00004 8C8.36824 8 8.66671 8.29847 8.66671 8.66667ZM8.66671 11.3333C8.66671 11.7015 8.36824 12 8.00004 12C7.63184 12 7.33337 11.7015 7.33337 11.3333C7.33337 10.9651 7.63184 10.6667 8.00004 10.6667C8.36824 10.6667 8.66671 10.9651 8.66671 11.3333ZM4.66671 9.33333C5.03489 9.33333 5.33337 9.03487 5.33337 8.66667C5.33337 8.29847 5.03489 8 4.66671 8C4.29852 8 4.00004 8.29847 4.00004 8.66667C4.00004 9.03487 4.29852 9.33333 4.66671 9.33333ZM4.66671 12C5.03489 12 5.33337 11.7015 5.33337 11.3333C5.33337 10.9651 5.03489 10.6667 4.66671 10.6667C4.29852 10.6667 4.00004 10.9651 4.00004 11.3333C4.00004 11.7015 4.29852 12 4.66671 12Z" fill="#1F1625"/>
</svg>
