<svg width="24" height="24" viewBox="0 0 24 24" fill="none" xmlns="http://www.w3.org/2000/svg">
<g clip-path="url(#clip0_2381_4421)">
<path d="M10.2133 12.6514H0.105713V16.0185H10.2133V12.6514Z" fill="#84B740"/>
<path d="M10.2133 8.05664H0.105713V11.4268H10.2133V8.05664Z" fill="#259BD6"/>
<path d="M20.3207 15.3342L20.2757 15.3432C20.1196 15.3732 20.0626 15.3852 19.9486 15.3852C19.6845 15.3852 19.3724 15.2502 19.3724 14.614C19.3724 14.2869 19.4264 13.8517 19.9186 13.8517H19.9216C20.0056 13.8577 20.1016 13.8667 20.2817 13.9207L20.3207 13.9327V15.3342ZM20.4017 12.1621L20.3207 12.1771V13.3535L20.2487 13.3325L20.2277 13.3265C20.1467 13.3025 19.9606 13.2485 19.7805 13.2485C18.7962 13.2485 18.5891 13.9927 18.5891 14.617C18.5891 15.4723 19.0693 15.9644 19.9066 15.9644C20.2607 15.9644 20.5218 15.9284 20.7859 15.8414C21.029 15.7634 21.116 15.6523 21.116 15.4152V12.0391C20.8819 12.0811 20.6388 12.1231 20.4017 12.1621Z" fill="#27292D"/>
<path d="M23.2469 15.3551L23.2049 15.3671L23.0548 15.4062C22.9137 15.4422 22.7877 15.4632 22.6917 15.4632C22.4606 15.4632 22.3225 15.3491 22.3225 15.1541C22.3225 15.028 22.3796 14.815 22.7577 14.815H23.2469V15.3551ZM22.9017 13.2334C22.5986 13.2334 22.2865 13.2874 21.8994 13.4075L21.6473 13.4825L21.7313 14.0527L21.9774 13.9717C22.2355 13.8876 22.5566 13.8336 22.7967 13.8336C22.9047 13.8336 23.2349 13.8336 23.2349 14.1907V14.3468H22.7757C21.9384 14.3468 21.5513 14.6139 21.5513 15.1871C21.5513 15.6763 21.9084 15.9704 22.5086 15.9704C22.6947 15.9704 22.9528 15.9343 23.1748 15.8803L23.1868 15.8773L23.1988 15.8803L23.2739 15.8923C23.508 15.9343 23.751 15.9764 23.9881 16.0214V14.1487C23.9881 13.5425 23.622 13.2334 22.9017 13.2334Z" fill="#27292D"/>
<path d="M17.4158 15.3551L17.3738 15.3671L17.2237 15.4062C17.0827 15.4422 16.9597 15.4632 16.8606 15.4632C16.6295 15.4632 16.4915 15.3491 16.4915 15.1541C16.4915 15.028 16.5485 14.815 16.9236 14.815H17.4128V15.3551H17.4158ZM17.0737 13.2334C16.7676 13.2334 16.4585 13.2874 16.0713 13.4075L15.8192 13.4825L15.9033 14.0527L16.1494 13.9717C16.4075 13.8876 16.7286 13.8336 16.9687 13.8336C17.0767 13.8336 17.4068 13.8336 17.4068 14.1907V14.3468H16.9476C16.1104 14.3468 15.7202 14.6139 15.7202 15.1871C15.7202 15.6763 16.0773 15.9704 16.6806 15.9704C16.8666 15.9704 17.1247 15.9343 17.3468 15.8803L17.3588 15.8773L17.3708 15.8803L17.4428 15.8923C17.6799 15.9343 17.92 15.9764 18.1571 16.0244V14.1517C18.1601 13.5395 17.7939 13.2334 17.0737 13.2334Z" fill="#27292D"/>
<path d="M14.2557 13.2393C13.8745 13.2393 13.5594 13.3654 13.4424 13.4194L13.4124 13.4344L13.3854 13.4134C13.2233 13.2963 12.9862 13.2363 12.6561 13.2363C12.365 13.2363 12.0919 13.2783 11.7948 13.3654C11.5397 13.4434 11.4407 13.5664 11.4407 13.7975V15.9373H12.239V13.9596L12.278 13.9476C12.44 13.8936 12.5361 13.8846 12.6291 13.8846C12.8602 13.8846 12.9772 14.0076 12.9772 14.2477V15.9403H13.7635V14.2147C13.7635 14.1126 13.7425 14.0526 13.7395 14.0406L13.7125 13.9896L13.7665 13.9656C13.8865 13.9116 14.0186 13.8846 14.1566 13.8846C14.3157 13.8846 14.5048 13.9476 14.5048 14.2477V15.9403H15.288V14.1697C15.288 13.5424 14.9519 13.2393 14.2557 13.2393Z" fill="#27292D"/>
<path d="M22.6586 10.2534C22.5416 10.2534 22.3465 10.2414 22.1935 10.2114L22.1484 10.2024V9.04699C22.1484 8.95095 22.1304 8.89093 22.1274 8.88193L22.1034 8.83391L22.1544 8.81291C22.1664 8.8069 22.1784 8.8039 22.1935 8.7979L22.2025 8.7919C22.2205 8.7859 22.2385 8.7799 22.2565 8.77389C22.2655 8.77089 22.2715 8.76789 22.2775 8.76789C22.4545 8.71987 22.6166 8.72588 22.6886 8.71987H22.6916C23.1808 8.71987 23.2378 9.15503 23.2378 9.48214C23.2348 10.1184 22.9197 10.2534 22.6586 10.2534ZM22.6556 8.05664C22.6496 8.05664 22.6406 8.05664 22.6346 8.05664C22.1754 8.05664 21.7043 8.18269 21.5362 8.42877C21.4462 8.54881 21.3952 8.69887 21.3922 8.87593V10.0673C21.3922 10.1694 21.3712 10.2084 21.3682 10.2174L21.3412 10.2684H19.8916V9.44013H19.8886C19.8706 8.56682 19.3545 8.08665 18.6072 8.08665H18.5202H17.8779C17.8479 8.29973 17.8239 8.44978 17.7939 8.66285H18.5202C18.9013 8.66285 19.1024 8.98697 19.1024 9.48514V10.3194L19.0514 10.2924C19.0423 10.2894 18.9793 10.2684 18.8803 10.2684H17.6258C17.6018 10.4275 17.5718 10.6345 17.5388 10.8416H21.3952C21.5272 10.8146 21.6803 10.7906 21.8123 10.7696C22.0074 10.8656 22.3705 10.9166 22.6196 10.9166C23.4569 10.9166 24.0001 10.3554 24.0001 9.49115C23.9971 8.63584 23.4719 8.07465 22.6556 8.05664Z" fill="#27292D"/>
<path d="M15.8942 11.1929H15.9303C16.7675 11.1929 17.1577 10.9168 17.1577 10.2356C17.1577 9.74643 16.8006 9.35629 16.2003 9.35629H15.4291C15.198 9.35629 15.0599 9.22424 15.0599 9.00216C15.0599 8.85211 15.117 8.66605 15.4951 8.66605H17.1817C17.2177 8.44697 17.2357 8.30892 17.2687 8.08984H15.5161C14.6998 8.08984 14.2887 8.43196 14.2887 9.00216C14.2887 9.56636 14.6458 9.86047 15.246 9.86047H16.0173C16.2484 9.86047 16.3864 10.0435 16.3864 10.2356C16.3864 10.3616 16.3294 10.6227 15.9543 10.6227H15.8252L13.3553 10.6167H12.9052C12.5241 10.6167 12.257 10.4007 12.257 9.89948V9.55436C12.257 9.03218 12.464 8.70806 12.9052 8.70806H13.6374C13.6705 8.48598 13.6915 8.34493 13.7215 8.13486H12.8092H12.7221C11.9749 8.13486 11.4587 8.63604 11.4407 9.50934V9.54235V9.89948C11.4587 10.7728 11.9749 11.1899 12.7221 11.1899H12.8092H13.4514L14.7899 11.1929H15.5881H15.8942Z" fill="#27292D"/>
</g>
<defs>
<clipPath id="clip0_2381_4421">
<rect width="24" height="24" fill="white"/>
</clipPath>
</defs>
</svg>
