<svg width="12" height="10" viewBox="0 0 12 10" fill="none" xmlns="http://www.w3.org/2000/svg">
<path d="M7.66797 3.3335H11.0013V8.3335C11.0013 8.85727 11.0013 9.11916 10.8386 9.28189C10.6759 9.44461 10.414 9.44461 9.89019 9.44461H7.66797V3.3335Z" stroke="#1F1625" stroke-linecap="round"/>
<path d="M1 3.3335H4.33333V9.44461H2.11111C1.58733 9.44461 1.32544 9.44461 1.16272 9.28189C1 9.11916 1 8.85727 1 8.3335V3.3335Z" stroke="#1F1625" stroke-linecap="round"/>
<path d="M7.66536 3.3335H4.33203V9.44461H7.66536V3.3335Z" stroke="#1F1625" stroke-linecap="round"/>
<path d="M1 1.66678C1 1.14299 1 0.881103 1.16272 0.718381C1.32544 0.555664 1.58733 0.555664 2.11111 0.555664H9.88889C10.4127 0.555664 10.6746 0.555664 10.8373 0.718381C11 0.881103 11 1.14299 11 1.66678V3.33344H1V1.66678Z" stroke="#1F1625" stroke-linecap="round"/>
</svg>
