<svg width="34" height="33" viewBox="0 0 34 33" fill="none" xmlns="http://www.w3.org/2000/svg">
<path fill-rule="evenodd" clip-rule="evenodd" d="M6.26306 2.01796C5.07659 2.01796 3.9387 2.48929 3.09974 3.32825C2.26077 4.16722 1.78945 5.3051 1.78945 6.49158V20.8071C1.78945 21.9936 2.26077 23.1315 3.09974 23.9705C3.9387 24.8094 5.07658 25.2808 6.26306 25.2808H9.84195C10.3361 25.2808 10.7367 25.6813 10.7367 26.1755V29.9636L18.3289 25.4083C18.4679 25.3248 18.627 25.2808 18.7892 25.2808H27.7364C28.9229 25.2808 30.0608 24.8094 30.8997 23.9705C31.7387 23.1315 32.21 21.9936 32.21 20.8071V6.49158C32.21 5.3051 31.7387 4.16722 30.8997 3.32825C30.0608 2.48929 28.9229 2.01796 27.7364 2.01796H6.26306ZM1.83441 2.06292C3.00896 0.888372 4.60199 0.228516 6.26306 0.228516H27.7364C29.3975 0.228516 30.9905 0.888372 32.1651 2.06292C33.3396 3.23748 33.9995 4.83051 33.9995 6.49158V20.8071C33.9995 22.4682 33.3396 24.0613 32.1651 25.2358C30.9905 26.4104 29.3975 27.0702 27.7364 27.0702H19.037L10.3023 32.311C10.0259 32.4769 9.68163 32.4812 9.40112 32.3224C9.12062 32.1636 8.94723 31.8662 8.94723 31.5438V27.0702H6.26306C4.60199 27.0702 3.00896 26.4104 1.83441 25.2358C0.659857 24.0613 0 22.4682 0 20.8071V6.49158C0 4.83051 0.659857 3.23748 1.83441 2.06292Z" fill="#1F1625"/>
<path fill-rule="evenodd" clip-rule="evenodd" d="M11.6315 10.0705C11.6315 9.57636 12.0321 9.17578 12.5262 9.17578H12.5441C13.0382 9.17578 13.4388 9.57636 13.4388 10.0705C13.4388 10.5646 13.0382 10.9652 12.5441 10.9652H12.5262C12.0321 10.9652 11.6315 10.5646 11.6315 10.0705Z" fill="#1F1625"/>
<path fill-rule="evenodd" clip-rule="evenodd" d="M20.5789 10.0705C20.5789 9.57636 20.9794 9.17578 21.4736 9.17578H21.4915C21.9856 9.17578 22.3862 9.57636 22.3862 10.0705C22.3862 10.5646 21.9856 10.9652 21.4915 10.9652H21.4736C20.9794 10.9652 20.5789 10.5646 20.5789 10.0705Z" fill="#1F1625"/>
<path fill-rule="evenodd" clip-rule="evenodd" d="M11.9 16.5896C12.253 16.2438 12.8195 16.2496 13.1653 16.6025C13.6651 17.1127 14.2617 17.518 14.9202 17.7946C15.5786 18.0713 16.2856 18.2138 16.9998 18.2138C17.714 18.2138 18.421 18.0713 19.0795 17.7946C19.7379 17.518 20.3345 17.1127 20.8343 16.6025C21.1802 16.2496 21.7466 16.2438 22.0996 16.5896C22.4526 16.9354 22.4583 17.5019 22.1125 17.8549C21.4461 18.5351 20.6506 19.0754 19.7727 19.4443C18.8948 19.8132 17.9521 20.0033 16.9998 20.0033C16.0475 20.0033 15.1048 19.8132 14.2269 19.4443C13.349 19.0754 12.5536 18.5351 11.8871 17.8549C11.5413 17.5019 11.5471 16.9354 11.9 16.5896Z" fill="#1F1625"/>
</svg>
