<svg width="26" height="27" viewBox="0 0 26 27" fill="none" xmlns="http://www.w3.org/2000/svg">
<path d="M7.66699 8.33496H18.3337" stroke="black" stroke-width="1.5" stroke-linecap="round" stroke-linejoin="round"/>
<path d="M7.66699 13.668H15.667" stroke="black" stroke-width="1.5" stroke-linecap="round" stroke-linejoin="round"/>
<path d="M15.6667 20.3346H14.3333L7.66667 24.3346V20.3346H5C3.93913 20.3346 2.92172 19.9132 2.17157 19.1631C1.42143 18.4129 1 17.3955 1 16.3346V5.66797C1 4.6071 1.42143 3.58969 2.17157 2.83954C2.92172 2.0894 3.93913 1.66797 5 1.66797H21C22.0609 1.66797 23.0783 2.0894 23.8284 2.83954C24.5786 3.58969 25 4.6071 25 5.66797V11.668" stroke="black" stroke-width="1.5" stroke-linecap="round" stroke-linejoin="round"/>
<path d="M22.333 25.668V25.6817" stroke="black" stroke-width="1.5" stroke-linecap="round" stroke-linejoin="round"/>
<path d="M22.333 21.668C22.9307 21.6661 23.5105 21.4637 23.9796 21.0932C24.4487 20.7228 24.78 20.2057 24.9204 19.6247C25.0608 19.0437 25.0023 18.4324 24.7541 17.8886C24.506 17.3448 24.0826 16.9 23.5517 16.6253C23.0212 16.3536 22.4145 16.2693 21.8301 16.3863C21.2457 16.5032 20.7181 16.8144 20.333 17.2693" stroke="black" stroke-width="1.5" stroke-linecap="round" stroke-linejoin="round"/>
</svg>
