<svg width="40" height="40" viewBox="0 0 40 40" fill="none" xmlns="http://www.w3.org/2000/svg">
<g clip-path="url(#clip0_1448_4021)">
<path d="M20.0001 8.13086C12.3819 8.13086 6.20605 13.4449 6.20605 19.9998C6.20605 23.3772 7.84551 26.425 10.4771 28.5863C10.4435 29.6169 10.0839 30.6369 9.45496 31.4549C10.6742 31.4063 11.8686 30.9203 12.787 30.1185C14.8857 31.2285 17.3561 31.8687 20.0001 31.8687C27.6182 31.8687 33.7941 26.5547 33.7941 19.9998C33.7941 13.4449 27.6182 8.13086 20.0001 8.13086ZM28.5733 25.751C28.065 26.3112 27.3406 26.6261 26.5842 26.6261H13.4159C12.6595 26.6261 11.9351 26.3112 11.4268 25.751C9.98733 24.1647 9.12951 22.1683 9.12951 19.9996C9.12951 17.8309 9.98715 15.8347 11.4266 14.2483C11.935 13.688 12.6593 13.373 13.4159 13.373H26.5841C27.3499 13.373 28.0782 13.6994 28.5911 14.2678C30.0201 15.8509 30.8706 17.8398 30.8706 19.9994C30.8706 22.159 30.0128 24.1645 28.5733 25.7509V25.751Z" fill="#FB813E"/>
<path d="M5.54947 19.9996C5.54947 21.6276 5.90238 23.2064 6.59947 24.698C4.73711 24.0856 3.38184 22.8735 3.38184 19.9996C3.38184 17.2736 4.73711 15.9136 6.59965 15.3013C5.90274 16.7936 5.54947 18.3731 5.54947 19.9996Z" fill="#4E1AC7"/>
<path d="M4.99122 11.7777V15.3359C4.50795 15.6479 4.09904 16.0241 3.76849 16.4621C3.76558 16.4661 3.76249 16.4697 3.75977 16.4737V11.7777C3.75977 11.4377 4.0354 11.1621 4.3754 11.1621C4.7154 11.1621 4.99122 11.4377 4.99122 11.7777Z" fill="#4E1AC7"/>
<path d="M34.4506 19.9996C34.4506 21.6276 34.0977 23.2064 33.4006 24.698C35.2629 24.0856 36.6182 22.8735 36.6182 19.9996C36.6182 17.2736 35.2629 15.9136 33.4004 15.3013C34.0973 16.7936 34.4506 18.3731 34.4506 19.9996Z" fill="#4E1AC7"/>
<path d="M35.0098 11.7777V15.3359C35.493 15.6479 35.9019 16.0241 36.2325 16.4621C36.2354 16.4661 36.2385 16.4697 36.2412 16.4737V11.7777C36.2412 11.4377 35.9656 11.1621 35.6256 11.1621C35.2856 11.1621 35.0098 11.4377 35.0098 11.7777Z" fill="#4E1AC7"/>
<path d="M17.0688 19.6316C16.6681 20.2485 16.0899 19.6316 14.8819 19.6316C13.6739 19.6316 13.0959 20.2485 12.6952 19.6316C12.3074 19.0343 13.3774 17.561 14.8819 17.561C16.3865 17.561 17.4565 19.0345 17.0688 19.6316Z" fill="#FB813E"/>
<path d="M27.3052 19.6316C26.9044 20.2485 26.3263 19.6316 25.1183 19.6316C23.9103 19.6316 23.3323 20.2485 22.9315 19.6316C22.5437 19.0343 23.6137 17.561 25.1183 17.561C26.6228 17.561 27.6928 19.0345 27.3052 19.6316Z" fill="#FB813E"/>
<path d="M20.0001 22.4384C19.157 22.4384 18.6008 21.7698 18.5775 21.7414C18.4515 21.5873 18.4742 21.36 18.6284 21.234C18.7826 21.108 19.0099 21.1307 19.1359 21.2849C19.1382 21.2876 19.5037 21.7171 20.0001 21.7171C20.4964 21.7171 20.8619 21.2876 20.8655 21.2833C20.9915 21.1291 21.2181 21.1071 21.3722 21.2331C21.5264 21.3591 21.5486 21.5871 21.4224 21.7413C21.3992 21.7698 20.843 22.4382 19.9999 22.4382L20.0001 22.4384Z" fill="#FB813E"/>
</g>
<defs>
<clipPath id="clip0_1448_4021">
<rect width="40" height="40" fill="white"/>
</clipPath>
</defs>
</svg>
