<?xml version="1.0" encoding="utf-8"?>
<svg viewBox="654.605 502.975 1920.01 620.0801" xmlns="http://www.w3.org/2000/svg">
  <defs>
    <style type="text/css" id="style2">
	.st0{fill:#1434CB;}
</style>
  </defs>
  <path class="st0" d="M 1383.605 513.935 L 1132.235 1113.675 L 968.235 1113.675 L 844.535 635.055 C 837.025 605.575 830.495 594.775 807.655 582.355 C 770.365 562.125 708.785 543.145 654.605 531.365 L 658.285 513.935 L 922.275 513.935 C 955.925 513.935 986.175 536.335 993.815 575.085 L 1059.145 922.125 L 1220.605 513.925 L 1383.605 513.925 L 1383.605 513.935 Z M 2026.185 917.865 C 2026.845 759.575 1807.305 750.855 1808.815 680.145 C 1809.285 658.625 1829.775 635.745 1874.625 629.905 C 1896.855 626.995 1958.105 624.775 2027.575 656.745 L 2054.825 529.565 C 2017.495 516.015 1969.465 502.975 1909.705 502.975 C 1756.355 502.975 1648.435 584.495 1647.525 701.225 C 1646.535 787.565 1724.555 835.745 1783.335 864.435 C 1843.805 893.815 1864.095 912.695 1863.865 938.975 C 1863.435 979.205 1815.635 996.965 1770.965 997.665 C 1692.985 998.865 1647.735 976.565 1611.665 959.795 L 1583.545 1091.185 C 1619.795 1107.815 1686.705 1122.325 1756.075 1123.055 C 1919.065 1123.055 2025.685 1042.545 2026.185 917.865 M 2431.125 1113.675 L 2574.615 1113.675 L 2449.365 513.935 L 2316.925 513.935 C 2287.145 513.935 2262.025 531.275 2250.905 557.935 L 2018.095 1113.675 L 2181.005 1113.675 L 2213.345 1024.095 L 2412.395 1024.095 L 2431.125 1113.675 Z M 2258.015 901.175 L 2339.675 675.995 L 2386.675 901.175 L 2258.015 901.175 Z M 1605.275 513.935 L 1476.985 1113.675 L 1321.845 1113.675 L 1450.185 513.935 L 1605.275 513.935 Z" id="path4" transform="matrix(1, 0, 0, 1, 2.842170943040401e-14, 0)"/>
</svg>