<svg width="48" height="49" viewBox="0 0 48 49" fill="none" xmlns="http://www.w3.org/2000/svg">
<path d="M38 16.5C41.3138 16.5 44 13.8137 44 10.5C44 7.1863 41.3138 4.5 38 4.5C34.6862 4.5 32 7.1863 32 10.5C32 13.8137 34.6862 16.5 38 16.5Z" fill="#4E1AC7"/>
<path d="M39.6 19.34C39.56 19.34 39.52 19.36 39.48 19.36C39.28 19.4 39.08 19.42 38.86 19.46C38.02 19.54 37.12 19.5 36.2 19.32C35.96 19.26 35.76 19.22 35.54 19.14C34.88 18.98 34.26 18.72 33.68 18.38C33.44 18.26 33.2 18.1 32.98 17.96C32.02 17.3 31.2 16.48 30.54 15.52C30.4 15.3 30.24 15.06 30.12 14.82C29.78 14.24 29.52 13.62 29.36 12.96C29.28 12.74 29.24 12.54 29.18 12.3C29 11.38 28.96 10.48 29.04 9.64C29.08 9.42 29.1 9.22 29.14 9.02C29.14 8.98 29.16 8.94 29.16 8.9C29.4 7.66 28.48 6.5 27.2 6.5H15.04C14.76 6.5 14.48 6.52 14.22 6.54C13.98 6.56 13.76 6.58 13.52 6.62C13.28 6.64 13.04 6.68 12.82 6.72C8 7.42 4.92 10.48 4.22 15.32C4.18 15.54 4.14 15.78 4.12 16.02C4.08 16.26 4.06 16.48 4.04 16.72C4.02 16.98 4 17.26 4 17.54V33.46C4 33.74 4.02 34.02 4.04 34.28C4.06 34.52 4.08 34.74 4.12 34.98C4.14 35.22 4.18 35.46 4.22 35.68C4.92 40.52 8 43.58 12.82 44.28C13.04 44.32 13.28 44.36 13.52 44.38C13.76 44.42 13.98 44.44 14.22 44.46C14.48 44.48 14.76 44.5 15.04 44.5H30.96C31.24 44.5 31.52 44.48 31.78 44.46C32.02 44.44 32.24 44.42 32.48 44.38C32.72 44.36 32.96 44.32 33.18 44.28C38 43.58 41.08 40.52 41.78 35.68C41.82 35.46 41.86 35.22 41.88 34.98C41.92 34.74 41.94 34.52 41.96 34.28C41.98 34.02 42 33.74 42 33.46V21.3C42 20.02 40.84 19.1 39.6 19.34ZM13.5 25.5H23.5C24.32 25.5 25 26.18 25 27C25 27.82 24.32 28.5 23.5 28.5H13.5C12.68 28.5 12 27.82 12 27C12 26.18 12.68 25.5 13.5 25.5ZM31.5 36.5H13.5C12.68 36.5 12 35.82 12 35C12 34.18 12.68 33.5 13.5 33.5H31.5C32.32 33.5 33 34.18 33 35C33 35.82 32.32 36.5 31.5 36.5Z" fill="#FB813E"/>
</svg>
