<svg width="80" height="64" viewBox="0 0 80 64" fill="none" xmlns="http://www.w3.org/2000/svg">
<path d="M12.8073 26.9876C12.8835 26.5805 12.5684 26.209 12.1568 26.209C12.1263 26.209 12.111 26.209 12.111 26.209C9.83949 26.209 7.99988 27.7712 7.99988 29.6948V34.3103C7.99988 36.2339 9.83949 37.7962 12.111 37.7962H12.1619C12.5735 37.7962 12.8784 37.4247 12.8073 37.0227C12.0602 32.5293 12.416 29.0282 12.8073 26.9927V26.9876Z" fill="#FB813E"/>
<path d="M24.9019 32.0001C24.9019 27.1353 25.9031 22.6673 27.5597 19.1866C27.8595 18.5555 27.1125 17.9551 26.5637 18.3825L19.251 24.0972C17.9856 25.0845 16.4306 25.7409 14.7638 26.0513C14.5097 26.0971 14.3064 26.2803 14.2505 26.5348C13.8338 28.3922 13.2748 32.2902 14.2149 37.4146C14.2657 37.6945 14.4893 37.9031 14.7688 37.954C16.4357 38.2644 17.9856 38.9158 19.251 39.9081L26.5637 45.6228C27.1125 46.0503 27.8595 45.4498 27.5597 44.8188C25.9031 41.3381 24.9019 36.8701 24.9019 32.0052V32.0001Z" fill="#FB813E"/>
<path d="M36.8138 51.2001C42.6781 51.2001 47.4499 42.5848 47.4499 32.0001C47.4499 21.4154 42.6781 12.8 36.8138 12.8C30.9494 12.8 26.1725 21.4154 26.1725 32.0001C26.1725 42.5848 30.9443 51.2001 36.8138 51.2001Z" fill="#FB813E"/>
<path d="M61.5061 37.1042H50.631C50.3058 37.1042 50.0314 37.3485 49.9857 37.6691C49.7875 39.0176 49.5232 40.3203 49.1929 41.5722C49.0811 41.9945 49.3911 42.4016 49.823 42.4016H61.501C62.0346 42.4016 62.4665 41.9691 62.4665 41.4348V38.066C62.4665 37.5317 62.0346 37.0991 61.501 37.0991L61.5061 37.1042Z" fill="#4E1AC7"/>
<path d="M50.7835 28.0716H61.5061C62.0397 28.0716 62.4716 27.639 62.4716 27.1047V23.7359C62.4716 23.2016 62.0397 22.769 61.5061 22.769H50.1127C49.6909 22.769 49.3809 23.1609 49.4724 23.5782C49.757 24.83 49.9755 26.1378 50.1279 27.4813C50.1686 27.812 50.443 28.0665 50.7784 28.0665L50.7835 28.0716Z" fill="#4E1AC7"/>
<path d="M71.0345 29.9032H51.0224C50.6464 29.9032 50.3567 30.2137 50.3669 30.5851C50.3821 31.0533 50.3923 31.5215 50.3923 31.9947C50.3923 32.8395 50.3618 33.674 50.311 34.4933C50.2855 34.875 50.5854 35.1956 50.9665 35.1956H71.0345C71.5681 35.1956 72 34.763 72 34.2287V30.8599C72 30.3256 71.5681 29.8931 71.0345 29.8931V29.9032Z" fill="#4E1AC7"/>
<path d="M12.6143 38.997C11.4099 38.997 10.2716 38.7426 9.26035 38.2947C8.83348 38.1014 8.35071 38.4321 8.35071 38.9003V43.1393C8.35071 44.4725 9.42805 45.5514 10.7595 45.5514C12.0909 45.5514 13.1682 44.4725 13.1682 43.1393V38.997H12.6092H12.6143Z" fill="#FB813E"/>
<path d="M36.0871 28.0458C36.0871 28.0458 36.0566 28.0458 36.0413 28.0458C36.021 28.0407 36.0057 28.0255 35.9854 28.0204C35.7517 27.9695 35.5128 27.9288 35.2638 27.8881C32.6365 27.4911 30.0194 26.7685 27.4582 25.7508C27.1126 25.6134 26.7315 25.822 26.6705 26.1884V26.1986C26.6248 26.4683 26.7721 26.738 27.0313 26.8398C29.2419 27.7201 31.4982 28.3868 33.7647 28.8244C34.1763 28.9058 34.405 29.3282 34.2474 29.7149C33.9883 30.3612 33.8358 31.1449 33.8358 31.9947C33.8358 32.8446 33.9883 33.6282 34.2474 34.2745C34.405 34.6613 34.1712 35.0887 33.7647 35.165C31.4982 35.6027 29.2419 36.2693 27.0313 37.1497C26.7772 37.2515 26.6248 37.5212 26.6705 37.7909V37.801C26.7315 38.1674 27.1126 38.3761 27.4582 38.2387C30.0194 37.226 32.6314 36.4983 35.2638 36.1014C35.5179 36.0607 35.7669 36.02 36.0057 35.9691C36.021 35.9691 36.0362 35.9538 36.0464 35.9487C36.0566 35.9487 36.0718 35.9487 36.082 35.9487C37.327 35.9487 38.3332 34.1778 38.3332 31.9896C38.3332 29.8015 37.327 28.0306 36.082 28.0306L36.0871 28.0458Z" fill="white"/>
</svg>
