<svg width="24" height="24" viewBox="0 0 24 24" fill="none" xmlns="http://www.w3.org/2000/svg">
<path d="M11.9466 2C9.79928 1.99999 8.11646 1.99998 6.80345 2.17651C5.45951 2.3572 4.39902 2.73426 3.56664 3.56664C2.73426 4.39902 2.3572 5.45951 2.17651 6.80345C1.99998 8.11646 1.99999 9.79928 2 11.9466V12.0534C1.99999 14.2007 1.99998 15.8835 2.17651 17.1966C2.3572 18.5405 2.73426 19.601 3.56664 20.4334C4.39902 21.2658 5.45951 21.6428 6.80345 21.8235C8.11646 22 9.79928 22 11.9466 22H12.0534C14.2007 22 15.8835 22 17.1966 21.8235C18.5405 21.6428 19.601 21.2658 20.4334 20.4334C21.2658 19.601 21.6428 18.5405 21.8235 17.1966C22 15.8835 22 14.2007 22 12.0534V10.6047C22 10.2193 21.6876 9.90698 21.3023 9.90698C20.917 9.90698 20.6047 10.2193 20.6047 10.6047V12C20.6047 14.2123 20.6032 15.8013 20.4406 17.0106C20.2807 18.1998 19.9767 18.9167 19.4467 19.4467C18.9167 19.9767 18.1998 20.2807 17.0106 20.4406C15.8013 20.6032 14.2123 20.6047 12 20.6047C9.7877 20.6047 8.19866 20.6032 6.98938 20.4406C5.80016 20.2807 5.08321 19.9767 4.5533 19.4467C4.02339 18.9167 3.7193 18.1998 3.55941 17.0106C3.39683 15.8013 3.39535 14.2123 3.39535 12C3.39535 9.7877 3.39683 8.19866 3.55941 6.98938C3.7193 5.80016 4.02339 5.08321 4.5533 4.5533C5.08321 4.02339 5.80016 3.7193 6.98938 3.55941C8.19866 3.39683 9.7877 3.39535 12 3.39535H13.3953C13.7807 3.39535 14.093 3.08299 14.093 2.69767C14.093 2.31236 13.7807 2 13.3953 2H11.9466Z" fill="white" stroke="white" stroke-width="0.8"/>
<path fill-rule="evenodd" clip-rule="evenodd" d="M18.5 3C17.1193 3 16 4.11929 16 5.5C16 6.88071 17.1193 8 18.5 8C19.8807 8 21 6.88071 21 5.5C21 4.11929 19.8807 3 18.5 3ZM17 5.5C17 4.67157 17.6716 4 18.5 4C19.3284 4 20 4.67157 20 5.5C20 6.32843 19.3284 7 18.5 7C17.6716 7 17 6.32843 17 5.5Z" fill="white" stroke="white" stroke-width="0.8"/>
<path d="M6.65137 12.8605C6.65137 12.4752 6.96373 12.1628 7.34904 12.1628H15.7211C16.1064 12.1628 16.4188 12.4752 16.4188 12.8605C16.4188 13.2458 16.1064 13.5582 15.7211 13.5582H7.34904C6.96373 13.5582 6.65137 13.2458 6.65137 12.8605Z" fill="white" stroke="white" stroke-width="0.8"/>
<path d="M7.3488 16.4187C6.96349 16.4187 6.65112 16.7311 6.65112 17.1164C6.65112 17.5017 6.96349 17.814 7.3488 17.814H12.9302C13.3155 17.814 13.6279 17.5017 13.6279 17.1164C13.6279 16.7311 13.3155 16.4187 12.9302 16.4187H7.3488Z" fill="white" stroke="white" stroke-width="0.8"/>
</svg>
