<svg width="40" height="41" viewBox="0 0 40 41" fill="none" xmlns="http://www.w3.org/2000/svg">
<path d="M19.9107 3.83337C16.3318 3.83336 13.5271 3.83334 11.3388 4.12756C9.09885 4.42871 7.33138 5.05714 5.94408 6.44444C4.55678 7.83175 3.92834 9.59922 3.62719 11.8391C3.33298 14.0275 3.33299 16.8322 3.33301 20.411V20.589C3.33299 24.1679 3.33298 26.9726 3.62719 29.161C3.92834 31.4008 4.55678 33.1684 5.94408 34.5557C7.33138 35.943 9.09885 36.5714 11.3388 36.8726C13.5271 37.1667 16.3318 37.1667 19.9107 37.1667H20.0887C23.6676 37.1667 26.4722 37.1667 28.6606 36.8726C30.9004 36.5714 32.668 35.943 34.0553 34.5557C35.4426 33.1684 36.071 31.4008 36.3722 29.161C36.6663 26.9726 36.6663 24.1679 36.6663 20.589V18.1745C36.6663 17.5323 36.1457 17.0117 35.5035 17.0117C34.8614 17.0117 34.3408 17.5323 34.3408 18.1745V20.5C34.3408 24.1872 34.3383 26.8355 34.0673 28.851C33.8009 30.8331 33.2941 32.0279 32.4108 32.9112C31.5276 33.7945 30.3327 34.3013 28.3507 34.5676C26.3352 34.8386 23.6868 34.8411 19.9997 34.8411C16.3125 34.8411 13.6641 34.8386 11.6486 34.5676C9.6666 34.3013 8.47169 33.7945 7.58851 32.9112C6.70532 32.0279 6.19851 30.8331 5.93203 28.851C5.66105 26.8355 5.65859 24.1872 5.65859 20.5C5.65859 16.8129 5.66105 14.1645 5.93203 12.149C6.19851 10.167 6.70532 8.97206 7.58851 8.08888C8.47169 7.20568 9.6666 6.69888 11.6486 6.4324C13.6641 6.16142 16.3125 6.15896 19.9997 6.15896H22.3253C22.9674 6.15896 23.488 5.63835 23.488 4.99616C23.488 4.35398 22.9674 3.83337 22.3253 3.83337H19.9107Z" fill="#1F1625" stroke="#1F1625" stroke-width="0.8"/>
<path fill-rule="evenodd" clip-rule="evenodd" d="M30.8327 5.5C28.5315 5.5 26.666 7.36548 26.666 9.66667C26.666 11.9679 28.5315 13.8333 30.8327 13.8333C33.1339 13.8333 34.9993 11.9679 34.9993 9.66667C34.9993 7.36548 33.1339 5.5 30.8327 5.5ZM28.3327 9.66667C28.3327 8.28596 29.452 7.16667 30.8327 7.16667C32.2133 7.16667 33.3327 8.28596 33.3327 9.66667C33.3327 11.0474 32.2133 12.1667 30.8327 12.1667C29.452 12.1667 28.3327 11.0474 28.3327 9.66667Z" fill="#1F1625" stroke="#1F1625" stroke-width="0.8"/>
<path d="M11.085 21.9343C11.085 21.2921 11.6056 20.7715 12.2478 20.7715H26.2012C26.8434 20.7715 27.364 21.2921 27.364 21.9343C27.364 22.5764 26.8434 23.0971 26.2012 23.0971H12.2478C11.6056 23.0971 11.085 22.5764 11.085 21.9343Z" fill="#1F1625" stroke="#1F1625" stroke-width="0.8"/>
<path d="M12.2478 27.8644C11.6056 27.8644 11.085 28.385 11.085 29.0272C11.085 29.6693 11.6056 30.19 12.2478 30.19H21.5501C22.1922 30.19 22.7129 29.6693 22.7129 29.0272C22.7129 28.385 22.1922 27.8644 21.5501 27.8644H12.2478Z" fill="#1F1625" stroke="#1F1625" stroke-width="0.8"/>
</svg>
