<svg width="16" height="16" viewBox="0 0 16 16" fill="none" xmlns="http://www.w3.org/2000/svg">
<path d="M14.4615 15.1804H1.53846C1.2441 15.1804 1 14.9363 1 14.642C1 14.3476 1.2441 14.1035 1.53846 14.1035H14.4615C14.7559 14.1035 15 14.3476 15 14.642C15 14.9363 14.7559 15.1804 14.4615 15.1804Z" fill="white"/>
<path d="M13.0405 1.88478C11.6477 0.491959 10.2836 0.456062 8.85484 1.88478L7.98612 2.7535C7.91433 2.82529 7.88561 2.94016 7.91433 3.04068C8.45997 4.94324 9.98202 6.46529 11.8846 7.01092C11.9133 7.0181 11.942 7.02528 11.9707 7.02528C12.0497 7.02528 12.1215 6.99656 12.1789 6.93912L13.0405 6.07042C13.7512 5.36683 14.0959 4.68478 14.0959 3.99555C14.103 3.28478 13.7584 2.59555 13.0405 1.88478Z" fill="white"/>
<path d="M10.5921 7.66268C10.3839 7.56217 10.1829 7.46166 9.98901 7.34678C9.83107 7.25345 9.6803 7.15294 9.52953 7.04525C9.40748 6.96627 9.26389 6.8514 9.12748 6.73653C9.11312 6.72935 9.06286 6.68627 9.00542 6.62884C8.7685 6.4278 8.50286 6.16933 8.26594 5.88216C8.2444 5.8678 8.2085 5.81754 8.15824 5.75292C8.08645 5.66677 7.9644 5.52318 7.85671 5.35805C7.77055 5.25036 7.67004 5.09241 7.57671 4.93446C7.46183 4.74062 7.36132 4.54677 7.26081 4.34574C7.24559 4.31316 7.23087 4.28073 7.21665 4.24849C7.11069 4.00918 6.79859 3.93922 6.61358 4.12428L2.50082 8.23704C2.40749 8.33037 2.32134 8.50986 2.2998 8.63191L1.91211 11.3817C1.84031 11.8699 1.97672 12.3293 2.27826 12.6381C2.53672 12.8893 2.89569 13.0258 3.28339 13.0258C3.36954 13.0258 3.45569 13.0186 3.54185 13.0042L6.29877 12.6165C6.428 12.595 6.60748 12.5088 6.69363 12.4155L10.8012 8.3079C10.9876 8.12152 10.9173 7.80175 10.6749 7.69829C10.6477 7.68666 10.62 7.67474 10.5921 7.66268Z" fill="white"/>
</svg>
