<svg width="14" height="13" viewBox="0 0 14 13" fill="none" xmlns="http://www.w3.org/2000/svg">
<path d="M10.4999 0.550293H3.49995C1.39998 0.550293 0 1.60028 0 4.05024V8.95018C0 11.4001 1.39998 12.4501 3.49995 12.4501H10.4999C12.5998 12.4501 13.9998 11.4001 13.9998 8.95018V4.05024C13.9998 1.60028 12.5998 0.550293 10.4999 0.550293ZM10.8288 4.81323L8.63788 6.56321C8.17589 6.9342 7.58789 7.1162 6.9999 7.1162C6.41191 7.1162 5.81692 6.9342 5.36192 6.56321L3.17096 4.81323C2.94696 4.63124 2.91196 4.29524 3.08696 4.07124C3.26895 3.84725 3.59795 3.80525 3.82195 3.98724L6.01292 5.73722C6.54491 6.16421 7.4479 6.16421 7.97989 5.73722L10.1709 3.98724C10.3949 3.80525 10.7308 3.84025 10.9058 4.07124C11.0878 4.29524 11.0528 4.63124 10.8288 4.81323Z" fill="#1F1625"/>
</svg>
