<svg width="185" height="185" viewBox="0 0 185 185" fill="none" xmlns="http://www.w3.org/2000/svg">
<path d="M122.363 92.457C122.738 92.6133 122.953 92.8242 123.23 93.1172C123.328 93.2148 123.422 93.3086 123.519 93.4102C123.828 93.7656 123.902 93.957 123.965 94.4297C123.879 95.1836 123.371 95.5078 122.809 95.9688C122.445 96.2539 122.082 96.5352 121.715 96.8164C121.465 97.0078 121.219 97.1992 120.969 97.3906C120.855 97.4805 120.738 97.5664 120.621 97.6602C120.25 97.9453 119.887 98.2383 119.523 98.5313C119.769 98.5547 119.769 98.5547 120.027 98.5781C122.34 98.8125 122.34 98.8125 123.281 99.4727C123.527 99.6406 123.527 99.6406 123.781 99.8125C125.078 101.109 125.488 102.871 125.582 104.656C125.598 104.754 125.613 104.852 125.629 104.953C126.777 105.527 128.703 105.406 129.93 105.148C130.519 104.941 130.738 104.82 131.113 104.328C131.207 103.797 131.207 103.797 131.191 103.203C131.195 103.094 131.195 102.984 131.195 102.875C131.203 102.531 131.203 102.184 131.203 101.84C131.203 101.496 131.203 101.152 131.207 100.809C131.211 100.496 131.211 100.184 131.211 99.8711C131.269 99.3125 131.269 99.3125 131.738 98.375C132.617 98.375 133.496 98.375 134.402 98.375C134.418 99.3281 134.43 100.281 134.437 101.234C134.441 101.555 134.445 101.879 134.449 102.203C134.457 102.672 134.461 103.137 134.465 103.605C134.469 103.75 134.473 103.891 134.473 104.039C134.473 105.266 134.207 106.359 133.367 107.285C132.137 108.059 130.992 108.355 129.547 108.398C129.363 108.406 129.184 108.414 128.996 108.418C127.742 108.441 126.711 108.414 125.59 107.812C125.184 107.566 125.184 107.566 124.836 107.723C124.738 107.793 124.637 107.859 124.535 107.93C123.574 108.371 122.598 108.418 121.551 108.426C121.445 108.426 121.344 108.426 121.234 108.426C120.894 108.43 120.551 108.43 120.211 108.43C120.031 108.434 120.031 108.434 119.852 108.434C119.23 108.434 118.605 108.438 117.98 108.438C117.344 108.438 116.703 108.441 116.062 108.445C115.566 108.449 115.07 108.449 114.574 108.449C114.34 108.449 114.105 108.453 113.867 108.453C112.359 108.465 110.832 108.477 109.516 107.645C109.187 107.41 109.187 107.41 108.801 107.559C108.531 107.703 108.266 107.855 108.008 108.02C106.566 108.609 104.867 108.473 103.387 108.086C103.043 107.914 103.043 107.914 102.762 107.734C102.324 107.406 102.324 107.406 101.91 107.547C101.777 107.621 101.644 107.695 101.508 107.773C99.9062 108.465 98.4999 108.48 96.8085 108.086C96.8046 108.18 96.8007 108.277 96.7968 108.375C96.6992 109.797 96.2812 111.281 95.2421 112.316C93.2265 113.848 91.1835 114.023 88.7421 113.73C86.9921 113.488 85.7695 112.887 84.5898 111.531C83.0585 109.297 83.1679 106.547 83.6328 103.988C84.0624 101.812 84.0624 101.812 84.4335 101.195C85.3749 101.262 86.3945 101.434 87.0937 102.133C87.1367 102.965 87.0234 103.707 86.8593 104.512C86.5351 106.277 86.3906 107.852 87.2539 109.496C87.9179 110.215 88.7226 110.445 89.6835 110.484C89.9453 110.484 90.2031 110.484 90.4648 110.484C90.5937 110.488 90.7226 110.488 90.8554 110.492C91.6523 110.492 92.207 110.41 92.8906 109.965C93.414 109.262 93.5351 108.637 93.5429 107.777C93.5468 107.543 93.5468 107.543 93.5468 107.309C93.5507 107.141 93.5507 106.977 93.5507 106.805C93.5546 106.453 93.5585 106.102 93.5664 105.746C93.5703 105.191 93.5781 104.637 93.582 104.082C93.5859 103.547 93.5937 103.012 93.6015 102.477C93.6015 102.309 93.6015 102.145 93.6015 101.973C93.6054 101.742 93.6054 101.742 93.6093 101.504C93.6093 101.367 93.6132 101.23 93.6132 101.094C93.6874 100.641 93.832 100.426 94.1445 100.098C94.6132 99.9414 94.6132 99.9414 96.6523 99.9414C96.6523 101.594 96.6523 103.25 96.6523 104.953C97.2812 105.109 97.8124 105.141 98.4609 105.148C98.5663 105.152 98.6718 105.156 98.7812 105.16C99.371 105.168 99.371 105.168 99.8906 104.93C100.184 104.52 100.156 104.219 100.16 103.719C100.168 103.449 100.168 103.449 100.172 103.176C100.172 102.984 100.176 102.797 100.176 102.605C100.18 102.23 100.184 101.859 100.191 101.488C100.191 101.324 100.191 101.156 100.195 100.988C100.254 100.566 100.254 100.566 100.473 100.285C101.43 99.5703 101.727 99.9414 103.387 99.9414C103.437 101.543 103.492 103.145 103.543 104.797C104.199 105.125 104.496 105.148 105.207 105.141C105.477 105.137 105.477 105.137 105.754 105.137C106.195 105.141 106.195 105.141 106.519 104.953C106.715 104.371 106.703 103.828 106.711 103.219C106.715 102.969 106.719 102.715 106.723 102.461C106.73 102.062 106.734 101.664 106.738 101.262C106.742 100.879 106.75 100.492 106.758 100.105C106.758 99.9883 106.758 99.8672 106.762 99.7461C106.777 99.0469 106.785 98.8906 107.305 98.375C108.184 98.375 109.062 98.375 109.965 98.375C109.965 100.598 109.965 102.82 109.965 105.109C111.504 105.242 111.504 105.242 113.039 105.301C113.195 105.301 113.195 105.301 113.352 105.305C113.687 105.309 114.023 105.312 114.359 105.316C114.598 105.32 114.832 105.324 115.066 105.324C115.684 105.336 116.297 105.344 116.914 105.352C117.543 105.359 118.172 105.367 118.805 105.375C120.035 105.391 121.266 105.406 122.496 105.422C122.434 105.047 122.371 104.672 122.301 104.297C122.285 104.191 122.269 104.086 122.25 103.977C122.117 103.258 121.91 102.816 121.402 102.289C120.352 101.625 119.148 101.742 117.945 101.73C117.527 101.727 117.105 101.719 116.687 101.711C116.5 101.711 116.316 101.707 116.125 101.707C115.434 101.648 114.859 101.562 114.379 101.039C114.305 100.918 114.23 100.797 114.156 100.676C114.082 100.555 114.008 100.438 113.93 100.316C113.723 99.9375 113.562 99.5586 113.414 99.1563C114.512 98.2148 115.637 97.3203 116.801 96.457C117.863 95.668 118.91 94.8555 119.953 94.0391C120.059 93.9531 120.168 93.8711 120.281 93.7852C120.519 93.5938 120.758 93.4023 120.992 93.2031C121.117 93.1016 121.242 93 121.367 92.8945C121.535 92.7539 121.535 92.7539 121.707 92.6094C122.027 92.4219 122.027 92.4219 122.363 92.457Z" fill="black"/>
<path d="M86.1562 69.707C86.9492 70.2617 87.4141 70.8945 87.9297 71.707C88.0898 71.957 88.2539 72.2031 88.418 72.4531C88.5039 72.5898 88.5937 72.7266 88.6836 72.8672C89.1797 73.6211 89.6875 74.3711 90.1992 75.1172C90.3711 75.3711 90.5469 75.625 90.7188 75.8828C91.2773 76.7031 91.8398 77.5195 92.4219 78.3242C92.9023 77.7383 93.3398 77.1367 93.7617 76.5117C93.832 76.4102 93.9063 76.3047 93.9766 76.1992C94.4297 75.5391 94.875 74.8789 95.3203 74.2148C95.5859 73.8203 95.8516 73.4258 96.1172 73.0313C96.25 72.832 96.3828 72.6367 96.5156 72.4375C96.7031 72.1563 96.8906 71.875 97.082 71.5938C97.2461 71.3516 97.2461 71.3516 97.4141 71.0977C97.9297 70.3984 98.4414 69.75 99.3125 69.5508C100.07 69.5273 100.672 69.6016 101.273 70.0898C101.762 70.5938 101.84 70.7969 101.844 71.4766C101.844 71.6172 101.844 71.7578 101.844 71.9023C101.844 72.1328 101.844 72.1328 101.848 72.3711C101.848 72.6172 101.848 72.6172 101.848 72.8633C101.852 73.4063 101.852 73.9453 101.852 74.4844C101.852 74.8594 101.855 75.2344 101.855 75.6094C101.855 76.3945 101.859 77.1797 101.859 77.9648C101.859 78.9727 101.863 79.9805 101.867 80.9883C101.871 81.7617 101.871 82.5352 101.871 83.3047C101.871 83.6797 101.871 84.0508 101.875 84.4219C101.879 84.9414 101.879 85.4609 101.875 85.9805C101.879 86.1328 101.879 86.2891 101.879 86.4453C101.879 86.5898 101.879 86.7305 101.879 86.875C101.879 87.0586 101.879 87.0586 101.879 87.2461C101.82 87.5664 101.82 87.5664 101.352 88.0352C100.473 88.0352 99.5938 88.0352 98.6875 88.0352C98.6367 83.9531 98.5859 79.8672 98.5312 75.6602C96.8594 78.0234 96.8594 78.0234 95.2148 80.4023C93.9219 82.2695 93.9219 82.2695 93.0469 82.5547C92.2148 82.6289 91.7266 82.5078 91.0117 82.082C90.6875 81.7344 90.6875 81.7344 90.3867 81.3086C90.2656 81.1445 90.1484 80.9766 90.0234 80.8086C89.8828 80.6055 89.7422 80.4063 89.6016 80.2031C89.4219 79.9453 89.2383 79.6875 89.0586 79.4336C88.1797 78.1836 87.3125 76.9297 86.4688 75.6602C86.4688 75.8086 86.4687 75.957 86.4648 76.1094C86.457 77.5039 86.4453 78.8984 86.4336 80.293C86.4258 81.0117 86.418 81.7266 86.4141 82.4453C86.4102 83.1367 86.4062 83.8281 86.3984 84.5195C86.3945 84.7813 86.3906 85.0469 86.3906 85.3125C86.3906 85.6797 86.3867 86.0508 86.3789 86.418C86.3789 86.5273 86.3789 86.6406 86.3789 86.75C86.3672 87.4922 86.3672 87.4922 86.1133 87.8281C85.7773 88.0859 85.6016 88.0898 85.1797 88.082C85.0547 88.0781 84.9297 88.0781 84.8008 88.0781C84.668 88.0742 84.5391 88.0703 84.4023 88.0664C84.2031 88.0625 84.2031 88.0625 84.0039 88.0586C83.6758 88.0547 83.3477 88.043 83.0234 88.0352C83.0117 85.8672 83.0039 83.7031 83 81.5352C82.9961 80.5313 82.9922 79.5234 82.9883 78.5195C82.9805 77.5469 82.9805 76.5781 82.9766 75.6055C82.9766 75.2344 82.9766 74.8633 82.9727 74.4961C82.9688 73.9766 82.9688 73.457 82.9688 72.9375C82.9688 72.7852 82.9648 72.6328 82.9648 72.4727C82.9687 71.5859 83.0586 70.957 83.4922 70.1797C84.3203 69.5039 85.1289 69.3633 86.1562 69.707Z" fill="black"/>
<path d="M44.0195 84.4336C44.5938 84.8867 45.1211 85.3828 45.6367 85.8984C45.9141 86.1719 46.1914 86.4414 46.4727 86.7109C49.4844 89.6484 49.4844 89.6484 49.5703 91.7773C49.5156 93.4609 48.8086 94.5586 47.6211 95.7109C47.3594 95.9219 47.1016 96.1289 46.8359 96.3359C46.6875 96.5078 46.543 96.6797 46.3984 96.8555C45.957 97.3867 45.4727 97.832 44.9453 98.2734C44.7617 98.4297 44.582 98.5898 44.4062 98.7578C43.4844 99.6094 42.3594 99.8828 41.125 99.8398C39.0859 99.5625 37.7813 97.9687 36.3828 96.5937C36.2305 96.4414 36.0781 96.293 35.9258 96.1445C34.6445 94.9141 33.6094 93.6797 33.4844 91.8437C33.5078 90.1758 34.4297 88.9609 35.5625 87.8242C35.6523 87.7344 35.7422 87.6406 35.8359 87.5469C36.0234 87.3555 36.2148 87.1641 36.4062 86.9766C36.6914 86.6875 36.9805 86.3945 37.2656 86.1016C37.4492 85.9141 37.6367 85.7305 37.8242 85.543C37.9062 85.457 37.9922 85.3711 38.0781 85.2812C39.6836 83.6953 42.0273 83.2266 44.0195 84.4336Z" fill="#FB813E"/>
<path d="M26.9414 92.1094C26.9765 92.2383 27.0117 92.3711 27.0468 92.5039C27.0976 92.6797 27.1484 92.8555 27.1992 93.0391C27.246 93.2109 27.2929 93.3828 27.3398 93.5625C27.9531 95.1211 29.082 96.1641 30.2851 97.2852C30.4023 97.3984 30.5195 97.5078 30.6367 97.625C30.746 97.7227 30.8515 97.8203 30.9609 97.9258C31.1718 98.2188 31.1718 98.2188 31.1406 98.5156C30.9921 98.9062 30.8203 99.0859 30.5156 99.3672C30.4101 99.4648 30.3046 99.5664 30.1953 99.668C30.0781 99.7734 29.9648 99.8789 29.8476 99.9883C29.6054 100.219 29.3632 100.449 29.1249 100.68C28.746 101.039 28.3671 101.398 27.9804 101.75C26.1718 103.316 26.1718 103.316 25.3828 105.477C25.3789 105.824 25.3749 106.172 25.3749 106.52C25.0039 107.801 23.9648 108.945 22.8593 109.641C21.2148 110.488 19.6132 110.73 17.8203 110.18C16.4257 109.664 15.2304 108.742 14.5351 107.406C13.8359 105.863 13.582 103.988 14.1953 102.359C14.9609 100.777 16.0781 99.5898 17.7304 98.9688C18.2226 98.8281 18.6992 98.7734 19.207 98.7188C20.2734 98.5664 20.7538 98.2227 21.4609 97.4336C21.5859 97.3008 21.7109 97.1641 21.8398 97.0234C22.0585 96.7852 22.2812 96.543 22.4999 96.3008C23.2656 95.4648 24.0585 94.6563 24.8554 93.8516C25.0078 93.7031 25.1562 93.5508 25.3085 93.3984C25.5195 93.1836 25.7343 92.9688 25.9453 92.7578C26.0703 92.6328 26.1953 92.5078 26.3203 92.3789C26.6289 92.1094 26.6289 92.1094 26.9414 92.1094Z" fill="#FB813E"/>
<path d="M22.9374 74.1719C24.2226 75.1055 25.207 76.2773 25.5351 77.8516C25.539 78.1289 25.5468 78.4023 25.5468 78.6797C25.6406 79.7305 26.1171 80.1953 26.8749 80.8828C27.0546 81.0547 27.0546 81.0547 27.2343 81.2266C27.6093 81.5898 27.9921 81.9453 28.371 82.2969C28.7538 82.6563 29.1367 83.0156 29.5156 83.3789C29.7499 83.6055 29.9843 83.8281 30.2265 84.0469C30.332 84.1484 30.4374 84.25 30.5468 84.3516C30.6874 84.4844 30.6874 84.4844 30.832 84.6172C31.0156 84.9023 31.0156 84.9023 30.9843 85.3086C30.832 85.7656 30.6484 85.957 30.2929 86.2773C30.1796 86.3867 30.0663 86.4961 29.9453 86.6055C29.8242 86.7188 29.7031 86.832 29.5781 86.9492C28.1679 88.3047 27.3203 89.5273 26.9413 91.4805C26.3671 91.3945 26.1171 91.1758 25.7226 90.7539C25.5546 90.5742 25.5546 90.5742 25.3788 90.3867C25.2578 90.2578 25.1328 90.125 25.0078 89.9883C24.7421 89.7148 24.4765 89.4375 24.2109 89.1641C23.7968 88.7266 23.3828 88.293 22.9726 87.8516C20.7499 85.4727 20.7499 85.4727 17.6992 84.7461C16.0078 84.1602 15.1015 83.0938 14.2812 81.543C13.6757 80.2148 13.7304 78.3047 14.1679 76.9219C14.8242 75.4023 16.0781 74.2695 17.5859 73.6289C19.414 72.9883 21.289 73.1523 22.9374 74.1719Z" fill="#FB813E"/>
<path d="M32.0273 65.0938C33.4609 66.1328 34.2226 67.3555 34.6171 69.082C34.6132 69.1953 34.6093 69.3086 34.6054 69.4219C34.5937 70.2539 34.7695 70.7227 35.3359 71.3438C35.7421 71.7617 36.1601 72.1602 36.5859 72.5586C36.7577 72.7227 36.9257 72.8867 37.0976 73.0508C37.8867 73.8164 38.6952 74.5586 39.5273 75.2773C39.8906 75.5898 40.2304 75.9219 40.5702 76.2578C40.6913 76.375 40.8124 76.4922 40.9335 76.6133C41.1992 76.9141 41.1992 76.9141 41.1992 77.2266C41.0663 77.2617 40.9374 77.2969 40.8007 77.332C40.6249 77.3789 40.4492 77.4297 40.2695 77.4805C40.0937 77.5273 39.9218 77.5742 39.746 77.625C38.1835 78.2383 37.1406 79.3633 36.0234 80.5703C35.9101 80.6875 35.7968 80.8008 35.6835 80.9219C35.582 81.0273 35.4843 81.1367 35.3827 81.2461C35.0898 81.457 35.0898 81.457 34.789 81.4219C34.4023 81.2773 34.2187 81.1055 33.9296 80.8086C33.832 80.707 33.7304 80.6055 33.6288 80.4961C33.5195 80.3867 33.414 80.2734 33.3046 80.1602C33.0742 79.9258 32.8437 79.6914 32.6171 79.457C32.2538 79.0859 31.8945 78.7148 31.539 78.3438C31.1913 77.9844 30.8437 77.6289 30.4921 77.2695C30.3867 77.1602 30.2812 77.0469 30.1718 76.9336C29.5898 76.3438 29.2226 75.9961 28.3515 75.9727C26.539 75.7031 25.1367 75.0703 23.9687 73.625C23.0468 72.3086 22.6913 70.8359 22.871 69.2383C23.2304 67.4609 23.9921 66.0898 25.4999 65.0547C27.5585 63.8555 29.9999 63.8242 32.0273 65.0938Z" fill="#FB813E"/>
<path d="M47.9336 102.133C48.4102 102.344 48.7227 102.574 49.0781 102.953C49.1719 103.059 49.2695 103.16 49.3711 103.266C49.4766 103.379 49.5781 103.488 49.6875 103.602C49.9102 103.836 50.1367 104.07 50.3633 104.305C50.7148 104.672 51.0664 105.039 51.4141 105.414C52.832 107.082 52.832 107.082 54.7773 107.836C55.0547 107.82 55.332 107.801 55.6094 107.773C57.1328 108.16 58.4414 109.043 59.3164 110.355C60.1562 111.93 60.4062 113.66 59.9648 115.398C59.4141 116.977 58.2891 118.195 56.8125 118.965C55.5234 119.566 53.8477 119.566 52.4688 119.258C51.0391 118.719 49.7305 117.711 49 116.355C48.6758 115.617 48.5391 114.965 48.4766 114.164C48.293 112.93 47.7031 112.332 46.8125 111.508C46.668 111.367 46.5273 111.227 46.3828 111.086C46.0078 110.719 45.6289 110.359 45.25 110C44.7109 109.488 44.1797 108.973 43.6484 108.457C43.3672 108.184 43.082 107.91 42.7969 107.641C42.668 107.516 42.5391 107.395 42.4102 107.27C42.2969 107.16 42.1836 107.055 42.0664 106.945C41.8242 106.676 41.8242 106.676 41.8242 106.363C41.957 106.328 42.0859 106.293 42.2188 106.258C42.3984 106.211 42.5742 106.16 42.7539 106.109C42.9258 106.062 43.1016 106.016 43.2773 105.965C44.668 105.418 45.6641 104.469 46.6914 103.406C46.8125 103.285 46.9336 103.16 47.0547 103.035C47.3516 102.734 47.6406 102.434 47.9336 102.133Z" fill="#FB813E"/>
<path d="M67.0664 74.4844C68.0547 75.2695 68.8711 76.4297 69.082 77.6953C69.207 79.6875 69.1445 81.3203 67.8086 82.9141C66.8477 83.9102 65.75 84.6328 64.3828 84.9023C64.2695 84.9023 64.1563 84.8984 64.0391 84.8984C63.1719 84.9023 62.6953 85.0781 62.0547 85.668C61.7891 85.9336 61.5273 86.207 61.2695 86.4805C61.0586 86.6914 61.0586 86.6914 60.8438 86.9102C60.4766 87.2891 60.1133 87.668 59.75 88.0469C59.2344 88.5859 58.7148 89.1172 58.1914 89.6523C57.918 89.9336 57.6406 90.2188 57.3672 90.5078C57.1836 90.6992 57.1836 90.6992 56.9922 90.8945C56.8828 91.0078 56.7773 91.1211 56.6641 91.2383C56.3945 91.4805 56.3945 91.4805 56.0781 91.4805C56.0469 91.3516 56.0117 91.2188 55.9766 91.0859C55.9258 90.9102 55.875 90.7344 55.8242 90.5508C55.7773 90.3789 55.7305 90.207 55.6836 90.0273C55.1367 88.6367 54.1836 87.6406 53.1211 86.6172C53 86.4961 52.8789 86.375 52.75 86.25C52.4531 85.957 52.1523 85.6641 51.8516 85.3711C52.0625 84.8984 52.2891 84.5898 52.668 84.2383C52.7695 84.1445 52.875 84.0508 52.9805 83.9492C53.0898 83.8477 53.1992 83.7461 53.3125 83.6406C53.5469 83.4219 53.7812 83.1992 54.0117 82.9766C54.3789 82.6289 54.7461 82.2813 55.1172 81.9414C56.8984 80.3789 56.8984 80.3789 57.625 78.2148C57.6289 78.0156 57.6289 77.8203 57.6289 77.6172C57.668 76.3906 58.4062 75.4648 59.2695 74.6523C61.6836 72.6797 64.5586 72.7266 67.0664 74.4844Z" fill="#FB813E"/>
<path d="M35.0234 102.324C35.4961 102.477 35.7031 102.688 36.039 103.051C36.1562 103.176 36.2773 103.297 36.3984 103.426C36.6367 103.684 36.8789 103.945 37.1211 104.203C38.3164 105.453 39.5 106.063 41.1992 106.363C40.9492 106.98 40.5468 107.355 40.0703 107.813C39.5742 108.293 39.1054 108.773 38.6562 109.305C38.2304 109.801 37.7734 110.246 37.289 110.688C35.5625 112.273 34.6015 113.238 34.4609 115.605C34.0429 117.004 32.9297 118.121 31.6836 118.816C30.1914 119.582 28.2383 119.645 26.6406 119.141C25 118.434 23.8672 117.055 23.2148 115.43C22.7383 113.852 22.9101 112.203 23.6523 110.75C24.457 109.414 25.5898 108.379 27.1015 107.93C27.25 107.93 27.4023 107.93 27.5586 107.93C28.9922 107.914 29.6679 107.406 30.6445 106.414C31.1211 105.926 31.582 105.426 32.0429 104.926C32.3984 104.543 32.7578 104.164 33.1172 103.785C33.3359 103.551 33.5586 103.316 33.7734 103.078C33.875 102.973 33.9726 102.867 34.0742 102.758C34.164 102.664 34.25 102.57 34.3359 102.473C34.6172 102.289 34.6172 102.289 35.0234 102.324Z" fill="#FB813E"/>
<path d="M56.6836 64.6563C58.1016 65.4883 59.3008 66.5547 59.8398 68.1406C60.2266 69.7461 60.1719 71.5664 59.3359 73.0156C58.3516 74.4219 57.1367 75.4219 55.4531 75.8164C55.1836 75.8398 54.9102 75.8555 54.6406 75.8672C52.9805 75.9961 51.4844 78.1992 50.3633 79.332C50.1562 79.5391 49.9492 79.7461 49.7461 79.9492C49.2461 80.4531 48.7461 80.9531 48.2461 81.457C47.7383 81.2344 47.4219 80.9688 47.043 80.5625C45.457 78.8906 44.1523 77.6758 41.8242 77.2266C42.0469 76.7188 42.3086 76.4023 42.7109 76.0234C42.832 75.9141 42.9492 75.8047 43.0703 75.6914C43.1953 75.5703 43.3242 75.4531 43.4531 75.332C43.7227 75.0742 43.9922 74.8164 44.2578 74.5586C44.6797 74.1562 45.1016 73.7539 45.5273 73.3594C47.3555 71.6602 48.4453 70.5117 48.5586 67.9844C49.0273 66.5078 50.1484 65.4883 51.4531 64.7305C53.0117 63.9766 55.1055 63.8906 56.6836 64.6563Z" fill="#FB813E"/>
<path d="M56.0781 92.1094C56.5898 92.332 56.9258 92.6055 57.3203 93C57.4375 93.1211 57.5547 93.2383 57.6758 93.3594C57.8672 93.5547 57.8672 93.5547 58.0586 93.75C58.1875 93.8789 58.3203 94.0117 58.4531 94.1484C58.8711 94.5664 59.2852 94.9883 59.7031 95.4062C60.1172 95.8281 60.5352 96.25 60.9531 96.6719C61.2148 96.9336 61.4727 97.1953 61.7305 97.457C61.8477 97.5742 61.9648 97.6914 62.0859 97.8164C62.2422 97.9727 62.2422 97.9727 62.3984 98.1328C62.9062 98.6055 63.3828 98.5742 64.0586 98.6367C65.707 98.8359 66.9727 99.4883 68.0273 100.801C69.1211 102.395 69.3047 104.012 69.082 105.895C68.75 107.441 67.6641 108.582 66.418 109.496C64.8945 110.371 63.2227 110.562 61.5039 110.152C60.043 109.602 58.6914 108.547 57.9609 107.148C57.6328 106.391 57.4805 105.738 57.4727 104.914C57.3828 103.848 56.8789 103.355 56.1172 102.645C55.9961 102.527 55.875 102.406 55.75 102.285C55.3633 101.906 54.9727 101.535 54.582 101.164C54.3164 100.91 54.0547 100.652 53.793 100.395C53.1484 99.7695 52.5 99.1484 51.8516 98.5312C52.1563 97.9844 52.4727 97.5625 52.9258 97.1328C53.043 97.0195 53.1562 96.9102 53.2773 96.793C53.5195 96.5625 53.7617 96.332 54.0039 96.1016C55.0039 95.1328 55.5469 94.2422 55.8828 92.8906C55.9219 92.7422 55.9609 92.5938 56 92.4414C56.0273 92.332 56.0508 92.2227 56.0781 92.1094Z" fill="#FB813E"/>
<path d="M143.969 70.6953C145.266 71.832 145.742 73.2305 145.863 74.9141C145.922 76.5547 145.566 78.1914 144.43 79.4219C143.93 79.8242 143.41 80.1797 142.863 80.5156C143.105 81.2656 143.531 81.8047 144.008 82.4141C144.754 83.3945 145.484 84.3828 146.191 85.3906C146.281 85.5156 146.371 85.6406 146.461 85.7695C146.836 86.3047 147.074 86.6641 147.168 87.3203C147.09 87.7227 147.09 87.7227 146.777 88.0352C146.281 88.1406 145.777 88.1445 145.269 88.1641C145.062 88.1836 145.062 88.1836 144.855 88.2031C144.398 88.2148 144.074 88.1914 143.644 88.0352C143.125 87.5273 142.769 86.9336 142.391 86.3125C142.18 86.0078 141.969 85.707 141.754 85.4062C141.543 85.1016 141.332 84.7969 141.121 84.4922C141.012 84.3398 140.906 84.1875 140.797 84.0312C140.695 83.8789 140.59 83.7305 140.48 83.5742C140.379 83.4297 140.273 83.2852 140.164 83.1367C139.887 82.7109 139.887 82.7109 139.715 82.2891C139.535 81.8242 139.535 81.8242 138.945 81.3008C137.859 81.25 136.773 81.1953 135.656 81.1445C135.656 83.418 135.656 85.6914 135.656 88.0352C134.57 88.0352 133.484 88.0352 132.367 88.0352C132.367 82.3477 132.367 76.6641 132.367 70.8047C135.918 69.3242 140.562 68.207 143.969 70.6953ZM135.656 72.8398C135.656 74.5977 135.656 76.3555 135.656 78.168C136.246 78.1719 136.84 78.1797 137.449 78.1875C137.633 78.1875 137.816 78.1914 138.004 78.1953C139.906 78.2187 139.906 78.2187 141.519 77.3359C141.621 77.2461 141.719 77.1562 141.824 77.0625C142.434 76.332 142.461 75.582 142.441 74.668C142.355 73.9375 141.992 73.5234 141.473 73.0352C140.508 72.4687 139.57 72.4805 138.484 72.4883C138.336 72.4883 138.184 72.4844 138.027 72.4844C137.809 72.4844 137.809 72.4844 137.582 72.4844C137.383 72.4883 137.383 72.4883 137.18 72.4883C136.633 72.5273 136.633 72.5273 135.656 72.8398Z" fill="black"/>
<path d="M152.418 92.1094C152.852 92.0859 153.285 92.0703 153.719 92.0586C153.902 92.0508 153.902 92.0508 154.094 92.0391C154.437 92.0312 154.742 92.0391 155.082 92.1094C155.633 92.6719 155.609 93.2578 155.605 94.0195C155.605 94.1289 155.605 94.2383 155.605 94.3516C155.605 94.5898 155.605 94.8281 155.605 95.0664C155.602 95.4453 155.605 95.8242 155.605 96.2031C155.609 97.2773 155.609 98.3516 155.605 99.4258C155.605 100.082 155.605 100.742 155.613 101.398C155.613 101.648 155.613 101.898 155.609 102.148C155.605 102.5 155.609 102.852 155.609 103.199C155.609 103.398 155.609 103.598 155.609 103.805C155.734 104.465 155.973 104.695 156.492 105.109C156.863 105.242 156.863 105.242 157.254 105.254C157.391 105.266 157.531 105.277 157.672 105.289C157.816 105.297 157.957 105.309 158.105 105.316C158.324 105.332 158.324 105.332 158.547 105.352C158.906 105.379 159.266 105.402 159.625 105.422C159.582 105.184 159.582 105.184 159.543 104.937C159.273 103.156 159.195 101.5 160.25 99.9414C161.105 98.8203 162.332 98.1992 163.695 97.9062C164.199 97.8633 164.699 97.8594 165.203 97.8555C165.336 97.8516 165.465 97.8477 165.598 97.8398C167.043 97.8281 168.41 98.1914 169.805 98.5312C169.812 99.5312 169.82 100.531 169.824 101.531C169.824 101.871 169.824 102.211 169.828 102.551C169.832 103.043 169.836 103.531 169.836 104.023C169.836 104.172 169.84 104.324 169.84 104.477C169.84 105.809 169.746 107.031 168.867 108.086C168.02 108.867 167.004 108.996 165.891 109.027C165.266 108.969 164.648 108.855 164.031 108.75C162.465 108.5 160.891 108.48 159.309 108.461C154.937 108.391 154.937 108.391 153.516 107.148C152.566 106.059 152.367 104.746 152.383 103.348C152.383 103.227 152.383 103.102 152.383 102.977C152.383 102.578 152.383 102.176 152.387 101.777C152.387 101.496 152.387 101.219 152.387 100.937C152.391 100.207 152.391 99.4766 152.395 98.7461C152.398 97.9961 152.402 97.25 152.402 96.5C152.406 95.0391 152.41 93.5742 152.418 92.1094ZM163.125 101.59C162.586 102.293 162.418 102.621 162.414 103.504C162.41 103.664 162.41 103.824 162.406 103.992C162.449 104.543 162.5 104.93 162.758 105.422C163.156 105.605 163.453 105.707 163.871 105.797C163.977 105.82 164.086 105.844 164.191 105.871C164.937 106.039 165.605 106.141 166.359 106.051C166.723 105.754 166.723 105.754 166.707 105.254C166.707 105.055 166.703 104.852 166.703 104.645C166.703 104.484 166.703 104.484 166.703 104.32C166.699 103.977 166.695 103.633 166.691 103.289C166.691 103.055 166.687 102.824 166.687 102.59C166.684 102.02 166.68 101.449 166.672 100.879C166.301 100.867 165.93 100.859 165.555 100.852C165.453 100.848 165.348 100.844 165.242 100.84C164.391 100.828 163.754 101.004 163.125 101.59Z" fill="black"/>
<path d="M155.266 69.375C155.977 69.4297 156.363 69.5742 156.859 70.0938C157.637 71.1719 158.242 72.3437 158.852 73.5234C159.269 74.3281 159.762 75.082 160.258 75.8359C161.031 77.0273 161.031 77.0273 161.031 77.3828C161.137 77.3828 161.238 77.3828 161.348 77.3828C161.41 77.2148 161.41 77.2148 161.473 77.043C161.66 76.5977 161.879 76.2148 162.137 75.8047C162.234 75.6523 162.328 75.5039 162.426 75.3438C162.582 75.1055 162.582 75.1055 162.738 74.8594C162.84 74.6914 162.945 74.5273 163.051 74.3555C163.266 74.0156 163.48 73.6758 163.695 73.3359C163.988 72.8711 164.285 72.4023 164.578 71.9375C164.746 71.668 164.918 71.3984 165.086 71.1289C165.164 71 165.246 70.875 165.324 70.7461C165.398 70.6328 165.469 70.5156 165.547 70.3984C165.641 70.25 165.641 70.25 165.734 70.0977C165.891 69.8633 165.891 69.8633 166.047 69.707C166.539 69.668 167.031 69.6797 167.523 69.6797C167.664 69.6758 167.801 69.6758 167.945 69.6719C168.078 69.6719 168.211 69.6719 168.348 69.6719C168.469 69.6719 168.59 69.6719 168.715 69.668C169.023 69.707 169.023 69.707 169.336 70.0195C169.504 70.9805 169.016 71.6055 168.523 72.3789C168.398 72.582 168.398 72.582 168.269 72.7891C168.09 73.0781 167.914 73.3633 167.734 73.6523C167.453 74.0938 167.18 74.5391 166.906 74.9883C166.562 75.543 166.219 76.0977 165.875 76.6523C165.801 76.7734 165.723 76.8984 165.644 77.0234C165.496 77.2656 165.34 77.5 165.18 77.7344C165.105 77.8438 165.035 77.9531 164.957 78.0664C164.859 78.2109 164.859 78.2109 164.758 78.3555C164.598 78.7266 164.648 78.8867 164.793 79.2617C164.902 79.4766 165.019 79.6836 165.141 79.8906C165.215 80.0117 165.289 80.1328 165.363 80.2578C165.441 80.3867 165.523 80.5195 165.605 80.6523C165.687 80.7891 165.769 80.9258 165.855 81.0664C166.594 82.2812 167.355 83.4844 168.125 84.6797C169.496 86.8125 169.496 86.8125 169.473 87.4688C169.336 87.8789 169.336 87.8789 169.023 88.0352C168.082 88.1797 167.133 88.2852 166.203 88.0352C165.609 87.5391 165.332 86.9258 165 86.2422C164.605 85.4805 164.133 84.7617 163.68 84.0352C162.887 82.7695 162.113 81.4883 161.348 80.2031C160.973 80.5469 160.723 80.8945 160.469 81.3359C160.391 81.4687 160.312 81.6016 160.23 81.7422C160.148 81.8867 160.062 82.0312 159.977 82.1797C159.887 82.332 159.797 82.4805 159.703 82.6328C159.199 83.4805 158.73 84.332 158.293 85.2188C156.961 87.832 156.961 87.832 156.086 88.2109C155.184 88.3828 154.23 88.3359 153.355 88.0352C153.043 87.7227 153.043 87.7227 152.977 87.2383C153.066 86.4297 153.387 85.9648 153.836 85.3047C154.008 85.043 154.18 84.7812 154.352 84.5195C154.445 84.3789 154.535 84.2422 154.629 84.0977C155.16 83.2891 155.668 82.4688 156.176 81.6523C156.277 81.4922 156.375 81.3359 156.477 81.1719C156.969 80.3867 157.449 79.6016 157.898 78.793C157.836 78.6875 157.769 78.5859 157.703 78.4766C157.285 77.793 156.863 77.1133 156.445 76.4297C156.387 76.3359 156.328 76.2422 156.269 76.1484C156.152 75.957 156.035 75.7656 155.922 75.5742C155.531 74.9414 155.137 74.3086 154.746 73.6758C154.547 73.3555 154.348 73.0352 154.148 72.7148C154.059 72.5625 153.965 72.4141 153.867 72.2617C153.738 72.0508 153.738 72.0508 153.609 71.8398C153.496 71.6562 153.496 71.6563 153.379 71.4727C153.184 71.0859 153.094 70.7617 153.043 70.3359C153.418 69.4258 154.402 69.418 155.266 69.375Z" fill="black"/>
<path d="M112.473 69.3945C113.816 70.3008 114.242 72.4922 114.793 73.9453C114.883 74.1797 114.969 74.4102 115.059 74.6445C115.859 76.7539 116.656 78.8633 117.441 80.9805C117.851 82.0781 118.262 83.1758 118.695 84.2617C118.754 84.4141 118.816 84.5664 118.879 84.7227C118.98 84.9844 119.086 85.2461 119.195 85.5078C119.5 86.2812 119.594 86.8906 119.523 87.7227C119.207 88.0352 119.207 88.0352 118.914 88.0703C118.797 88.0703 118.68 88.0664 118.562 88.0664C118.434 88.0664 118.309 88.0625 118.18 88.0625C118.047 88.0586 117.914 88.0586 117.777 88.0547C117.644 88.0547 117.512 88.0508 117.375 88.0508C117.047 88.0469 116.719 88.043 116.387 88.0352C116.269 87.7578 116.152 87.4805 116.035 87.2031C115.973 87.0508 115.906 86.8945 115.84 86.7344C115.531 85.9766 115.258 85.2031 114.98 84.4336C112.758 84.3828 110.531 84.3281 108.242 84.2773C108.141 84.7422 108.035 85.207 107.93 85.6875C107.805 86.0781 107.668 86.4727 107.527 86.8594C107.461 87.0508 107.391 87.2383 107.32 87.4336C107.148 87.8789 107.148 87.8789 106.988 88.0352C106.523 88.0508 106.059 88.0586 105.59 88.0547C105.457 88.0547 105.328 88.0547 105.191 88.0586C105.066 88.0586 104.941 88.0547 104.812 88.0547C104.695 88.0547 104.582 88.0547 104.461 88.0547C104.172 88.0352 104.172 88.0352 103.855 87.8789C103.656 87.1484 103.73 86.6914 103.996 85.9922C104.066 85.8086 104.133 85.625 104.207 85.4336C104.281 85.2344 104.359 85.0352 104.437 84.8359C104.516 84.6289 104.594 84.418 104.676 84.2109C104.84 83.7734 105.004 83.3359 105.172 82.8984C105.414 82.2656 105.652 81.6367 105.887 81.0039C106.266 79.9844 106.648 78.9648 107.031 77.9492C107.187 77.5352 107.344 77.1211 107.5 76.7109C107.941 75.5352 108.387 74.3594 108.836 73.1836C108.957 72.8672 109.078 72.5508 109.195 72.2344C109.34 71.8555 109.488 71.4766 109.637 71.1016C109.695 70.9453 109.695 70.9453 109.754 70.7852C110.277 69.4883 111.156 69.1523 112.473 69.3945ZM111.531 75.0352C111.242 75.8789 110.953 76.7227 110.664 77.5703C110.562 77.8555 110.465 78.1445 110.367 78.4297C110.223 78.8437 110.082 79.2578 109.941 79.668C109.898 79.7969 109.851 79.9297 109.809 80.0625C109.59 80.5898 109.59 80.5898 109.496 81.1445C110.945 81.1445 112.391 81.1445 113.883 81.1445C113.672 80.5 113.461 79.8555 113.246 79.2109C113.176 78.9961 113.105 78.7773 113.031 78.5586C112.641 77.3555 112.23 76.1797 111.687 75.0352C111.637 75.0352 111.586 75.0352 111.531 75.0352Z" fill="black"/>
<path d="M138.789 98.375C139.668 98.375 140.547 98.375 141.453 98.375C141.504 100.598 141.555 102.82 141.609 105.109C144.281 105.484 144.281 105.484 146.809 104.699C147.199 104.188 147.168 103.84 147.172 103.203C147.172 103.094 147.172 102.984 147.176 102.875C147.18 102.531 147.18 102.184 147.18 101.84C147.18 101.496 147.184 101.152 147.187 100.809C147.191 100.496 147.191 100.184 147.191 99.8711C147.25 99.3125 147.25 99.3125 147.719 98.375C148.598 98.375 149.477 98.375 150.383 98.375C150.398 99.3281 150.406 100.281 150.414 101.234C150.418 101.555 150.422 101.879 150.43 102.203C150.437 102.672 150.441 103.137 150.441 103.605C150.445 103.75 150.449 103.891 150.453 104.039C150.453 105.266 150.187 106.359 149.344 107.285C148.113 108.059 146.969 108.355 145.523 108.398C145.344 108.406 145.16 108.414 144.973 108.418C143.742 108.441 142.769 108.316 141.609 107.93C141.605 108.035 141.605 108.141 141.605 108.25C141.598 108.738 141.582 109.223 141.57 109.711C141.566 109.879 141.566 110.043 141.562 110.215C141.523 111.473 141.355 112.68 140.473 113.637C138.879 114.543 137.457 114.512 135.707 114.031C135.32 113.875 135.129 113.734 134.871 113.414C134.82 113.258 134.769 113.102 134.715 112.941C134.484 113.098 134.484 113.098 134.246 113.254C133.519 113.449 133.047 113.43 132.367 113.098C131.809 112.59 131.605 112.293 131.477 111.543C131.523 110.902 131.758 110.473 132.203 110.012C132.84 109.609 133.527 109.648 134.246 109.809C134.648 110.16 134.648 110.16 135.031 110.594C136.019 111.145 136.883 111.293 138.008 111.219C138.238 110.75 138.184 110.324 138.187 109.805C138.187 109.691 138.187 109.578 138.191 109.461C138.191 109.215 138.191 108.969 138.195 108.723C138.195 108.332 138.199 107.941 138.203 107.551C138.211 106.438 138.219 105.328 138.227 104.219C138.23 103.539 138.234 102.859 138.242 102.184C138.242 101.922 138.246 101.664 138.246 101.406C138.246 101.043 138.25 100.684 138.254 100.32C138.254 100.113 138.258 99.9063 138.258 99.6953C138.32 99.1563 138.32 99.1562 138.789 98.375Z" fill="black"/>
<path d="M119.215 69.6562C119.344 69.6562 119.473 69.6562 119.605 69.6562C120.031 69.6562 120.453 69.6602 120.879 69.6602C121.172 69.6641 121.469 69.6641 121.762 69.6641C122.539 69.6641 123.312 69.6719 124.086 69.6758C124.879 69.6797 125.668 69.6836 126.461 69.6836C128.012 69.6914 129.562 69.6992 131.113 69.707C131.125 70.1133 131.137 70.5156 131.145 70.9219C131.148 71.0352 131.152 71.1523 131.156 71.2695C131.16 71.7734 131.148 72.1484 130.914 72.5977C129.793 73.5977 126.387 72.9961 125.945 72.9961C125.945 77.9609 125.945 82.9219 125.945 88.0352C124.859 88.0352 123.773 88.0352 122.656 88.0352C122.656 83.0742 122.656 78.1094 122.656 72.9961C120.949 72.9961 119.242 72.9961 117.484 72.9961C117.477 72.543 117.465 72.0859 117.457 71.6172C117.453 71.4727 117.445 71.332 117.441 71.1836C117.441 71.0703 117.441 70.957 117.438 70.8398C117.438 70.7266 117.434 70.6094 117.434 70.4883C117.484 70.1797 117.484 70.1797 117.645 69.9258C118.129 69.5859 118.645 69.6484 119.215 69.6562Z" fill="black"/>
<path d="M149.129 69.707C150.059 69.707 150.988 69.707 151.949 69.707C151.949 75.7578 151.949 81.8047 151.949 88.0352C150.863 88.0352 149.777 88.0352 148.656 88.0352C148.648 85.7383 148.637 83.4414 148.633 81.1445C148.633 80.0781 148.629 79.0117 148.621 77.9453C148.617 76.9141 148.613 75.8867 148.613 74.8594C148.613 74.4648 148.609 74.0703 148.609 73.6797C148.605 73.1289 148.605 72.5781 148.605 72.0312C148.602 71.8672 148.602 71.7031 148.598 71.5352C148.602 71.3867 148.602 71.2344 148.602 71.082C148.602 70.9531 148.602 70.8203 148.602 70.6875C148.656 70.3359 148.656 70.3359 149.129 69.707Z" fill="black"/>
<path d="M146.777 92.8906C147.258 93.1445 147.598 93.3672 147.934 93.793C148.086 94.3359 148.141 94.8437 148.031 95.3984C147.758 95.8711 147.43 96.2461 146.934 96.4961C146.34 96.5781 145.766 96.6289 145.23 96.332C144.785 95.9648 144.461 95.668 144.391 95.0859C144.371 94.4492 144.371 94.0859 144.703 93.5273C145.379 92.9102 145.851 92.7969 146.777 92.8906Z" fill="black"/>
<path d="M151.164 93.0469C151.633 93.3945 151.887 93.8242 152.094 94.3711C152.109 94.9414 152.012 95.3398 151.789 95.8672C151.297 96.3281 150.891 96.5352 150.223 96.5742C149.562 96.5352 149.156 96.3086 148.656 95.8672C148.293 95.3008 148.305 94.7813 148.406 94.1328C148.566 93.6289 148.879 93.3672 149.285 93.0469C149.941 92.8281 150.5 92.8594 151.164 93.0469Z" fill="black"/>
<path d="M130.172 109.809C130.672 110.09 130.883 110.313 131.172 110.797C131.344 111.539 131.238 112.102 130.859 112.758C130.379 113.199 130.035 113.313 129.391 113.414C128.738 113.313 128.402 113.203 127.922 112.746C127.629 112.254 127.523 111.953 127.512 111.375C127.98 109.922 128.719 109.598 130.172 109.809Z" fill="black"/>
</svg>
