<svg width="25" height="24" viewBox="0 0 25 24" fill="none" xmlns="http://www.w3.org/2000/svg">
<rect x="0.666504" width="24" height="24" rx="8" fill="#E9E6EF"/>
<path fill-rule="evenodd" clip-rule="evenodd" d="M5.9165 12C5.9165 8.27208 8.93858 5.25 12.6665 5.25C16.3945 5.25 19.4165 8.27208 19.4165 12V13C19.4165 14.3347 18.3345 15.4167 16.9998 15.4167C16.2045 15.4167 15.499 15.0325 15.0586 14.4396C14.4422 15.044 13.5979 15.4167 12.6665 15.4167C10.7795 15.4167 9.24984 13.8869 9.24984 12C9.24984 10.113 10.7795 8.58333 12.6665 8.58333C14.5534 8.58333 16.0832 10.113 16.0832 12V13C16.0832 13.5063 16.4936 13.9167 16.9998 13.9167C17.5061 13.9167 17.9165 13.5063 17.9165 13V12C17.9165 9.1005 15.566 6.75 12.6665 6.75C9.76701 6.75 7.4165 9.10051 7.4165 12C7.4165 14.8995 9.76701 17.25 12.6665 17.25H15.3332C15.7474 17.25 16.0832 17.5858 16.0832 18C16.0832 18.4142 15.7474 18.75 15.3332 18.75H12.6665C8.93859 18.75 5.9165 15.7279 5.9165 12ZM14.5832 12C14.5832 10.9415 13.725 10.0833 12.6665 10.0833C11.608 10.0833 10.7498 10.9415 10.7498 12C10.7498 13.0585 11.608 13.9167 12.6665 13.9167C13.725 13.9167 14.5832 13.0585 14.5832 12Z" fill="#1F1625"/>
</svg>
