<svg width="37" height="23" viewBox="0 0 37 23" fill="none" xmlns="http://www.w3.org/2000/svg">
<g clip-path="url(#clip0_2398_156)">
<path fill-rule="evenodd" clip-rule="evenodd" d="M13.0376 20.1191H22.6727V2.99219H13.0376V20.1191Z" fill="#FF5F00"/>
<path fill-rule="evenodd" clip-rule="evenodd" d="M13.6496 11.5554C13.6496 8.08075 15.2943 4.98612 17.8554 2.99192C15.9822 1.53326 13.619 0.663086 11.0502 0.663086C4.96907 0.663086 0.0395508 5.53981 0.0395508 11.5554C0.0395508 17.571 4.96907 22.4477 11.0502 22.4477C13.619 22.4477 15.9822 21.5775 17.8554 20.1189C15.2943 18.1244 13.6496 15.03 13.6496 11.5554Z" fill="#EB001B"/>
<path fill-rule="evenodd" clip-rule="evenodd" d="M35.327 18.305V17.8823H35.2154L35.0872 18.1731L34.9587 17.8823H34.8471V18.305H34.9257V17.9861L35.0462 18.2611H35.1279L35.2484 17.9855V18.305H35.327ZM34.6201 18.305V17.9543H34.7633V17.8829H34.3993V17.9543H34.5421V18.305H34.6201ZM35.6708 11.5554C35.6708 17.571 30.741 22.4477 24.6601 22.4477C22.0914 22.4477 19.7279 21.5775 17.855 20.1189C20.4161 18.1247 22.0608 15.03 22.0608 11.5554C22.0608 8.08105 20.4161 4.98642 17.855 2.99192C19.7279 1.53326 22.0914 0.663086 24.6601 0.663086C30.741 0.663086 35.6708 5.53981 35.6708 11.5554Z" fill="#F79E1B"/>
</g>
<defs>
<clipPath id="clip0_2398_156">
<rect width="36" height="21.816" fill="white" transform="translate(0.0395508 0.663086)"/>
</clipPath>
</defs>
</svg>
