<svg width="24" height="24" viewBox="0 0 24 24" fill="none" xmlns="http://www.w3.org/2000/svg">
<path d="M13.2803 7.00038C13.2803 7.00038 16.1503 6.77038 17.3603 7.57038C18.1502 8.05345 19.0979 8.20782 20.0003 8.00038" stroke="#FFF" stroke-width="1.5" stroke-linecap="round" stroke-linejoin="round"/>
<path d="M13.28 7.00013L13.79 4.18013C13.8165 4.03543 13.8107 3.88667 13.7731 3.74446C13.7355 3.60224 13.667 3.47007 13.5724 3.35738C13.4779 3.24468 13.3596 3.15424 13.2261 3.09249C13.0926 3.03073 12.9471 2.9992 12.8 3.00013H9.2C9.05206 2.99771 8.90543 3.02815 8.77067 3.08925C8.63592 3.15036 8.51641 3.2406 8.42075 3.35348C8.32509 3.46636 8.25567 3.59905 8.2175 3.742C8.17932 3.88495 8.17335 4.03459 8.2 4.18013L8.72 7.00013H13.28ZM11 21.0001C12.4171 21.0169 13.8289 20.8249 15.19 20.4301C16.0045 20.1763 16.7166 19.6687 17.2221 18.9815C17.7277 18.2942 18.0002 17.4633 18 16.6101C17.9905 15.5685 17.7443 14.5426 17.28 13.6101L14.28 7.61013C14.1961 7.4437 14.0674 7.30401 13.9084 7.20683C13.7494 7.10965 13.5664 7.05884 13.38 7.06013H8.62C8.43364 7.05884 8.25062 7.10965 8.09159 7.20683C7.93257 7.30401 7.80386 7.4437 7.72 7.61013L4.72 13.6101C4.25566 14.5426 4.00945 15.5685 4 16.6101C3.99976 17.4633 4.27232 18.2942 4.77787 18.9815C5.28342 19.6687 5.99546 20.1763 6.81 20.4301C8.1711 20.8249 9.58292 21.0169 11 21.0001Z" stroke="#FFF" stroke-width="1.5" stroke-linecap="round" stroke-linejoin="round"/>
</svg>
