<svg width="16" height="16" viewBox="0 0 16 16" fill="none" xmlns="http://www.w3.org/2000/svg">
<rect width="16" height="16" rx="4" fill="#4E1AC7"/>
<path d="M7.27273 3C6.07273 3 5.09091 3.96429 5.09091 5.14286V6.57143C4.47273 6.57143 4 7.03571 4 7.64286V9.78571C4 10.6429 4.32727 11.4643 4.94545 12.0714C5.56364 12.6786 6.4 13 7.27273 13C8.83636 13 10.1455 11.9286 10.4727 10.5H10.5455C10.9455 10.5 11.3091 10.3571 11.5636 10.0714C11.8545 9.78571 12 9.42857 12 9.07143C12 8.71429 11.8545 8.32143 11.5636 8.07143C11.2727 7.82143 10.9455 7.64286 10.5455 7.64286C10.5455 7.03571 10.0727 6.57143 9.45455 6.57143V5.14286C9.45455 3.96429 8.47273 3 7.27273 3ZM11.0545 8.57143C11.2 8.71429 11.2727 8.89286 11.2727 9.07143C11.2727 9.25 11.2 9.42857 11.0545 9.57143C10.8727 9.75 10.5818 9.82143 10.2909 9.75C10 9.64286 9.81818 9.39286 9.81818 9.07143C9.81818 8.89286 9.89091 8.71429 10.0364 8.57143C10.1091 8.5 10.2182 8.42857 10.3273 8.39286C10.4 8.35714 10.4727 8.35714 10.5455 8.35714C10.7273 8.35714 10.9091 8.42857 11.0545 8.57143ZM9.81818 7.64286V7.85714C9.70909 7.92857 9.6 8 9.52727 8.07143C9.34546 8.25 9.2 8.46429 9.16364 8.71429H5.81818C5.6 8.71429 5.45455 8.85714 5.45455 9.07143V9.78571C5.45455 10 5.6 10.1429 5.81818 10.1429C6.03636 10.1429 6.18182 10 6.18182 9.78571V9.42857H6.90909V9.78571C6.90909 10 7.05455 10.1429 7.27273 10.1429C7.49091 10.1429 7.63636 10 7.63636 9.78571V9.42857H9.12727C9.23636 9.78571 9.45455 10.0714 9.74545 10.2857C9.52727 11.4286 8.50909 12.2857 7.27273 12.2857C6.58182 12.2857 5.96364 12.0357 5.45455 11.5714C4.98182 11.1071 4.72727 10.4643 4.72727 9.78571V7.64286C4.72727 7.42857 4.87273 7.28571 5.09091 7.28571H9.45455C9.67273 7.28571 9.81818 7.42857 9.81818 7.64286ZM5.81818 6.57143V5.14286C5.81818 4.35714 6.47273 3.71429 7.27273 3.71429C8.07273 3.71429 8.72727 4.35714 8.72727 5.14286V6.57143H5.81818Z" fill="white"/>
</svg>
