<svg width="24" height="24" viewBox="0 0 24 24" fill="none" xmlns="http://www.w3.org/2000/svg">
<path d="M18.6932 13.6636L17.7694 12.1267C17.565 11.7915 17.3852 11.1457 17.3852 10.7532V9.22448C17.3852 6.25689 14.9735 3.84521 12.0141 3.84521C9.04652 3.85339 6.63485 6.25689 6.63485 9.22448V10.7451C6.63485 11.1375 6.45499 11.7833 6.25879 12.1185L5.335 13.6554C4.98346 14.2522 4.90171 14.9308 5.12244 15.5194C5.34317 16.1162 5.84186 16.5903 6.49587 16.8029C7.37879 17.0972 8.26988 17.3097 9.17733 17.4651C9.26725 17.4814 9.35718 17.4896 9.44711 17.5059C9.56156 17.5223 9.68419 17.5386 9.80681 17.555C10.0194 17.5877 10.2319 17.6122 10.4526 17.6286C10.9677 17.6776 11.4909 17.7021 12.0141 17.7021C12.5291 17.7021 13.0442 17.6776 13.551 17.6286C13.739 17.6122 13.9271 17.5959 14.1069 17.5713C14.2541 17.555 14.4012 17.5386 14.5484 17.5141C14.6383 17.5059 14.7282 17.4896 14.8182 17.4732C15.7338 17.3261 16.6412 17.0972 17.5241 16.8029C18.1536 16.5903 18.636 16.1162 18.8649 15.5112C19.0938 14.8981 19.0284 14.2277 18.6932 13.6636ZM12.6109 10.3445C12.6109 10.6878 12.3329 10.9658 11.9896 10.9658C11.6462 10.9658 11.3682 10.6878 11.3682 10.3445V7.81017C11.3682 7.46682 11.6462 7.18886 11.9896 7.18886C12.3329 7.18886 12.6109 7.46682 12.6109 7.81017V10.3445Z" fill="#4E1AC7"/>
<path d="M14.3094 18.5277C13.9661 19.476 13.0586 20.1546 11.9958 20.1546C11.35 20.1546 10.7123 19.893 10.2627 19.427C10.0011 19.1817 9.80488 18.8547 9.69043 18.5195C9.79671 18.5359 9.90298 18.5441 10.0174 18.5604C10.2055 18.5849 10.4017 18.6095 10.5979 18.6258C11.0639 18.6667 11.538 18.6912 12.0122 18.6912C12.4782 18.6912 12.9442 18.6667 13.402 18.6258C13.5736 18.6095 13.7453 18.6013 13.9088 18.5768C14.0396 18.5604 14.1704 18.5441 14.3094 18.5277Z" fill="#4E1AC7"/>
</svg>
