<svg width="40" height="40" viewBox="0 0 40 40" fill="none" xmlns="http://www.w3.org/2000/svg">
<g clip-path="url(#clip0_1031_2576)">
<rect y="0.00012207" width="40" height="40" rx="20" fill="#FB813E" fill-opacity="0.1"/>
<path d="M24.2853 26.8574H15.7139V28.5717H24.2853V26.8574Z" fill="#4E1AC7"/>
<path d="M22.5716 30.2858H17.4287V32.0001H22.5716V30.2858Z" fill="#4E1AC7"/>
<path d="M19.9999 8C17.7266 8 15.5464 8.90306 13.939 10.5105C12.3315 12.118 11.4284 14.2982 11.4284 16.5715C11.3705 17.8172 11.6091 19.0589 12.1247 20.1944C12.6403 21.3299 13.4181 22.3267 14.3942 23.1029C15.2513 23.9001 15.7142 24.3544 15.7142 25.1429H17.4285C17.4285 23.5658 16.477 22.6829 15.5513 21.8344C14.7502 21.2209 14.1117 20.4203 13.6918 19.5028C13.2719 18.5853 13.0834 17.5788 13.1427 16.5715C13.1427 14.7528 13.8652 13.0087 15.1512 11.7227C16.4371 10.4367 18.1813 9.71429 19.9999 9.71429C21.8185 9.71429 23.5627 10.4367 24.8487 11.7227C26.1346 13.0087 26.8571 14.7528 26.8571 16.5715C26.9155 17.5795 26.7256 18.5865 26.3042 19.5041C25.8828 20.4216 25.2426 21.2218 24.4399 21.8344C23.5228 22.6915 22.5714 23.5487 22.5714 25.1429H24.2856C24.2856 24.3544 24.7399 23.9001 25.6057 23.0944C26.581 22.3195 27.3585 21.3241 27.8741 20.1901C28.3897 19.0561 28.6287 17.8159 28.5714 16.5715C28.5714 15.4459 28.3497 14.3313 27.9189 13.2913C27.4882 12.2514 26.8568 11.3065 26.0609 10.5105C25.2649 9.71459 24.32 9.08322 23.2801 8.65246C22.2401 8.22171 21.1255 8 19.9999 8Z" fill="#FB813E"/>
</g>
<defs>
<clipPath id="clip0_1031_2576">
<rect y="0.00012207" width="40" height="40" rx="20" fill="white"/>
</clipPath>
</defs>
</svg>
