<svg width="40" height="40" viewBox="0 0 40 40" fill="none" xmlns="http://www.w3.org/2000/svg">
<path d="M33.0949 25C33.1921 25 33.2884 25.0041 33.3836 25.0121L33.0949 25C33.2271 25 33.3576 25.0075 33.4861 25.0222C33.549 25.0294 33.6118 25.0384 33.674 25.0491C33.7044 25.0543 33.7339 25.0597 33.7633 25.0656C33.8338 25.0795 33.9044 25.096 33.9743 25.1145C33.9906 25.1189 34.006 25.1231 34.0213 25.1274C35.5444 25.5555 36.6663 27.0152 36.6663 28.75C36.6663 30.8211 35.0674 32.5 33.0949 32.5C31.1225 32.5 29.5235 30.8211 29.5235 28.75C29.5235 27.2968 30.3107 26.0366 31.4619 25.4141L31.5164 25.3852C31.5736 25.3556 31.6315 25.3276 31.6903 25.3011L31.4619 25.4141C31.5596 25.3612 31.66 25.3129 31.7628 25.2695C31.8209 25.245 31.8793 25.2222 31.9385 25.201C31.9663 25.191 31.9947 25.1812 32.0232 25.1718C32.0731 25.1553 32.123 25.1401 32.1735 25.126C32.2123 25.1151 32.2513 25.105 32.2905 25.0955C32.348 25.0816 32.407 25.0689 32.4665 25.0579C32.4916 25.0532 32.5167 25.0488 32.5418 25.0447C32.6119 25.0333 32.6822 25.024 32.7531 25.017C32.7738 25.0149 32.7944 25.013 32.8151 25.0113C32.9072 25.0038 33.0006 25 33.0949 25ZM6.90444 25C7.00723 25 7.10902 25.0046 7.20961 25.0135L6.90444 25C7.03466 25 7.16326 25.0073 7.28988 25.0216C7.35597 25.029 7.42201 25.0384 7.48745 25.0497C7.52672 25.0565 7.56503 25.0638 7.60313 25.0717C7.66522 25.0847 7.72687 25.0993 7.78789 25.1156C7.82014 25.1242 7.8516 25.1331 7.88289 25.1425C7.97466 25.1698 8.06602 25.2014 8.15568 25.2366C8.16373 25.2398 8.17215 25.2431 8.18055 25.2465C8.26012 25.2785 8.33797 25.3132 8.41434 25.3506C8.42595 25.3563 8.43739 25.362 8.44881 25.3678C9.64834 25.9731 10.4759 27.2601 10.4759 28.75C10.4759 30.8211 8.87688 32.5 6.90444 32.5C4.93199 32.5 3.33301 30.8211 3.33301 28.75C3.33301 26.886 4.62827 25.3396 6.3253 25.0491C6.34895 25.045 6.37307 25.0411 6.39727 25.0375C6.40794 25.0359 6.41842 25.0344 6.42891 25.0329C6.58432 25.0112 6.74313 25 6.90444 25ZM25.766 18.75C26.3208 18.75 26.7705 19.2117 26.7705 19.7812C26.7705 19.94 26.7356 20.0903 26.6732 20.2246L26.6755 20.2295L21.4393 28.8299C21.344 29.0334 21.2172 29.2184 21.0653 29.3782C20.7004 29.7618 20.1911 30 19.6277 30C18.5182 30 17.6187 29.0766 17.6187 27.9375C17.6187 27.4242 17.8014 26.9547 18.1036 26.5937L18.1837 26.5067L18.1759 26.4997L25.1142 18.9899C25.2938 18.8411 25.5196 18.75 25.766 18.75ZM25.1804 11.25C30.022 13.2736 33.5339 18.0516 33.9741 23.7415C33.6885 23.686 33.3949 23.6574 33.0949 23.6574C32.5076 23.6574 31.9447 23.767 31.4237 23.9678C31.076 19.4161 28.3229 15.5761 24.4999 13.849C24.8705 13.199 25.1058 12.4524 25.1654 11.6535L25.1804 11.25ZM15.4888 10.9457C15.4831 11.0464 15.4803 11.1478 15.4803 11.25C15.4803 12.0958 15.6766 12.8934 16.0241 13.5953C11.8954 15.1688 8.8675 19.1572 8.4879 23.9358C7.99263 23.7553 7.45942 23.6574 6.90444 23.6574C6.57288 23.6574 6.24909 23.6923 5.93622 23.7589C6.36919 18.066 9.87915 13.2822 14.7196 11.2424L15.1312 11.0768L15.4888 10.9457ZM20.3304 7.5C22.1465 7.5 23.646 8.92336 23.8723 10.7656C23.8707 10.7649 23.8717 10.7655 23.8723 10.7656L23.8902 10.9453C23.8979 11.0458 23.9018 11.1474 23.9018 11.25C23.9018 11.352 23.8979 11.4531 23.8903 11.553L23.9018 11.25C23.9018 11.3867 23.8948 11.5216 23.8813 11.6545C23.8745 11.7203 23.8662 11.7852 23.8564 11.8495C23.8505 11.8877 23.8442 11.9256 23.8373 11.9632C23.8265 12.0221 23.8143 12.0806 23.8009 12.1386C23.7922 12.1764 23.783 12.2134 23.7733 12.2502C23.6961 12.5441 23.5856 12.8235 23.4464 13.0837C23.4362 13.1027 23.4259 13.1216 23.4155 13.1404C23.3778 13.208 23.3383 13.2741 23.2969 13.3388C23.2879 13.3529 23.279 13.3665 23.2702 13.38C22.6257 14.3587 21.5494 15 20.3304 15C18.8542 15 17.5872 14.0597 17.0431 12.7184C17.029 12.6825 17.015 12.6465 17.0015 12.6102C16.9854 12.5678 16.9705 12.5254 16.9564 12.4827C16.9418 12.4379 16.9276 12.3924 16.9142 12.3465C16.8723 12.203 16.8385 12.0554 16.8132 11.9048C16.8087 11.8779 16.8044 11.8506 16.8004 11.8231C16.7731 11.636 16.7589 11.4447 16.7589 11.25C16.7589 11.0313 16.7768 10.817 16.811 10.6086C16.814 10.5901 16.8171 10.5718 16.8204 10.5535C17.1313 8.81526 18.5846 7.5 20.3304 7.5Z" fill="#1F1625"/>
</svg>
