<svg width="144" height="80" viewBox="0 0 144 80" fill="none" xmlns="http://www.w3.org/2000/svg">
<rect x="66" y="2" width="76" height="76" rx="38" fill="#004956"/>
<rect x="66" y="2" width="76" height="76" rx="38" stroke="#F8F7FA" stroke-width="4"/>
<g clip-path="url(#clip0_388_1251)">
<path d="M119.752 45.6446L118.199 32.7037C117.782 29.2195 114.821 26.5912 111.312 26.5912H96.4876C92.9785 26.5912 90.0173 29.2195 89.5997 32.7037L88.0493 45.6446C87.8134 47.6129 88.4319 49.5926 89.7481 51.0753C91.0628 52.559 92.9545 53.4088 94.9371 53.4088H112.864C114.845 53.4088 116.737 52.559 118.053 51.0753C119.367 49.593 119.988 47.6133 119.752 45.6446ZM115.5 48.8263C114.795 49.6202 113.823 50.0569 112.764 50.0569H95.0376C93.9764 50.0569 93.004 49.6202 92.3014 48.8263C91.5969 48.0326 91.28 47.0158 91.4056 45.9621L92.9386 33.1663C93.1588 31.3301 94.7202 29.9432 96.5707 29.9432H111.229C113.079 29.9432 114.641 31.3297 114.861 33.1663L116.396 45.9621C116.521 47.0158 116.202 48.0326 115.5 48.8263Z" fill="white"/>
<path d="M112.807 41.6723C112.562 41.2982 112.188 41.0415 111.751 40.9496C111.313 40.8575 110.867 40.9414 110.493 41.1851C106.029 44.0964 101.686 44.096 97.2139 41.1847C96.8397 40.941 96.3926 40.8571 95.956 40.95C95.519 41.0423 95.1446 41.2994 94.9009 41.6735C94.6573 42.0478 94.5738 42.4945 94.6662 42.9316C94.7586 43.3687 95.0156 43.7432 95.3897 43.9869C98.1842 45.8064 101.033 46.7287 103.857 46.7287C106.682 46.7287 109.528 45.806 112.319 43.9861C112.693 43.742 112.95 43.3671 113.042 42.93C113.134 42.4933 113.051 42.0466 112.807 41.6723Z" fill="white"/>
</g>
<rect x="2" y="2" width="76" height="76" rx="38" fill="white"/>
<rect x="2" y="2" width="76" height="76" rx="38" stroke="#F8F7FA" stroke-width="4"/>
<g clip-path="url(#clip1_388_1251)">
<path d="M26.8591 32.6193C27.0022 32.6193 27.1546 32.6244 27.3378 32.6357L27.4134 32.6408L34.326 34.3262L32.6405 27.4141L32.636 27.3386C32.6242 27.157 32.6191 27.0042 32.6191 26.8593C32.6191 26.694 32.6259 26.5311 32.6371 26.3686C30.9793 26.1719 29.2515 26.7075 27.9795 27.9797C26.7079 29.2513 26.1722 30.9796 26.369 32.6369C26.5308 32.6266 26.6938 32.6193 26.8591 32.6193Z" fill="#AA2E89"/>
<path d="M52.6629 32.6357C52.8467 32.6244 52.9979 32.6193 53.1422 32.6193C53.3063 32.6193 53.4693 32.6266 53.6317 32.6374C53.8291 30.9796 53.2934 29.2512 52.0207 27.9797C50.7492 26.7076 49.0209 26.1719 47.363 26.3686C47.3738 26.5311 47.3817 26.694 47.3817 26.8593C47.3817 27.0064 47.3761 27.1638 47.3648 27.3402L47.3591 27.4147L45.6742 34.3262L52.5869 32.6408L52.6629 32.6357Z" fill="#AA2E89"/>
<path d="M53.1422 47.3812C52.9945 47.3812 52.841 47.3762 52.6601 47.3644L52.585 47.3593L45.6741 45.6744L47.359 52.5859L47.3646 52.6603C47.3759 52.8363 47.3816 52.9942 47.3816 53.1419C47.3816 53.3066 47.3737 53.469 47.3629 53.6314C49.0207 53.8287 50.749 53.2931 52.0206 52.0209C53.2921 50.7488 53.8278 49.0211 53.6311 47.3633C53.4692 47.3739 53.3063 47.3812 53.1422 47.3812Z" fill="#AA2E89"/>
<path d="M27.3406 47.3643C27.159 47.3761 27.0067 47.3812 26.8591 47.3812C26.6938 47.3812 26.5309 47.3744 26.369 47.3632C26.1722 49.021 26.7079 50.7488 27.9795 52.0209C29.2515 53.293 30.9793 53.8286 32.6371 53.6313C32.627 53.4689 32.6191 53.3065 32.6191 53.1419C32.6191 52.9958 32.6242 52.843 32.636 52.6609L32.6405 52.5858L34.326 45.6743L27.415 47.3593L27.3406 47.3643Z" fill="#AA2E89"/>
<path d="M51.3608 34.3606C51.2373 34.3606 51.115 34.3662 50.9931 34.3741L43.8961 36.1047L45.6261 29.0076C45.6346 28.8859 45.6391 28.7629 45.6391 28.64C45.6391 25.5251 43.114 23 40.0002 23C36.8859 23 34.3608 25.5251 34.3608 28.64C34.3608 28.7629 34.3664 28.8859 34.3738 29.0076L36.1038 36.1047L29.0079 34.3741C28.8855 34.3662 28.7638 34.3606 28.6397 34.3606C25.5253 34.3606 23.0002 36.8857 23.0002 40C23.0002 43.1149 25.5253 45.64 28.6397 45.64C28.7626 45.64 28.8855 45.6344 29.0079 45.6259L36.1038 43.8959L34.3738 50.993C34.3665 51.1148 34.3608 51.2371 34.3608 51.3606C34.3608 54.4749 36.8859 57 40.0002 57C43.114 57 45.6391 54.475 45.6391 51.3606C45.6391 51.2371 45.6345 51.1147 45.626 50.993L43.896 43.8959L50.9931 45.6259C51.1143 45.6344 51.2372 45.64 51.3608 45.64C54.4751 45.64 56.9996 43.115 56.9996 40C56.9996 36.8857 54.4757 34.3606 51.3608 34.3606ZM39.9996 43.1763C38.2454 43.1763 36.8233 41.7543 36.8233 40C36.8233 38.2452 38.2455 36.8231 39.9996 36.8231C41.7544 36.8231 43.1765 38.2453 43.1765 40C43.1765 41.7543 41.7544 43.1763 39.9996 43.1763Z" fill="#AA2E89"/>
</g>
<defs>
<clipPath id="clip0_388_1251">
<rect width="64" height="26.8387" fill="white" transform="translate(72 26.5807)"/>
</clipPath>
<clipPath id="clip1_388_1251">
<rect width="34" height="34" fill="white" transform="translate(23 23)"/>
</clipPath>
</defs>
</svg>
