<svg width="25" height="24" viewBox="0 0 25 24" fill="none" xmlns="http://www.w3.org/2000/svg">
<rect x="0.666504" width="24" height="24" rx="8" fill="#E9E6EF"/>
<path d="M16.1664 6.05029H9.16645C7.06648 6.05029 5.6665 7.10028 5.6665 9.55024V14.4502C5.6665 16.9001 7.06648 17.9501 9.16645 17.9501H16.1664C18.2663 17.9501 19.6663 16.9001 19.6663 14.4502V9.55024C19.6663 7.10028 18.2663 6.05029 16.1664 6.05029ZM16.4954 10.3132L14.3044 12.0632C13.8424 12.4342 13.2544 12.6162 12.6664 12.6162C12.0784 12.6162 11.4834 12.4342 11.0284 12.0632L8.83746 10.3132C8.61346 10.1312 8.57846 9.79524 8.75346 9.57124C8.93546 9.34725 9.26445 9.30525 9.48845 9.48724L11.6794 11.2372C12.2114 11.6642 13.1144 11.6642 13.6464 11.2372L15.8374 9.48724C16.0614 9.30525 16.3974 9.34025 16.5724 9.57124C16.7543 9.79524 16.7193 10.1312 16.4954 10.3132Z" fill="#1F1625"/>
</svg>
