<svg width="200" height="198" viewBox="0 0 200 198" fill="none" xmlns="http://www.w3.org/2000/svg">
<g clip-path="url(#clip0_388_1280)">
<path d="M168.475 0.373138H69.3434V99.5052H168.475V0.373138Z" fill="#F4F4F4"/>
<path d="M169.612 0.373138H168.475V99.5052H169.612V0.373138Z" fill="#F4F4F4"/>
<path opacity="0.05" d="M169.612 0.373138H168.475V99.5052H169.612V0.373138Z" fill="#1F1625"/>
<path opacity="0.05" d="M144.46 68.6833V42.747H123.215V57.8155H90.3052V84.4959H76.3182V99.5052H90.3052H92.9997H163.707V68.6833H144.46Z" fill="#1F1625"/>
<path opacity="0.34" d="M141.413 45.563H125.942V48.3791H141.413V45.563Z" fill="#FFFFFA"/>
<path opacity="0.34" d="M141.413 51.3987H125.942V54.2148H141.413V51.3987Z" fill="#FFFFFA"/>
<path opacity="0.34" d="M141.413 57.2343H125.942V60.0504H141.413V57.2343Z" fill="#FFFFFA"/>
<path opacity="0.34" d="M160.963 71.4168H158.112V74.2329H160.963V71.4168Z" fill="#FFFFFA"/>
<path opacity="0.34" d="M160.963 77.2524H158.112V80.0685H160.963V77.2524Z" fill="#FFFFFA"/>
<path opacity="0.34" d="M160.963 83.0878H158.112V85.9039H160.963V83.0878Z" fill="#FFFFFA"/>
<path opacity="0.34" d="M155.688 71.4168H152.836V74.2329H155.688V71.4168Z" fill="#FFFFFA"/>
<path opacity="0.34" d="M155.688 77.2524H152.836V80.0685H155.688V77.2524Z" fill="#FFFFFA"/>
<path opacity="0.34" d="M155.688 83.0878H152.836V85.9039H155.688V83.0878Z" fill="#FFFFFA"/>
<path opacity="0.34" d="M150.555 71.4168H147.704V74.2329H150.555V71.4168Z" fill="#FFFFFA"/>
<path opacity="0.34" d="M150.555 77.2524H147.704V80.0685H150.555V77.2524Z" fill="#FFFFFA"/>
<path opacity="0.34" d="M150.555 83.0878H147.704V85.9039H150.555V83.0878Z" fill="#FFFFFA"/>
<path d="M168.475 49.3831H148.529V0.373138H146.879V49.3831H92.9997V0.373138H91.3501V49.3831H69.3434V51.0327H91.3501V99.5052H92.9997V51.0327H146.879V99.5052H148.529V51.0327H168.475V49.3831Z" fill="white"/>
<path d="M172.425 99.3857H65.3943V102.682H172.425V99.3857Z" fill="#F4F4F4"/>
<path opacity="0.1" d="M172.425 99.3857H65.3943V102.682H172.425V99.3857Z" fill="#1F1625"/>
<path opacity="0.1" d="M173.97 99.3857H172.425V102.682H173.97V99.3857Z" fill="#1F1625"/>
<path opacity="0.1" d="M173.97 99.3857H172.425V102.682H173.97V99.3857Z" fill="#1F1625"/>
<path d="M169.612 2.14272H69.3434V4.59393H169.612V2.14272Z" fill="white"/>
<path d="M169.612 6.72104H69.3434V9.17226H169.612V6.72104Z" fill="white"/>
<path d="M169.612 11.2991H69.3434V13.7504H169.612V11.2991Z" fill="white"/>
<path d="M169.612 15.8774H69.3434V18.3287H169.612V15.8774Z" fill="white"/>
<path d="M169.612 20.4558H69.3434V22.907H169.612V20.4558Z" fill="white"/>
<path d="M158.962 0.373138H157.459V25.6713H158.962V0.373138Z" fill="white"/>
<path d="M158.338 29.3046C159.478 29.3046 160.402 28.3803 160.402 27.2402C160.402 26.1 159.478 25.1758 158.338 25.1758C157.198 25.1758 156.274 26.1 156.274 27.2402C156.274 28.3803 157.198 29.3046 158.338 29.3046Z" fill="white"/>
<path d="M197.105 197.627H0.160225C0.139184 197.627 0.118349 197.623 0.0989097 197.615C0.0794703 197.607 0.0618072 197.595 0.0469289 197.58C0.0320506 197.565 0.0202485 197.547 0.0121964 197.528C0.00414435 197.509 0 197.488 0 197.467C0 197.446 0.00414435 197.425 0.0121964 197.405C0.0202485 197.386 0.0320506 197.368 0.0469289 197.353C0.0618072 197.338 0.0794703 197.327 0.0989097 197.319C0.118349 197.311 0.139184 197.306 0.160225 197.306H197.104C197.147 197.306 197.188 197.323 197.218 197.353C197.248 197.383 197.265 197.424 197.265 197.467C197.265 197.509 197.248 197.55 197.218 197.58C197.188 197.61 197.147 197.627 197.104 197.627H197.105Z" fill="#1F1625"/>
<g opacity="0.65">
<path d="M197.105 197.627H0.160225C0.139184 197.627 0.118349 197.623 0.0989097 197.615C0.0794703 197.607 0.0618072 197.595 0.0469289 197.58C0.0320506 197.565 0.0202485 197.547 0.0121964 197.528C0.00414435 197.509 0 197.488 0 197.467C0 197.446 0.00414435 197.425 0.0121964 197.405C0.0202485 197.386 0.0320506 197.368 0.0469289 197.353C0.0618072 197.338 0.0794703 197.327 0.0989097 197.319C0.118349 197.311 0.139184 197.306 0.160225 197.306H197.104C197.147 197.306 197.188 197.323 197.218 197.353C197.248 197.383 197.265 197.424 197.265 197.467C197.265 197.509 197.248 197.55 197.218 197.58C197.188 197.61 197.147 197.627 197.104 197.627H197.105Z" fill="#1F1625"/>
</g>
<path d="M13.8717 197.345L13.4221 197.259L20.4482 127.439L20.8978 127.525L13.8717 197.345Z" fill="#1F1625"/>
<path d="M40.0337 197.345L39.5841 197.259L46.6102 127.439L47.0595 127.525L40.0337 197.345Z" fill="#1F1625"/>
<path d="M97.863 197.345L98.3126 197.259L91.2867 127.439L90.8372 127.525L97.863 197.345Z" fill="#1F1625"/>
<path d="M71.7013 197.345L72.1506 197.259L65.1247 127.439L64.6752 127.525L71.7013 197.345Z" fill="#1F1625"/>
<path d="M62.3833 96.7112L61.9296 96.7718L66.0341 127.513L66.4878 127.453L62.3833 96.7112Z" fill="#1F1625"/>
<path d="M15.2715 96.7108L14.8177 96.7714L18.9222 127.513L19.376 127.452L15.2715 96.7108Z" fill="#1F1625"/>
<path d="M66.4486 125.231H20.3679C19.1246 125.231 18.1167 126.239 18.1167 127.482V127.482C18.1167 128.726 19.1246 129.733 20.3679 129.733H66.4486C67.6919 129.733 68.6998 128.726 68.6998 127.482V127.482C68.6998 126.239 67.6919 125.231 66.4486 125.231Z" fill="#1F1625"/>
<path opacity="0.8" d="M66.4486 125.231H20.3679C19.1246 125.231 18.1167 126.239 18.1167 127.482V127.482C18.1167 128.726 19.1246 129.733 20.3679 129.733H66.4486C67.6919 129.733 68.6998 128.726 68.6998 127.482V127.482C68.6998 126.239 67.6919 125.231 66.4486 125.231Z" fill="white"/>
<path d="M66.4477 129.962H20.3678C19.7142 129.956 19.0894 129.692 18.6294 129.228C18.1694 128.763 17.9114 128.136 17.9114 127.482C17.9114 126.829 18.1694 126.201 18.6294 125.737C19.0894 125.272 19.7142 125.008 20.3678 125.002H66.4477C67.1013 125.008 67.7261 125.272 68.1861 125.737C68.6461 126.201 68.9042 126.829 68.9042 127.482C68.9042 128.136 68.6461 128.763 68.1861 129.228C67.7261 129.692 67.1013 129.956 66.4477 129.962ZM20.3678 125.46C19.8352 125.465 19.3263 125.681 18.9516 126.06C18.577 126.438 18.3669 126.95 18.3669 127.482C18.3669 128.015 18.577 128.526 18.9516 128.905C19.3263 129.283 19.8352 129.499 20.3678 129.505H66.4477C66.9803 129.499 67.4892 129.283 67.8639 128.905C68.2385 128.526 68.4487 128.015 68.4487 127.482C68.4487 126.95 68.2385 126.438 67.8639 126.06C67.4892 125.681 66.9803 125.465 66.4477 125.46H20.3678Z" fill="#1F1625"/>
<path d="M91.7401 125.231H45.6594C44.4161 125.231 43.4082 126.239 43.4082 127.482V127.482C43.4082 128.726 44.4161 129.733 45.6594 129.733H91.7401C92.9834 129.733 93.9913 128.726 93.9913 127.482V127.482C93.9913 126.239 92.9834 125.231 91.7401 125.231Z" fill="white"/>
<path d="M91.7404 129.962H45.6596C45.3319 129.966 45.0068 129.904 44.7032 129.78C44.3995 129.657 44.1233 129.475 43.8904 129.244C43.6576 129.014 43.4727 128.739 43.3466 128.437C43.2205 128.134 43.1555 127.81 43.1555 127.482C43.1555 127.154 43.2205 126.83 43.3466 126.528C43.4727 126.225 43.6576 125.951 43.8904 125.72C44.1233 125.489 44.3995 125.307 44.7032 125.184C45.0068 125.061 45.3319 124.999 45.6596 125.002H91.7404C92.0681 124.999 92.3932 125.061 92.6969 125.184C93.0005 125.307 93.2768 125.489 93.5096 125.72C93.7425 125.951 93.9273 126.225 94.0534 126.528C94.1796 126.83 94.2445 127.154 94.2445 127.482C94.2445 127.81 94.1796 128.134 94.0534 128.437C93.9273 128.739 93.7425 129.014 93.5096 129.244C93.2768 129.475 93.0005 129.657 92.6969 129.78C92.3932 129.904 92.0681 129.966 91.7404 129.962ZM45.6596 125.46C45.3922 125.457 45.1269 125.507 44.8791 125.608C44.6312 125.708 44.4057 125.856 44.2156 126.045C44.0255 126.233 43.8746 126.456 43.7716 126.703C43.6686 126.95 43.6156 127.215 43.6156 127.482C43.6156 127.75 43.6686 128.014 43.7716 128.261C43.8746 128.508 44.0255 128.732 44.2156 128.92C44.4057 129.108 44.6312 129.257 44.8791 129.357C45.1269 129.457 45.3922 129.507 45.6596 129.505H91.7404C92.0078 129.507 92.2731 129.457 92.521 129.357C92.7688 129.257 92.9943 129.108 93.1844 128.92C93.3745 128.732 93.5254 128.508 93.6284 128.261C93.7314 128.014 93.7844 127.75 93.7844 127.482C93.7844 127.215 93.7314 126.95 93.6284 126.703C93.5254 126.456 93.3745 126.233 93.1844 126.045C92.9943 125.856 92.7688 125.708 92.521 125.608C92.2731 125.507 92.0078 125.457 91.7404 125.46H45.6596Z" fill="#1F1625"/>
<path d="M59.8591 96.7408H15.1684C14.4377 96.7408 13.732 96.4749 13.1831 95.9928C12.6341 95.5107 12.2793 94.8452 12.185 94.1207L9.22882 71.4191C9.17354 70.9947 9.20942 70.5634 9.33407 70.1541C9.45872 69.7447 9.66926 69.3666 9.95165 69.0451C10.234 68.7235 10.5818 68.4659 10.9716 68.2895C11.3615 68.113 11.7845 68.0218 12.2124 68.0218H56.9029C57.6336 68.0218 58.3392 68.2877 58.8882 68.7698C59.4372 69.252 59.792 69.9174 59.8863 70.642L62.8425 93.3436C62.8977 93.7679 62.8618 94.1991 62.7372 94.6085C62.6125 95.0178 62.402 95.3959 62.1196 95.7174C61.8373 96.0389 61.4896 96.2965 61.0998 96.473C60.71 96.6495 60.287 96.7408 59.8591 96.7408Z" fill="#1F1625"/>
<path opacity="0.8" d="M59.8591 96.7408H15.1684C14.4377 96.7408 13.732 96.4749 13.1831 95.9928C12.6341 95.5107 12.2793 94.8452 12.185 94.1207L9.22882 71.4191C9.17354 70.9947 9.20942 70.5634 9.33407 70.1541C9.45872 69.7447 9.66926 69.3666 9.95165 69.0451C10.234 68.7235 10.5818 68.4659 10.9716 68.2895C11.3615 68.113 11.7845 68.0218 12.2124 68.0218H56.9029C57.6336 68.0218 58.3392 68.2877 58.8882 68.7698C59.4372 69.252 59.792 69.9174 59.8863 70.642L62.8425 93.3436C62.8977 93.7679 62.8618 94.1991 62.7372 94.6085C62.6125 95.0178 62.402 95.3959 62.1196 95.7174C61.8373 96.0389 61.4896 96.2965 61.0998 96.473C60.71 96.6495 60.287 96.7408 59.8591 96.7408Z" fill="white"/>
<path d="M59.8591 96.9697H15.1683C14.3827 96.968 13.6243 96.6813 13.0339 96.1629C12.4435 95.6445 12.0612 94.9295 11.9579 94.1507L9.00173 71.449C8.94225 70.9924 8.98086 70.5284 9.11499 70.0879C9.24911 69.6474 9.47566 69.2405 9.77952 68.8945C10.0834 68.5486 10.4575 68.2714 10.877 68.0815C11.2965 67.8916 11.7517 67.7934 12.2122 67.7934H56.9029C57.6887 67.7952 58.4472 68.0819 59.0376 68.6005C59.6281 69.119 60.0104 69.8341 60.1136 70.6131L63.0697 93.3145C63.1291 93.7711 63.0905 94.2352 62.9563 94.6757C62.8221 95.1162 62.5956 95.523 62.2917 95.869C61.9878 96.2149 61.6137 96.4921 61.1942 96.682C60.7747 96.8719 60.3195 96.9702 59.8591 96.9702V96.9697ZM12.2122 68.2507C11.8168 68.2507 11.426 68.3351 11.0659 68.4981C10.7057 68.6612 10.3844 68.8992 10.1236 69.1963C9.8627 69.4933 9.6682 69.8426 9.55306 70.2208C9.43791 70.5991 9.40478 70.9975 9.45586 71.3895L12.4118 94.0912C12.5005 94.7599 12.8287 95.3738 13.3356 95.819C13.8425 96.2642 14.4937 96.5104 15.1683 96.5119H59.8591C60.2545 96.5119 60.6454 96.4276 61.0056 96.2645C61.3658 96.1014 61.6871 95.8633 61.948 95.5662C62.2089 95.269 62.4034 94.9197 62.5185 94.5414C62.6337 94.1631 62.6668 93.7645 62.6156 93.3724L59.6595 70.671C59.5708 70.0023 59.2425 69.3885 58.7356 68.9434C58.2286 68.4983 57.5775 68.2522 56.9029 68.2507H12.2122Z" fill="#1F1625"/>
<path d="M62.3862 96.7408H17.6955C16.9648 96.7408 16.2591 96.475 15.7101 95.9928C15.1611 95.5107 14.8063 94.8452 14.7119 94.1207L11.7557 71.4191C11.7005 70.9947 11.7365 70.5635 11.8611 70.1541C11.9858 69.7448 12.1964 69.3667 12.4787 69.0452C12.7611 68.7237 13.1088 68.4661 13.4986 68.2896C13.8885 68.1132 14.3114 68.0219 14.7394 68.0218H59.4301C60.1607 68.0218 60.8664 68.2877 61.4155 68.7698C61.9645 69.252 62.3193 69.9174 62.4137 70.642L65.3698 93.3436C65.425 93.7679 65.3891 94.1991 65.2644 94.6085C65.1398 95.0178 64.9292 95.3959 64.6468 95.7174C64.3645 96.0389 64.0168 96.2965 63.6269 96.473C63.2371 96.6495 62.8141 96.7408 62.3862 96.7408Z" fill="white"/>
<path d="M62.3863 96.9697H17.6956C16.9099 96.968 16.1515 96.6813 15.5611 96.1629C14.9707 95.6445 14.5884 94.9296 14.4851 94.1507L11.529 71.449C11.4695 70.9924 11.5081 70.5284 11.6422 70.0879C11.7763 69.6474 12.0029 69.2405 12.3067 68.8945C12.6106 68.5486 12.9848 68.2714 13.4043 68.0815C13.8238 67.8916 14.2789 67.7934 14.7394 67.7934H59.4301C60.2159 67.7951 60.9744 68.0819 61.5648 68.6004C62.1552 69.119 62.5374 69.8341 62.6406 70.6131L65.5967 93.3145C65.6562 93.7711 65.6176 94.2352 65.4835 94.6757C65.3493 95.1162 65.1228 95.523 64.8189 95.869C64.5151 96.215 64.1409 96.4922 63.7214 96.6821C63.3019 96.872 62.8467 96.9702 62.3863 96.9702V96.9697ZM14.7394 68.2507C14.344 68.2507 13.9532 68.3351 13.5931 68.4981C13.2329 68.6612 12.9116 68.8992 12.6507 69.1962C12.3898 69.4933 12.1953 69.8426 12.0801 70.2208C11.965 70.599 11.9318 70.9975 11.9828 71.3895L14.939 94.0912C15.0276 94.76 15.3558 95.3739 15.8628 95.8191C16.3697 96.2643 17.0209 96.5105 17.6956 96.5119H62.3863C62.7817 96.512 63.1726 96.4276 63.5329 96.2646C63.8931 96.1015 64.2145 95.8634 64.4754 95.5663C64.7363 95.2691 64.9308 94.9197 65.046 94.5414C65.1611 94.1631 65.1942 93.7646 65.1431 93.3724L62.1869 70.671C62.0983 70.0022 61.7701 69.3882 61.2632 68.943C60.7562 68.4978 60.105 68.2516 59.4303 68.25L14.7394 68.2507Z" fill="#1F1625"/>
<path d="M125.415 185.668C125.415 185.668 126.643 192.03 132.599 192.384C138.555 192.738 137.264 197.484 137.264 197.484H114.502V186.112L125.415 185.668Z" fill="#FB813E"/>
<path d="M82.1116 181.651C82.1116 181.651 80.4047 187.901 85.593 190.849C90.7813 193.796 87.5276 197.484 87.5276 197.484L67.103 187.435L72.1229 177.231L82.1116 181.651Z" fill="#FB813E"/>
<path d="M63.7832 33.4139C63.7832 33.4139 66.7529 31.1723 67.4888 26.0126C68.0585 22.0175 64.3733 24.6056 64.3733 24.6056C64.3733 24.6056 64.7555 21.7252 62.6566 22.0109C60.5576 22.2965 59.3834 25.3229 59.3834 25.3229" fill="#1F1625"/>
<path d="M51.8096 22.348C51.8096 22.348 41.3961 23.4646 45.1605 37.5754L46.082 37.6369L47.9525 37.7624" fill="#1F1625"/>
<path d="M62.039 52.312C61.9933 52.306 61.4851 60.7352 51.6917 60.0009C44.9119 59.4933 42.4945 52.3001 42.3391 52.3001C43.0702 52.1446 43.9734 51.9089 44.3325 51.8279C45.1149 51.6462 45.8235 51.2307 46.364 50.6365C46.9044 50.0423 47.2512 49.2977 47.358 48.5016C47.5565 47.3068 47.2207 41.1935 47.3235 39.9845L57.7306 42.3075C57.5852 44.8608 56.5673 50.7802 60.134 51.8279C60.7284 52.0011 61.3677 52.1604 62.039 52.312Z" fill="#F1B7A0"/>
<path opacity="0.52" d="M57.8768 49.4087C57.7139 48.8834 57.6089 48.3418 57.5637 47.7936C57.4495 46.5426 57.4725 45.2828 57.6324 44.0368C55.5171 43.7513 53.5244 42.8782 51.8805 41.5167C51.6874 42.2304 50.6246 45.3488 50.9192 46.0273C51.4742 47.3093 54.0875 49.4087 57.8768 49.4087Z" fill="#1F1625"/>
<path d="M55.7288 47.7403C51.623 47.372 46.7088 44.7779 46.6381 39.2046L46.574 34.1761C46.5033 28.6027 49.3729 24.0475 54.6205 23.9809C59.8679 23.9141 63.8477 28.3823 63.9184 33.9554L63.9468 36.1816C63.9431 36.9462 63.8874 37.7097 63.7799 38.4667C63.5107 40.4695 63.0933 43.5144 61.7343 45.5745C60.4507 47.5189 58.3517 47.9756 55.7288 47.7403Z" fill="#F1B7A0"/>
<path d="M57.6338 42.646C58.481 42.6845 59.3255 42.5232 60.0989 42.1752C60.1149 42.1684 60.1294 42.1585 60.1416 42.1461C60.1537 42.1336 60.1633 42.1189 60.1698 42.1028C60.1763 42.0867 60.1795 42.0694 60.1794 42.052C60.1792 42.0347 60.1756 42.0175 60.1688 42.0015C60.1619 41.9855 60.152 41.971 60.1396 41.9588C60.1272 41.9467 60.1125 41.9371 60.0963 41.9306C60.0802 41.9241 60.063 41.9209 60.0456 41.9211C60.0282 41.9212 60.011 41.9248 59.995 41.9317C58.3287 42.6424 56.8155 42.5382 55.6193 41.6307C55.5951 41.6116 55.57 41.5938 55.544 41.5773C55.5139 41.5634 55.4797 41.5613 55.4481 41.5713C55.4165 41.5813 55.3899 41.6028 55.3734 41.6315C55.3568 41.6603 55.3517 41.6941 55.3589 41.7265C55.3661 41.7588 55.3852 41.7873 55.4123 41.8062C55.422 41.8122 55.4373 41.8243 55.4581 41.841C56.087 42.32 56.8446 42.6003 57.6338 42.646Z" fill="#1F1625"/>
<path d="M57.5942 43.9015C57.7473 43.9111 57.9009 43.9074 58.0534 43.8905C58.0883 43.8868 58.1203 43.8694 58.1423 43.8421C58.1644 43.8148 58.1747 43.7799 58.171 43.745C58.1673 43.7101 58.1499 43.6781 58.1226 43.656C58.0953 43.6339 58.0603 43.6236 58.0254 43.6273C57.1083 43.7248 56.6706 43.3046 56.6521 43.2865C56.627 43.2628 56.5937 43.2498 56.5592 43.2503C56.5247 43.2507 56.4917 43.2646 56.4673 43.289C56.4429 43.3134 56.429 43.3463 56.4285 43.3808C56.428 43.4153 56.4409 43.4486 56.4646 43.4737C56.7805 43.7424 57.1796 43.8936 57.5942 43.9015Z" fill="#1F1625"/>
<path d="M62.1856 37.2533C62.5426 37.2533 62.832 36.9639 62.832 36.6069C62.832 36.2499 62.5426 35.9605 62.1856 35.9605C61.8286 35.9605 61.5392 36.2499 61.5392 36.6069C61.5392 36.9639 61.8286 37.2533 62.1856 37.2533Z" fill="#1F1625"/>
<path d="M55.8708 36.8571C56.2278 36.8571 56.5172 36.5677 56.5172 36.2107C56.5172 35.8537 56.2278 35.5643 55.8708 35.5643C55.5138 35.5643 55.2244 35.8537 55.2244 36.2107C55.2244 36.5677 55.5138 36.8571 55.8708 36.8571Z" fill="#1F1625"/>
<path d="M46.9856 40.8984C45.3909 40.9188 44.0766 39.2291 44.0558 37.6344C44.035 36.0397 45.317 35.1441 46.9117 35.1237L47.7469 36.1816L48.3562 40.881L46.9856 40.8984Z" fill="#F1B7A0"/>
<path d="M48.5711 38.336C48.5711 38.336 49.1097 30.4499 51.501 29.9631C53.0936 29.6387 56.9557 31.8977 60.5329 31.2154C62.0981 30.9178 63.5838 31.3044 63.7349 32.0435C63.7946 32.3362 64.7697 28.1294 62.3189 24.9377C60.3676 22.397 53.982 21.6783 51.0768 22.5115C43.0329 24.8192 46.5825 35.4709 46.5825 35.4709L46.9412 38.1895L48.5711 38.336Z" fill="#1F1625"/>
<path d="M58.5966 40.7849C58.6001 40.7851 58.6035 40.7851 58.6069 40.7849C59.1208 40.7797 59.9821 40.7137 59.9787 40.3292C59.9752 40.0106 59.0688 36.5811 58.9651 36.191C58.9537 36.1606 58.9314 36.1356 58.9025 36.1207C58.8736 36.1059 58.8403 36.1023 58.8089 36.1106C58.7775 36.119 58.7504 36.1387 58.7327 36.166C58.715 36.1932 58.7082 36.2261 58.7134 36.2581C59.116 37.777 59.7157 40.1154 59.7182 40.3324C59.6685 40.424 59.1377 40.518 58.6055 40.5235C58.572 40.5242 58.54 40.5378 58.5162 40.5615C58.4923 40.5851 58.4785 40.617 58.4775 40.6505C58.4765 40.6841 58.4884 40.7167 58.5108 40.7417C58.5332 40.7668 58.5643 40.7822 58.5978 40.7849H58.5966Z" fill="#1F1625"/>
<path d="M60.3509 33.1021C60.891 32.9535 61.4612 32.9535 62.0012 33.1021C62.2666 33.1734 62.5197 33.2842 62.752 33.4308C62.9817 33.5743 63.1924 33.7463 63.379 33.9426C63.4147 33.9773 63.4355 34.0245 63.4368 34.0743C63.4382 34.124 63.42 34.1724 63.3861 34.2089C63.3523 34.2454 63.3055 34.2672 63.2557 34.2696C63.206 34.272 63.1573 34.2549 63.1201 34.2219L63.1084 34.2118C62.9356 34.0519 62.7433 33.9143 62.5362 33.8023C62.3329 33.691 62.114 33.6111 61.8868 33.5654C61.4396 33.4714 60.9755 33.4973 60.5416 33.6405L60.5233 33.6469C60.4517 33.6722 60.373 33.668 60.3044 33.6353C60.2359 33.6026 60.1832 33.544 60.1579 33.4724C60.1325 33.4008 60.1367 33.322 60.1694 33.2535C60.2022 33.185 60.2608 33.1322 60.3324 33.1069L60.3509 33.1021Z" fill="#1F1625"/>
<path d="M56.5266 33.4265C56.1157 33.2267 55.6593 33.1392 55.2036 33.1726C54.9723 33.1877 54.7447 33.2377 54.5284 33.3209C54.3085 33.4044 54.0999 33.5152 53.9076 33.6505L53.8953 33.6588C53.854 33.6852 53.8041 33.6948 53.7559 33.6854C53.7078 33.676 53.6651 33.6485 53.6368 33.6085C53.6084 33.5685 53.5966 33.5191 53.6037 33.4705C53.6108 33.422 53.6364 33.3781 53.6751 33.3479C53.8862 33.1783 54.1179 33.0358 54.3647 32.924C54.6146 32.8099 54.8802 32.7338 55.1526 32.6983C55.4254 32.66 55.7022 32.6593 55.9752 32.6963C56.2554 32.7311 56.5292 32.8057 56.7885 32.9176C56.8583 32.948 56.9132 33.0048 56.9411 33.0756C56.969 33.1465 56.9676 33.2255 56.9372 33.2953C56.9069 33.3651 56.85 33.42 56.7792 33.4479C56.7084 33.4758 56.6294 33.4744 56.5596 33.4441C56.5543 33.4418 56.5488 33.4393 56.5438 33.4365L56.5266 33.4265Z" fill="#1F1625"/>
<path d="M59.5825 27.6732C60.7628 27.4266 61.4255 25.8183 61.0625 24.0809C60.6995 22.3436 59.4484 21.1351 58.268 21.3817C57.0876 21.6284 56.425 23.2367 56.788 24.974C57.151 26.7114 58.4021 27.9198 59.5825 27.6732Z" fill="#1F1625"/>
<path d="M69.4613 179.886L86.6852 125.549H55.4642C49.1925 125.549 46.5781 120.231 46.5781 113.959C46.5781 107.688 52.7436 102.191 59.0148 102.191H101.152C104.977 102.191 109.266 104.53 111.365 107.727C113.465 110.925 112.897 115.88 111.376 119.39L83.7943 186.379" fill="#1F1625"/>
<path opacity="0.8" d="M69.4613 179.886L86.6852 125.549H55.4642C49.1925 125.549 46.5781 120.231 46.5781 113.959C46.5781 107.688 52.7436 102.191 59.0148 102.191H101.152C104.977 102.191 109.266 104.53 111.365 107.727C113.465 110.925 112.897 115.88 111.376 119.39L83.7943 186.379" fill="black"/>
<path d="M113.193 191.576L84.393 125.549L46.5778 125.546C37.7171 124.852 33.659 119.996 33.7881 113.726C33.9154 107.535 37.0499 101.421 43.2124 101.421H94.1805C98.74 101.515 102.327 106.553 104.019 110.788L127.961 187.534" fill="#1F1625"/>
<path d="M31.2089 101.497C31.2089 101.497 29.5295 112.448 32.1916 118.537C35.5149 126.139 47.9731 125.547 47.9731 125.547L47.271 101.421L31.2089 101.497Z" fill="#1F1625"/>
<path d="M105.102 101.281L78.3904 95.7463C77.2774 95.5157 76.2404 95.008 75.3756 94.2703C74.5107 93.5326 73.8459 92.5887 73.4427 91.526L62.9365 63.8406C62.6166 63.0097 62.464 62.1238 62.4875 61.2338C62.5109 60.3438 62.71 59.4672 63.0733 58.6543C63.4366 57.8414 63.9569 57.1083 64.6043 56.4972C65.2517 55.886 66.0135 55.4087 66.846 55.0928C67.6784 54.7769 68.565 54.6286 69.4549 54.6564C70.3448 54.6841 71.2205 54.8875 72.0316 55.2546C72.8427 55.6218 73.5732 56.1457 74.1813 56.796C74.7894 57.4464 75.2629 58.2105 75.5748 59.0444L84.7653 83.2613L107.846 88.0438C107.846 88.0438 105.566 101.377 105.102 101.281Z" fill="#FB813E"/>
<path d="M74.2072 70.8722C73.8989 74.4963 71.7123 97.1057 71.4147 101.57H31.2266C30.9956 97.5435 29.9587 79.9391 29.0832 72.0652C28.2473 64.5527 27.0756 61.134 28.0383 58.7993C29.7362 54.6817 35.1409 52.8428 38.8009 52.3474C41.0356 52.0448 44.3969 51.8279 44.3969 51.8279C44.3969 51.8279 44.6816 57.5852 51.4678 57.9056C60.7057 58.3405 60.0888 51.8279 60.1346 51.8279C61.6311 51.8279 69.7774 52.9162 71.8144 54.2438C74.6916 56.1191 75.5417 58.6745 75.5753 61.0225C75.614 63.7257 74.557 66.7611 74.2072 70.8722Z" fill="#FB813E"/>
<path d="M72.6278 89.3455H72.6182C72.6032 89.3443 72.5886 89.3401 72.5752 89.3332C72.5619 89.3263 72.55 89.3169 72.5403 89.3054C72.5306 89.2939 72.5232 89.2806 72.5186 89.2663C72.514 89.252 72.5123 89.2369 72.5136 89.2219L73.5569 76.6891C73.5577 76.674 73.5616 76.6592 73.5684 76.6457C73.5751 76.6321 73.5845 76.6201 73.5961 76.6103C73.6076 76.6005 73.621 76.5932 73.6355 76.5887C73.65 76.5843 73.6652 76.5828 73.6803 76.5845C73.6952 76.5857 73.7098 76.5899 73.7232 76.5968C73.7366 76.6037 73.7485 76.6131 73.7582 76.6246C73.7679 76.6361 73.7752 76.6494 73.7798 76.6637C73.7844 76.678 73.7861 76.6931 73.7849 76.7081L72.7416 89.2409C72.7391 89.2694 72.7261 89.2959 72.705 89.3153C72.684 89.3347 72.6564 89.3454 72.6278 89.3455Z" fill="#1F1625"/>
<path d="M79.0888 99.084L87.9067 71.9778C88.0617 71.5015 88.3634 71.0864 88.7687 70.7921C89.174 70.4977 89.662 70.3392 90.1629 70.3391H126.088C126.463 70.3391 126.832 70.4278 127.165 70.5978C127.499 70.7678 127.788 71.0144 128.008 71.3174C128.228 71.6205 128.373 71.9713 128.432 72.3412C128.49 72.7111 128.46 73.0896 128.344 73.4457L119.526 100.552C119.372 101.028 119.07 101.443 118.664 101.738C118.259 102.032 117.771 102.191 117.27 102.191H81.345C80.9705 102.191 80.6014 102.102 80.2677 101.932C79.934 101.762 79.6453 101.515 79.4253 101.212C79.2052 100.909 79.06 100.558 79.0015 100.189C78.943 99.8186 78.973 99.4401 79.0888 99.084Z" fill="#1F1625"/>
<path opacity="0.2" d="M79.0888 99.084L87.9067 71.9778C88.0617 71.5015 88.3634 71.0864 88.7687 70.7921C89.174 70.4977 89.662 70.3392 90.1629 70.3391H126.088C126.463 70.3391 126.832 70.4278 127.165 70.5978C127.499 70.7678 127.788 71.0144 128.008 71.3174C128.228 71.6205 128.373 71.9713 128.432 72.3412C128.49 72.7111 128.46 73.0896 128.344 73.4457L119.526 100.552C119.372 101.028 119.07 101.443 118.664 101.738C118.259 102.032 117.771 102.191 117.27 102.191H81.345C80.9705 102.191 80.6014 102.102 80.2677 101.932C79.934 101.762 79.6453 101.515 79.4253 101.212C79.2052 100.909 79.06 100.558 79.0015 100.189C78.943 99.8186 78.973 99.4401 79.0888 99.084Z" fill="white"/>
<path d="M86.2821 99.9927H62.2336C61.6344 99.9927 61.1487 100.478 61.1487 101.078V101.106C61.1487 101.705 61.6344 102.191 62.2336 102.191H86.2821C86.8813 102.191 87.367 101.705 87.367 101.106V101.078C87.367 100.478 86.8813 99.9927 86.2821 99.9927Z" fill="#1F1625"/>
<path opacity="0.2" d="M86.2821 99.9927H62.2336C61.6344 99.9927 61.1487 100.478 61.1487 101.078V101.106C61.1487 101.705 61.6344 102.191 62.2336 102.191H86.2821C86.8813 102.191 87.367 101.705 87.367 101.106V101.078C87.367 100.478 86.8813 99.9927 86.2821 99.9927Z" fill="white"/>
<path d="M103.717 91.355C105.798 91.355 107.484 89.6681 107.484 87.5871C107.484 85.5062 105.798 83.8193 103.717 83.8193C101.636 83.8193 99.9489 85.5062 99.9489 87.5871C99.9489 89.6681 101.636 91.355 103.717 91.355Z" fill="white"/>
<path d="M74.5714 65.8196H65.0186V77.5353H74.5714V65.8196Z" fill="white"/>
<path d="M65.0186 75.5893C64.2449 75.5893 63.4885 75.3598 62.8452 74.93C62.2019 74.5001 61.7004 73.8891 61.4044 73.1743C61.1083 72.4595 61.0308 71.6729 61.1817 70.914C61.3327 70.1552 61.7053 69.4581 62.2524 68.911C62.7995 68.3639 63.4965 67.9913 64.2554 67.8404C65.0142 67.6895 65.8008 67.7669 66.5156 68.063C67.2305 68.3591 67.8414 68.8605 68.2713 69.5038C68.7012 70.1472 68.9306 70.9035 68.9306 71.6772C68.9294 72.7144 68.5169 73.7088 67.7835 74.4422C67.0501 75.1756 66.0558 75.5881 65.0186 75.5893ZM65.0186 69.3677C64.5617 69.3677 64.1152 69.5032 63.7353 69.757C63.3555 70.0108 63.0594 70.3716 62.8846 70.7936C62.7098 71.2157 62.6641 71.6801 62.7532 72.1282C62.8424 72.5762 63.0624 72.9878 63.3854 73.3108C63.7085 73.6338 64.12 73.8538 64.5681 73.9429C65.0162 74.032 65.4806 73.9862 65.9027 73.8113C66.3247 73.6365 66.6854 73.3404 66.9392 72.9605C67.193 72.5807 67.3284 72.1341 67.3283 71.6772C67.3277 71.0649 67.0842 70.4777 66.6511 70.0447C66.2181 69.6117 65.631 69.3683 65.0186 69.3677Z" fill="white"/>
<path d="M65.5695 73.4129C65.4825 73.1867 65.3185 72.9982 65.1065 72.8807C64.8944 72.7631 64.6478 72.7239 64.4097 72.77C64.4142 72.759 64.4167 72.7473 64.4168 72.7354L64.7373 72.5921C64.9618 72.4967 65.1464 72.3266 65.2599 72.1106C65.3734 71.8947 65.4088 71.6462 65.3601 71.4072C65.3264 71.2579 65.2601 71.118 65.1658 70.9975C65.0715 70.877 64.9517 70.7789 64.815 70.7103C64.6782 70.6417 64.5279 70.6043 64.375 70.6008C64.222 70.5973 64.0702 70.6278 63.9304 70.69L63.1746 71.0281C63.1746 71.0251 63.1746 71.0222 63.173 71.0192C63.1701 71.0131 63.1664 71.0074 63.162 71.0022C63.3482 70.8619 63.4814 70.6626 63.5398 70.4368C63.5982 70.2111 63.5784 69.9722 63.4836 69.7591C63.2737 69.1912 62.5298 69.1459 62.0379 69.3654L60.0617 70.1627L60.6582 69.5577C60.845 69.3604 60.9501 69.0996 60.952 68.8279C60.954 68.5562 60.8527 68.2938 60.6687 68.0939C60.57 67.9941 60.452 67.9154 60.322 67.8627C60.1919 67.8099 60.0524 67.7843 59.9121 67.7872C59.7717 67.7902 59.6334 67.8217 59.5057 67.8799C59.3779 67.938 59.2634 68.0216 59.169 68.1255L52.142 75.7998L54.5453 78.1144C55.2916 78.8334 56.2356 79.313 57.2563 79.4919C58.2769 79.6708 59.3278 79.5408 60.2741 79.1186L64.5571 77.1984C64.7817 77.103 64.9663 76.9329 65.0798 76.7169C65.1933 76.501 65.2287 76.2524 65.1799 76.0134C65.1313 75.7988 65.0154 75.6054 64.8492 75.4613C64.6829 75.3172 64.475 75.2299 64.2557 75.2123C64.2581 75.2004 64.2582 75.1882 64.2558 75.1763C64.2535 75.1644 64.2488 75.153 64.242 75.143C64.2353 75.1329 64.2266 75.1243 64.2165 75.1176C64.2064 75.1109 64.195 75.1063 64.1831 75.104L64.9739 74.7511C65.2243 74.6451 65.4251 74.4479 65.5357 74.1995C65.6463 73.9511 65.6584 73.6699 65.5695 73.4129Z" fill="#F1B7A0"/>
<path opacity="0.2" d="M61.7457 71.6775C61.723 71.6776 61.701 71.6697 61.6835 71.6553C61.666 71.6409 61.6541 71.6208 61.6499 71.5986C61.6457 71.5763 61.6494 71.5533 61.6603 71.5334C61.6713 71.5136 61.6889 71.4982 61.71 71.49L63.0467 70.9635C63.0586 70.9589 63.0712 70.9566 63.084 70.9568C63.0967 70.957 63.1093 70.9597 63.121 70.9648C63.1327 70.9699 63.1432 70.9772 63.1521 70.9864C63.161 70.9956 63.1679 71.0064 63.1726 71.0183C63.1773 71.0301 63.1796 71.0428 63.1793 71.0555C63.1791 71.0683 63.1764 71.0808 63.1713 71.0925C63.1662 71.1042 63.1589 71.1148 63.1497 71.1236C63.1406 71.1325 63.1298 71.1395 63.1179 71.1441L61.7812 71.6706C61.7699 71.6751 61.7578 71.6774 61.7457 71.6775Z" fill="#1F1625"/>
<path opacity="0.2" d="M62.4916 73.5677C62.4691 73.5676 62.4473 73.5597 62.43 73.5454C62.4126 73.5311 62.4008 73.5111 62.3965 73.4891C62.3923 73.467 62.3958 73.4441 62.4065 73.4243C62.4173 73.4045 62.4345 73.3891 62.4554 73.3807L64.2838 72.6452C64.3074 72.637 64.3332 72.6381 64.356 72.6484C64.3787 72.6587 64.3966 72.6774 64.406 72.7006C64.4153 72.7238 64.4153 72.7497 64.406 72.7729C64.3967 72.7961 64.3789 72.8148 64.3561 72.8252L62.528 73.5608C62.5163 73.5653 62.504 73.5676 62.4916 73.5677Z" fill="#1F1625"/>
<path opacity="0.2" d="M63.2891 75.6199C63.2664 75.6199 63.2443 75.612 63.2269 75.5974C63.2094 75.5828 63.1976 75.5626 63.1936 75.5402C63.1895 75.5178 63.1934 75.4948 63.2047 75.475C63.2159 75.4552 63.2337 75.44 63.255 75.432L64.1266 75.1049C64.1507 75.0958 64.1774 75.0967 64.2009 75.1073C64.2244 75.1179 64.2427 75.1374 64.2518 75.1615C64.2609 75.1856 64.2601 75.2123 64.2495 75.2358C64.2389 75.2593 64.2194 75.2776 64.1953 75.2867L63.3237 75.6138C63.3126 75.6179 63.3009 75.62 63.2891 75.6199Z" fill="#1F1625"/>
<path d="M67.6021 58.3676C67.5599 58.3676 67.5185 58.356 67.4826 58.334C67.4466 58.3121 67.4173 58.2806 67.3981 58.2431C66.8769 57.227 66.2285 55.9621 66.3017 54.6362C66.3599 53.5816 66.8543 52.6448 67.3317 51.74C67.6403 51.193 67.9033 50.6216 68.118 50.0315C68.38 49.2172 68.446 48.3526 68.3108 47.5079C68.1756 46.6633 67.8429 45.8625 67.3397 45.1707C67.3209 45.1466 67.3071 45.119 67.2991 45.0895C67.2911 45.06 67.2891 45.0291 67.2933 44.9988C67.2974 44.9685 67.3075 44.9394 67.3231 44.913C67.3387 44.8867 67.3594 44.8638 67.384 44.8456C67.4086 44.8275 67.4366 44.8144 67.4664 44.8072C67.4961 44.8001 67.527 44.7989 67.5572 44.8039C67.5873 44.8088 67.6162 44.8198 67.6421 44.8361C67.668 44.8524 67.6903 44.8737 67.7078 44.8988C68.2543 45.6495 68.6159 46.5187 68.763 47.4355C68.9102 48.3523 68.8388 49.291 68.5547 50.175C68.3324 50.7895 68.0594 51.3845 67.7385 51.9538C67.2624 52.8554 66.8128 53.7068 66.7602 54.6616C66.6938 55.8635 67.2853 57.0169 67.8069 58.0343C67.8248 58.0692 67.8334 58.1081 67.8319 58.1472C67.8305 58.1864 67.819 58.2245 67.7986 58.258C67.7781 58.2914 67.7495 58.319 67.7153 58.3382C67.6811 58.3574 67.6426 58.3675 67.6034 58.3676H67.6021Z" fill="white"/>
<path d="M71.2775 61.9401C71.2267 61.9401 71.1774 61.9233 71.1373 61.8922C71.0972 61.8611 71.0685 61.8176 71.0558 61.7684C71.0432 61.7193 71.0472 61.6674 71.0672 61.6208C71.0873 61.5741 71.1223 61.5355 71.1667 61.511C72.0149 61.0431 72.1099 59.7409 71.7114 58.7523C71.5138 58.2979 71.2825 57.8589 71.0195 57.4389C70.6679 56.8948 70.3821 56.3108 70.168 55.6994C69.9494 54.9539 69.9357 54.1632 70.1283 53.4106C70.3209 52.6579 70.7127 51.9711 71.2626 51.4223C71.3063 51.3806 71.3646 51.3579 71.4249 51.3591C71.4853 51.3603 71.5427 51.3852 71.5848 51.4285C71.6268 51.4718 71.65 51.53 71.6494 51.5903C71.6488 51.6506 71.6243 51.7083 71.5814 51.7507C71.0912 52.2402 70.7418 52.8527 70.57 53.5238C70.3983 54.195 70.4105 54.9 70.6054 55.5648C70.809 56.1416 71.0801 56.6924 71.4132 57.2055C71.6885 57.645 71.9301 58.1048 72.1358 58.5809C72.6025 59.7384 72.4986 61.299 71.3876 61.9115C71.3538 61.9302 71.316 61.94 71.2775 61.9401Z" fill="white"/>
<path d="M60.199 81.8923L26.4944 95.8411C25.2792 96.3385 23.9455 96.4712 22.6561 96.2229C21.3667 95.9747 20.1775 95.3563 19.2339 94.4432C18.2903 93.5301 17.633 92.362 17.3425 91.0815C17.0519 89.8009 17.1407 88.4635 17.5978 87.2326L27.6503 59.776C28.95 56.2766 32.6111 54.2644 36.1107 55.5643C37.7911 56.1885 39.1547 57.4546 39.9016 59.0841C40.6485 60.7137 40.7175 62.5732 40.0934 64.2536L35.5082 77.249L55.2617 69.6335" fill="#FB813E"/>
<path d="M60.1167 82.0168C60.0988 82.0167 60.0813 82.0112 60.0664 82.0012C60.0515 81.9912 60.0399 81.9771 60.033 81.9605L55.1289 69.7834L35.4416 77.3813C35.4253 77.3876 35.4075 77.389 35.3904 77.3854C35.3733 77.3818 35.3576 77.3733 35.3453 77.3609C35.333 77.3485 35.3245 77.3328 35.321 77.3157C35.3174 77.2986 35.3189 77.2808 35.3253 77.2645L38.3696 69.451C38.3783 69.4288 38.3954 69.4109 38.4173 69.4013C38.4392 69.3917 38.464 69.3912 38.4862 69.3999C38.5085 69.4085 38.5264 69.4257 38.5359 69.4476C38.5455 69.4695 38.5461 69.4942 38.5374 69.5165L35.5673 77.1393L55.147 69.5829C55.1691 69.5744 55.1936 69.5749 55.2153 69.5843C55.2371 69.5937 55.2542 69.6113 55.2631 69.6332L60.2003 81.893C60.2089 81.9152 60.2085 81.9399 60.1992 81.9618C60.1898 81.9837 60.1723 82.0012 60.1504 82.0104C60.1397 82.0146 60.1283 82.0168 60.1167 82.0168Z" fill="#1F1625"/>
<path d="M29.2586 79.7991C29.2375 79.7992 29.217 79.792 29.2007 79.7786C29.1844 79.7652 29.1733 79.7466 29.1694 79.7258C29.1655 79.7051 29.169 79.6837 29.1792 79.6653C29.1895 79.6469 29.2059 79.6326 29.2256 79.6251L35.3918 77.1988C35.4028 77.1943 35.4147 77.192 35.4266 77.192C35.4386 77.1921 35.4504 77.1946 35.4614 77.1993C35.4724 77.2039 35.4824 77.2108 35.4907 77.2193C35.4991 77.2279 35.5056 77.238 35.51 77.2492C35.5144 77.2603 35.5165 77.2722 35.5163 77.2841C35.516 77.2961 35.5134 77.3078 35.5085 77.3188C35.5037 77.3297 35.4967 77.3396 35.488 77.3478C35.4794 77.356 35.4691 77.3624 35.4579 77.3666L29.2916 79.7929C29.281 79.7969 29.2699 79.799 29.2586 79.7991Z" fill="#1F1625"/>
<path d="M30.6946 94.2122C30.6737 94.2123 30.6535 94.2052 30.6373 94.1919C30.6211 94.1787 30.61 94.1603 30.606 94.1398C30.6019 94.1193 30.6051 94.098 30.615 94.0796C30.6249 94.0612 30.6409 94.0468 30.6603 94.039L60.0834 81.8435C60.0943 81.839 60.106 81.8367 60.1178 81.8367C60.1296 81.8367 60.1413 81.8391 60.1523 81.8436C60.1632 81.8482 60.1731 81.8548 60.1814 81.8632C60.1898 81.8716 60.1964 81.8815 60.2009 81.8924C60.2054 81.9033 60.2077 81.915 60.2077 81.9269C60.2077 81.9387 60.2053 81.9504 60.2008 81.9613C60.1963 81.9722 60.1896 81.9821 60.1813 81.9905C60.1729 81.9988 60.163 82.0054 60.152 82.0099L30.729 94.2054C30.7181 94.21 30.7064 94.2123 30.6946 94.2122Z" fill="#1F1625"/>
<path d="M180.073 167.61C180.012 167.61 179.954 167.585 179.911 167.543C179.588 167.22 179.063 161.303 177.647 143.687C177.067 136.478 176.52 129.67 176.121 125.532C176.092 125.236 175.978 125.202 175.94 125.191C175.393 125.026 173.731 126.337 172.803 127.485C172.764 127.532 172.709 127.562 172.649 127.568C172.588 127.575 172.528 127.557 172.481 127.519C172.433 127.481 172.403 127.425 172.397 127.365C172.39 127.305 172.408 127.244 172.446 127.197C173.06 126.438 175.061 124.448 176.072 124.752C176.276 124.813 176.529 124.991 176.577 125.488C176.976 129.629 177.524 136.44 178.103 143.65C178.964 154.355 179.938 166.483 180.259 167.247C180.283 167.281 180.298 167.322 180.301 167.364C180.304 167.406 180.296 167.448 180.276 167.485C180.257 167.523 180.228 167.554 180.192 167.576C180.156 167.598 180.115 167.61 180.073 167.61Z" fill="#1F1625"/>
<path d="M175.533 133.124C179.331 130.08 180.59 125.341 178.345 122.54C176.099 119.739 171.2 119.936 167.402 122.981C163.604 126.025 162.345 130.764 164.59 133.565C166.835 136.366 171.735 136.169 175.533 133.124Z" fill="#4E1AC7"/>
<path opacity="0.2" d="M175.533 133.124C179.331 130.08 180.59 125.341 178.345 122.54C176.099 119.739 171.2 119.936 167.402 122.981C163.604 126.025 162.345 130.764 164.59 133.565C166.835 136.366 171.735 136.169 175.533 133.124Z" fill="white"/>
<path d="M165.655 134.278C165.633 134.278 165.612 134.272 165.593 134.26C165.575 134.248 165.56 134.232 165.551 134.212C165.542 134.192 165.539 134.17 165.541 134.149C165.544 134.127 165.553 134.107 165.567 134.09L176.392 121.037C176.401 121.025 176.413 121.015 176.426 121.008C176.439 121 176.454 120.996 176.469 120.994C176.484 120.993 176.5 120.994 176.514 120.999C176.529 121.003 176.542 121.011 176.554 121.02C176.566 121.03 176.575 121.042 176.582 121.055C176.589 121.069 176.594 121.084 176.595 121.099C176.596 121.114 176.594 121.129 176.59 121.144C176.585 121.158 176.577 121.171 176.568 121.183L165.743 134.236C165.732 134.249 165.719 134.26 165.704 134.267C165.688 134.274 165.672 134.278 165.655 134.278Z" fill="white"/>
<path d="M182.434 164.811C182.397 164.811 182.361 164.802 182.329 164.786C182.296 164.769 182.268 164.745 182.247 164.715C182.226 164.685 182.212 164.651 182.207 164.615C182.202 164.578 182.205 164.541 182.217 164.507L186.284 152.813C186.403 152.47 186.607 152.162 186.877 151.918C187.146 151.673 187.473 151.5 187.827 151.415C188.18 151.33 188.55 151.334 188.901 151.429C189.253 151.523 189.575 151.704 189.838 151.956L191.988 154.009C192.031 154.051 192.057 154.109 192.058 154.17C192.06 154.23 192.037 154.289 191.995 154.333C191.953 154.377 191.895 154.402 191.835 154.404C191.774 154.405 191.715 154.382 191.671 154.34L189.522 152.287C189.314 152.089 189.06 151.946 188.782 151.871C188.505 151.797 188.213 151.793 187.934 151.86C187.655 151.928 187.397 152.064 187.184 152.257C186.972 152.45 186.81 152.693 186.716 152.964L182.65 164.657C182.634 164.702 182.605 164.741 182.566 164.769C182.528 164.796 182.481 164.811 182.434 164.811Z" fill="#1F1625"/>
<path d="M197.994 160.483C200.808 158.255 200.641 153.355 197.62 149.538C194.599 145.721 189.868 144.433 187.053 146.661C184.238 148.89 184.405 153.79 187.427 157.607C190.448 161.424 195.179 162.712 197.994 160.483Z" fill="#4E1AC7"/>
<path d="M178.226 166.864C178.174 166.864 178.124 166.846 178.084 166.815C178.043 166.783 178.015 166.738 178.003 166.688L171.18 138.158C171.133 137.963 171.034 137.786 170.893 137.644C170.751 137.502 170.574 137.402 170.38 137.355C170.185 137.308 169.982 137.315 169.791 137.376C169.601 137.437 169.431 137.549 169.3 137.7L167.197 140.131C167.177 140.153 167.153 140.172 167.126 140.186C167.099 140.199 167.07 140.207 167.04 140.209C167.01 140.211 166.98 140.208 166.951 140.198C166.923 140.189 166.896 140.174 166.874 140.154C166.851 140.134 166.832 140.11 166.819 140.084C166.805 140.057 166.797 140.027 166.795 139.997C166.793 139.967 166.797 139.937 166.806 139.909C166.816 139.88 166.831 139.854 166.85 139.831L168.954 137.4C169.14 137.186 169.381 137.027 169.652 136.94C169.923 136.854 170.212 136.844 170.488 136.912C170.764 136.979 171.016 137.121 171.216 137.322C171.417 137.524 171.558 137.776 171.624 138.052L178.447 166.583C178.461 166.642 178.452 166.704 178.42 166.756C178.388 166.807 178.337 166.844 178.278 166.858C178.261 166.862 178.243 166.864 178.226 166.864Z" fill="#1F1625"/>
<path d="M175.709 146.469C176.538 141.672 174.343 137.288 170.806 136.676C167.268 136.064 163.728 139.457 162.899 144.253C162.069 149.05 164.265 153.434 167.802 154.046C171.339 154.658 174.879 151.265 175.709 146.469Z" fill="#4E1AC7"/>
<path d="M180.073 167.61C180.064 167.61 180.054 167.609 180.045 167.608C179.985 167.6 179.93 167.569 179.892 167.522C179.855 167.474 179.838 167.413 179.845 167.353L184.203 131.975C184.25 131.59 184.408 131.226 184.657 130.928C184.906 130.63 185.236 130.411 185.607 130.296C185.978 130.181 186.375 130.176 186.749 130.281C187.123 130.386 187.458 130.597 187.715 130.888L192.695 136.529C192.736 136.574 192.756 136.634 192.752 136.694C192.749 136.755 192.721 136.812 192.675 136.852C192.63 136.892 192.57 136.912 192.51 136.909C192.449 136.905 192.392 136.877 192.352 136.832L187.372 131.191C187.173 130.966 186.914 130.803 186.625 130.721C186.336 130.64 186.029 130.644 185.742 130.733C185.455 130.822 185.2 130.992 185.008 131.223C184.815 131.453 184.694 131.734 184.657 132.032L180.299 167.409C180.292 167.464 180.266 167.515 180.224 167.552C180.182 167.589 180.129 167.609 180.073 167.61Z" fill="#1F1625"/>
<path d="M197.802 139.663C199.54 136.522 197.496 132.065 193.236 129.709C188.976 127.353 184.115 127.989 182.377 131.13C180.639 134.272 182.684 138.728 186.944 141.085C191.203 143.441 196.065 142.804 197.802 139.663Z" fill="#4E1AC7"/>
<path opacity="0.2" d="M197.994 160.483C200.808 158.255 200.641 153.355 197.62 149.538C194.599 145.721 189.868 144.433 187.053 146.661C184.238 148.89 184.405 153.79 187.427 157.607C190.448 161.424 195.179 162.712 197.994 160.483Z" fill="white"/>
<path opacity="0.5" d="M175.709 146.469C176.538 141.672 174.343 137.288 170.806 136.676C167.268 136.064 163.728 139.457 162.899 144.253C162.069 149.05 164.265 153.434 167.802 154.046C171.339 154.658 174.879 151.265 175.709 146.469Z" fill="white"/>
<path opacity="0.5" d="M197.802 139.663C199.54 136.522 197.496 132.065 193.236 129.709C188.976 127.353 184.115 127.989 182.377 131.13C180.639 134.272 182.684 138.728 186.944 141.085C191.203 143.441 196.065 142.804 197.802 139.663Z" fill="white"/>
<path d="M185.646 197.627H174.5L172.653 161.964H187.493L185.646 197.627Z" fill="#1F1625"/>
<path opacity="0.3" d="M185.646 197.627H174.5L172.653 161.964H187.493L185.646 197.627Z" fill="white"/>
<path d="M197.994 160.597C197.976 160.597 197.959 160.593 197.944 160.585C197.928 160.578 197.915 160.567 197.904 160.553L186.963 146.731C186.944 146.707 186.935 146.677 186.939 146.647C186.942 146.617 186.958 146.589 186.981 146.57C187.005 146.551 187.035 146.543 187.066 146.546C187.096 146.55 187.123 146.565 187.142 146.589L198.083 160.411C198.097 160.428 198.105 160.448 198.107 160.469C198.11 160.491 198.106 160.512 198.097 160.532C198.087 160.551 198.073 160.568 198.055 160.579C198.036 160.59 198.015 160.597 197.994 160.597Z" fill="white"/>
<path d="M197.075 140.77C197.051 140.77 197.027 140.762 197.008 140.748L183.007 130.525C182.995 130.517 182.985 130.505 182.977 130.493C182.969 130.48 182.964 130.465 182.961 130.451C182.959 130.436 182.96 130.421 182.963 130.406C182.967 130.391 182.973 130.378 182.982 130.365C182.991 130.353 183.002 130.343 183.015 130.335C183.028 130.327 183.042 130.322 183.057 130.32C183.072 130.318 183.087 130.318 183.101 130.322C183.116 130.325 183.13 130.332 183.142 130.341L197.142 140.564C197.162 140.578 197.176 140.598 197.183 140.621C197.19 140.644 197.19 140.668 197.183 140.691C197.175 140.714 197.161 140.733 197.141 140.747C197.122 140.762 197.099 140.769 197.075 140.77V140.77Z" fill="white"/>
<path d="M167.233 153.897C167.223 153.897 167.213 153.896 167.203 153.893C167.174 153.885 167.149 153.866 167.134 153.84C167.119 153.814 167.115 153.782 167.122 153.753L171.579 137.055C171.583 137.04 171.59 137.026 171.599 137.014C171.608 137.002 171.619 136.991 171.632 136.984C171.645 136.976 171.66 136.971 171.675 136.969C171.69 136.967 171.705 136.968 171.72 136.972C171.735 136.976 171.748 136.982 171.76 136.992C171.772 137.001 171.783 137.013 171.79 137.026C171.797 137.039 171.802 137.054 171.804 137.069C171.806 137.084 171.805 137.099 171.801 137.114L167.344 153.812C167.337 153.837 167.323 153.858 167.303 153.873C167.283 153.889 167.258 153.897 167.233 153.897Z" fill="white"/>
</g>
<defs>
<clipPath id="clip0_388_1280">
<rect width="200" height="197.254" fill="white" transform="translate(0 0.373138)"/>
</clipPath>
</defs>
</svg>
