<svg width="14" height="15" viewBox="0 0 14 15" fill="none" xmlns="http://www.w3.org/2000/svg">
<path fill-rule="evenodd" clip-rule="evenodd" d="M0.25 7.5C0.25 3.77208 3.27208 0.75 7 0.75C10.7279 0.75 13.75 3.77208 13.75 7.5V8.5C13.75 9.83468 12.668 10.9167 11.3333 10.9167C10.538 10.9167 9.83245 10.5325 9.39205 9.93959C8.77573 10.544 7.93138 10.9167 7 10.9167C5.11302 10.9167 3.58333 9.38694 3.58333 7.5C3.58333 5.61303 5.11303 4.08333 7 4.08333C8.88694 4.08333 10.4167 5.61302 10.4167 7.5V8.5C10.4167 9.00625 10.8271 9.41667 11.3333 9.41667C11.8396 9.41667 12.25 9.00625 12.25 8.5V7.5C12.25 4.6005 9.89952 2.25 7 2.25C4.10051 2.25 1.75 4.60051 1.75 7.5C1.75 10.3995 4.1005 12.75 7 12.75H9.66667C10.0809 12.75 10.4167 13.0858 10.4167 13.5C10.4167 13.9142 10.0809 14.25 9.66667 14.25H7C3.27208 14.25 0.25 11.2279 0.25 7.5ZM8.91667 7.5C8.91667 6.44146 8.05853 5.58333 7 5.58333C5.94145 5.58333 5.08333 6.44145 5.08333 7.5C5.08333 8.55853 5.94146 9.41667 7 9.41667C8.05852 9.41667 8.91667 8.55852 8.91667 7.5Z" fill="#1F1625"/>
</svg>
