<svg width="65" height="64" viewBox="0 0 65 64" fill="none" xmlns="http://www.w3.org/2000/svg">
<g clip-path="url(#clip0_25_768)">
<rect x="0.5" width="64" height="64" rx="32" fill="black"/>
<path d="M50 23.5616V31.4061C46.4729 31.0562 43.1097 29.7438 40.2778 27.6122V36.3629C40.2772 38.7375 39.6079 41.0639 38.3463 43.0757C37.0848 45.0874 35.2822 46.7031 33.1449 47.7375C31.0076 48.772 28.6222 49.1835 26.2619 48.9248C23.9016 48.666 21.662 47.7476 19.7995 46.2748C17.937 44.8019 16.527 42.8341 15.7312 40.5969C14.9353 38.3596 14.7857 35.9434 15.2994 33.6251C15.8132 31.3067 16.9696 29.18 18.6361 27.4886C20.3026 25.7971 22.4119 24.6093 24.7222 24.0614V32.4737C24.0593 32.9709 23.5345 33.6293 23.1977 34.3864C22.8608 35.1435 22.723 35.9742 22.7974 36.7995C22.8718 37.6248 23.156 38.4174 23.6228 39.102C24.0897 39.7867 24.7238 40.3406 25.4649 40.7112C26.2061 41.0818 27.0296 41.2567 27.8574 41.2195C28.6852 41.1822 29.4897 40.934 30.1945 40.4983C30.8994 40.0627 31.4812 39.4541 31.8847 38.7303C32.2882 38.0065 32.5 37.1916 32.5 36.3629V14H40.4392C40.844 16.3888 41.9818 18.5924 43.6949 20.3056C45.408 22.0188 47.6114 23.1567 50 23.5616Z" stroke="white" stroke-width="2" stroke-linecap="round" stroke-linejoin="round"/>
</g>
<defs>
<clipPath id="clip0_25_768">
<rect x="0.5" width="64" height="64" rx="32" fill="white"/>
</clipPath>
</defs>
</svg>
