<svg width="80" height="64" viewBox="0 0 80 64" fill="none" xmlns="http://www.w3.org/2000/svg">
<g clip-path="url(#clip0_1824_4036)">
<path d="M80 -8H0V72H80V-8Z" fill="white"/>
<path d="M38.2385 40.0781L32.2396 46.0769C31.3589 46.9576 30.0813 47.521 28.7959 47.521C27.5104 47.521 26.3123 47.037 25.3521 46.0769C23.4319 44.1566 23.4319 41.1175 25.3521 39.1973C36.5562 27.9931 35.9135 28.6359 36.1516 28.3978C38.0718 26.7156 40.9522 26.795 42.7931 28.6359C43.9119 29.7547 44.396 31.2782 44.15 32.7144L46.713 30.1515C46.3956 28.8739 45.6735 27.6678 44.7134 26.7156C41.833 23.8352 37.191 23.7559 34.152 26.4776C33.8346 26.7156 34.7947 25.8348 23.3525 37.277C21.9163 38.7132 21.1149 40.6335 21.1149 42.6331C21.1149 44.6327 21.9163 46.553 23.3525 47.9892C24.7887 49.4254 26.709 50.2268 28.7086 50.2268C30.7082 50.2268 32.6285 49.4254 34.0726 47.9892L42.3964 39.8321C41.0395 40.2288 39.5953 40.3082 38.2385 40.0701V40.0781Z" fill="#FB813E"/>
<path d="M50.4027 13.4404C48.4031 13.4404 46.4828 14.2419 45.0466 15.6781L36.8895 23.8352C38.3257 23.4384 39.6905 23.3591 40.968 23.5971L46.9668 17.5983C48.8871 15.6781 51.9262 15.6781 53.8464 17.5983C55.7667 19.5186 55.7667 22.5577 53.8464 24.4779C42.4836 35.8407 43.285 35.1187 43.047 35.2774C42.1662 36.0788 41.0474 36.4755 39.8492 36.4755C36.8895 36.4755 34.6518 33.9126 35.0486 30.9528L32.4856 33.5158C32.803 34.7933 33.5251 35.9994 34.4852 36.9596C37.4449 39.9193 42.2456 39.9193 45.2053 36.9596L55.7667 26.3982C58.7264 23.4384 58.7264 18.6378 55.7667 15.6781C54.3305 14.2419 52.4102 13.4404 50.4027 13.4404Z" fill="#FB813E"/>
<path d="M36.8816 29.12C35.6041 30.6435 35.6834 32.9605 37.1197 34.3173C38.5638 35.7536 40.8015 35.8408 42.317 34.5554C43.5946 33.0319 43.5152 30.7149 42.079 29.358C40.7221 27.9138 38.3972 27.8345 36.8816 29.12Z" fill="#4E1AC7"/>
<path d="M22.6383 24.8828C24.3205 24.8828 25.6774 23.526 25.6774 21.8438C25.6774 20.1616 24.3205 18.8047 22.6383 18.8047C20.9561 18.8047 19.5992 20.1616 19.5992 21.8438C19.5992 23.526 20.9561 24.8828 22.6383 24.8828Z" fill="#4E1AC7"/>
<path d="M54.878 41.3633C53.6005 41.3633 52.6404 42.4028 52.6404 43.6009C52.6404 44.7991 53.6799 45.8386 54.878 45.8386C56.0762 45.8386 57.1157 44.7991 57.1157 43.6009C57.1157 42.4028 56.0762 41.3633 54.878 41.3633Z" fill="#4E1AC7"/>
<path d="M59.3612 30.3975C59.758 30.3975 60.0833 30.7228 60.0833 31.1195C60.0833 31.5163 59.758 31.8416 59.3612 31.8416C58.9645 31.8416 58.6392 31.5163 58.6392 31.1195C58.6392 30.7228 58.9645 30.3975 59.3612 30.3975Z" fill="#4E1AC7"/>
<path d="M40.4047 11.3613C40.8014 11.3613 41.1268 11.6867 41.1268 12.0834C41.1268 12.4802 40.8014 12.8055 40.4047 12.8055C40.0079 12.8055 39.6826 12.4802 39.6826 12.0834C39.6826 11.6867 40.0079 11.3613 40.4047 11.3613Z" fill="#4E1AC7"/>
<path d="M29.2799 12.877C29.6767 12.877 30.002 13.2023 30.002 13.599C30.002 13.9958 29.6767 14.3211 29.2799 14.3211C28.8832 14.3211 28.5579 13.9958 28.5579 13.599C28.5579 13.2023 28.8832 12.877 29.2799 12.877Z" fill="#4E1AC7"/>
<path d="M19.8373 30.3975C20.2341 30.3975 20.5594 30.7228 20.5594 31.1195C20.5594 31.5163 20.2341 31.8416 19.8373 31.8416C19.4406 31.8416 19.1152 31.5163 19.1152 31.1195C19.1152 30.7228 19.4406 30.3975 19.8373 30.3975Z" fill="#4E1AC7"/>
<path d="M48.8792 49.3613C49.2759 49.3613 49.6013 49.6867 49.6013 50.0834C49.6013 50.4802 49.2759 50.8055 48.8792 50.8055C48.4824 50.8055 48.1571 50.4802 48.1571 50.0834C48.1571 49.6867 48.4824 49.3613 48.8792 49.3613Z" fill="#4E1AC7"/>
<path d="M20.4007 50.4014C20.7974 50.4014 21.1227 50.7267 21.1227 51.1234C21.1227 51.5202 20.7974 51.8455 20.4007 51.8455C20.0039 51.8455 19.6786 51.5202 19.6786 51.1234C19.6786 50.7267 20.0039 50.4014 20.4007 50.4014Z" fill="#4E1AC7"/>
</g>
<defs>
<clipPath id="clip0_1824_4036">
<rect width="80" height="64" fill="white"/>
</clipPath>
</defs>
</svg>
