<svg width="86" height="86" viewBox="0 0 86 86" fill="none" xmlns="http://www.w3.org/2000/svg">
<rect x="1" y="1.00012" width="84" height="84" rx="12" stroke="#4E1AC7" stroke-linecap="round" stroke-dasharray="0.5 2"/>
<path d="M47.6463 46.1826L43.9974 42.3633C43.7582 42.1285 43.4399 41.9984 43.1095 42.0001C42.9494 41.9992 42.7907 42.0308 42.6425 42.0931C42.4943 42.1554 42.3595 42.2472 42.2459 42.3633L38.3537 46.3579C38.1272 46.5925 38 46.9099 38 47.2407C38 47.5716 38.1272 47.8889 38.3537 48.1236C38.5816 48.3568 38.8899 48.4877 39.2112 48.4877C39.5325 48.4877 39.8408 48.3568 40.0687 48.1236L41.8932 46.2452V54.7479C41.8932 55.08 42.0213 55.3985 42.2494 55.6334C42.4775 55.8682 42.7869 56.0001 43.1095 56.0001C43.4321 56.0001 43.7414 55.8682 43.9695 55.6334C44.1976 55.3985 44.3258 55.08 44.3258 54.7479V46.3078L45.9191 47.9483C46.0322 48.0656 46.1667 48.1588 46.315 48.2224C46.4632 48.2859 46.6222 48.3187 46.7827 48.3187C46.9433 48.3187 47.1023 48.2859 47.2505 48.2224C47.3987 48.1588 47.5332 48.0656 47.6463 47.9483C47.8728 47.7136 48 47.3963 48 47.0654C48 46.7346 47.8728 46.4172 47.6463 46.1826Z" fill="#4E1AC7"/>
<path d="M56 42.6721C56 44.3504 55.3165 45.9599 54.0999 47.1467C52.8834 48.3334 51.2333 49.0001 49.5128 49.0001H47.4628C47.954 48.8995 48.4046 48.6621 48.7603 48.3167C49.0015 48.0816 49.1929 47.8024 49.3235 47.4952C49.4541 47.1879 49.5213 46.8585 49.5213 46.5259C49.5213 46.1932 49.4541 45.8638 49.3235 45.5566C49.1929 45.2493 49.0015 44.9701 48.7603 44.735L44.8031 40.9382C44.5621 40.7029 44.2759 40.5162 43.9609 40.3888C43.6459 40.2614 43.3082 40.1958 42.9672 40.1958C42.6262 40.1958 42.2885 40.2614 41.9735 40.3888C41.6585 40.5162 41.3723 40.7029 41.1313 40.9382L37.0314 44.9122C36.7901 45.1473 36.5987 45.4265 36.4682 45.7337C36.3376 46.041 36.2704 46.3704 36.2704 46.703C36.2704 47.0357 36.3376 47.3651 36.4682 47.6723C36.5987 47.9796 36.7901 48.2588 37.0314 48.4939L37.252 48.6711C35.6267 48.2534 34.14 47.4322 32.9368 46.2875C31.7335 45.1429 30.8547 43.7137 30.386 42.1392C29.9173 40.5648 29.8747 38.8987 30.2622 37.3034C30.6498 35.7081 31.4543 34.2379 32.5975 33.036C33.7407 31.8342 35.1835 30.9417 36.7854 30.4454C38.3873 29.9491 40.0936 29.8661 41.7382 30.2043C43.3828 30.5425 44.9095 31.2905 46.1697 32.3753C47.4299 33.4602 48.3805 34.8449 48.9289 36.3947C49.1106 36.3947 49.2922 36.3947 49.4739 36.3947C51.1922 36.3846 52.8444 37.0399 54.0679 38.2168C55.2914 39.3937 55.9863 40.996 56 42.6721Z" fill="#4E1AC7"/>
</svg>
