<svg width="32" height="11" viewBox="0 0 32 11" fill="none" xmlns="http://www.w3.org/2000/svg">
<path d="M13.5617 10.569H11.0415L12.6178 0.84082H15.1379L13.5617 10.569Z" fill="white"/>
<path d="M22.6982 1.07774C22.2011 0.880905 21.4126 0.663574 20.4377 0.663574C17.9489 0.663574 16.1963 1.98819 16.1856 3.88199C16.1649 5.27923 17.4404 6.05529 18.3943 6.52117C19.3694 6.99724 19.7008 7.30796 19.7008 7.73231C19.6909 8.38402 18.9129 8.68443 18.1873 8.68443C17.1812 8.68443 16.642 8.52955 15.8227 8.16697L15.4909 8.01154L15.1382 10.1953C15.7293 10.4641 16.8183 10.7026 17.9489 10.713C20.5933 10.713 22.3149 9.40891 22.3353 7.39077C22.3454 6.28335 21.6719 5.4348 20.2198 4.7414C19.3384 4.29629 18.7985 3.99615 18.7985 3.54072C18.8089 3.1267 19.2551 2.70263 20.2502 2.70263C21.0695 2.68186 21.6714 2.87842 22.1275 3.07511L22.3554 3.17841L22.6982 1.07774Z" fill="white"/>
<path d="M26.0476 7.12262C26.2552 6.56376 27.0538 4.40077 27.0538 4.40077C27.0433 4.42154 27.2609 3.83159 27.3854 3.46941L27.5615 4.30765C27.5615 4.30765 28.0388 6.63624 28.1424 7.12262C27.7485 7.12262 26.5454 7.12262 26.0476 7.12262ZM29.1585 0.84082H27.2091C26.608 0.84082 26.1513 1.01661 25.8919 1.64797L22.1484 10.5688H24.7928C24.7928 10.5688 25.2282 9.36814 25.3218 9.10954C25.6119 9.10954 28.1843 9.10954 28.5575 9.10954C28.6299 9.45108 28.8582 10.5688 28.8582 10.5688H31.1917L29.1585 0.84082Z" fill="white"/>
<path d="M8.93655 0.84082L6.46843 7.47448L6.19872 6.1291C5.74242 4.5767 4.31135 2.89005 2.71436 2.0514L4.97507 10.5586H7.64013L11.6015 0.84082H8.93655Z" fill="white"/>
<path d="M4.17684 0.84082H0.122048L0.0805664 1.03738C3.24355 1.84466 5.33834 3.79059 6.19899 6.12951L5.31753 1.65856C5.17241 1.03724 4.72644 0.861315 4.17684 0.84082Z" fill="white"/>
</svg>
