<svg width="25" height="24" viewBox="0 0 25 24" fill="none" xmlns="http://www.w3.org/2000/svg">
<rect x="0.666504" width="24" height="24" rx="8" fill="#E9E6EF"/>
<path fill-rule="evenodd" clip-rule="evenodd" d="M16.7414 14.8849C16.5727 15.3624 15.902 15.7575 15.3672 15.8731C15.0011 15.9508 14.5237 16.0123 12.9151 15.3457C11.1084 14.5971 8.59955 11.9308 8.59955 10.1564C8.59955 9.25313 9.12035 8.20131 10.0311 8.20131C10.4693 8.20131 10.5659 8.20986 10.7101 8.55576C10.8788 8.96329 11.2904 9.96736 11.3394 10.0703C11.5417 10.4925 11.1336 10.7397 10.8375 11.1073C10.743 11.2179 10.6359 11.3376 10.7556 11.5434C10.8746 11.7451 11.2862 12.4159 11.891 12.9544C12.6722 13.6504 13.3057 13.8726 13.5325 13.9672C13.7012 14.0372 13.9028 14.0209 14.026 13.8892C14.1821 13.7205 14.376 13.4405 14.5734 13.1646C14.7127 12.9671 14.8898 12.9425 15.0753 13.0125C15.2006 13.0559 16.7932 13.7955 16.8604 13.9138C16.9101 14 16.9101 14.4073 16.7414 14.8849ZM12.668 5H12.6645C8.80534 5 5.6665 8.13979 5.6665 12.0001C5.6665 13.5308 6.16002 14.9509 6.99933 16.1027L6.12711 18.7039L8.81725 17.8442C9.92397 18.5767 11.2449 19.0002 12.668 19.0002C16.5272 19.0002 19.6667 15.8604 19.6667 12.0001C19.6667 8.13979 16.5272 5 12.668 5Z" fill="#1F1625"/>
</svg>
