<svg width="14" height="15" viewBox="0 0 14 15" fill="none" xmlns="http://www.w3.org/2000/svg">
<path fill-rule="evenodd" clip-rule="evenodd" d="M11.0749 10.3849C10.9062 10.8624 10.2355 11.2575 9.70074 11.3731C9.33463 11.4508 8.85722 11.5123 7.2486 10.8457C5.44187 10.0971 2.93304 7.43078 2.93304 5.65642C2.93304 4.75313 3.45385 3.70131 4.36456 3.70131C4.80277 3.70131 4.89937 3.70986 5.04357 4.05576C5.21227 4.46329 5.62388 5.46736 5.67288 5.57029C5.87518 5.99252 5.46707 6.23969 5.17097 6.60731C5.07647 6.71794 4.96937 6.83759 5.08907 7.04345C5.20808 7.24512 5.61968 7.91594 6.22448 8.45441C7.0057 9.15043 7.63921 9.37264 7.86601 9.46716C8.03471 9.53719 8.23631 9.52088 8.35952 9.38923C8.51562 9.22048 8.70952 8.9405 8.90692 8.66461C9.04622 8.46715 9.22333 8.44249 9.40884 8.51251C9.53414 8.55593 11.1267 9.29551 11.1939 9.41384C11.2436 9.49997 11.2436 9.90735 11.0749 10.3849ZM7.0015 0.5H6.99799C3.13884 0.5 0 3.63979 0 7.5001C0 9.03078 0.493512 10.4509 1.33282 11.6027L0.46061 14.2039L3.15075 13.3442C4.25746 14.0767 5.57838 14.5002 7.0015 14.5002C10.8607 14.5002 14.0002 11.3604 14.0002 7.5001C14.0002 3.63979 10.8607 0.5 7.0015 0.5Z" fill="#1F1625"/>
</svg>
