<svg width="43" height="16" viewBox="0 0 43 16" fill="none" xmlns="http://www.w3.org/2000/svg">
<path d="M8.17413 2.06279C7.68195 2.60317 6.89428 3.02953 6.1067 2.96857C6.00826 2.23792 6.39381 1.46145 6.84506 0.981886C7.33725 0.426288 8.19874 0.0304437 8.89609 0C8.97812 0.761169 8.65812 1.50712 8.17413 2.06279ZM8.88797 3.11325C7.74757 3.05236 6.77132 3.71451 6.22983 3.71451C5.68022 3.71451 4.85153 3.14369 3.94911 3.15892C2.77598 3.17414 1.6848 3.79062 1.08588 4.77259C-0.14475 6.73643 0.765962 9.64419 1.9555 11.2426C2.538 12.0342 3.23535 12.902 4.15419 12.8715C5.02388 12.8411 5.36841 12.3464 6.41858 12.3464C7.47687 12.3464 7.78047 12.8715 8.6993 12.8563C9.65094 12.8411 10.2499 12.0648 10.8324 11.2731C11.4968 10.3749 11.7676 9.49951 11.784 9.45384C11.7676 9.43862 9.94634 8.79169 9.92993 6.84299C9.91353 5.2141 11.3656 4.4377 11.4313 4.39204C10.6108 3.26547 9.33102 3.14369 8.88797 3.11325ZM15.4759 0.905777V12.7727H17.4612V8.71558H20.2096C22.72 8.71558 24.4839 7.11713 24.4839 4.80311C24.4839 2.48915 22.7528 0.905853 20.2752 0.905853L15.4759 0.905777ZM17.4612 2.45863H19.7502C21.4731 2.45863 22.4575 3.31113 22.4575 4.81064C22.4575 6.31015 21.4731 7.17033 19.742 7.17033H17.4612V2.45863ZM28.1101 12.8639C29.3571 12.8639 30.5138 12.2779 31.0389 11.3492H31.0799V12.7726H32.9177V6.86582C32.9177 5.15321 31.4409 4.04947 29.1683 4.04947C27.0599 4.04947 25.5011 5.16843 25.4437 6.70599H27.2322C27.3799 5.97526 28.11 5.4957 29.1109 5.4957C30.3251 5.4957 31.0061 6.02093 31.0061 6.98767V7.64221L28.5284 7.77921C26.2231 7.90859 24.9761 8.784 24.9761 10.3064C24.9761 11.844 26.2641 12.8639 28.1101 12.8639ZM28.6433 11.4557C27.5851 11.4557 26.9122 10.9839 26.9122 10.2607C26.9122 9.5148 27.5604 9.0809 28.7992 9.01241L31.0061 8.88302V9.55278C31.0061 10.6641 29.9888 11.4557 28.6433 11.4557M35.3707 16C37.3069 16 38.2176 15.315 39.0133 13.2369L42.5 4.16363H40.4818L38.1436 11.1741H38.1026L35.7645 4.16363H33.6888L37.0525 12.803L36.872 13.3283C36.5685 14.2188 36.0762 14.5614 35.1984 14.5614C35.0425 14.5614 34.739 14.5462 34.6159 14.5309V15.9543C34.7307 15.9848 35.2229 16 35.3707 16" fill="white"/>
</svg>
