<svg width="48" height="49" viewBox="0 0 48 49" fill="none" xmlns="http://www.w3.org/2000/svg">
<path fill-rule="evenodd" clip-rule="evenodd" d="M15 36.5C16.6569 36.5 18 37.8432 18 39.5C18 41.1568 16.6569 42.5 15 42.5C13.3431 42.5 12 41.1568 12 39.5C12 37.8432 13.3431 36.5 15 36.5ZM33 36.5002C34.6568 36.5002 36 37.8432 36 39.5002C36 41.157 34.6568 42.5002 33 42.5002C31.3432 42.5002 30 41.157 30 39.5002C30 37.8432 31.3432 36.5002 33 36.5002Z" fill="#4E1AC7"/>
<path fill-rule="evenodd" clip-rule="evenodd" d="M6.08094 5.08532C5.2994 4.81054 4.4431 5.22136 4.16832 6.00288C3.89356 6.78442 4.30436 7.64072 5.0859 7.91548L5.60832 8.09916C6.94354 8.5686 7.82104 8.8797 8.46672 9.19652C9.07318 9.49408 9.34052 9.73494 9.51664 9.99266C9.69716 10.2568 9.83656 10.6197 9.91522 11.3464C9.99754 12.1068 9.99958 13.0972 9.99958 14.5771V19.7805C9.99958 25.6637 10.126 27.6051 11.8589 29.4329C13.5917 31.2605 16.3806 31.2605 21.9584 31.2605H32.5642C35.6862 31.2605 37.2472 31.2605 38.3506 30.3613C39.454 29.4621 39.7692 27.9333 40.3994 24.8755L41.399 20.026C42.0932 16.5479 42.4404 14.8088 41.5524 13.6546C40.6646 12.5005 37.631 12.5005 34.261 12.5005H12.9847C12.9713 11.9598 12.9459 11.4679 12.8978 11.0235C12.7903 10.0308 12.5575 9.12534 11.9935 8.30006C11.4252 7.46834 10.6695 6.93566 9.78822 6.50326C8.96406 6.09886 7.91678 5.7307 6.68374 5.29724L6.08094 5.08532ZM20.479 18.2499C20.3406 17.4331 19.5662 16.8832 18.7495 17.0216C17.9327 17.1599 17.3827 17.9342 17.5211 18.751L18.5774 24.9867C18.7158 25.8035 19.4901 26.3535 20.307 26.2151C21.1238 26.0767 21.6736 25.3025 21.5354 24.4857L20.479 18.2499ZM31.3072 17.0216C30.4904 16.8832 29.716 17.4331 29.5778 18.2499L28.5214 24.4857C28.383 25.3025 28.933 26.0767 29.7498 26.2151C30.5666 26.3535 31.3408 25.8035 31.4792 24.9867L32.5356 18.751C32.674 17.9342 32.124 17.1599 31.3072 17.0216Z" fill="#FB813E"/>
</svg>
