<svg width="40" height="40" viewBox="0 0 40 40" fill="none" xmlns="http://www.w3.org/2000/svg">
<g clip-path="url(#clip0_1700_1036)">
<rect width="40" height="40" rx="20" fill="#6C40B9"/>
<path d="M20 10C22.2902 9.99677 24.5116 10.7829 26.29 12.226C26.4023 12.317 26.4936 12.4312 26.5575 12.5608C26.6214 12.6904 26.6565 12.8323 26.6603 12.9768C26.6641 13.1213 26.6365 13.2648 26.5795 13.3976C26.5225 13.5304 26.4374 13.6493 26.33 13.746L24.82 15.108C24.6485 15.2625 24.4288 15.3528 24.1982 15.3638C23.9676 15.3747 23.7404 15.3055 23.555 15.168C22.5382 14.4207 21.3118 14.013 20.05 14.0028C18.7882 13.9927 17.5553 14.3806 16.5266 15.1114C15.4979 15.8422 14.7259 16.8787 14.3202 18.0736C13.9145 19.2684 13.8958 20.5608 14.2669 21.7668C14.6379 22.9729 15.3797 24.0313 16.3869 24.7915C17.394 25.5517 18.6152 25.9751 19.8767 26.0013C21.1383 26.0276 22.3761 25.6554 23.414 24.9378C24.4519 24.2202 25.2371 23.1936 25.658 22.004L25.659 22H21.999C21.7542 21.9997 21.5181 21.9097 21.3353 21.747C21.1524 21.5842 21.0356 21.3601 21.007 21.117L21 21V19C21 18.7348 21.1054 18.4804 21.2929 18.2929C21.4804 18.1054 21.7348 18 22 18H28.945C29.1912 18 29.4287 18.0908 29.6121 18.255C29.7955 18.4192 29.9119 18.6453 29.939 18.89C29.979 19.257 30 19.627 30 20C30 25.523 25.523 30 20 30C14.477 30 10 25.523 10 20C10 14.477 14.477 10 20 10Z" fill="white"/>
</g>
<defs>
<clipPath id="clip0_1700_1036">
<rect width="40" height="40" rx="20" fill="white"/>
</clipPath>
</defs>
</svg>
