<svg width="40" height="40" viewBox="0 0 40 40" fill="none" xmlns="http://www.w3.org/2000/svg">
<g clip-path="url(#clip0_1700_991)">
<rect width="40" height="40" rx="20" fill="#DD2A7B"/>
<path fill-rule="evenodd" clip-rule="evenodd" d="M14.8837 10.5349C13.7303 10.5349 12.6242 10.9931 11.8086 11.8086C10.9931 12.6242 10.5349 13.7303 10.5349 14.8837V25.1163C10.5349 26.2697 10.9931 27.3758 11.8086 28.1914C12.6242 29.0069 13.7303 29.4651 14.8837 29.4651H25.1163C26.2697 29.4651 27.3758 29.0069 28.1914 28.1914C29.0069 27.3758 29.4651 26.2697 29.4651 25.1163V14.8837C29.4651 13.7303 29.0069 12.6242 28.1914 11.8086C27.3758 10.9931 26.2697 10.5349 25.1163 10.5349H14.8837ZM10.7233 10.7233C11.8267 9.61989 13.3233 9 14.8837 9H25.1163C26.6767 9 28.1733 9.61989 29.2767 10.7233C30.3801 11.8267 31 13.3233 31 14.8837V25.1163C31 26.6767 30.3801 28.1733 29.2767 29.2767C28.1733 30.3801 26.6767 31 25.1163 31H14.8837C13.3233 31 11.8267 30.3801 10.7233 29.2767C9.61989 28.1733 9 26.6767 9 25.1163V14.8837C9 13.3233 9.61989 11.8267 10.7233 10.7233Z" fill="white"/>
<path fill-rule="evenodd" clip-rule="evenodd" d="M16.4645 16.4645C17.4021 15.5268 18.6739 15 20 15C21.3261 15 22.5979 15.5268 23.5355 16.4645C24.4732 17.4021 25 18.6739 25 20C25 21.3261 24.4732 22.5979 23.5355 23.5355C22.5979 24.4732 21.3261 25 20 25C18.6739 25 17.4021 24.4732 16.4645 23.5355C15.5268 22.5979 15 21.3261 15 20C15 18.6739 15.5268 17.4021 16.4645 16.4645ZM20 16.6667C19.1159 16.6667 18.2681 17.0179 17.643 17.643C17.0179 18.2681 16.6667 19.1159 16.6667 20C16.6667 20.8841 17.0179 21.7319 17.643 22.357C18.2681 22.9821 19.1159 23.3333 20 23.3333C20.8841 23.3333 21.7319 22.9821 22.357 22.357C22.9821 21.7319 23.3333 20.8841 23.3333 20C23.3333 19.1159 22.9821 18.2681 22.357 17.643C21.7319 17.0179 20.8841 16.6667 20 16.6667Z" fill="white"/>
<path fill-rule="evenodd" clip-rule="evenodd" d="M26 13C26.5523 13 27 13.444 27 13.9917V14.0083C27 14.556 26.5523 15 26 15C25.4477 15 25 14.556 25 14.0083V13.9917C25 13.444 25.4477 13 26 13Z" fill="white"/>
</g>
<defs>
<clipPath id="clip0_1700_991">
<rect width="40" height="40" rx="20" fill="white"/>
</clipPath>
</defs>
</svg>
