<svg width="40" height="40" viewBox="0 0 40 40" fill="none" xmlns="http://www.w3.org/2000/svg">
<g clip-path="url(#clip0_1700_1008)">
<rect width="40" height="40" rx="20" fill="#FFEE58"/>
<path d="M25.933 14.683C25.933 13.1095 25.3079 11.6004 24.1953 10.4877C23.0826 9.37508 21.5735 8.75 20 8.75C18.4265 8.75 16.9174 9.37508 15.8047 10.4877C14.6921 11.6004 14.067 13.1095 14.067 14.683C14.067 19.8759 13.8082 22.4717 9.0625 24.5486C11.4931 25.6205 11.4931 25.6205 12.7083 28.1944C16.3542 28.1944 17.5694 30.625 20 30.625C22.4306 30.625 23.6458 28.1944 27.2917 28.1944C28.5069 25.6205 28.5069 25.6205 30.9375 24.5486C26.1906 22.4717 25.933 19.8759 25.933 14.683Z" fill="white" stroke="black" stroke-linecap="round" stroke-linejoin="round"/>
</g>
<defs>
<clipPath id="clip0_1700_1008">
<rect width="40" height="40" rx="20" fill="white"/>
</clipPath>
</defs>
</svg>
