<svg width="40" height="40" viewBox="0 0 40 40" fill="none" xmlns="http://www.w3.org/2000/svg">
<g clip-path="url(#clip0_1700_1022)">
<rect width="40" height="40" rx="20" fill="#13C3BE"/>
<path d="M24.4944 9H20.0053C19.7137 9 19.434 9.11589 19.2278 9.32218C19.0216 9.52847 18.9058 9.80826 18.9058 10.1V22.75C18.9059 23.0241 18.8378 23.2939 18.7076 23.535C18.5774 23.7761 18.3893 23.981 18.1601 24.1312C17.9309 24.2813 17.668 24.372 17.395 24.395C17.122 24.418 16.8476 24.3726 16.5966 24.2629C16.3455 24.1532 16.1258 23.9827 15.9571 23.7668C15.7884 23.5508 15.6762 23.2962 15.6305 23.026C15.5848 22.7558 15.6071 22.4784 15.6954 22.219C15.7837 21.9595 15.9352 21.7262 16.1362 21.54L16.2682 21.43C16.4045 21.3274 16.5151 21.1945 16.5913 21.0418C16.6674 20.889 16.707 20.7207 16.7068 20.55V15.7914C16.707 15.6254 16.6695 15.4614 16.5973 15.3119C16.5251 15.1624 16.42 15.0312 16.2899 14.9281C16.1598 14.8251 16.0081 14.7528 15.8461 14.7167C15.6841 14.6807 15.516 14.6818 15.3545 14.72C13.3854 15.1843 11.6556 16.3566 10.4943 18.0138C9.33287 19.671 8.82091 21.6975 9.05578 23.7078C9.29066 25.7181 10.256 27.5719 11.7681 28.9165C13.2802 30.261 15.2336 31.0026 17.2566 31L17.5238 30.9945C19.6632 30.9251 21.6918 30.0261 23.1807 28.4876C24.6697 26.9491 25.5023 24.8915 25.5026 22.75V19.78L25.8446 19.9483C27.0782 20.5313 28.4096 20.9031 29.7917 21.0406C29.9446 21.0558 30.099 21.0388 30.2449 20.9907C30.3908 20.9425 30.525 20.8643 30.6389 20.7611C30.7527 20.6578 30.8437 20.5319 30.9059 20.3913C30.9681 20.2508 31.0001 20.0987 31 19.945V15.5087C31 15.2486 30.9078 14.997 30.74 14.7985C30.5721 14.5999 30.3394 14.4673 30.083 14.4241C28.9579 14.2331 27.92 13.6969 27.113 12.8896C26.3059 12.0824 25.7697 11.0441 25.5785 9.9185C25.5356 9.66185 25.4031 9.42873 25.2046 9.26057C25.0062 9.0924 24.7545 9.00008 24.4944 9Z" fill="white"/>
</g>
<defs>
<clipPath id="clip0_1700_1022">
<rect width="40" height="40" rx="20" fill="white"/>
</clipPath>
</defs>
</svg>
