<svg width="65" height="64" viewBox="0 0 65 64" fill="none" xmlns="http://www.w3.org/2000/svg">
<g clip-path="url(#clip0_25_768)">
<rect x="0.5" y="0.00012207" width="64" height="64" rx="32" fill="black"/>
<path d="M50 23.5617V31.4062C46.4729 31.0563 43.1097 29.7439 40.2778 27.6123V36.363C40.2772 38.7376 39.6079 41.0641 38.3463 43.0758C37.0848 45.0875 35.2822 46.7032 33.1449 47.7376C31.0076 48.7721 28.6222 49.1836 26.2619 48.9249C23.9016 48.6662 21.662 47.7478 19.7995 46.2749C17.937 44.802 16.527 42.8342 15.7312 40.597C14.9353 38.3598 14.7857 35.9436 15.2994 33.6252C15.8132 31.3069 16.9696 29.1801 18.6361 27.4887C20.3026 25.7972 22.4119 24.6095 24.7222 24.0615V32.4738C24.0593 32.971 23.5345 33.6294 23.1977 34.3865C22.8608 35.1436 22.723 35.9743 22.7974 36.7996C22.8718 37.6249 23.156 38.4175 23.6228 39.1022C24.0897 39.7868 24.7238 40.3407 25.4649 40.7113C26.2061 41.0819 27.0296 41.2569 27.8574 41.2196C28.6852 41.1824 29.4897 40.9341 30.1945 40.4985C30.8994 40.0628 31.4812 39.4542 31.8847 38.7304C32.2882 38.0066 32.5 37.1917 32.5 36.363V14.0001H40.4392C40.844 16.3889 41.9818 18.5925 43.6949 20.3057C45.408 22.0189 47.6114 23.1568 50 23.5617Z" stroke="white" stroke-width="2" stroke-linecap="round" stroke-linejoin="round"/>
</g>
<defs>
<clipPath id="clip0_25_768">
<rect x="0.5" y="0.00012207" width="64" height="64" rx="32" fill="white"/>
</clipPath>
</defs>
</svg>
