<svg width="40" height="40" viewBox="0 0 40 40" fill="none" xmlns="http://www.w3.org/2000/svg">
<g clip-path="url(#clip0_1700_1050)">
<rect width="40" height="40" rx="20" fill="#FF0808"/>
<path d="M25.4545 12C26.0515 12 26.6425 12.115 27.194 12.3383C27.7455 12.5617 28.2466 12.889 28.6687 13.3017C29.0908 13.7145 29.4256 14.2044 29.654 14.7436C29.8824 15.2829 30 15.8608 30 16.4444V23.5556C30 24.1392 29.8824 24.7171 29.654 25.2564C29.4256 25.7956 29.0908 26.2855 28.6687 26.6983C28.2466 27.111 27.7455 27.4383 27.194 27.6617C26.6425 27.885 26.0515 28 25.4545 28H14.5455C13.9485 28 13.3575 27.885 12.806 27.6617C12.2545 27.4383 11.7534 27.111 11.3313 26.6983C10.4789 25.8648 10 24.7343 10 23.5556V16.4444C10 15.2657 10.4789 14.1352 11.3313 13.3017C12.1838 12.4683 13.3399 12 14.5455 12H25.4545ZM17.2727 17.3333V22.6667C17.2729 22.8239 17.3156 22.9782 17.3966 23.114C17.4777 23.2498 17.5941 23.3621 17.734 23.4395C17.8739 23.517 18.0323 23.5567 18.1931 23.5548C18.3538 23.5528 18.5112 23.5092 18.6491 23.4284L23.1945 20.7618C23.329 20.6828 23.4402 20.5711 23.5174 20.4376C23.5946 20.3041 23.6352 20.1534 23.6352 20C23.6352 19.8466 23.5946 19.6959 23.5174 19.5624C23.4402 19.4289 23.329 19.3172 23.1945 19.2382L18.6491 16.5716C18.5112 16.4908 18.3538 16.4472 18.1931 16.4452C18.0323 16.4433 17.8739 16.483 17.734 16.5605C17.5941 16.6379 17.4777 16.7502 17.3966 16.886C17.3156 17.0218 17.2729 17.1761 17.2727 17.3333Z" fill="white"/>
</g>
<defs>
<clipPath id="clip0_1700_1050">
<rect width="40" height="40" rx="20" fill="white"/>
</clipPath>
</defs>
</svg>
